<svg width="108" height="302" viewBox="0 0 108 302" fill="none" xmlns="http://www.w3.org/2000/svg">
<path opacity="0.3" d="M112.192 135.576C103.858 139.169 98.0627 146.833 93.0813 154.114C94.5182 146.258 95.6199 138.307 96.482 130.403C96.5299 130.355 96.5299 130.355 96.5778 130.307C97.0089 130.307 97.44 130.212 97.8711 130.068C100.074 129.206 102.421 128.679 104.577 127.721C106.636 126.859 108.6 125.805 110.42 124.512C112.145 123.314 113.869 121.973 115.354 120.44C116.791 118.955 117.892 117.231 118.706 115.315C119.569 113.351 120.191 111.148 119.185 109.136C118.275 107.268 116.216 106.789 114.3 107.172C112.384 107.507 110.564 108.609 108.983 109.663C107.163 110.908 105.487 112.393 103.954 113.974C101.128 116.896 98.829 120.249 97.1047 123.937C97.7753 116.704 98.2542 109.423 98.5416 102.19C99.0206 102.286 99.5475 102.19 100.074 101.807C100.41 101.568 100.697 101.28 100.984 100.993C101.32 100.705 101.655 100.466 102.038 100.226C102.852 99.6038 103.715 99.029 104.529 98.4542C106.205 97.2567 107.882 96.0592 109.462 94.7659C110.947 93.5684 112.48 92.2751 113.677 90.7423C114.875 89.2574 115.785 87.5809 115.881 85.6649C115.976 84.1321 115.449 82.4557 113.869 81.9767C112.24 81.4498 110.277 82.4078 108.983 83.3179C107.498 84.2759 106.253 85.5212 105.104 86.8624C102.613 89.7364 100.362 92.8499 98.6853 96.2987C98.7332 93.0415 98.7811 89.7843 98.7332 86.5271C98.7332 84.7548 98.6853 82.9347 98.6374 81.1624C98.6853 81.1145 98.6853 81.0666 98.7332 81.0187C98.9727 80.5397 99.1643 80.0128 99.3559 79.4859C99.6912 78.5279 100.026 77.6178 100.362 76.6598C101.032 74.7438 101.655 72.8278 102.134 70.816C102.852 67.7983 103.331 64.4933 102.948 61.3798C102.805 60.1344 102.421 58.7453 101.224 58.0747C99.7391 57.3083 98.3979 58.3142 97.5358 59.4638C95.6678 61.9067 94.8535 65.2118 94.5182 68.1815C94.0393 72.5883 94.9493 76.9951 95.572 81.354C95.6199 81.6414 95.7636 81.8809 96.0031 82.0246V82.0725C96.051 82.312 96.1947 82.5036 96.3384 82.6473C96.2905 86.9582 96.2426 91.2692 96.1468 95.5802C94.7577 93.7121 93.0813 92.0356 91.2612 90.5507C89.8722 89.449 88.3874 88.491 86.8547 87.5809C85.4656 86.7187 83.7892 85.8565 82.0649 85.9044C80.5322 85.9523 79.0474 86.8145 78.5205 88.2994C78.0415 89.5448 78.4726 90.9339 78.9995 92.1314C79.5263 93.281 80.2927 94.3348 81.1549 95.2928C82.1128 96.3466 83.3102 97.113 84.4598 97.8794C86.0404 98.8853 87.7647 99.7475 89.5369 100.322C90.447 100.61 91.4049 100.849 92.315 100.993C93.4166 101.137 94.5182 101.184 95.572 101.328C95.6678 101.328 95.8115 101.376 95.9073 101.376C95.6199 108.705 95.1888 116.033 94.5182 123.314C94.4704 123.841 94.4225 124.416 94.3746 124.943C93.8956 124.272 93.4166 123.554 92.9376 122.835C91.7402 121.063 90.447 119.338 88.9621 117.71C87.5252 116.081 85.9925 114.596 84.3161 113.255C82.7834 112.01 81.1549 110.669 79.3827 109.806C78.5205 109.375 77.5626 109.088 76.5567 109.184C75.4551 109.327 74.545 109.95 73.9702 110.812C72.8686 112.441 73.2997 114.596 73.9702 116.273C75.4072 119.913 77.9936 122.596 81.2985 124.56C82.8792 125.47 84.5077 126.236 86.1841 127.002C88.1479 127.865 90.0638 128.727 92.0276 129.541C92.6024 129.781 93.225 130.02 93.7998 130.164C92.9376 138.163 91.7881 146.114 90.3512 154.018C90.1596 153.778 89.968 153.587 89.8243 153.347C89.8243 153.347 89.7764 153.251 89.7285 153.204C89.6806 153.156 89.6806 153.108 89.6327 153.06C89.5369 152.916 89.4411 152.772 89.2974 152.629C88.1 151 86.711 149.515 85.3219 148.078C83.5018 146.162 81.538 144.39 79.3827 142.857C77.8499 141.803 76.0777 140.702 74.2097 140.366C73.156 140.175 72.1022 140.271 71.1922 140.893C70.1863 141.612 69.7074 142.761 69.6595 143.959C69.6116 145.971 70.6174 148.174 71.6712 149.898C72.8207 151.767 74.545 153.204 76.413 154.305C78.281 155.407 80.3406 156.221 82.4002 156.892C83.3102 157.179 84.2203 157.419 85.1303 157.754C86.1841 158.137 87.2378 158.568 88.2916 158.808C88.6748 158.904 89.0579 158.952 89.4411 158.999C89.01 161.107 88.579 163.167 88.1479 165.274C87.6689 167.526 87.142 169.777 86.5673 171.98C86.3757 171.597 86.232 171.166 86.0404 170.783C85.753 170.112 85.274 169.489 84.843 168.867C83.3581 166.759 81.6817 164.843 79.8616 163.023C78.281 161.442 76.6046 159.814 74.6887 158.616C72.8207 157.467 70.33 156.796 68.3183 158.041C66.3066 159.287 66.163 161.73 67.073 163.741C67.9831 165.657 69.5637 167.238 71.1922 168.531C72.9165 169.873 74.8324 170.974 76.7962 171.932C78.9516 172.986 81.1549 173.944 83.3102 174.806C83.8371 175.046 84.4119 175.237 84.9388 175.381C85.0346 175.429 85.1782 175.429 85.3219 175.477C85.4177 175.621 85.4656 175.716 85.5614 175.86C83.6934 183.045 81.538 190.086 79.239 197.175C79.0953 196.984 78.9516 196.84 78.8079 196.649C77.4189 195.068 76.0298 193.439 74.545 191.954C73.0123 190.374 71.4317 188.937 69.6595 187.596C67.8394 186.206 65.7798 185.201 63.7202 184.29C62.5706 183.764 61.3732 183.524 60.1279 183.428C58.8825 183.332 57.3498 183.38 56.3919 184.195C54.6676 185.632 54.9549 187.835 55.9129 189.607C57.8288 193.104 61.1816 195.547 64.726 197.223C66.4982 198.086 68.3662 198.756 70.1863 199.379C71.1443 199.714 72.1022 200.002 73.0602 200.385C74.066 200.768 75.024 201.199 76.0777 201.534C76.6046 201.678 77.1315 201.822 77.7062 201.918C77.2273 203.307 76.7962 204.696 76.3172 206.085C74.0181 212.934 71.6233 219.688 69.0368 226.442C68.5099 227.783 67.9831 229.173 67.4083 230.514C66.3066 227.64 65.205 224.814 64.1513 221.94C60.9421 213.27 57.254 204.887 53.7575 196.313C52.4164 193.008 51.1711 189.703 49.9736 186.398C50.6921 186.111 51.3626 185.536 51.9853 185.057C53.518 184.003 54.9071 182.806 56.2003 181.464C57.4935 180.123 58.7388 178.686 59.8405 177.153C60.8942 175.716 61.948 174.279 62.7143 172.699C63.4328 171.262 64.1992 169.537 64.1992 167.909C64.1992 166.184 62.8101 164.508 60.99 164.795C60.1758 164.939 59.3615 165.226 58.6431 165.657C57.9246 166.089 57.3498 166.711 56.7272 167.238C55.2902 168.34 54.0928 169.729 53.1827 171.262C52.2248 172.842 51.2668 174.423 50.5484 176.1C49.782 177.824 49.1594 179.596 48.5846 181.416C48.5367 181.56 48.4888 181.752 48.4409 181.895C46.0939 174.95 43.9864 167.861 42.2142 160.772C42.7411 160.532 43.2201 160.197 43.6511 159.814C45.0402 158.52 46.3813 157.179 47.7703 155.886C50.7879 153.06 53.8054 150.138 56.2003 146.689C57.2061 145.204 58.212 143.624 58.9783 141.947C59.6968 140.319 60.3674 138.163 59.2178 136.534C57.1582 133.613 52.8475 136.439 50.8358 137.971C45.4713 142.091 42.6453 148.414 40.7773 154.784C40.0109 151.527 39.3404 148.318 38.7177 145.061C37.5682 139.025 36.6102 132.942 35.8918 126.811C35.9876 126.428 36.0834 126.044 36.227 125.661C36.227 125.661 36.227 125.661 36.2749 125.661C37.2808 125.086 38.2387 124.464 39.1967 123.793C42.9327 121.207 46.4771 118.333 50.0694 115.554C51.8895 114.165 53.7575 112.728 55.386 111.1C56.1524 110.333 56.8708 109.519 57.5414 108.609C58.1641 107.795 58.8346 107.028 59.1699 106.022C59.3136 105.591 59.5052 104.969 59.4573 104.49C59.3615 103.915 58.8825 103.34 58.4036 103.053C57.5414 102.478 56.7751 102.717 55.8171 102.765C53.518 102.909 51.6021 103.963 49.6383 105.016C45.9023 106.98 42.1663 109.519 39.532 112.92C37.664 115.315 36.3228 118.093 35.2691 120.967C34.2632 110.812 33.7364 100.61 33.6406 90.4549C34.2154 90.3112 34.838 90.0717 35.3649 89.8801C37.664 89.0179 39.8194 87.7246 41.8789 86.4313C43.9864 85.138 46.046 83.701 48.1056 82.2641C49.9257 80.9708 51.7458 79.7254 53.4701 78.2884C54.2844 77.6178 55.0986 76.8514 55.8171 76.085C56.2003 75.6539 56.4877 75.2228 56.8708 74.7917C57.2061 74.4085 57.5893 74.0732 57.8288 73.5942C58.3078 72.732 58.4515 71.4866 58.0204 70.5765C57.5893 69.7143 56.344 69.0916 55.4339 68.9479C54.2844 68.7563 53.1348 68.9958 52.0332 69.2832C50.9795 69.5227 49.9257 69.9059 48.9199 70.3849C46.7645 71.3429 44.7528 72.6841 42.8848 74.0732C41.0647 75.4623 39.1967 76.8993 37.664 78.5758C36.1312 80.2523 34.9817 82.1683 33.8322 84.0843C33.928 76.7077 34.4069 69.379 35.3649 62.0504C35.6044 60.3739 35.8439 58.6974 36.0834 57.0209C36.2749 56.973 36.4665 56.9251 36.6581 56.8772C37.7119 56.6377 38.574 56.1108 39.532 55.536C40.4899 54.9612 41.4958 54.4343 42.5016 53.9074C44.4175 52.8536 46.3334 51.7998 48.2493 50.6982C51.9853 48.4948 55.5776 46.1477 58.8825 43.3695C59.6968 42.6989 60.5111 41.9325 61.2774 41.1661C61.7085 40.735 61.9959 40.2081 62.2833 39.7291C62.427 39.4896 62.6185 39.298 62.7143 39.0585C62.9059 38.7232 62.858 38.3879 62.8101 38.0047C62.7143 37.4299 62.7622 36.7114 62.2354 36.3761C61.8043 36.0408 61.2295 35.8971 60.7505 35.6576C60.1758 35.4181 59.6968 35.4181 59.0741 35.466C58.4515 35.5139 57.8288 35.5139 57.2061 35.5618C56.6793 35.6097 56.1045 35.8492 55.5776 35.9929C55.0028 36.1366 54.3802 36.3282 53.8054 36.4719C52.7517 36.7593 51.7458 37.2383 50.74 37.7173C48.8241 38.6274 47.004 39.7291 45.2797 40.9745C43.5554 42.172 41.9747 43.5611 40.4899 45.046C39.3883 46.1956 38.3824 47.4889 37.4245 48.7343C38.2866 44.088 39.2446 39.4896 40.2025 34.8912C40.5378 33.4064 40.8731 31.9215 41.2084 30.4366C41.5437 30.2929 41.831 30.0055 41.8789 29.6223C41.9268 29.4307 42.1663 29.1912 42.4058 28.8559C42.8369 28.329 43.1722 27.7542 43.6033 27.2273C44.3696 26.1735 45.136 25.1676 45.8065 24.1138C47.1956 22.0062 48.2014 19.7549 49.3031 17.5036C51.0753 13.8154 53.1827 10.2708 54.3802 6.34301C54.7634 5.00182 55.1465 3.51693 54.8113 2.12784C54.4281 0.403448 52.7038 -0.362948 51.0274 0.163949C49.9736 0.499247 49.1115 1.12194 48.2014 1.79254C47.1956 2.51104 46.2376 3.32533 45.3755 4.23542C43.699 6.05561 42.5974 8.1632 41.7353 10.4624C40.8252 12.9053 40.0588 15.4919 39.5799 18.0784C38.8614 21.2398 38.8135 24.3054 38.8614 27.371C38.8614 27.6105 38.9093 27.8021 39.0051 27.9937C37.185 36.0408 35.4607 44.1359 34.1196 52.2788C33.4969 50.9855 32.7784 49.6923 32.0121 48.4469C31.1499 47.0099 30.2399 45.6208 29.2819 44.2317C28.3719 42.8905 27.4139 41.5014 26.3123 40.3039C25.3064 39.2022 24.109 38.2921 22.8158 37.5736C22.0973 37.1425 21.4267 37.0946 20.6125 36.9509C19.8461 36.8072 19.1277 36.7114 18.3613 36.9988C17.0202 37.4778 15.7748 38.1963 14.769 39.2022C14.29 39.6812 13.811 40.256 13.4279 40.8308C12.9968 41.5014 12.8531 42.3157 12.7094 43.0342C12.5657 43.8964 12.8531 44.5191 13.1405 45.2855C13.4279 45.9561 13.7631 46.5788 14.1942 47.1536C15.0085 48.2553 15.9664 49.1654 17.0681 50.0276C19.6545 52.0872 22.3847 54.099 25.3064 55.6318C26.0728 56.015 26.887 56.3982 27.6534 56.7335C28.5635 57.1167 29.4256 57.4999 30.4315 57.6436C30.8625 57.6915 31.2457 57.6915 31.6768 57.7394C32.2037 57.7873 32.6826 57.931 33.2095 57.931C32.0121 66.0261 31.2457 74.169 31.0541 82.4078C31.0062 83.8447 31.0062 85.3296 31.0062 86.7666C30.7667 86.5271 30.5751 86.2876 30.3357 86.0481C29.713 85.4254 29.0424 84.8027 28.3719 84.228C26.9828 83.0305 25.5459 81.9767 23.9653 81.0187C22.4326 80.0607 20.8041 79.2464 19.0798 78.6716C18.2176 78.3842 17.3554 78.1926 16.4933 78.001C15.5832 77.8573 14.6732 77.6178 13.811 77.4741C11.8951 77.1867 9.97924 77.0909 8.01544 77.1388C6.29114 77.1867 4.32734 77.6178 2.84252 78.5279C0.160262 80.2044 -0.701892 83.6053 0.591339 86.4313C1.83667 89.1137 4.66262 90.407 7.44068 90.8381C10.7456 91.3171 14.1463 91.1734 17.4512 91.0297C19.415 90.9818 21.3788 90.9339 23.2947 90.886C25.3064 90.886 27.2223 90.6465 29.1861 90.3591C29.713 90.2633 30.192 90.1675 30.7188 90.0717C30.8146 90.1196 30.8625 90.1675 30.9583 90.2633C31.0062 101.28 31.581 112.345 32.7784 123.314C32.6347 123.266 32.491 123.218 32.3952 123.17C30.8625 122.596 29.4256 121.829 27.8929 121.302C24.7317 120.201 21.3788 119.626 18.0739 119.338C16.3975 119.195 14.6732 119.099 12.9968 119.147C11.2725 119.195 9.50027 119.243 7.77596 119.53C7.0096 119.674 6.19534 119.817 5.47688 120.105C4.80632 120.392 4.08785 121.063 3.75257 121.686C3.03411 122.931 3.41729 124.368 4.23155 125.47C6.00375 127.96 9.30868 128.583 12.1346 128.823C15.7269 129.11 19.3671 128.535 22.9595 128.2C24.8275 128.008 26.6955 127.865 28.5635 127.673C30.1441 127.529 31.7247 127.386 33.2574 126.859C33.6885 130.595 34.2154 134.283 34.7901 137.971C35.796 144.342 37.0892 150.713 38.574 156.988C38.095 156.652 37.6161 156.365 37.0892 156.125C33.1137 154.209 28.755 154.257 24.3964 154.401C22.1452 154.497 19.894 154.641 17.7386 155.167C16.0622 155.551 13.1884 156.413 13.811 158.712C14.0984 159.766 15.0564 160.532 15.9664 161.107C16.7807 161.634 17.7386 162.065 18.6487 162.352C20.7083 162.975 22.9595 163.023 25.1148 163.023C27.4139 162.975 29.713 162.736 32.0121 162.4C34.2632 162.017 36.4186 161.442 38.6698 161.107C38.9572 161.059 39.2446 161.011 39.532 160.963C41.4 168.436 43.6033 175.812 46.0939 183.093C45.9502 183.045 45.8065 183.045 45.6628 182.997C44.2259 182.662 42.789 182.374 41.3521 182.183C38.3345 181.752 35.3649 181.704 32.3474 182.183C29.9525 182.566 27.6534 183.38 25.4022 184.29C23.4384 185.105 20.9478 186.542 21.6662 189.033C22.4326 191.763 26.3123 191.907 28.5635 191.907C32.06 191.859 35.5565 191.284 38.9093 190.326C40.5857 189.847 42.2142 189.272 43.8427 188.697C44.657 188.41 45.4713 188.075 46.3334 187.835C46.7645 187.691 47.1956 187.596 47.6266 187.5C47.914 188.362 48.2493 189.176 48.5367 190.038C51.6979 198.66 55.5776 206.995 58.9304 215.569C61.3253 221.7 63.6723 227.927 65.9714 234.106C64.1992 238.273 62.3791 242.393 60.5111 246.512C57.5893 253.027 54.7634 259.685 51.3147 265.912C48.2972 271.372 44.6091 276.45 40.6815 281.287C39.6757 282.533 38.6219 283.778 37.5682 284.976C36.4665 286.269 38.3345 288.137 39.4362 286.844C43.5554 282.006 47.5787 277.024 50.9795 271.66C54.7155 265.816 57.4935 259.493 60.3674 253.17C62.7143 247.997 65.1092 242.872 67.3125 237.651C67.7915 238.944 68.3183 240.285 68.7973 241.579C75.503 259.11 81.2986 276.976 87.2378 294.747C87.9563 296.951 88.7227 299.106 89.489 301.309C89.9201 302.507 91.7881 302.028 91.4049 300.783C85.8967 283.06 80.3406 265.289 73.9702 247.853C72.2938 243.255 70.5216 238.705 68.7973 234.154C68.9889 233.723 69.1326 233.292 69.3242 232.861C72.0543 226.203 74.545 219.449 76.892 212.647C78.0415 209.246 79.239 205.893 80.3406 202.492C80.7717 202.588 81.2028 202.588 81.6817 202.444C82.1128 202.349 82.5439 202.157 83.0229 202.061C83.5976 201.965 84.1724 201.918 84.7951 201.87C87.2857 201.678 89.7285 201.151 92.1713 200.768C94.4703 200.385 96.8173 200.289 99.1164 199.858C102.805 199.235 107.259 197.607 108.744 193.823C109.414 192.146 109.175 190.278 107.738 189.033C106.541 187.979 104.96 187.5 103.379 187.356C99.4038 186.925 95.2846 188.17 91.836 189.991C88.1958 191.907 85.0345 194.589 82.1128 197.415C82.0649 197.463 82.017 197.511 81.9691 197.559C84.1724 190.757 86.232 183.955 88.0521 177.058C88.4832 176.962 88.9142 176.77 89.3453 176.627H89.3932C89.4411 176.627 89.489 176.579 89.5369 176.579C90.9259 176.195 92.3629 175.956 93.7519 175.573C94.9972 175.237 96.1947 174.854 97.3921 174.519C102.23 173.178 107.211 172.076 111.666 169.729C114.539 168.196 117.317 165.945 119.09 163.167C119.952 161.826 120.527 160.197 120.143 158.616C119.952 157.85 119.521 157.131 118.946 156.557C118.611 156.221 118.227 155.934 117.844 155.694C117.174 155.311 116.407 155.263 115.641 155.215C112.959 155.072 110.468 156.03 108.025 157.083C105.726 158.089 103.81 159.526 101.847 161.011C97.6795 164.125 93.9435 167.765 90.4949 171.597C90.0159 172.124 89.5369 172.699 89.01 173.274C89.2016 172.603 89.3453 171.884 89.5369 171.214C90.5428 167.047 91.4049 162.831 92.2671 158.616C92.3629 158.52 92.5066 158.473 92.6023 158.377H92.6502C93.1771 158.281 93.6082 157.994 94.0393 157.706C94.5661 157.371 95.093 157.179 95.6199 156.94C97.0089 156.317 98.3021 155.646 99.6433 154.976C102.182 153.778 104.864 152.82 107.498 151.767C110.037 150.761 112.432 149.563 114.683 147.982C116.743 146.545 118.754 144.917 120.527 143.097C122.251 141.324 123.305 139.169 122.921 136.63C122.011 131.649 115.162 134.283 112.192 135.576ZM104.05 117.901C105.439 116.273 106.924 114.74 108.6 113.351C109.366 112.728 110.181 112.106 111.043 111.579C111.474 111.291 111.953 111.004 112.432 110.764C112.671 110.621 112.911 110.525 113.15 110.429C113.246 110.381 113.342 110.333 113.438 110.285C113.486 110.285 113.677 110.19 113.677 110.19C114.396 109.902 115.018 109.711 115.689 109.758C116.264 109.758 116.599 109.902 116.934 110.429C117.701 111.866 116.695 113.83 116.072 115.123C115.21 116.943 114.013 118.38 112.528 119.722C111.043 121.063 109.366 122.308 107.642 123.362C105.774 124.512 103.762 125.47 101.703 126.188C100.745 126.523 99.787 126.763 98.7811 127.05C100.026 123.697 101.751 120.632 104.05 117.901ZM105.726 90.1675C106.78 88.8742 107.834 87.6288 109.079 86.4792C110.133 85.5691 111.618 84.4675 112.959 84.3717C113.007 84.3717 113.055 84.3717 113.102 84.3717C113.15 84.4195 113.15 84.4195 113.15 84.3717C113.15 84.3717 113.15 84.3717 113.198 84.3717C113.198 84.3717 113.198 84.4195 113.246 84.4674V84.5154C113.246 84.5632 113.294 84.659 113.294 84.7069C113.342 84.8027 113.342 84.8506 113.342 84.8506C113.342 84.8506 113.342 84.8506 113.342 84.9464C113.342 85.0901 113.342 85.2338 113.342 85.4254C113.342 85.5691 113.342 85.7128 113.294 85.8565V85.9044C113.246 86.0481 113.246 86.1918 113.198 86.3834C112.767 88.012 111.57 89.3532 110.372 90.5028C107.498 93.281 104.194 95.4844 100.984 97.8315C100.889 97.8794 100.841 97.9273 100.745 98.0231C102.086 95.197 103.81 92.5625 105.726 90.1675ZM97.7753 65.0202C97.919 64.5891 98.0148 64.158 98.2064 63.7748C98.2542 63.679 98.4937 63.0084 98.4458 63.1521C98.6374 62.7689 98.7811 62.3857 99.0206 62.0025C99.2601 61.5714 99.6433 60.9966 99.787 60.805C99.8828 60.7092 99.9786 60.6134 100.026 60.5176C100.026 60.5176 100.026 60.5176 100.074 60.4697C100.074 60.4697 100.074 60.4697 100.122 60.4697C100.122 60.4697 100.122 60.4697 100.122 60.5176C100.218 60.8529 100.026 60.2302 100.17 60.6134C100.266 60.8529 100.314 61.0924 100.362 61.3319C100.362 61.3319 100.41 61.5235 100.41 61.5714C100.41 61.7151 100.458 61.8588 100.458 62.0025C100.649 64.8286 100.266 67.7025 99.5954 70.4328C99.1164 72.4446 98.4458 74.4085 97.7274 76.3724C97.6795 76.5161 97.6316 76.6598 97.5837 76.8035C97.2963 74.6001 97.0568 72.4446 97.1047 70.1933C97.0568 68.3731 97.2963 66.6966 97.7753 65.0202ZM95.0451 98.6458C94.0393 98.55 93.0334 98.5021 92.0276 98.2626C90.2554 97.8794 88.6269 97.2088 87.0462 96.3466C86.232 95.8676 85.4177 95.3886 84.6514 94.8138C84.0766 94.4306 83.8371 94.239 83.3581 93.8079C83.1665 93.6163 83.0229 93.4247 82.8313 93.2331C82.5918 92.9457 82.496 92.8499 82.4002 92.6583C82.017 92.1314 81.6817 91.6045 81.3943 91.0297C81.3464 90.9818 81.2507 90.7423 81.2507 90.7423C81.2507 90.6944 81.1549 90.5028 81.1549 90.4549C81.107 90.3112 81.0591 90.1675 81.0591 90.0717C81.0591 90.0238 81.0591 89.9759 81.0112 89.8801V89.8322C81.0112 89.6885 81.0112 89.5927 81.0112 89.449C81.0112 89.4011 81.0112 89.3532 81.0112 89.3053C81.0112 89.2574 81.0591 89.2095 81.0591 89.1616C81.107 89.1137 81.2028 88.97 81.1549 88.97C81.3943 88.7305 81.7296 88.5389 82.1128 88.5389C82.7355 88.491 83.406 88.7305 84.0287 89.0179C85.4656 89.6885 86.9025 90.5986 88.2437 91.5087C89.8243 92.5625 91.2133 93.8558 92.5066 95.2449C92.8418 95.5802 93.1292 95.9155 93.4645 96.2987C93.6082 96.4424 93.704 96.5861 93.8477 96.7777C93.9435 96.8735 94.0393 96.9693 94.0872 97.0651C94.1351 97.113 94.183 97.1609 94.183 97.2088C94.3267 97.4483 94.4704 97.6878 94.614 97.9273C94.8056 98.1668 94.9493 98.4063 95.0451 98.6458C95.093 98.6458 95.093 98.6458 95.0451 98.6458ZM89.6806 125.709C87.9563 124.943 86.1841 124.272 84.5077 123.41C81.2985 121.781 78.4247 119.626 76.8441 116.321C76.5088 115.602 76.1735 114.788 76.0298 113.926C75.934 113.303 75.934 112.632 76.3651 112.201C76.6046 111.962 76.7962 111.866 76.9878 111.866C77.0357 111.866 77.2752 111.866 77.2752 111.866C77.5147 111.914 77.7541 111.962 77.9457 112.058C78.6642 112.345 79.4305 112.872 80.1011 113.351C83.5976 115.794 86.711 118.764 89.2495 122.165C90.447 123.745 91.4528 125.422 92.6502 127.002C91.6444 126.619 90.6864 126.14 89.6806 125.709ZM85.1303 155.072C83.2144 154.497 81.2985 153.874 79.4784 153.012C77.6104 152.15 75.8861 151.048 74.545 149.515C74.0181 148.893 73.5392 147.982 73.156 147.168C72.7728 146.354 72.3417 145.3 72.2938 144.486C72.2938 144.294 72.2938 143.959 72.2938 143.911C72.2938 143.959 72.4375 143.432 72.3417 143.576C72.4854 143.24 72.6291 143.097 72.8207 143.049C72.8207 143.049 72.9644 143.001 73.0123 143.001C73.1081 143.001 73.2518 143.001 73.2518 143.001C73.3476 143.001 73.4434 143.001 73.5392 143.001C73.5871 143.001 73.5871 143.001 73.635 143.001H73.6829C74.1139 143.097 74.6408 143.24 74.9761 143.384C76.7483 144.103 78.5205 145.444 80.0532 146.737C82.1128 148.461 83.9329 150.425 85.7051 152.389C86.0404 152.772 86.3757 153.251 86.7589 153.587C86.8068 153.683 86.9025 153.778 86.9504 153.874C87.4294 154.497 87.9084 155.167 88.4353 155.79C88.579 155.982 88.7227 156.173 88.9142 156.365C87.621 156.125 86.2799 155.455 85.1303 155.072ZM81.538 171.31C79.5263 170.447 77.5147 169.585 75.5988 168.436C73.7786 167.382 72.1022 166.136 70.7132 164.556C70.1384 163.885 69.5158 163.023 69.2763 162.257C69.0368 161.538 69.0368 161.011 69.4679 160.628C69.9948 160.101 70.9527 160.053 71.6712 160.245C72.6291 160.484 73.4913 161.059 74.3055 161.634C76.1256 162.975 77.7541 164.652 79.2869 166.28C80.149 167.19 81.0112 168.148 81.7775 169.154C82.4481 170.016 83.1666 170.926 83.6455 171.884C83.7413 172.028 83.7892 172.172 83.885 172.363C83.0708 172.028 82.3044 171.645 81.538 171.31ZM73.3476 197.798C71.4796 197.08 69.5637 196.553 67.7436 195.786C64.3428 194.397 60.9421 192.433 58.8346 189.368C58.3557 188.697 57.8288 187.931 57.733 187.117C57.733 187.021 57.733 186.733 57.8767 186.59C57.9246 186.494 58.0683 186.35 58.1641 186.254C58.1641 186.302 58.3557 186.254 58.3557 186.254C58.4994 186.254 58.6431 186.206 58.7388 186.206C59.8405 186.111 60.9421 186.206 61.9959 186.542C63.1454 186.925 64.2471 187.548 65.3487 188.075C69.1326 189.943 72.1501 193.2 74.9282 196.313C75.6466 197.128 76.3651 197.942 77.0836 198.756C77.2273 198.948 77.4189 199.139 77.5625 199.331C76.1256 198.996 74.7366 198.373 73.3476 197.798ZM54.5239 174.136C55.4818 172.555 56.4398 171.07 57.8288 169.825C58.1641 169.537 58.4994 169.298 58.8346 169.01C59.122 168.771 59.3615 168.484 59.6968 168.244C60.2237 167.861 60.7984 167.669 61.4211 167.526C61.469 167.573 61.5169 167.573 61.5169 167.621C61.469 167.573 61.5648 167.669 61.6127 167.765C61.6127 167.813 61.6127 167.861 61.6606 167.861C61.6606 167.909 61.6606 167.909 61.6606 167.909C61.6606 167.909 61.6606 167.957 61.6606 168.005C61.6606 168.1 61.6606 168.244 61.6606 168.34C61.6606 168.388 61.5648 168.723 61.5169 168.915C61.1816 170.208 60.6547 171.358 59.9842 172.507C58.5952 174.902 56.8708 177.153 54.9549 179.165C53.9491 180.219 52.9433 181.225 51.7937 182.135C51.5063 182.374 51.2189 182.566 50.8837 182.806C51.8416 179.788 52.8954 176.818 54.5239 174.136ZM50.8358 141.42C51.9853 140.319 53.2785 139.361 54.7155 138.594C54.8592 138.498 55.0028 138.45 55.1465 138.403C55.2423 138.355 55.2423 138.355 55.2423 138.355C55.2423 138.355 55.2902 138.355 55.386 138.307C55.7213 138.211 56.0087 138.115 56.344 138.019C56.344 138.019 56.344 138.019 56.3919 138.019C56.4398 138.019 56.4877 138.019 56.5356 138.019C56.5835 138.019 56.7751 138.019 56.8229 138.019C56.8229 138.019 56.8229 138.019 56.8708 138.019H56.9187C56.9187 138.067 56.9666 138.115 56.9666 138.067C56.9666 138.163 57.0624 138.355 57.1103 138.594C57.1582 139.025 57.1103 139.313 56.9666 139.696C56.7751 140.51 56.3919 141.229 55.9608 141.947C55.0507 143.528 54.0928 145.109 52.9912 146.545C50.5005 149.755 47.4829 152.485 44.5133 155.263C43.9385 155.79 43.4117 156.317 42.8848 156.844C44.3696 151.192 46.525 145.54 50.8358 141.42ZM40.5857 115.506C43.1722 111.722 47.2435 108.992 51.2668 106.932C52.4164 106.358 53.4701 105.687 54.7155 105.4C55.386 105.256 56.0087 105.304 56.6793 105.16C56.7272 105.16 56.8229 105.16 56.8708 105.112C56.4877 106.214 55.7213 107.028 55.0028 107.938C53.997 109.184 52.7996 110.237 51.5542 111.291C49.0636 113.399 46.4292 115.267 43.8427 117.231C41.7353 118.859 39.5799 120.488 37.3766 121.973C38.1908 119.722 39.1967 117.518 40.5857 115.506ZM36.6102 83.2221C37.6161 81.5456 39.0051 80.0128 40.442 78.7195C41.9747 77.3783 43.5554 76.1329 45.2797 74.9833C46.9561 73.8816 48.7283 72.732 50.6442 72.0614C51.65 71.6782 52.7038 71.3908 53.8054 71.2471C54.6197 71.1034 55.3381 71.2471 55.9129 71.774C56.0087 72.2051 55.9129 72.6362 55.6255 73.0194C55.386 73.3547 55.0507 73.5942 54.8113 73.9295C54.5239 74.2648 54.2844 74.5522 53.9491 74.8875C52.7996 76.085 51.5063 77.0909 50.1652 78.0489C47.2435 80.1565 44.2259 82.2162 41.1605 84.1321C39.532 85.138 37.9035 86.0481 36.227 86.9103C35.4607 87.2935 34.6943 87.6288 33.8322 87.8683C34.7901 86.2876 35.7002 84.7548 36.6102 83.2221ZM41.7831 20.0423C42.0705 17.8389 42.6932 15.6835 43.3159 13.5759C43.9385 11.5641 44.7049 9.60019 45.8544 7.8279C47.004 6.10351 48.5846 4.71442 50.261 3.56483C50.5963 3.32533 50.9795 3.08583 51.3626 2.89423C51.4584 2.84633 51.5542 2.84633 51.6979 2.79843C51.6979 2.79843 51.7937 2.79843 51.8416 2.79843C51.8895 2.79843 51.9374 2.79843 51.9853 2.79843C52.0332 2.84633 52.0811 2.99003 52.0811 3.03793C52.0811 3.03793 52.0811 3.08583 52.0811 3.13373C52.0811 3.27743 52.0811 3.42113 52.0811 3.51693C52.0811 3.66063 52.0811 3.80433 52.0332 3.94803C52.0332 3.99593 51.9853 4.09173 51.9853 4.13963C51.8895 4.76232 51.7458 5.33712 51.5542 5.91192C50.4526 9.50439 48.4888 12.7137 46.9082 16.0667C45.7586 18.4137 44.7049 20.8087 43.268 22.9642C42.6932 23.8264 42.0705 24.6886 41.4479 25.5508C41.4479 23.7306 41.4958 21.9104 41.7831 20.0423ZM36.3707 53.7637C38.574 50.6982 40.6815 47.6326 43.5554 45.1418C46.3334 42.6989 49.5904 40.5434 52.9912 39.2022C54.0449 38.7711 55.1465 38.5316 56.2003 38.2442C57.3019 37.9568 58.3557 37.9089 59.5052 37.861C59.7447 37.9568 60.0321 38.1005 60.2716 38.1963C60.2716 38.2921 60.3195 38.3879 60.3195 38.4837C59.9363 39.0585 59.5531 39.6812 59.0262 40.1602C58.3557 40.735 57.733 41.3577 57.0145 41.9325C55.7692 42.9863 54.4281 43.9443 53.0869 44.8544C50.4047 46.6746 47.6266 48.3511 44.8007 49.9318C43.3159 50.7461 41.831 51.5603 40.2983 52.3267C39.5799 52.7099 38.8614 53.0931 38.1429 53.5242C37.5203 53.9074 36.8976 54.2906 36.227 54.5301C36.2749 54.2427 36.3228 54.0032 36.3707 53.7637ZM31.0541 55.2007C30.0483 55.1528 29.1861 54.7696 28.2282 54.3864C26.3602 53.62 24.588 52.5662 22.8637 51.4645C21.3788 50.4587 19.9419 49.4528 18.5529 48.3511C17.2597 47.3452 15.9664 46.1477 15.3438 44.6149C15.2001 44.3275 14.9606 43.8964 15.0085 43.5611C15.0085 43.3216 15.1522 43.0821 15.2001 42.7947C15.2001 42.651 15.248 42.5073 15.2959 42.3636C15.4395 42.0283 15.7748 41.693 16.0622 41.4056C16.3017 41.1182 16.5891 40.8308 16.8765 40.5913C17.547 40.0644 18.3613 39.7291 19.1277 39.4417C19.5108 39.298 19.7503 39.4417 20.1335 39.4896C20.5646 39.5854 20.9957 39.5375 21.4267 39.7291C21.8099 39.9207 22.1931 40.2081 22.5284 40.4476C22.9116 40.6871 23.2468 40.9745 23.5821 41.2619C24.2527 41.8367 24.8275 42.5552 25.4022 43.2258C26.7434 44.9502 27.9408 46.7704 29.0903 48.6385C30.2399 50.5065 31.3415 52.3746 32.2516 54.3864C32.3952 54.6738 32.491 55.0091 32.6347 55.2965C32.1079 55.2486 31.581 55.2007 31.0541 55.2007ZM28.2282 88.0599C27.0786 88.2515 25.9291 88.3952 24.7317 88.4431C22.1452 88.5389 19.6066 88.5868 17.0202 88.7305C14.7211 88.8263 12.422 88.9221 10.1229 88.8263C8.49442 88.7784 6.77011 88.6826 5.28529 88.012C3.75257 87.3414 2.45934 86.0002 2.26775 84.3237C2.07616 82.791 2.89042 81.1624 4.32734 80.5397C6.38693 79.5817 8.68601 79.6296 10.8893 79.7733C12.0867 79.8212 13.2842 80.0128 14.4816 80.2523C15.6311 80.4918 16.7328 80.6834 17.8344 81.0187C19.9898 81.6893 21.9536 82.791 23.8216 84.0364C25.5459 85.1859 27.1265 86.5271 28.5635 88.012C28.4677 88.012 28.324 88.012 28.2282 88.0599ZM29.9046 125.039C28.7071 125.182 27.5097 125.326 26.3123 125.422C24.0611 125.661 21.8578 125.901 19.6066 126.188C17.3554 126.476 15.0564 126.667 12.7573 126.571C10.8893 126.476 8.7818 126.284 7.20119 125.278C6.57852 124.895 6.00375 124.272 5.76426 123.554C5.66847 123.266 5.66847 123.123 5.81216 122.931C5.95585 122.691 6.24324 122.452 6.57852 122.356C7.63227 122.021 8.73391 121.877 9.88345 121.877C11.033 121.829 12.2304 121.733 13.38 121.733C17.9302 121.686 22.6242 122.308 26.9349 123.745C27.9887 124.081 28.9466 124.56 29.9525 124.991C29.9525 124.991 29.9525 124.991 29.9046 125.039ZM34.5985 159.287C32.3952 159.766 30.1441 160.149 27.8929 160.341C25.6417 160.532 23.2947 160.58 20.9957 160.293C20.1335 160.197 19.2234 159.957 18.4092 159.622C18.026 159.431 17.5949 159.239 17.2597 158.952C17.1639 158.904 16.8286 158.568 16.5891 158.329C16.8765 158.185 17.2118 158.089 17.547 157.994C18.5529 157.706 19.6066 157.515 20.6604 157.371C22.8637 157.083 25.1148 157.036 27.3181 156.988C29.3777 156.94 31.4373 157.036 33.449 157.562C34.4069 157.802 35.3649 158.185 36.2749 158.616C36.3707 158.664 36.4665 158.712 36.5623 158.808C35.8918 158.999 35.2691 159.143 34.5985 159.287ZM44.8965 185.584C43.9864 185.871 43.1243 186.206 42.2142 186.542C40.3462 187.212 38.4303 187.835 36.4665 188.266C34.5985 188.697 32.6826 188.985 30.7667 189.176C28.9945 189.32 27.0307 189.512 25.2585 188.985C24.9232 188.889 24.9232 188.889 24.6359 188.745C24.5401 188.697 24.3006 188.554 24.3006 188.554C24.3485 188.601 24.0611 188.266 24.2048 188.41C24.109 188.314 24.1569 188.314 24.1569 188.266C24.1569 188.314 24.1569 188.314 24.1569 188.266C24.1569 188.266 24.1569 188.266 24.1569 188.218C24.1569 188.218 24.1569 188.218 24.1569 188.17V188.122C24.1569 188.122 24.1569 188.122 24.1569 188.17V188.122C24.2048 188.075 24.2048 188.027 24.2527 187.931C24.3485 187.835 24.4443 187.739 24.5401 187.691C24.588 187.643 24.6359 187.596 24.7317 187.548C25.019 187.356 25.2585 187.212 25.5459 187.069C25.977 186.877 26.4081 186.685 26.9828 186.494C28.4677 185.967 29.9525 185.392 31.4852 185.057C33.2574 184.674 35.0296 184.53 36.8018 184.53C39.4362 184.53 42.2142 184.865 44.8007 185.584C44.9444 185.536 44.9444 185.584 44.8965 185.584ZM101.655 189.991C102.086 189.991 102.517 189.991 102.948 189.991C103.092 189.991 103.188 189.991 103.331 190.038H103.379C103.523 190.038 103.619 190.086 103.762 190.086C104.529 190.23 104.96 190.374 105.535 190.709C105.583 190.757 105.822 190.901 105.822 190.901C105.918 190.996 106.014 191.092 106.109 191.14C106.109 191.14 106.157 191.188 106.205 191.236C106.253 191.284 106.253 191.332 106.253 191.332C106.301 191.38 106.349 191.475 106.349 191.523V191.571C106.397 191.763 106.445 191.954 106.397 192.242C106.349 192.529 106.205 192.96 106.062 193.248C105.295 194.637 103.81 195.547 102.326 196.217C100.553 196.984 98.3979 197.367 96.4342 197.607C94.0393 197.894 91.6444 198.181 89.2495 198.612C88.1 198.804 86.9505 199.044 85.8009 199.139C85.1303 199.187 84.4119 199.283 83.7413 199.331C88.7227 194.637 94.614 190.134 101.655 189.991ZM100.362 165.657C102.182 164.077 104.146 162.544 106.157 161.251C107.163 160.58 108.217 160.005 109.319 159.526C110.42 159.047 111.57 158.616 112.719 158.281C113.821 157.994 115.21 157.802 116.312 158.041C116.455 158.089 116.599 158.137 116.695 158.233C116.743 158.281 116.791 158.329 116.886 158.377C116.886 158.377 116.982 158.425 116.982 158.473C117.126 158.568 117.222 158.712 117.365 158.856C117.365 158.856 117.509 159.143 117.557 159.191C117.605 159.239 117.605 159.335 117.557 159.239C117.557 159.287 117.605 159.287 117.605 159.335C117.605 159.383 117.653 159.478 117.653 159.526C117.653 159.67 117.653 159.814 117.653 160.005C117.653 160.005 117.653 160.005 117.653 160.053C117.653 160.149 117.605 160.197 117.605 160.293C117.557 160.436 117.509 160.58 117.461 160.724C117.461 160.772 117.413 160.868 117.365 160.915C117.365 160.915 117.365 160.915 117.365 160.963C117.365 160.963 117.365 160.963 117.365 161.011C117.222 161.346 117.03 161.682 116.791 162.017C116.359 162.688 116.024 163.071 115.449 163.694C114.923 164.268 114.348 164.795 113.725 165.322C113.581 165.418 113.486 165.514 113.342 165.657C113.246 165.705 113.198 165.801 113.102 165.849C113.102 165.849 113.055 165.897 113.007 165.945C112.959 165.993 112.767 166.136 112.671 166.184C112.528 166.28 112.384 166.376 112.24 166.472C111.474 166.999 110.66 167.43 109.845 167.861C105.535 170.064 100.697 171.022 96.0989 172.316C94.9493 172.651 93.7998 172.986 92.6023 173.321C95.093 170.591 97.6316 168.005 100.362 165.657ZM117.94 142.091C116.12 143.767 114.252 145.348 112.192 146.641C109.941 148.078 107.546 149.084 105.056 150.042C102.278 151.144 99.5475 152.198 96.8652 153.539C96.5778 153.683 96.2905 153.826 96.0031 153.922C100.122 148.03 104.72 142.33 111.043 138.834C112.911 137.78 114.923 137.013 116.982 136.534C117.892 136.343 118.467 136.199 119.329 136.199C119.377 136.199 119.377 136.199 119.425 136.199C119.521 136.199 119.617 136.247 119.712 136.247C119.76 136.247 119.808 136.295 119.808 136.295C119.856 136.295 119.856 136.343 119.904 136.343C119.952 136.343 119.952 136.391 119.952 136.391C119.952 136.391 119.952 136.391 120 136.439C120.048 136.487 120.143 136.63 120.048 136.439C120.191 136.678 120.191 136.63 120.239 136.87C120.862 139.073 119.377 140.75 117.94 142.091Z" fill="#AEDFBC"/>
</svg>
