<svg width="135" height="292" viewBox="0 0 135 292" fill="none" xmlns="http://www.w3.org/2000/svg">
<path opacity="0.3" d="M-46.1704 29.8811C-43.8363 29.331 -41.414 29.2354 -39.0068 29.4202C-34.3043 29.7837 -29.6408 30.8761 -25.0273 31.8534C-27.3687 30.4351 -29.6511 28.9638 -31.9275 27.3804C-34.5843 25.5517 -37.2321 23.5549 -39.7648 21.5079C-41.5427 20.0636 -43.828 18.6483 -44.5491 16.3607C-45.0759 14.6458 -44.1953 12.8936 -42.4308 12.4817C-40.9494 12.111 -39.2888 12.5933 -37.9084 13.0606C-36.2508 13.5989 -34.6612 14.3585 -33.1306 15.1711C-32.1486 15.7296 -31.1076 16.235 -30.1906 16.9587C-28.7841 17.9897 -27.4957 19.1268 -26.2664 20.3169C-26.2634 20.2609 -26.3195 20.2579 -26.3165 20.2018C-27.607 18.0525 -28.9566 15.9563 -30.073 13.7038C-31.1924 11.5074 -32.2999 9.08678 -32.5605 6.59888C-32.7921 4.61858 -32.6924 1.7001 -30.7738 0.509322C-29.0324 -0.522233 -26.8412 0.550618 -25.4407 1.6937C-22.053 4.57347 -20.673 9.25776 -19.4872 13.3694C-17.9248 18.8506 -16.988 24.4671 -15.768 30.0424C-15.6328 30.6682 -15.8809 31.1047 -16.2912 31.4202C-16.2382 31.4792 -16.1821 31.4822 -16.1291 31.5413C-15.4924 32.25 -14.8557 32.9587 -14.1659 33.7265C-13.7234 33.8626 -13.4611 34.2139 -13.37 34.6124C-8.06706 40.5745 -2.94126 46.6957 1.89229 53.0263C7.20037 59.9445 11.7498 67.3844 15.8359 75.0808C16.1453 75.6033 16.3956 76.179 16.705 76.7015C15.3369 71.793 14.2521 66.8433 13.3384 61.8466C12.4277 56.7938 11.7442 51.6968 11.285 46.6119C10.8347 41.3588 10.4995 36.0555 10.9491 30.7942C11.4316 24.9162 12.923 19.092 14.5205 13.3859C14.7986 12.3887 16.265 12.2983 16.7216 13.2223C17.3313 14.4356 17.0883 15.8283 17.1286 17.1799C17.1659 18.5876 17.2562 20.0543 17.4056 21.4679C17.7604 24.2982 18.3394 27.1405 18.9774 29.9297C20.2445 35.6762 21.3435 41.4138 22.2713 47.1985C22.7322 50.1469 23.1932 53.0953 23.4829 56.0908C23.7727 59.0863 23.7822 62.0668 23.5645 65.0914C23.2031 70.8073 22.113 76.4842 22.0879 82.218C22.0503 85.0274 22.4081 87.8016 23.1613 90.5407C23.5588 91.5178 24.0124 92.4978 24.4069 93.531C24.4039 93.5871 24.457 93.6461 24.457 93.6461C25.1019 95.2549 25.7437 96.9197 26.3326 98.5255C26.7451 99.2223 26.9864 99.9661 27.1127 100.76C29.8916 108.724 32.098 116.882 34.0241 125.025C36.0474 133.455 37.6753 141.92 38.7897 150.526C39.1723 151.783 39.4988 153.038 39.8253 154.292C40.249 155.833 40.6136 157.427 40.9221 159.017C42.0636 155.536 43.2642 152.002 44.3526 148.461C45.2399 145.529 45.847 142.581 46.1208 139.559C46.4005 136.426 46.4561 133.28 46.5116 130.134C46.6548 124.294 47.2493 118.422 48.2864 112.686C49.3204 107.006 50.7999 101.406 53.2143 96.1936C54.6741 93.0666 56.4022 90.1789 58.3546 87.3031C59.3293 85.8933 60.2479 84.4804 61.2226 83.0705C61.5298 82.5809 61.89 82.1503 62.1972 81.6607C62.6465 80.6164 63.1488 79.6311 63.8133 78.7669C64.2356 78.2272 64.8671 77.9798 65.5248 78.2961C66.0704 78.6063 66.4829 79.3031 66.2257 79.9078C65.7705 81.0643 65.1531 82.0996 64.4796 83.132C64.3525 83.4063 64.2815 83.6837 64.1544 83.958C63.5721 85.3888 63.0459 86.8226 62.5166 88.3125C61.5142 91.2952 60.6739 94.3991 60.0048 97.4558C58.6045 103.678 57.7588 110.043 57.0842 116.361C56.7424 119.604 56.4537 122.906 56.224 126.155C55.9943 129.403 55.8767 132.658 55.6471 135.907C55.4174 139.156 55.0786 142.343 54.5156 145.518C54.0146 148.584 53.4546 151.702 52.4552 154.629C51.9169 156.287 51.2165 157.824 50.404 159.355C49.5975 160.774 48.9001 162.255 48.0936 163.674C47.225 165.202 46.1412 166.549 45.0014 167.894C44.461 168.54 43.8645 169.183 43.2711 169.77C42.7367 170.303 42.1522 170.722 41.783 171.321C41.4757 171.81 40.9593 172.008 40.4018 171.922C40.4733 174.793 40.5448 177.665 40.5573 180.589C40.5861 185.314 40.1665 190.014 39.7469 194.715C39.3303 199.36 38.9697 204.007 38.497 208.649C37.6295 216.474 36.0363 224.205 34.2219 231.867C36.2169 227.138 38.156 222.406 40.095 217.674C42.6814 211.346 44.9905 204.947 46.8601 198.356C48.7328 191.709 50.4403 184.996 52.2038 178.287C55.6778 164.809 59.0428 151.27 63.1804 137.996C63.7246 136.226 64.3249 134.459 64.9252 132.692C64.775 132.346 64.855 131.901 65.0411 131.573C65.2923 131.081 65.5404 130.644 65.8476 130.154C66.0487 129.547 66.3029 128.998 66.5039 128.39C67.6835 125.248 69.1404 122.177 70.4881 119.044C71.3866 116.956 72.2851 114.867 73.1806 112.835C73.1836 112.778 73.1836 112.778 73.1866 112.722C73.5455 110.211 74.2408 107.718 74.877 105.278C75.5132 102.838 76.0402 100.336 76.3992 97.8251C77.2381 92.6408 77.5165 87.4266 77.3465 82.1884C77.1764 76.9502 76.7822 71.7001 76.441 66.509C76.0999 61.3179 75.5285 56.227 74.2785 51.2123C73.952 49.9579 73.6255 48.7034 73.299 47.449C73.302 47.3929 73.2489 47.3339 73.2519 47.2778C72.9597 47.4871 72.6144 47.6374 72.2691 47.7876C71.5785 48.0881 70.8909 48.3325 70.2033 48.5769C70.0321 48.624 69.8019 48.7242 69.6308 48.7713C69.4006 48.8714 69.2264 48.9746 68.9962 49.0748C66.9775 50.0353 64.9528 51.1079 62.7278 51.7201C60.5589 52.3352 58.3048 52.4398 56.1098 52.4913C54.4783 52.5166 52.7286 52.6481 51.1921 51.9476C49.2692 51.114 48.1318 49.254 48.1334 47.1174C48.1988 42.7352 53.4604 41.0482 56.9686 40.617C57.0247 40.62 57.0807 40.623 57.0807 40.623C54.8305 39.6033 52.7013 38.4213 50.7672 36.7436C49.3697 35.5445 47.9311 34.062 47.4103 32.2349C46.9366 30.5791 47.9113 29.1692 49.5608 28.8075C51.2102 28.4457 53.042 28.8809 54.6496 29.3041C56.5905 29.8013 58.4013 30.6289 60.2091 31.5126C62.7277 32.7716 65.1633 34.5323 67.1915 36.5523C66.108 33.6831 64.8564 30.8049 63.8289 27.9387C62.8486 25.2437 62.1515 22.5076 61.9648 19.6863C61.8775 18.1635 61.8432 16.6998 62.1513 15.1419C62.3083 14.3068 62.5654 13.7021 63.0528 12.9972C63.419 12.4544 63.7352 11.7966 64.3697 11.4931C67.4273 10.0258 70.0465 14.6638 71.1689 16.8041C73.62 21.4331 74.6958 26.551 74.8128 31.7301C75.4512 30.3023 76.0895 28.8745 76.84 27.4526C77.9096 25.3169 79.1474 23.1901 80.7066 21.3617C82.0296 19.7455 84.5566 17.6876 86.4107 19.8108C87.6811 21.2843 87.6764 23.4769 87.2974 25.3121C86.8443 27.4808 85.7276 29.4453 84.4517 31.2327C83.0577 33.1262 81.5016 34.8986 80.1606 36.8511C78.7577 38.9129 77.3487 41.0867 76.1079 43.2695C75.8568 43.7622 75.6086 44.1987 75.3574 44.6914C75.8722 46.6306 76.387 48.5698 76.9048 50.4529C78.1638 55.2994 78.8032 60.169 79.1563 65.1359C79.5095 70.1027 79.9157 75.1286 80.0977 80.1425C80.2827 85.1003 80.1844 90.0992 79.5286 95.0122C79.1757 97.4111 78.7667 99.807 78.2486 102.141C78.4967 101.704 78.7449 101.268 78.9931 100.831C80.6622 97.9965 82.7116 95.407 84.7581 92.8736C86.8667 90.2311 88.9191 87.5856 91.0837 84.946C94.6303 80.6373 98.1598 75.5966 103.089 72.7673C103.496 72.5079 103.957 72.3076 104.361 72.1043C104.229 71.4225 104.433 70.7587 104.696 70.0418C104.699 69.9857 104.758 69.9326 104.761 69.8766C104.272 68.501 103.958 67.0223 103.867 65.5556C103.666 63.0146 103.52 60.4767 103.599 57.9507C103.625 55.3656 103.871 52.8486 104.289 50.2844C104.695 47.9446 105.166 45.4395 106.295 43.2507C106.487 42.8112 106.735 42.3746 107.037 41.9971C107.338 41.6196 107.589 41.127 107.949 40.6964C108.546 40.0535 109.945 39.1161 111.036 39.7366C111.528 39.9878 112.13 40.3011 112.386 40.7646C112.755 41.2341 112.94 41.9749 113.134 42.5476C113.529 43.5807 113.749 44.717 113.914 45.8503C114.133 48.0549 114.123 50.3596 114.059 52.6053C113.933 54.9601 113.583 57.303 112.9 59.5718C112.832 59.7931 112.764 60.0143 112.696 60.2356C113.177 59.6428 113.602 59.047 114.084 58.4542C114.323 58.1859 114.562 57.9175 114.801 57.6492C114.742 57.7022 114.742 57.7022 114.86 57.5961C114.86 57.5961 114.863 57.54 114.919 57.543C115.097 57.3838 115.221 57.1655 115.398 57.0063C115.758 56.5757 116.174 56.1481 116.535 55.7175C117.491 54.6441 118.501 53.6297 119.617 52.7334C120.733 51.8371 121.961 50.9468 123.442 50.5761C123.785 50.4819 124.124 50.4438 124.463 50.4057C124.575 50.4117 124.687 50.4177 124.856 50.4267C124.968 50.4327 125.08 50.4386 125.189 50.5007C125.133 50.4977 125.133 50.4977 125.245 50.5037L125.301 50.5067C125.301 50.5067 125.301 50.5067 125.357 50.5097C125.357 50.5097 125.357 50.5097 125.301 50.5067C126.024 50.6577 126.681 50.974 127.215 51.5085C128.654 52.991 128.864 55.3638 127.981 57.1721C127.475 58.2134 126.696 59.1276 125.975 59.9888C125.134 61.0122 124.242 61.9204 123.238 62.8227C121.585 64.3087 119.775 65.5616 117.966 66.8144C122.064 65.8525 126.233 65.6815 130.342 66.6318C131.841 66.993 133.723 67.5433 134.486 69.0459C135.246 70.6046 134.471 72.475 133.393 73.7106C132.313 75.0024 130.704 75.6474 129.061 75.8971C127.134 76.1878 125.107 76.2482 123.139 76.2556C120.944 76.3071 118.755 76.2464 116.572 76.0737C118.203 77.1166 119.827 78.2716 121.281 79.4738C125.046 82.6548 128.613 86.3876 131.43 90.4739C132.108 91.4659 132.497 92.6112 132.546 93.7946C132.622 94.4734 132.642 95.1492 132.326 95.807C132.078 96.2436 131.774 96.6772 131.419 96.9956C129.831 98.3165 127.781 97.7572 126.079 96.9916C121.75 94.905 118.236 91.2313 115.053 87.6877C113.142 85.5616 111.409 83.2762 109.735 80.9377C108.899 79.7685 107.949 78.5933 107.053 77.4771C106.579 76.8895 106.107 76.2459 105.689 75.6612C105.48 75.3689 105.326 75.0796 105.17 74.8464C101.395 77.1188 98.501 80.7877 95.7399 84.0701C91.4758 89.184 87.1526 94.3509 83.3219 99.7691C79.5503 105.134 77.082 111.356 74.5136 117.348C73.8102 118.941 73.1629 120.537 72.4625 122.074C75.1726 119.744 78.2011 117.769 81.2737 116.022C84.5765 114.174 88.0354 112.559 91.5975 111.119C95.2157 109.682 98.9369 108.418 102.793 107.781C103.814 107.61 104.832 107.496 105.909 107.329C106.983 107.217 108.119 106.997 109.181 107.11C110.187 107.22 111.998 108.047 111.141 109.351C110.654 110.056 109.89 110.69 109.24 111.274C108.531 111.911 107.77 112.488 107.008 113.066C103.906 115.375 100.694 117.621 97.6947 120.103C94.6953 122.586 91.9642 125.308 89.0149 127.905C87.4236 129.282 85.8353 130.603 83.9818 131.629C82.1903 132.545 80.2986 133.231 78.3098 133.631C76.0908 134.131 73.7807 134.233 71.6148 134.792C71.1574 134.936 70.6439 135.077 70.1334 135.163C69.623 135.248 69.0064 135.215 68.49 135.412C68.2037 135.509 67.9115 135.719 67.6222 135.872C67.392 135.972 67.1648 136.016 66.9937 136.063C62.7028 149.047 59.459 162.425 55.9409 175.675C54.6035 180.721 53.3191 185.825 51.9817 190.87C52.475 190.053 52.9683 189.236 53.4617 188.419C56.0404 184.34 58.9935 180.618 62.3831 177.144C64.0484 175.433 65.7637 173.838 67.5351 172.246C69.2475 170.707 70.9598 169.168 72.7813 167.691C76.5393 164.686 80.7098 162.379 85.3369 160.995C87.9632 160.236 90.6306 159.76 93.3391 159.567C96.2158 159.383 99.1335 159.483 102.016 159.187C102.695 159.111 103.352 159.427 103.538 160.168C103.67 160.85 103.239 161.557 102.557 161.69C98.2342 162.64 94.0756 164.723 90.5097 167.288C86.9438 169.852 83.7404 172.999 81.1886 176.574C78.0343 180.903 75.75 185.785 73.2505 190.488C70.937 194.862 68.1311 198.986 64.0427 201.86C62.9919 202.591 61.8319 203.26 60.6249 203.758C59.3027 204.306 57.9245 204.85 56.4492 205.109C55.0329 205.315 53.5875 205.012 52.1652 205.33C51.0292 205.551 49.8252 205.992 48.9454 206.676C48.4761 207.045 47.7974 207.121 47.3139 206.702L47.2609 206.643C46.3265 209.404 45.2799 212.16 44.1243 214.853C39.809 225.137 35.4376 235.418 30.5707 245.504C28.814 251.033 26.6148 256.426 24.0853 261.688C24.5666 261.096 25.048 260.503 25.5294 259.91C27.6939 257.27 29.9116 254.69 32.1823 252.168C34.3939 249.7 36.6056 247.232 39.0856 245.003C41.6245 242.72 44.2727 240.5 46.9208 238.28C49.5128 236.057 52.1049 233.834 54.9062 231.903C57.5924 230.022 60.3817 228.316 63.3302 226.786C66.1666 225.251 69.05 223.887 72.1427 222.815C75.6368 221.596 79.2691 220.946 82.9805 220.92C84.8363 220.906 86.621 221.17 88.4677 221.325C89.6418 221.444 91.2263 221.248 92.0102 222.358C92.4847 222.945 92.4368 223.842 91.6842 224.252C90.0668 225.065 88.3523 225.592 86.6318 226.231C84.9053 226.983 83.1788 227.734 81.5024 228.6C78.3237 230.23 75.1891 232.086 72.3698 234.354C67.0886 238.514 62.8155 243.796 58.6575 249.028C54.1952 254.693 49.9983 260.654 44.569 265.481C39.1398 270.308 33.1709 274.712 26.5392 277.844C22.9061 279.562 19.1759 280.993 15.6489 282.829C14.4329 283.495 13.1048 284.155 12.0449 285.054C11.6757 285.653 11.2504 286.249 10.8281 286.789C10.6479 287.004 10.4678 287.219 10.2877 287.434C9.90645 288.257 9.52523 289.081 8.76361 289.658C8.47137 289.868 8.18213 290.021 7.84581 290.003C7.65969 290.33 7.41751 290.655 7.2314 290.982C6.36583 292.454 4.19557 290.989 5.06113 289.517C11.3212 278.606 18.0797 267.834 23.1896 256.355C23.1455 256.128 23.1044 255.845 23.2876 255.573C23.8549 254.423 24.4783 253.275 25.0456 252.125C25.3708 251.299 25.696 250.473 26.0211 249.647C25.7648 249.183 25.7977 248.566 26.0459 248.13C26.0198 247.566 25.9376 247 25.9115 246.436C25.8974 245.648 25.8862 244.804 25.816 244.013C25.6786 242.375 25.317 240.725 24.8403 239.125C24.3606 237.582 23.6537 236.082 22.9468 234.582C22.1898 232.968 21.4358 231.297 20.6789 229.682C17.8012 223.568 14.404 217.708 11.7005 211.491C8.99994 205.218 7.10508 198.595 5.66165 191.939C4.16814 185.168 3.30019 178.262 2.03389 171.448C1.28456 167.584 0.308014 163.765 -0.609477 159.892C-1.06822 157.956 -1.52996 156.076 -1.98871 154.14C-2.3974 152.319 -3.08335 150.427 -2.86945 148.526C-2.76252 147.576 -1.82375 146.839 -0.885827 147.17C0.494543 147.638 1.27845 148.748 2.05937 149.914C2.99947 151.257 4.06065 152.439 5.11884 153.676C7.28229 156.322 9.27459 159.014 10.9126 162.026C13.9264 167.697 15.5589 173.969 17.3686 180.082C19.2695 186.593 21.8018 192.857 24.2191 199.171C25.4528 202.386 26.5714 205.65 27.5188 208.962C28.4663 212.274 29.1304 215.627 29.6234 219.027C30.2046 222.881 30.6737 226.73 30.9716 230.625C31.0478 231.304 31.0679 231.98 31.0881 232.656C31.3871 231.266 31.7422 229.879 32.0383 228.546C33.0094 224.043 34.0957 219.49 34.7896 214.917C36.1744 205.826 36.8925 196.587 37.4395 187.395C37.756 182.52 37.7953 177.574 37.6073 172.672C37.333 172.545 37.1208 172.309 37.0236 172.023C35.1712 167.763 33.602 163.462 31.9798 159.102C30.3576 154.742 28.6172 150.489 26.7648 146.229C23.0069 137.651 19.246 129.128 15.1398 120.756C14.0204 118.56 12.904 116.307 11.6104 114.214C10.2638 112.062 8.68399 110.066 7.45248 107.863C7.04298 107.11 7.42719 106.231 8.12378 105.819C9.74713 104.893 11.5512 106.901 12.5623 107.967C14.2161 109.63 15.8729 111.237 17.4707 112.896C21.0877 116.744 24.3534 120.854 27.2678 125.227C29.6076 128.782 31.7112 132.549 33.5846 136.416C33.3231 134.996 33.0026 133.63 32.7411 132.21C30.9009 123.509 28.6654 114.843 26.0256 106.381C25.2604 103.866 24.3802 101.401 23.497 98.9926C22.9664 98.402 22.4328 97.8675 21.9553 97.336C20.6849 95.8625 19.4765 94.2798 18.3832 92.6471C17.4431 91.3037 16.553 90.0754 15.1966 89.1596C13.622 88.1196 11.9263 87.2419 10.2305 86.3642C6.89215 84.6678 3.43566 83.0776 0.34543 80.9447C-2.74182 78.7557 -5.70497 76.3484 -8.2548 73.5696C-11.0139 70.4985 -13.3597 67.0558 -16.5941 64.4654C-17.2398 63.9249 -17.4811 63.181 -16.9908 62.42C-16.2493 61.1664 -14.5416 61.8199 -13.4916 62.1571C-12.3885 62.5533 -11.3414 62.9466 -10.2974 63.3959C-8.81392 64.0374 -7.26837 64.5697 -5.78189 65.1551C-3.58168 66.0598 -1.38449 67.0205 0.694629 68.0874C5.72875 70.6615 10.3196 74.1677 14.317 78.2608C11.0589 71.9019 7.45555 65.6932 3.38579 59.797C-1.78325 52.3802 -7.65188 45.4321 -13.5855 38.6492C-14.1161 38.0586 -14.5937 37.5271 -15.1243 36.9365C-15.5594 38.7687 -16.2717 40.53 -16.816 42.3002C-17.6263 44.8433 -18.8731 47.1383 -20.3941 49.3062C-23.079 53.2674 -26.2003 56.9804 -30.9985 58.411C-33.1114 59.0291 -35.5867 59.0656 -37.4857 57.7835C-39.4968 56.4953 -40.5482 54.0777 -40.3103 51.7288C-40.0755 49.4361 -38.9468 47.2473 -37.4497 45.5279C-35.8345 43.7025 -33.5706 42.3615 -31.4868 41.2357C-30.3298 40.6228 -29.1758 40.0659 -28.0219 39.509C-28.4763 39.5972 -28.9837 39.6263 -29.4381 39.7145C-34.8111 40.3273 -40.154 40.3794 -45.3392 38.5282C-47.7105 37.6706 -50.0699 36.5888 -51.2984 34.3303C-51.5047 33.982 -51.4747 33.4213 -51.2296 33.0408C-50.0748 31.4156 -48.3303 30.328 -46.1704 29.8811ZM41.7833 167.104C41.9043 166.942 42.0785 166.838 42.1996 166.676C43.1563 165.603 44.119 164.417 44.9135 163.223C45.7111 161.972 46.3435 160.656 47.0319 159.344C47.6643 158.028 48.4057 156.774 48.926 155.453C50.0316 152.644 50.6357 149.753 51.1867 146.802C51.7497 143.627 52.1475 140.387 52.4303 137.197C52.716 133.951 52.8336 130.697 53.0633 127.448C53.2929 124.199 53.5817 120.897 53.9234 117.654C54.604 111.224 55.4528 104.803 56.859 98.4686C57.3091 96.356 57.8152 94.2464 58.4305 92.1989C57.8131 93.2342 57.1987 94.2135 56.6934 95.2549C54.0637 100.287 52.4161 105.878 51.276 111.44C50.1328 117.058 49.3731 122.865 49.1208 128.643C48.8475 134.813 48.9076 141.058 47.239 147.041C46.2687 150.475 45.0771 153.841 43.8826 157.264C43.0872 159.527 42.3479 161.792 41.6056 164.114C41.7259 165.02 41.7841 166.036 41.7833 167.104ZM55.3757 44.1305C54.0095 44.4512 52.5222 44.934 51.6776 46.0135C51.0161 46.8215 51.0033 48.1141 51.7521 48.8288C52.557 49.5465 53.7401 49.4972 54.9762 49.507C56.7198 49.4876 58.5225 49.4152 60.2221 49.1686C62.0928 48.8749 63.8163 48.1797 65.5457 47.3724C66.8148 46.7654 68.0839 46.1585 69.403 45.6666C68.4651 45.3354 67.4091 45.1104 66.4682 44.8352C64.5833 44.341 62.6985 43.8468 60.7396 43.686C58.8368 43.5281 57.0872 43.6596 55.3757 44.1305ZM60.2978 35.1159C57.6321 33.4554 54.3908 32.0454 51.2578 31.7657C50.9776 31.7507 50.6973 31.7357 50.417 31.7208C50.417 31.7208 50.417 31.7208 50.3019 31.7708C50.355 31.8299 50.352 31.886 50.349 31.942C50.9558 33.2114 52.082 34.2274 53.2172 35.0752C54.4055 35.982 55.6528 36.8358 57.0242 37.4713C58.5577 38.2279 60.1593 38.7632 61.7579 39.3546C63.4686 39.952 65.2413 40.4402 66.955 40.9816C65.1129 38.6341 62.8014 36.6552 60.2978 35.1159ZM71.8651 32.1912C71.8102 26.903 70.6342 21.5548 67.959 16.9139C67.4463 15.9869 67.0839 15.4052 66.3381 14.6345C66.232 14.5163 66.1789 14.4573 66.0728 14.3392C66.0197 14.2801 66.0197 14.2801 66.0197 14.2801C66.0197 14.2801 65.9637 14.2771 65.9667 14.221C65.8576 14.159 65.6954 14.0379 65.5863 13.9758C65.2821 14.4094 64.9778 14.843 64.8388 15.3416C64.6908 16.0084 64.5988 16.6782 64.5629 17.351C64.494 18.6406 64.6464 19.9981 64.8578 21.3026C65.2306 23.7965 66.0607 26.1462 67.003 28.5018C68.5341 32.4632 70.2924 36.3805 71.5372 40.439C71.9051 37.7598 71.9427 34.9505 71.8651 32.1912ZM75.6628 38.9725C76.9477 37.017 78.2355 35.0053 79.7386 33.1739C81.1236 31.4486 82.6178 29.7853 83.7345 27.8208C84.603 26.2928 85.3834 24.3103 84.9157 22.5423C84.8186 22.256 84.7184 22.0257 84.5623 21.7925C84.5623 21.7925 84.5092 21.7334 84.4561 21.6743C84.341 21.7244 84.282 21.7775 84.1669 21.8276C84.1639 21.8836 83.8156 22.09 83.7566 22.143C83.5794 22.3022 83.4023 22.4615 83.2812 22.6237C83.1631 22.7298 83.3402 22.5706 83.3402 22.5706C82.8649 23.0513 83.1011 22.839 83.1631 22.7298C83.045 22.836 82.983 22.9451 82.9209 23.0543C81.4769 24.8326 80.3542 26.9093 79.2905 28.9329C78.7882 29.9182 78.5341 30.4669 78.0908 31.3991C77.1983 33.3756 76.3559 35.4672 75.7937 37.5738C75.6516 38.1285 75.5096 38.6832 75.4236 39.2409C75.5357 39.2469 75.6007 39.0817 75.6628 38.9725ZM118.786 63.0348C120.657 61.6728 122.423 60.1927 123.92 58.4734C124.581 57.6653 125.355 56.8632 125.745 55.872C126.07 55.0459 125.879 54.4172 125.523 53.7234C125.526 53.6674 125.473 53.6083 125.417 53.6053C125.364 53.5463 125.257 53.4281 125.204 53.3691C125.148 53.3661 125.151 53.31 125.095 53.307L125.039 53.304C124.983 53.3011 124.93 53.242 124.983 53.3011L124.927 53.2981C124.871 53.2951 124.815 53.2921 124.759 53.2891C124.703 53.2861 124.647 53.2831 124.588 53.3362C124.473 53.3862 124.361 53.3803 124.245 53.4303C124.189 53.4274 124.13 53.4804 124.074 53.4774C123.959 53.5275 123.844 53.5776 123.729 53.6277C123.44 53.7809 123.207 53.9371 122.917 54.0904C122.858 54.1435 122.802 54.1405 122.799 54.1965C122.799 54.1965 122.743 54.1935 122.74 54.2496C122.622 54.3558 122.507 54.4058 122.389 54.512C122.097 54.7213 121.861 54.9336 121.568 55.1429C120.564 56.0451 119.614 57.0065 118.716 58.0268C118.536 58.2421 118.356 58.4574 118.176 58.6727C118.114 58.7819 117.996 58.888 117.937 58.9411C117.818 59.0472 117.635 59.3186 117.874 59.0502C117.573 59.4277 117.216 59.8022 116.915 60.1797C115.116 62.2766 113.589 64.5566 112.062 66.8366C111.758 67.2701 111.51 67.7067 111.206 68.1403C111.728 67.8308 112.251 67.5213 112.717 67.2089C114.651 65.7378 116.796 64.5029 118.786 63.0348ZM119.973 73.4439C122.106 73.5015 124.242 73.5031 126.328 73.3896C127.623 73.3463 129.03 73.309 130.24 72.7551C130.76 72.5017 131.173 72.1302 131.48 71.6405C131.604 71.4223 131.728 71.204 131.799 70.9266C131.802 70.8706 131.805 70.8145 131.861 70.8175C131.861 70.8175 131.864 70.7614 131.867 70.7054C131.87 70.6493 131.873 70.5932 131.873 70.5932C131.876 70.5372 131.876 70.5372 131.879 70.4811C131.882 70.425 131.826 70.422 131.826 70.422C131.826 70.422 131.826 70.422 131.77 70.419C132.042 70.6022 131.281 70.1118 131.39 70.1738C130.623 69.7955 129.676 69.6325 128.841 69.4755C125.001 68.7644 121.215 69.1245 117.506 70.1635C115.452 70.7285 113.501 71.4678 111.598 72.3782C111.309 72.5315 111.078 72.6316 110.786 72.8409C111.792 72.9509 112.801 73.0047 113.807 73.1147C115.828 73.1663 117.899 73.3332 119.973 73.4439ZM110.874 77.5124C112.292 79.3874 113.594 81.3124 115.015 83.1313C116.382 84.8911 117.868 86.5448 119.413 88.1454C120.904 89.687 122.452 91.2315 124.18 92.5607C125.53 93.5887 127.096 94.7968 128.769 95.0548C129.158 95.1318 129.326 95.1408 129.627 94.7633C129.627 94.7633 129.627 94.7633 129.63 94.7072C129.636 94.5951 129.642 94.483 129.648 94.3708C129.657 94.2026 129.607 94.0875 129.616 93.9193C129.528 93.4648 129.384 93.0073 129.124 92.5998C128.609 91.7289 127.922 90.905 127.291 90.0842C126.555 89.1452 125.759 88.2593 124.96 87.4295C123.468 85.888 121.979 84.2903 120.37 82.855C118.545 81.2394 116.596 79.8421 114.585 78.554C113.116 77.6322 111.535 76.7044 109.822 76.163C110.137 76.5735 110.506 77.043 110.874 77.5124ZM106.492 63.784C106.506 64.5719 106.579 65.3068 106.705 66.1007C107.506 64.794 108.415 63.5494 109.054 62.1216C110.005 60.092 110.683 57.9353 111.027 55.7046C111.37 53.4739 111.431 51.2843 111.439 49.0356C111.446 47.8552 111.393 46.7279 111.229 45.5946C111.065 44.4612 110.611 43.4812 110.214 42.5041C110.096 42.6102 109.977 42.7164 109.856 42.8786C109.552 43.3122 109.242 43.8579 108.938 44.2914C108.32 45.3268 108.036 46.4362 107.752 47.5455C107.107 50.1537 106.683 52.83 106.483 55.5182C106.334 58.3216 106.355 61.0778 106.492 63.784ZM70.5724 132.206C72.2839 131.735 74.0365 131.548 75.8481 131.307C78.9079 130.852 81.9326 130.001 84.5007 128.227C87.302 126.296 89.7969 123.786 92.3359 121.504C94.8749 119.222 97.5731 117.117 100.324 115.071C101.904 113.918 103.48 112.822 105.059 111.669C105.936 111.041 106.872 110.36 107.701 109.561C107.589 109.555 107.53 109.608 107.418 109.602C106.683 109.675 105.887 109.858 105.152 109.931C101.47 110.465 97.9345 111.401 94.4344 112.732C90.9344 114.064 87.4814 115.566 84.1846 117.302C80.9439 119.04 77.7532 120.894 74.8749 123.214C73.2896 124.479 71.7544 125.859 70.5436 127.481C70.2423 127.859 69.9411 128.236 69.693 128.673C69.1727 129.995 68.6554 131.26 68.1912 132.585C68.9819 132.515 69.7757 132.388 70.5724 132.206ZM49.8837 202.791C51.0877 202.349 52.3359 202.134 53.6311 202.091C54.3067 202.071 54.9793 202.107 55.655 202.087C56.2745 202.064 56.9031 201.872 57.5316 201.681C58.6176 201.345 59.7686 200.844 60.8105 200.282C65.034 198.033 67.893 193.969 70.1915 189.874C72.8032 185.178 75.0905 180.24 78.1947 175.795C80.8705 172.002 84.148 168.522 87.894 165.742C89.7686 164.324 91.7993 163.14 93.877 162.126C91.9032 162.245 89.9204 162.533 87.9847 162.992C83.5437 164.048 79.3912 166.019 75.7602 168.749C73.9448 170.114 72.2885 171.656 70.5791 173.139C68.8698 174.623 67.1574 176.162 65.4981 177.76C62.1766 181.012 59.1233 184.504 56.5565 188.359C53.6235 192.757 51.127 197.403 48.7956 202.114C48.5975 202.666 48.4584 203.164 48.2603 203.716C48.6707 203.401 49.1961 203.035 49.8837 202.791ZM21.8763 268.318C21.2679 269.185 20.7125 270.111 20.1602 270.981C19.8851 271.922 19.5539 272.86 19.1697 273.74C18.3362 275.663 17.1224 277.341 15.9646 279.022C15.9055 279.075 15.8435 279.185 15.7844 279.238C17.9213 278.171 20.1612 277.279 22.3481 276.327C25.686 274.875 28.8647 273.245 31.9462 271.329C34.9717 269.41 37.8441 267.202 40.6073 264.932C43.3735 262.606 45.9805 260.102 48.3192 257.36C50.6579 254.617 52.8345 251.753 55.0641 248.948C59.3402 243.61 63.6193 238.216 68.8595 233.773C71.9209 231.181 75.2977 229 78.8837 227.111C80.7933 226.088 82.697 225.178 84.7097 224.329C85.3413 224.082 85.9728 223.835 86.6604 223.59C85.3742 223.465 84.0289 223.393 82.7337 223.437C79.6388 223.496 76.5701 224.12 73.5985 225.029C70.7389 225.945 68.0266 227.262 65.3644 228.694C62.587 230.177 59.8067 231.715 57.1825 233.487C54.5584 235.258 52.1435 237.322 49.6725 239.383C47.0835 241.55 44.5504 243.72 41.9614 245.887C37.0194 250.009 32.7673 254.899 28.5742 259.735C26.1794 262.475 23.8907 265.333 21.8763 268.318ZM27.1577 222.044C26.7147 218.759 26.1596 215.468 25.3774 212.221C24.5921 209.031 23.5236 205.881 22.393 202.841C20.0879 196.533 17.3783 190.428 15.3033 184.02C13.3726 178.069 11.9582 171.921 9.39889 166.162C7.941 162.935 6.07876 159.912 3.86525 157.151C2.8661 155.861 1.80791 154.624 0.749726 153.386C1.16738 155.039 1.58204 156.748 1.99971 158.401C2.82905 161.819 3.77049 165.243 4.48472 168.711C5.86313 175.532 6.73108 182.438 8.10949 189.259C9.44382 195.852 11.1705 202.467 13.762 208.677C16.3534 214.888 19.7505 220.749 22.6282 226.862C23.4883 228.651 24.2924 230.437 25.1525 232.226C25.9565 234.012 26.8166 235.801 27.4495 237.634C27.7409 238.493 27.9763 239.349 28.2086 240.261C28.7561 234.218 27.9584 228.103 27.1577 222.044ZM17.7057 117.969C17.0159 117.201 16.3262 116.434 15.6334 115.722C16.0429 116.475 16.3994 117.169 16.8089 117.921C18.8945 122.025 20.865 126.178 22.7765 130.385C24.741 134.651 26.5905 138.966 28.4959 143.285C30.3484 147.545 32.2008 151.805 33.823 156.164C34.8594 158.862 35.8368 161.613 36.8732 164.311C36.7388 162.617 36.6575 160.983 36.464 159.342C36.1802 156.234 35.8434 153.067 35.3915 149.951C34.7205 147.778 33.9374 145.6 33.0392 143.472C29.4263 134.282 24.3321 125.464 17.7057 117.969ZM20.6419 59.8188C20.5733 56.8913 20.2245 53.9489 19.8167 51.0595C19.0099 45.1126 18.0321 39.2128 16.827 33.3571C16.1508 30.2286 15.4777 27.0439 15.0848 23.8742C14.9556 23.1364 14.8854 22.3455 14.8122 21.6106C14.8092 21.6667 14.8092 21.6667 14.8062 21.7227C14.2201 24.2779 13.693 26.7799 13.4432 29.353C12.8875 34.4962 13.0605 39.6783 13.4637 44.7603C14.3292 54.8711 15.9854 64.9117 18.5534 74.7198C18.7888 75.5758 19.0241 76.4318 19.2565 77.3438C19.5213 74.4904 19.8981 71.6429 20.1599 68.8455C20.4927 65.7708 20.7074 62.8023 20.6419 59.8188ZM10.9411 79.3738C8.0549 76.577 4.87351 74.0456 1.38193 72.06C-2.38094 69.8911 -6.39795 68.2709 -10.474 66.7039C-10.5301 66.7009 -10.5301 66.7009 -10.5831 66.6418C-9.47188 67.9381 -8.36063 69.2345 -7.24937 70.5308C-4.87069 73.3567 -2.07568 75.755 0.899453 77.938C4.0928 80.2451 7.65841 81.8974 11.159 83.7149C12.8547 84.5926 14.5534 85.4143 16.1281 86.4542C17.1071 87.0687 17.968 87.7894 18.7108 88.6162C16.4772 85.1796 13.7741 82.1115 10.9411 79.3738ZM-29.4032 21.1615C-30.5824 20.0865 -31.8238 19.1206 -33.1862 18.3169C-34.3864 17.6343 -35.6427 16.9487 -36.6867 16.4994C-37.4565 16.1772 -38.1702 15.8579 -38.943 15.5918C-39.2733 15.4617 -39.6066 15.3876 -39.937 15.2576C-40.1021 15.1925 -40.2703 15.1835 -40.3794 15.1215C-40.4915 15.1155 -40.5446 15.0564 -40.6567 15.0504C-40.6567 15.0504 -40.6567 15.0504 -40.7127 15.0475C-40.993 15.0325 -41.2703 14.9615 -41.6066 14.9435C-41.6626 14.9405 -41.7187 14.9375 -41.7747 14.9345C-41.8308 14.9315 -41.9459 14.9816 -42.002 14.9786C-42.002 14.9786 -42.058 14.9756 -42.061 15.0317C-42.061 15.0317 -42.061 15.0317 -42.12 15.0848C-42.123 15.1408 -42.123 15.1408 -42.123 15.1408C-42.218 15.8667 -41.5222 16.5224 -40.9326 17.0599C-40.2368 17.7155 -39.476 18.206 -38.7212 18.8085C-36.3507 20.7344 -33.9181 22.551 -31.4265 24.3147C-28.7167 26.2024 -26.0039 28.034 -23.17 29.7035C-22.244 30.2589 -21.318 30.8144 -20.3301 31.2608C-23.1743 27.6791 -26.0215 24.1534 -29.4032 21.1615ZM-21.4814 17.0301C-22.0343 14.7515 -22.6463 12.526 -23.4824 10.2885C-24.0683 8.62666 -24.7692 7.01488 -25.7593 5.55634C-26.5433 4.44618 -27.8577 2.74541 -29.3742 2.72068C-29.4863 2.71469 -29.4833 2.65862 -29.6044 2.82084C-29.7225 2.92699 -29.8466 3.14527 -29.9206 3.47868C-30.2547 4.47292 -30.1995 5.54418 -30.0292 6.56536C-29.6975 8.77591 -28.6812 10.7981 -27.6059 12.7672C-26.4805 14.8515 -25.237 16.8296 -24.0496 18.8047C-22.6529 21.0721 -21.2592 23.3956 -19.9216 25.7161C-19.7153 26.0645 -19.5621 26.3538 -19.3559 26.7022C-20.0821 23.4585 -20.6962 20.2208 -21.4814 17.0301ZM-36.9365 49.6037C-37.693 51.1376 -38.1311 53.026 -37.1409 54.4845C-36.2068 55.9401 -34.5312 56.142 -33.0559 55.8834C-29.0813 55.1397 -26.2762 52.0846 -24.0846 48.9404C-22.5666 46.8286 -21.1546 44.5987 -20.2942 42.1707C-19.892 40.9552 -19.4899 39.7397 -19.0907 38.5802C-19.7282 38.9397 -20.4188 39.2402 -21.0534 39.5437C-23.0691 40.4482 -25.1409 41.3496 -27.1596 42.3102C-30.6716 43.8657 -35.1044 45.8219 -36.9365 49.6037ZM-44.4818 36.1562C-42.1605 36.8986 -39.8242 37.3607 -37.3549 37.4363C-32.08 37.6055 -26.9163 36.7005 -21.8878 35.1697C-21.9439 35.1667 -22 35.1637 -22 35.1637C-24.6135 34.6306 -27.224 34.0414 -29.8375 33.5082C-34.398 32.59 -39.2827 31.4296 -43.983 32.0783C-45.7386 32.3219 -47.5001 32.6776 -48.7461 33.9043C-47.6849 35.0855 -45.9742 35.6829 -44.4818 36.1562Z" fill="#F6D2E6"/>
</svg>
