<svg width="225" height="162" viewBox="0 0 225 162" fill="none" xmlns="http://www.w3.org/2000/svg">
<path d="M45.1059 74.8906C54.6389 61.2323 64.1365 47.5741 73.6695 33.9158C81.649 22.4925 96.0896 19.9028 107.565 27.8139C110.071 29.5523 111.095 32.0001 110.566 34.9446C110.354 36.1153 110.636 36.6475 111.554 37.1086C111.978 37.3215 112.331 37.6763 112.684 37.9601C112.825 37.9246 112.896 37.9246 112.967 37.8891C114.555 37.0377 115.261 36.0089 114.908 33.9513C114.485 31.5389 115.615 29.3039 117.698 28.0268C125.889 22.9537 134.433 21.4992 143.366 26.1466C146.579 27.8139 149.227 30.1908 151.346 33.1708C155.017 38.3858 158.654 43.6008 162.255 48.8157C163.138 50.0929 163.032 51.2636 162.044 51.9731C161.055 52.6826 159.89 52.3633 159.007 51.1217C155.582 46.226 152.122 41.4012 148.803 36.4346C141.742 25.9337 129.879 25.3661 120.346 31.0068C119.145 31.7163 118.616 32.816 118.863 34.1996C120.911 33.7029 122.888 33.0644 124.9 32.816C134.151 31.7518 141.636 35.051 147.25 42.501C147.674 43.0331 147.779 44.1329 147.532 44.8069C147.003 46.226 145.273 46.1905 144.178 44.9488C143.084 43.7072 142.024 42.3591 140.789 41.2593C133.974 35.3703 123.735 34.9801 116.427 40.3015C114.802 41.4722 114.308 43.175 115.191 44.665C116.074 46.1905 117.804 46.7581 119.569 45.8712C127.089 42.0398 136.128 45.7648 139.129 54.2436C141.036 59.6359 141.459 64.709 138.67 69.8175C136.975 72.9039 134.433 75.1034 131.326 76.6644C126.595 79.0413 121.899 81.4182 117.203 83.8305C115.226 84.8239 114.449 86.2074 114.908 87.9103C115.367 89.5422 116.921 90.5 119.004 90.2517C124.194 89.6486 129.384 88.9746 134.575 88.3005C141.848 87.3427 148.203 89.3293 153.04 94.9345C160.314 103.342 167.34 111.998 174.472 120.548C175.425 121.683 175.354 122.819 174.436 123.599C173.554 124.344 172.353 124.202 171.435 123.102C166.634 117.284 161.867 111.431 157.03 105.613C154.806 102.917 152.511 100.291 150.18 97.7017C146.155 93.2317 141.071 91.5288 135.175 92.2738C130.02 92.9124 124.865 93.6219 119.71 94.2605C116.85 94.6152 115.261 94.1186 112.719 92.0964C109.436 95.5731 105.375 94.0831 101.456 93.6929C100.115 93.551 98.7377 93.3736 97.396 93.1607C95.8778 92.9479 95.101 92.0965 95.2776 90.8193C95.4188 89.6131 96.3015 89.0455 97.8197 89.1874C100.362 89.4712 102.869 89.826 105.411 90.1098C106.011 90.1807 106.647 90.2872 107.247 90.2872C108.836 90.3226 110.283 89.2584 110.636 87.8393C111.025 86.3139 110.424 84.8593 108.871 84.0789C104.069 81.5956 99.232 79.1477 94.3949 76.7353C89.5578 74.323 86.4154 70.6335 85.1444 65.3121C84.5442 62.8287 84.5442 60.3099 85.2503 57.8266C86.4507 53.6405 87.8983 49.5252 91.7115 46.9C95.9484 44.0265 100.397 43.5653 105.128 45.481C105.623 45.6938 106.082 45.9422 106.576 46.1195C108.129 46.5807 109.683 45.9067 110.389 44.4877C111.095 43.1041 110.707 41.4012 109.4 40.4789C99.7263 33.632 87.969 36.1863 81.7549 44.2748C81.5784 44.5231 81.4018 44.7715 81.19 45.0198C80.3426 45.9776 79.2834 46.0841 78.3654 45.3746C77.518 44.7005 77.2709 43.5653 78.0476 42.6784C79.6717 40.8336 81.2253 38.847 83.1672 37.3925C89.9109 32.3194 97.396 31.2551 105.411 33.9513C105.764 34.0577 106.152 34.1996 106.576 34.306C106.858 32.6387 105.905 31.7163 104.846 30.9003C102.057 28.8427 98.9142 27.5656 95.4541 27.3173C87.7218 26.6787 81.4724 29.5168 76.9884 35.9379C67.7732 49.0995 58.5933 62.2966 49.3781 75.4937C49.2722 75.6356 49.1663 75.7775 49.0603 75.9194C47.6834 77.906 46.3064 77.8706 45 75.8839C45.1059 75.6001 45.1059 75.2453 45.1059 74.8906ZM112.79 48.1772C109.365 50.696 107.494 50.8733 103.61 49.206C98.8436 47.1129 93.3004 49.0641 91.0054 53.7469C90.1933 55.4143 89.5225 57.1526 89.0635 58.9619C88.0749 62.9352 89.0282 66.5537 91.6056 69.782C93.1238 71.6623 95.1716 72.7265 97.2548 73.7908C102.48 76.416 107.67 79.0768 112.861 81.7375C113.99 81.0989 115.261 80.3539 116.568 79.6798C121.052 77.3739 125.607 75.1389 130.091 72.7975C133.762 70.8818 136.022 67.7954 136.552 63.6802C137.187 59.0328 135.669 54.8821 132.703 51.4409C130.091 48.3545 125.607 47.5031 121.935 49.2769C118.686 50.7669 115.685 50.696 112.79 48.1772Z" fill="#555555"/>
<path d="M87.5806 88.0532C88.3573 88.0887 89.0282 88.1242 89.7343 88.1597C91.2525 88.2661 92.0999 89.1175 91.994 90.3592C91.8881 91.5653 91.0054 92.2749 89.5225 92.133C85.5681 91.7782 81.8961 92.5232 78.6125 94.8291C77.3414 95.716 76.1057 96.7803 75.0818 97.9865C68.2675 106.04 61.5591 114.164 54.8154 122.252C54.4623 122.678 54.1093 123.174 53.6856 123.529C52.8735 124.239 51.9908 124.239 51.1787 123.565C50.3667 122.891 50.2255 122.004 50.7198 121.081C50.861 120.869 51.0375 120.656 51.1787 120.443C58.1696 112.035 65.1604 103.592 72.2219 95.2549C76.2116 90.5011 81.4371 88.1597 87.5806 88.0532Z" fill="#555555"/>
<path d="M180.686 75.6359C180.192 76.239 179.874 77.0195 179.309 77.2678C178.744 77.5161 177.897 77.2678 177.226 77.0549C176.908 76.9485 176.696 76.4873 176.484 76.168C172.318 70.2081 168.152 64.2126 163.986 58.2527C163.774 57.9689 163.562 57.6851 163.421 57.3658C162.997 56.4434 163.209 55.592 163.986 54.9889C164.833 54.3503 165.716 54.3858 166.528 55.0953C166.845 55.3791 167.093 55.7693 167.34 56.1241C171.435 61.9776 175.531 67.8667 179.591 73.7202C179.98 74.2523 180.262 74.8554 180.686 75.6359Z" fill="#555555"/>
<path d="M89.3812 3.97461C89.699 4.25842 90.4757 4.61318 90.7935 5.21627C92.4883 8.55101 94.1124 11.9212 95.7012 15.3269C96.2661 16.5331 95.8778 17.6329 94.8185 18.1295C93.8299 18.5907 92.7707 18.236 92.2058 17.0653C90.5464 13.695 88.9222 10.3248 87.3334 6.95459C86.5919 5.50008 87.4746 4.01009 89.3812 3.97461Z" fill="#555555"/>
<path d="M138.67 5.60612C138.423 6.35112 138.317 6.81231 138.141 7.20254C136.587 10.4309 135.034 13.6237 133.48 16.852C132.986 17.8808 132.28 18.4839 131.079 18.2356C129.843 17.9518 129.208 16.6746 129.808 15.3975C131.397 11.9563 133.092 8.55063 134.751 5.14493C135.21 4.22256 136.093 3.69042 137.046 4.11613C137.717 4.39994 138.176 5.14493 138.67 5.60612Z" fill="#555555"/>
<path d="M110.777 7.16722C110.777 5.53532 110.742 3.90343 110.777 2.27153C110.813 0.817014 111.625 -0.0344094 112.79 0.00106656C113.92 0.0365426 114.697 0.85249 114.697 2.23605C114.732 5.49985 114.732 8.76364 114.697 12.0274C114.697 13.4465 113.849 14.3334 112.684 14.2979C111.554 14.2624 110.813 13.411 110.777 12.0629C110.777 10.431 110.777 8.79912 110.777 7.16722Z" fill="#555555"/>
<path d="M70.2094 15.3979C70.4918 15.6463 71.2333 16.0365 71.5864 16.6396C72.575 18.4134 73.4224 20.2582 74.2697 22.1029C74.7993 23.2736 74.4816 24.3379 73.493 24.8346C72.4691 25.3667 71.3392 24.9765 70.739 23.8058C69.821 21.9965 68.9383 20.1872 68.091 18.3425C67.3848 16.8525 68.2322 15.3979 70.2094 15.3979Z" fill="#555555"/>
<path d="M153.393 25.0467C151.557 25.0113 150.604 23.6632 151.204 22.3506C152.087 20.3284 153.04 18.3418 154.064 16.4261C154.594 15.4327 155.512 15.1844 156.536 15.6101C157.524 16.0004 158.019 17.1001 157.56 18.1644C156.677 20.1865 155.724 22.1732 154.664 24.0889C154.417 24.5501 153.676 24.8339 153.393 25.0467Z" fill="#555555"/>
<path d="M1.70508 140.596C2.60026 140.596 3.48828 140.592 4.36914 140.585C5.25716 140.578 6.06999 140.571 6.80762 140.563C7.54525 140.549 8.17546 140.531 8.69824 140.51C9.22103 140.488 9.57552 140.46 9.76172 140.424L9.23535 141.853C8.99902 141.788 8.72331 141.731 8.4082 141.681C8.13607 141.638 7.80306 141.598 7.40918 141.562C7.02246 141.52 6.57487 141.498 6.06641 141.498C5.89453 141.498 5.68685 141.505 5.44336 141.52C5.20703 141.527 4.97786 141.537 4.75586 141.552C4.49805 141.566 4.23665 141.58 3.97168 141.595V147.46C4.70931 147.453 5.37533 147.431 5.96973 147.396C6.56413 147.36 7.06901 147.324 7.48438 147.288C7.97135 147.245 8.40104 147.195 8.77344 147.138L8.44043 148.695C7.94629 148.631 7.44141 148.57 6.92578 148.513C6.48177 148.463 5.99837 148.42 5.47559 148.384C4.9528 148.341 4.4515 148.319 3.97168 148.319V155.055C4.81673 155.055 5.59375 155.019 6.30273 154.947C7.01172 154.876 7.63118 154.793 8.16113 154.7C8.77702 154.6 9.33919 154.482 9.84766 154.346L9.53613 156.086C9.4502 156.079 9.32129 156.072 9.14941 156.064C8.97754 156.057 8.78418 156.05 8.56934 156.043C8.36165 156.036 8.13965 156.029 7.90332 156.021C7.67415 156.021 7.45573 156.018 7.24805 156.011C7.04036 156.011 6.85417 156.007 6.68945 156C6.5319 156 6.41732 156 6.3457 156H1.70508V155.957C1.74805 155.807 1.78743 155.62 1.82324 155.398C1.86621 155.176 1.90202 154.901 1.93066 154.571C1.95931 154.242 1.98079 153.852 1.99512 153.4C2.00944 152.942 2.0166 152.409 2.0166 151.8V144.807C2.0166 144.198 2.00944 143.668 1.99512 143.217C1.98079 142.758 1.95931 142.365 1.93066 142.035C1.90202 141.699 1.86621 141.419 1.82324 141.197C1.78743 140.975 1.74805 140.789 1.70508 140.639V140.596ZM18.2373 149.265L14.4346 154.088C14.2913 154.26 14.1517 154.439 14.0156 154.625C13.8796 154.804 13.7578 154.979 13.6504 155.151C13.543 155.323 13.4535 155.484 13.3818 155.635C13.3174 155.778 13.2852 155.9 13.2852 156H11.2012V155.957C11.3587 155.821 11.5807 155.613 11.8672 155.334C12.1608 155.055 12.4723 154.704 12.8018 154.281L17.5283 148.341L12.6729 141.96C12.4079 141.616 12.1465 141.33 11.8887 141.101C11.6309 140.864 11.4375 140.71 11.3086 140.639V140.596H14.6709C14.6709 140.682 14.6816 140.793 14.7031 140.929C14.7318 141.065 14.7819 141.226 14.8535 141.412C14.9251 141.591 15.0218 141.792 15.1436 142.014C15.2725 142.236 15.4372 142.476 15.6377 142.733L18.7422 146.805L22.1689 142.519C22.2979 142.361 22.4232 142.189 22.5449 142.003C22.6738 141.817 22.7848 141.638 22.8779 141.466C22.9782 141.287 23.057 141.122 23.1143 140.972C23.1787 140.821 23.2109 140.696 23.2109 140.596H25.2949V140.639C25.2233 140.696 25.1445 140.764 25.0586 140.843C24.9727 140.922 24.8724 141.018 24.7578 141.133C24.6504 141.247 24.5286 141.383 24.3926 141.541C24.2565 141.699 24.1025 141.885 23.9307 142.1L19.4512 147.75L24.457 154.303C24.8008 154.747 25.1195 155.116 25.4131 155.409C25.7139 155.696 25.9323 155.878 26.0684 155.957V156H22.7275C22.7275 155.835 22.6595 155.563 22.5234 155.184C22.3874 154.804 22.1331 154.364 21.7607 153.862L18.2373 149.265ZM30.1182 149.179C30.82 149.308 31.4609 149.322 32.041 149.222C32.6283 149.114 33.1296 148.892 33.5449 148.556C33.9674 148.212 34.2933 147.75 34.5225 147.17C34.7588 146.59 34.877 145.881 34.877 145.043C34.877 144.463 34.8161 143.937 34.6943 143.464C34.5726 142.984 34.39 142.579 34.1465 142.25C33.9102 141.913 33.6094 141.656 33.2441 141.477C32.8789 141.29 32.4528 141.197 31.9658 141.197C31.6579 141.197 31.3893 141.212 31.1602 141.24C30.931 141.262 30.7376 141.287 30.5801 141.315C30.3939 141.351 30.2399 141.391 30.1182 141.434V149.179ZM27.8516 140.596C27.9948 140.61 28.1452 140.624 28.3027 140.639C28.4388 140.653 28.5892 140.664 28.7539 140.671C28.9258 140.671 29.1012 140.671 29.2803 140.671C29.5596 140.671 29.9355 140.639 30.4082 140.574C30.888 140.503 31.4967 140.467 32.2344 140.467C32.9219 140.467 33.5557 140.567 34.1357 140.768C34.723 140.968 35.2314 141.262 35.6611 141.648C36.0908 142.035 36.4238 142.508 36.6602 143.066C36.9036 143.618 37.0254 144.248 37.0254 144.957C37.0254 145.91 36.8356 146.733 36.4561 147.428C36.0765 148.122 35.568 148.685 34.9307 149.114C34.2933 149.544 33.5592 149.838 32.7285 149.995C31.8978 150.146 31.0277 150.153 30.1182 150.017V151.8C30.1182 152.409 30.1253 152.942 30.1396 153.4C30.1611 153.852 30.1826 154.242 30.2041 154.571C30.2327 154.901 30.265 155.176 30.3008 155.398C30.3438 155.62 30.3867 155.807 30.4297 155.957V156H27.8516V155.957C27.8945 155.807 27.9339 155.62 27.9697 155.398C28.0127 155.176 28.0485 154.901 28.0771 154.571C28.1058 154.242 28.1273 153.852 28.1416 153.4C28.1559 152.942 28.1631 152.409 28.1631 151.8V144.807C28.1631 144.198 28.1559 143.668 28.1416 143.217C28.1273 142.758 28.1058 142.365 28.0771 142.035C28.0485 141.699 28.0127 141.419 27.9697 141.197C27.9339 140.975 27.8945 140.789 27.8516 140.639V140.596ZM39.1309 140.596C40.026 140.596 40.9141 140.592 41.7949 140.585C42.6829 140.578 43.4958 140.571 44.2334 140.563C44.971 140.549 45.6012 140.531 46.124 140.51C46.6468 140.488 47.0013 140.46 47.1875 140.424L46.6611 141.853C46.4248 141.788 46.1491 141.731 45.834 141.681C45.5618 141.638 45.2288 141.598 44.835 141.562C44.4482 141.52 44.0007 141.498 43.4922 141.498C43.3203 141.498 43.1126 141.505 42.8691 141.52C42.6328 141.527 42.4036 141.537 42.1816 141.552C41.9238 141.566 41.6624 141.58 41.3975 141.595V147.46C42.1351 147.453 42.8011 147.431 43.3955 147.396C43.9899 147.36 44.4948 147.324 44.9102 147.288C45.3971 147.245 45.8268 147.195 46.1992 147.138L45.8662 148.695C45.3721 148.631 44.8672 148.57 44.3516 148.513C43.9076 148.463 43.4242 148.42 42.9014 148.384C42.3786 148.341 41.8773 148.319 41.3975 148.319V155.055C42.2425 155.055 43.0195 155.019 43.7285 154.947C44.4375 154.876 45.057 154.793 45.5869 154.7C46.2028 154.6 46.765 154.482 47.2734 154.346L46.9619 156.086C46.876 156.079 46.7471 156.072 46.5752 156.064C46.4033 156.057 46.21 156.05 45.9951 156.043C45.7874 156.036 45.5654 156.029 45.3291 156.021C45.0999 156.021 44.8815 156.018 44.6738 156.011C44.4661 156.011 44.2799 156.007 44.1152 156C43.9577 156 43.8431 156 43.7715 156H39.1309V155.957C39.1738 155.807 39.2132 155.62 39.249 155.398C39.292 155.176 39.3278 154.901 39.3564 154.571C39.3851 154.242 39.4066 153.852 39.4209 153.4C39.4352 152.942 39.4424 152.409 39.4424 151.8V144.807C39.4424 144.198 39.4352 143.668 39.4209 143.217C39.4066 142.758 39.3851 142.365 39.3564 142.035C39.3278 141.699 39.292 141.419 39.249 141.197C39.2132 140.975 39.1738 140.789 39.1309 140.639V140.596ZM52.1826 151.8C52.1826 152.409 52.1898 152.942 52.2041 153.4C52.2256 153.852 52.2471 154.242 52.2686 154.571C52.2972 154.901 52.3294 155.176 52.3652 155.398C52.4082 155.62 52.4512 155.807 52.4941 155.957V156H49.916V155.957C49.959 155.807 49.9984 155.62 50.0342 155.398C50.0771 155.176 50.1094 154.901 50.1309 154.571C50.1595 154.242 50.181 153.852 50.1953 153.4C50.2168 152.949 50.2275 152.416 50.2275 151.8V144.807C50.2275 144.198 50.2168 143.668 50.1953 143.217C50.181 142.758 50.1595 142.365 50.1309 142.035C50.1094 141.706 50.0771 141.43 50.0342 141.208C49.9984 140.979 49.959 140.789 49.916 140.639V140.596L50.3672 140.639C50.5033 140.653 50.6536 140.664 50.8184 140.671C50.9902 140.671 51.1657 140.671 51.3447 140.671C51.624 140.671 52 140.639 52.4727 140.574C52.9525 140.503 53.5612 140.467 54.2988 140.467C54.9863 140.467 55.6201 140.56 56.2002 140.746C56.7874 140.932 57.2959 141.204 57.7256 141.562C58.1553 141.921 58.4883 142.361 58.7246 142.884C58.9681 143.399 59.0898 143.987 59.0898 144.646C59.0898 145.161 59.0218 145.641 58.8857 146.085C58.7568 146.522 58.5706 146.919 58.3271 147.277C58.0908 147.635 57.8044 147.954 57.4678 148.233C57.1312 148.506 56.7552 148.735 56.3398 148.921L60.1104 154.217C60.2965 154.482 60.4684 154.711 60.626 154.904C60.7907 155.098 60.9447 155.266 61.0879 155.409C61.2383 155.545 61.3815 155.66 61.5176 155.753C61.6536 155.839 61.7933 155.907 61.9365 155.957V156H58.832C58.8105 155.864 58.7389 155.685 58.6172 155.463C58.5026 155.234 58.3665 155.008 58.209 154.786L54.4062 149.426C54.2415 149.44 54.0768 149.454 53.9121 149.469C53.7474 149.476 53.5791 149.479 53.4072 149.479C53.2067 149.479 53.0026 149.472 52.7949 149.458C52.5944 149.444 52.3903 149.419 52.1826 149.383V151.8ZM52.1826 148.545C52.376 148.588 52.5729 148.62 52.7734 148.642C52.974 148.656 53.1673 148.663 53.3535 148.663C53.8906 148.663 54.3812 148.584 54.8252 148.427C55.2692 148.262 55.6452 148.015 55.9531 147.686C56.2682 147.356 56.5117 146.948 56.6836 146.461C56.8555 145.967 56.9414 145.39 56.9414 144.731C56.9414 144.194 56.8805 143.707 56.7588 143.271C56.637 142.834 56.4544 142.465 56.2109 142.164C55.9746 141.856 55.6738 141.62 55.3086 141.455C54.9434 141.283 54.5173 141.197 54.0303 141.197C53.5361 141.197 53.1423 141.222 52.8486 141.272C52.555 141.323 52.333 141.376 52.1826 141.434V148.545ZM66.2979 141.541C65.4528 141.541 64.6901 141.58 64.0098 141.659C63.3294 141.731 62.7422 141.81 62.248 141.896C61.6751 142.003 61.1631 142.121 60.7119 142.25L61.0234 140.51C61.1094 140.517 61.2383 140.524 61.4102 140.531C61.582 140.538 61.7718 140.546 61.9795 140.553C62.1943 140.56 62.4163 140.567 62.6455 140.574C62.8818 140.574 63.1038 140.578 63.3115 140.585C63.5192 140.585 63.7018 140.589 63.8594 140.596C64.0241 140.596 64.1423 140.596 64.2139 140.596H70.3477C70.4193 140.596 70.5339 140.596 70.6914 140.596C70.8561 140.589 71.0423 140.585 71.25 140.585C71.4577 140.578 71.6761 140.574 71.9053 140.574C72.1416 140.567 72.3636 140.56 72.5713 140.553C72.7861 140.546 72.9795 140.538 73.1514 140.531C73.3232 140.524 73.4521 140.517 73.5381 140.51L73.8496 142.25C73.3913 142.121 72.8757 142.003 72.3027 141.896C71.8086 141.81 71.2214 141.731 70.541 141.659C69.8607 141.58 69.098 141.541 68.2529 141.541V151.8C68.2529 152.409 68.2601 152.942 68.2744 153.4C68.2959 153.852 68.3174 154.242 68.3389 154.571C68.3675 154.901 68.3997 155.176 68.4355 155.398C68.4785 155.62 68.5215 155.807 68.5645 155.957V156H65.9971V155.957C66.04 155.807 66.0794 155.62 66.1152 155.398C66.151 155.176 66.1833 154.901 66.2119 154.571C66.2406 154.242 66.262 153.852 66.2764 153.4C66.2907 152.942 66.2979 152.409 66.2979 151.8V141.541ZM81.8203 143.045H81.584C81.5267 142.88 81.4336 142.694 81.3047 142.486C81.1829 142.279 81.0182 142.085 80.8105 141.906C80.61 141.72 80.363 141.566 80.0693 141.444C79.7829 141.323 79.4427 141.262 79.0488 141.262C78.6979 141.262 78.3864 141.315 78.1143 141.423C77.8421 141.53 77.613 141.681 77.4268 141.874C77.2477 142.067 77.1117 142.297 77.0186 142.562C76.9255 142.826 76.8789 143.12 76.8789 143.442C76.8789 143.958 77.0221 144.452 77.3086 144.925C77.6022 145.39 77.9674 145.852 78.4043 146.311C78.8411 146.769 79.3138 147.227 79.8223 147.686C80.3307 148.144 80.8034 148.62 81.2402 149.114C81.6771 149.608 82.0387 150.128 82.3252 150.672C82.6188 151.209 82.7656 151.789 82.7656 152.412C82.7656 152.878 82.6833 153.347 82.5186 153.819C82.361 154.285 82.1139 154.704 81.7773 155.076C81.4408 155.449 81.0075 155.753 80.4775 155.989C79.9476 156.218 79.3174 156.333 78.5869 156.333C78.1787 156.333 77.7884 156.294 77.416 156.215C77.0508 156.143 76.7106 156.054 76.3955 155.946C76.0876 155.832 75.8083 155.71 75.5576 155.581C75.3141 155.452 75.1136 155.334 74.9561 155.227L75.2031 152.853H75.4717C75.5505 153.189 75.6794 153.511 75.8584 153.819C76.0374 154.12 76.2559 154.389 76.5137 154.625C76.7786 154.854 77.0794 155.04 77.416 155.184C77.7526 155.32 78.1214 155.388 78.5225 155.388C78.8877 155.388 79.2135 155.334 79.5 155.227C79.7936 155.112 80.0443 154.958 80.252 154.765C80.4596 154.564 80.6172 154.328 80.7246 154.056C80.8392 153.784 80.8965 153.486 80.8965 153.164C80.8965 152.713 80.8141 152.298 80.6494 151.918C80.4847 151.531 80.2663 151.166 79.9941 150.822C79.7292 150.479 79.4248 150.146 79.0811 149.823C78.7445 149.501 78.3971 149.179 78.0391 148.856C77.681 148.527 77.3301 148.19 76.9863 147.847C76.6497 147.503 76.3454 147.138 76.0732 146.751C75.8083 146.357 75.5934 145.938 75.4287 145.494C75.264 145.043 75.1816 144.549 75.1816 144.012C75.1816 143.446 75.2891 142.938 75.5039 142.486C75.7259 142.028 76.016 141.638 76.374 141.315C76.7393 140.993 77.151 140.746 77.6094 140.574C78.0677 140.402 78.5404 140.316 79.0273 140.316C79.3854 140.316 79.7148 140.345 80.0156 140.402C80.3164 140.46 80.585 140.528 80.8213 140.606C81.0648 140.685 81.276 140.764 81.4551 140.843C81.6341 140.922 81.7809 140.986 81.8955 141.036L81.8203 143.045ZM92.1006 155.957C92.1436 155.807 92.1829 155.62 92.2188 155.398C92.2546 155.176 92.2868 154.901 92.3154 154.571C92.3441 154.242 92.3656 153.852 92.3799 153.4C92.3942 152.942 92.4014 152.409 92.4014 151.8V144.807C92.4014 144.198 92.3942 143.668 92.3799 143.217C92.3656 142.758 92.3441 142.365 92.3154 142.035C92.2868 141.699 92.2546 141.419 92.2188 141.197C92.1829 140.975 92.1436 140.789 92.1006 140.639V140.596H94.668V140.639C94.625 140.789 94.582 140.975 94.5391 141.197C94.5033 141.419 94.471 141.699 94.4424 142.035C94.4209 142.365 94.3994 142.758 94.3779 143.217C94.3636 143.668 94.3564 144.198 94.3564 144.807V151.8C94.3564 152.409 94.3636 152.942 94.3779 153.4C94.3994 153.852 94.4209 154.242 94.4424 154.571C94.471 154.901 94.5033 155.176 94.5391 155.398C94.582 155.62 94.625 155.807 94.668 155.957V156H92.1006V155.957ZM98.4492 140.596L109.514 152.369V144.807C109.514 144.198 109.507 143.668 109.492 143.217C109.478 142.758 109.456 142.365 109.428 142.035C109.399 141.699 109.363 141.419 109.32 141.197C109.285 140.975 109.245 140.789 109.202 140.639V140.596H111.114V140.639C111.071 140.789 111.032 140.975 110.996 141.197C110.96 141.419 110.928 141.699 110.899 142.035C110.871 142.365 110.849 142.758 110.835 143.217C110.821 143.668 110.813 144.198 110.813 144.807V156.215H110.438L99.373 144.452V151.8C99.373 152.409 99.3802 152.942 99.3945 153.4C99.4089 153.852 99.4303 154.242 99.459 154.571C99.4876 154.901 99.5199 155.176 99.5557 155.398C99.5915 155.62 99.6309 155.807 99.6738 155.957V156H97.7617V155.957C97.8047 155.807 97.8441 155.62 97.8799 155.398C97.9229 155.176 97.9587 154.901 97.9873 154.571C98.016 154.242 98.0374 153.852 98.0518 153.4C98.0661 152.942 98.0732 152.409 98.0732 151.8V144.807C98.0732 144.198 98.0661 143.668 98.0518 143.217C98.0374 142.758 98.016 142.365 97.9873 142.035C97.9587 141.699 97.9229 141.419 97.8799 141.197C97.8441 140.975 97.8047 140.789 97.7617 140.639V140.596H98.4492ZM127.732 140.338C128.928 140.338 130.031 140.535 131.041 140.929C132.058 141.315 132.935 141.863 133.673 142.572C134.41 143.274 134.987 144.119 135.402 145.107C135.818 146.096 136.025 147.188 136.025 148.384C136.025 149.064 135.947 149.734 135.789 150.393C135.632 151.051 135.399 151.674 135.091 152.262C134.79 152.849 134.418 153.393 133.974 153.895C133.53 154.389 133.021 154.818 132.448 155.184C131.882 155.542 131.256 155.821 130.568 156.021C129.881 156.229 129.14 156.333 128.345 156.333C127.149 156.333 126.042 156.143 125.025 155.764C124.016 155.377 123.142 154.833 122.404 154.131C121.667 153.429 121.09 152.588 120.675 151.606C120.259 150.618 120.052 149.522 120.052 148.319C120.052 147.639 120.131 146.969 120.288 146.311C120.446 145.652 120.675 145.025 120.976 144.431C121.284 143.836 121.656 143.292 122.093 142.798C122.537 142.297 123.042 141.863 123.607 141.498C124.18 141.133 124.811 140.85 125.498 140.649C126.193 140.442 126.938 140.338 127.732 140.338ZM128.345 155.366C129.14 155.366 129.867 155.223 130.525 154.937C131.184 154.65 131.75 154.235 132.223 153.69C132.702 153.146 133.075 152.484 133.34 151.703C133.605 150.915 133.737 150.024 133.737 149.028C133.737 147.925 133.608 146.905 133.351 145.967C133.1 145.021 132.724 144.205 132.223 143.518C131.721 142.823 131.095 142.282 130.343 141.896C129.598 141.502 128.728 141.305 127.732 141.305C126.938 141.305 126.211 141.448 125.552 141.734C124.893 142.014 124.324 142.422 123.844 142.959C123.371 143.496 123.002 144.155 122.737 144.936C122.472 145.716 122.34 146.604 122.34 147.6C122.34 148.695 122.465 149.719 122.716 150.672C122.966 151.617 123.342 152.437 123.844 153.132C124.345 153.826 124.972 154.374 125.724 154.775C126.476 155.169 127.349 155.366 128.345 155.366ZM149.475 144.807C149.475 144.198 149.467 143.668 149.453 143.217C149.439 142.758 149.417 142.365 149.389 142.035C149.36 141.699 149.328 141.419 149.292 141.197C149.256 140.975 149.217 140.789 149.174 140.639V140.596H151.086V140.639C151.043 140.789 151 140.975 150.957 141.197C150.921 141.419 150.889 141.699 150.86 142.035C150.839 142.365 150.817 142.758 150.796 143.217C150.782 143.668 150.774 144.198 150.774 144.807V150.607C150.774 151.632 150.628 152.505 150.334 153.229C150.04 153.952 149.632 154.546 149.109 155.012C148.587 155.47 147.96 155.803 147.229 156.011C146.499 156.226 145.701 156.333 144.834 156.333C143.967 156.333 143.158 156.233 142.406 156.032C141.661 155.832 141.01 155.509 140.451 155.065C139.9 154.614 139.466 154.034 139.151 153.325C138.836 152.609 138.679 151.739 138.679 150.715V144.807C138.679 144.198 138.672 143.668 138.657 143.217C138.643 142.758 138.621 142.365 138.593 142.035C138.564 141.699 138.528 141.419 138.485 141.197C138.45 140.975 138.41 140.789 138.367 140.639V140.596H140.945V140.639C140.902 140.789 140.859 140.975 140.816 141.197C140.781 141.419 140.748 141.699 140.72 142.035C140.691 142.365 140.67 142.758 140.655 143.217C140.641 143.668 140.634 144.198 140.634 144.807V150.833C140.634 151.685 140.759 152.391 141.01 152.949C141.268 153.501 141.604 153.941 142.02 154.271C142.435 154.593 142.908 154.818 143.438 154.947C143.967 155.076 144.508 155.141 145.06 155.141C145.611 155.141 146.152 155.076 146.682 154.947C147.212 154.818 147.681 154.593 148.089 154.271C148.504 153.941 148.837 153.501 149.088 152.949C149.346 152.391 149.475 151.685 149.475 150.833V144.807ZM156.339 151.8C156.339 152.409 156.346 152.942 156.36 153.4C156.382 153.852 156.403 154.242 156.425 154.571C156.453 154.901 156.486 155.176 156.521 155.398C156.564 155.62 156.607 155.807 156.65 155.957V156H154.072V155.957C154.115 155.807 154.155 155.62 154.19 155.398C154.233 155.176 154.266 154.901 154.287 154.571C154.316 154.242 154.337 153.852 154.352 153.4C154.373 152.949 154.384 152.416 154.384 151.8V144.807C154.384 144.198 154.373 143.668 154.352 143.217C154.337 142.758 154.316 142.365 154.287 142.035C154.266 141.706 154.233 141.43 154.19 141.208C154.155 140.979 154.115 140.789 154.072 140.639V140.596L154.523 140.639C154.66 140.653 154.81 140.664 154.975 140.671C155.146 140.671 155.322 140.671 155.501 140.671C155.78 140.671 156.156 140.639 156.629 140.574C157.109 140.503 157.717 140.467 158.455 140.467C159.143 140.467 159.776 140.56 160.356 140.746C160.944 140.932 161.452 141.204 161.882 141.562C162.312 141.921 162.645 142.361 162.881 142.884C163.124 143.399 163.246 143.987 163.246 144.646C163.246 145.161 163.178 145.641 163.042 146.085C162.913 146.522 162.727 146.919 162.483 147.277C162.247 147.635 161.961 147.954 161.624 148.233C161.287 148.506 160.911 148.735 160.496 148.921L164.267 154.217C164.453 154.482 164.625 154.711 164.782 154.904C164.947 155.098 165.101 155.266 165.244 155.409C165.395 155.545 165.538 155.66 165.674 155.753C165.81 155.839 165.95 155.907 166.093 155.957V156H162.988C162.967 155.864 162.895 155.685 162.773 155.463C162.659 155.234 162.523 155.008 162.365 154.786L158.562 149.426C158.398 149.44 158.233 149.454 158.068 149.469C157.904 149.476 157.735 149.479 157.563 149.479C157.363 149.479 157.159 149.472 156.951 149.458C156.751 149.444 156.547 149.419 156.339 149.383V151.8ZM156.339 148.545C156.532 148.588 156.729 148.62 156.93 148.642C157.13 148.656 157.324 148.663 157.51 148.663C158.047 148.663 158.537 148.584 158.981 148.427C159.425 148.262 159.801 148.015 160.109 147.686C160.424 147.356 160.668 146.948 160.84 146.461C161.012 145.967 161.098 145.39 161.098 144.731C161.098 144.194 161.037 143.707 160.915 143.271C160.793 142.834 160.611 142.465 160.367 142.164C160.131 141.856 159.83 141.62 159.465 141.455C159.1 141.283 158.674 141.197 158.187 141.197C157.692 141.197 157.299 141.222 157.005 141.272C156.711 141.323 156.489 141.376 156.339 141.434V148.545ZM175.933 151.8C175.933 152.409 175.94 152.942 175.954 153.4C175.976 153.852 175.997 154.242 176.019 154.571C176.047 154.901 176.079 155.176 176.115 155.398C176.158 155.62 176.201 155.807 176.244 155.957V156H173.666V155.957C173.709 155.807 173.748 155.62 173.784 155.398C173.827 155.176 173.863 154.901 173.892 154.571C173.92 154.242 173.942 153.852 173.956 153.4C173.97 152.942 173.978 152.409 173.978 151.8V144.807C173.978 144.198 173.97 143.668 173.956 143.217C173.942 142.758 173.92 142.365 173.892 142.035C173.863 141.699 173.827 141.419 173.784 141.197C173.748 140.975 173.709 140.789 173.666 140.639V140.596C174.26 140.596 174.862 140.596 175.471 140.596C176.079 140.589 176.67 140.585 177.243 140.585C177.816 140.578 178.36 140.571 178.876 140.563C179.392 140.549 179.857 140.538 180.272 140.531C180.688 140.517 181.039 140.503 181.325 140.488C181.612 140.467 181.816 140.445 181.938 140.424L181.411 141.853C181.175 141.788 180.899 141.731 180.584 141.681C180.312 141.638 179.979 141.598 179.585 141.562C179.198 141.52 178.751 141.498 178.242 141.498C178.07 141.498 177.855 141.505 177.598 141.52C177.34 141.527 177.086 141.537 176.835 141.552C176.549 141.566 176.248 141.58 175.933 141.595V147.02C176.67 147.012 177.347 146.991 177.963 146.955C178.579 146.919 179.109 146.883 179.553 146.848C180.068 146.805 180.534 146.755 180.949 146.697L180.627 148.255C180.09 148.19 179.546 148.13 178.994 148.072C178.521 148.022 178.013 147.979 177.469 147.943C176.924 147.9 176.412 147.879 175.933 147.879V151.8ZM184.011 155.957C184.054 155.807 184.093 155.62 184.129 155.398C184.165 155.176 184.197 154.901 184.226 154.571C184.254 154.242 184.276 153.852 184.29 153.4C184.304 152.942 184.312 152.409 184.312 151.8V144.807C184.312 144.198 184.304 143.668 184.29 143.217C184.276 142.758 184.254 142.365 184.226 142.035C184.197 141.699 184.165 141.419 184.129 141.197C184.093 140.975 184.054 140.789 184.011 140.639V140.596H186.578V140.639C186.535 140.789 186.492 140.975 186.449 141.197C186.413 141.419 186.381 141.699 186.353 142.035C186.331 142.365 186.31 142.758 186.288 143.217C186.274 143.668 186.267 144.198 186.267 144.807V151.8C186.267 152.409 186.274 152.942 186.288 153.4C186.31 153.852 186.331 154.242 186.353 154.571C186.381 154.901 186.413 155.176 186.449 155.398C186.492 155.62 186.535 155.807 186.578 155.957V156H184.011V155.957ZM189.758 140.596C190.653 140.596 191.541 140.592 192.422 140.585C193.31 140.578 194.123 140.571 194.86 140.563C195.598 140.549 196.228 140.531 196.751 140.51C197.274 140.488 197.628 140.46 197.814 140.424L197.288 141.853C197.052 141.788 196.776 141.731 196.461 141.681C196.189 141.638 195.856 141.598 195.462 141.562C195.075 141.52 194.628 141.498 194.119 141.498C193.947 141.498 193.74 141.505 193.496 141.52C193.26 141.527 193.031 141.537 192.809 141.552C192.551 141.566 192.289 141.58 192.024 141.595V147.46C192.762 147.453 193.428 147.431 194.022 147.396C194.617 147.36 195.122 147.324 195.537 147.288C196.024 147.245 196.454 147.195 196.826 147.138L196.493 148.695C195.999 148.631 195.494 148.57 194.979 148.513C194.535 148.463 194.051 148.42 193.528 148.384C193.006 148.341 192.504 148.319 192.024 148.319V155.055C192.869 155.055 193.646 155.019 194.355 154.947C195.064 154.876 195.684 154.793 196.214 154.7C196.83 154.6 197.392 154.482 197.9 154.346L197.589 156.086C197.503 156.079 197.374 156.072 197.202 156.064C197.03 156.057 196.837 156.05 196.622 156.043C196.414 156.036 196.192 156.029 195.956 156.021C195.727 156.021 195.508 156.018 195.301 156.011C195.093 156.011 194.907 156.007 194.742 156C194.585 156 194.47 156 194.398 156H189.758V155.957C189.801 155.807 189.84 155.62 189.876 155.398C189.919 155.176 189.955 154.901 189.983 154.571C190.012 154.242 190.034 153.852 190.048 153.4C190.062 152.942 190.069 152.409 190.069 151.8V144.807C190.069 144.198 190.062 143.668 190.048 143.217C190.034 142.758 190.012 142.365 189.983 142.035C189.955 141.699 189.919 141.419 189.876 141.197C189.84 140.975 189.801 140.789 189.758 140.639V140.596ZM202.81 155.055C203.655 155.055 204.432 155.019 205.141 154.947C205.85 154.876 206.469 154.793 206.999 154.7C207.615 154.6 208.177 154.482 208.686 154.346L208.374 156.086C208.288 156.079 208.159 156.072 207.987 156.064C207.815 156.057 207.622 156.05 207.407 156.043C207.2 156.036 206.978 156.029 206.741 156.021C206.512 156.021 206.294 156.018 206.086 156.011C205.878 156.011 205.692 156.007 205.527 156C205.37 156 205.255 156 205.184 156H200.543V155.957C200.586 155.807 200.625 155.62 200.661 155.398C200.704 155.176 200.74 154.901 200.769 154.571C200.797 154.242 200.819 153.852 200.833 153.4C200.847 152.942 200.854 152.409 200.854 151.8V144.807C200.854 144.198 200.847 143.668 200.833 143.217C200.819 142.758 200.797 142.365 200.769 142.035C200.74 141.699 200.704 141.419 200.661 141.197C200.625 140.975 200.586 140.789 200.543 140.639V140.596H203.121V140.639C203.078 140.789 203.035 140.975 202.992 141.197C202.956 141.419 202.924 141.699 202.896 142.035C202.874 142.365 202.853 142.758 202.831 143.217C202.817 143.668 202.81 144.198 202.81 144.807V155.055ZM213.015 141.52C213 142.322 212.986 143.099 212.972 143.851C212.965 144.173 212.957 144.502 212.95 144.839C212.95 145.175 212.947 145.508 212.939 145.838C212.939 146.16 212.936 146.472 212.929 146.772C212.929 147.066 212.929 147.327 212.929 147.557C212.929 148.036 212.932 148.617 212.939 149.297C212.947 149.977 212.954 150.675 212.961 151.392C212.975 152.108 212.993 152.795 213.015 153.454C213.036 154.113 213.061 154.661 213.09 155.098C213.19 155.112 213.323 155.13 213.487 155.151C213.659 155.166 213.838 155.18 214.024 155.194C214.211 155.201 214.393 155.209 214.572 155.216C214.751 155.223 214.902 155.227 215.023 155.227C215.525 155.227 216.037 155.194 216.56 155.13C217.09 155.058 217.598 154.929 218.085 154.743C218.579 154.557 219.041 154.303 219.471 153.98C219.908 153.651 220.287 153.229 220.609 152.713C220.939 152.197 221.197 151.578 221.383 150.854C221.569 150.124 221.662 149.265 221.662 148.276C221.662 147.181 221.53 146.207 221.265 145.354C221 144.495 220.609 143.772 220.094 143.185C219.585 142.597 218.951 142.153 218.192 141.853C217.44 141.545 216.574 141.391 215.593 141.391C215.399 141.391 215.181 141.398 214.938 141.412C214.694 141.419 214.451 141.43 214.207 141.444C213.971 141.451 213.745 141.466 213.53 141.487C213.323 141.502 213.151 141.512 213.015 141.52ZM210.662 140.553C210.827 140.56 210.981 140.567 211.124 140.574C211.246 140.581 211.371 140.589 211.5 140.596C211.629 140.596 211.733 140.596 211.812 140.596C211.948 140.596 212.173 140.589 212.488 140.574C212.811 140.56 213.176 140.546 213.584 140.531C213.992 140.517 214.415 140.503 214.852 140.488C215.296 140.474 215.711 140.467 216.098 140.467C217.136 140.467 218.124 140.596 219.062 140.854C220.001 141.111 220.824 141.534 221.533 142.121C222.242 142.708 222.804 143.478 223.22 144.431C223.635 145.383 223.843 146.554 223.843 147.943C223.843 148.939 223.732 149.834 223.51 150.629C223.295 151.424 222.991 152.126 222.597 152.734C222.203 153.343 221.73 153.866 221.179 154.303C220.634 154.732 220.029 155.087 219.363 155.366C218.704 155.646 217.999 155.85 217.247 155.979C216.495 156.107 215.718 156.172 214.916 156.172C214.63 156.172 214.282 156.161 213.874 156.14C213.473 156.125 213.068 156.107 212.66 156.086C212.252 156.064 211.865 156.043 211.5 156.021C211.142 156.007 210.863 156 210.662 156V155.957C210.705 155.807 210.744 155.62 210.78 155.398C210.823 155.176 210.859 154.901 210.888 154.571C210.916 154.242 210.938 153.852 210.952 153.4C210.966 152.942 210.974 152.409 210.974 151.8V144.807C210.974 144.198 210.966 143.664 210.952 143.206C210.938 142.741 210.916 142.343 210.888 142.014C210.859 141.677 210.823 141.394 210.78 141.165C210.744 140.936 210.705 140.746 210.662 140.596V140.553Z" fill="#656565"/>
</svg>
