<svg width="35" height="35" viewBox="0 0 35 35" fill="none" xmlns="http://www.w3.org/2000/svg">
<path d="M34.3608 14.3135C33.4081 9.15301 30.6314 5.21477 26.167 2.44442C23.8804 1.03209 21.3487 0.271603 18.6538 0.0543206C18.5721 0.0543206 18.4904 0.0271603 18.4088 0H16.231C15.6049 0.0814808 14.9788 0.162962 14.3527 0.271603C10.3511 0.97777 7.00276 2.85183 4.33501 5.86662C1.88503 8.63697 0.44227 11.869 0.0883842 15.5628C-0.347167 20.1529 0.823377 24.3084 3.68168 27.9479C6.56721 31.6146 10.3511 33.7602 14.9788 34.4392C21.7843 35.417 28.7531 32.022 32.2103 26.0739C33.5442 23.7652 34.3336 21.2937 34.5514 18.6591C34.5514 18.5776 34.5786 18.4961 34.6058 18.3875V16.2147C34.5514 15.5628 34.497 14.9382 34.3608 14.3135ZM22.4376 10.7011C22.356 10.7011 22.2471 10.7011 22.1654 10.7011C21.5121 10.7011 20.8315 10.7011 20.1782 10.7283C19.3615 10.7826 18.8988 11.2172 18.8715 12.032C18.8443 12.9011 18.8715 13.7431 18.8715 14.6394H22.3287C22.1654 15.8344 22.0293 16.9752 21.866 18.1702H18.8715V27.1603H15.2238V18.1702H12.2022V14.6665H15.2238V14.4221C15.2238 13.4987 15.1966 12.5752 15.251 11.6518C15.3055 10.5382 15.6321 9.53326 16.3943 8.71845C16.9932 8.09376 17.7282 7.71352 18.5721 7.55056C18.7899 7.49624 19.0349 7.46908 19.2526 7.44192H20.7499C21.0765 7.46908 21.4304 7.49624 21.7571 7.5234C21.9748 7.55056 22.2198 7.55056 22.4376 7.57772V10.7011Z" fill="#F6D2E6"/>
</svg>
