<svg width="140" height="25" viewBox="0 0 140 25" fill="none" xmlns="http://www.w3.org/2000/svg">
<path d="M11.0489 3.64531C11.3483 2.724 12.6517 2.724 12.9511 3.64531L14.4697 8.31907C14.6035 8.7311 14.9875 9.01006 15.4207 9.01006H20.335C21.3037 9.01006 21.7065 10.2497 20.9228 10.8191L16.947 13.7076C16.5966 13.9623 16.4499 14.4136 16.5838 14.8257L18.1024 19.4994C18.4017 20.4207 17.3472 21.1868 16.5635 20.6174L12.5878 17.7289C12.2373 17.4743 11.7627 17.4743 11.4122 17.7289L7.43648 20.6174C6.65276 21.1868 5.59828 20.4207 5.89763 19.4994L7.41623 14.8257C7.55011 14.4136 7.40345 13.9623 7.05296 13.7076L3.07722 10.8191C2.29351 10.2497 2.69628 9.01006 3.66501 9.01006H8.57929C9.01252 9.01006 9.39647 8.7311 9.53035 8.31907L11.0489 3.64531Z" fill="#AEDFBC"/>
<path d="M40.0489 3.64531C40.3483 2.724 41.6517 2.724 41.9511 3.64531L43.4697 8.31907C43.6035 8.7311 43.9875 9.01006 44.4207 9.01006H49.335C50.3037 9.01006 50.7065 10.2497 49.9228 10.8191L45.947 13.7076C45.5966 13.9623 45.4499 14.4136 45.5838 14.8257L47.1024 19.4994C47.4017 20.4207 46.3472 21.1868 45.5635 20.6174L41.5878 17.7289C41.2373 17.4743 40.7627 17.4743 40.4122 17.7289L36.4365 20.6174C35.6528 21.1868 34.5983 20.4207 34.8976 19.4994L36.4162 14.8257C36.5501 14.4136 36.4034 13.9623 36.053 13.7076L32.0772 10.8191C31.2935 10.2497 31.6963 9.01006 32.665 9.01006H37.5793C38.0125 9.01006 38.3965 8.7311 38.5303 8.31907L40.0489 3.64531Z" fill="#AEDFBC"/>
<path d="M69.0489 3.64531C69.3483 2.724 70.6517 2.724 70.9511 3.64531L72.4697 8.31907C72.6035 8.7311 72.9875 9.01006 73.4207 9.01006H78.335C79.3037 9.01006 79.7065 10.2497 78.9228 10.8191L74.947 13.7076C74.5966 13.9623 74.4499 14.4136 74.5838 14.8257L76.1024 19.4994C76.4017 20.4207 75.3472 21.1868 74.5635 20.6174L70.5878 17.7289C70.2373 17.4743 69.7627 17.4743 69.4122 17.7289L65.4365 20.6174C64.6528 21.1868 63.5983 20.4207 63.8976 19.4994L65.4162 14.8257C65.5501 14.4136 65.4034 13.9623 65.053 13.7076L61.0772 10.8191C60.2935 10.2497 60.6963 9.01006 61.665 9.01006H66.5793C67.0125 9.01006 67.3965 8.7311 67.5303 8.31907L69.0489 3.64531Z" fill="#AEDFBC"/>
<path d="M98.0489 3.64531C98.3483 2.724 99.6517 2.724 99.9511 3.64531L101.47 8.31907C101.604 8.7311 101.987 9.01006 102.421 9.01006H107.335C108.304 9.01006 108.706 10.2497 107.923 10.8191L103.947 13.7076C103.597 13.9623 103.45 14.4136 103.584 14.8257L105.102 19.4994C105.402 20.4207 104.347 21.1868 103.564 20.6174L99.5878 17.7289C99.2373 17.4743 98.7627 17.4743 98.4122 17.7289L94.4365 20.6174C93.6528 21.1868 92.5983 20.4207 92.8976 19.4994L94.4162 14.8257C94.5501 14.4136 94.4034 13.9623 94.053 13.7076L90.0772 10.8191C89.2935 10.2497 89.6963 9.01006 90.665 9.01006H95.5793C96.0125 9.01006 96.3965 8.7311 96.5303 8.31907L98.0489 3.64531Z" fill="#AEDFBC"/>
<path d="M127.049 3.64531C127.348 2.724 128.652 2.724 128.951 3.64531L130.47 8.31907C130.604 8.7311 130.987 9.01006 131.421 9.01006H136.335C137.304 9.01006 137.706 10.2497 136.923 10.8191L132.947 13.7076C132.597 13.9623 132.45 14.4136 132.584 14.8257L134.102 19.4994C134.402 20.4207 133.347 21.1868 132.564 20.6174L128.588 17.7289C128.237 17.4743 127.763 17.4743 127.412 17.7289L123.436 20.6174C122.653 21.1868 121.598 20.4207 121.898 19.4994L123.416 14.8257C123.55 14.4136 123.403 13.9623 123.053 13.7076L119.077 10.8191C118.294 10.2497 118.696 9.01006 119.665 9.01006H124.579C125.013 9.01006 125.396 8.7311 125.53 8.31907L127.049 3.64531Z" fill="#AEDFBC"/>
</svg>
