<svg width="459" height="364" viewBox="0 0 459 364" fill="none" xmlns="http://www.w3.org/2000/svg">
<path opacity="0.3" d="M586.064 287.445C553.763 255.426 512.951 235.05 468.065 228.501C462.318 227.627 457.008 231.63 456.207 237.379C455.407 243.128 459.336 248.44 465.083 249.313C501.821 254.698 535.649 270.417 563.366 294.94C529.247 325.068 485.452 342.023 439.475 342.824C395.753 343.624 353.486 329.798 319.222 303.673C423.616 290.283 505.167 200.92 505.749 93.4378C505.749 90.6725 504.658 87.9072 502.694 85.9424C500.584 83.8321 497.747 82.6677 495.055 82.886C450.606 83.1771 408.12 97.0764 372.255 123.128C367.599 126.549 366.508 133.098 369.927 137.755C371.601 140.011 374.001 141.539 376.766 141.976C379.53 142.413 382.295 141.758 384.55 140.084C413.868 118.762 448.278 106.464 484.434 104.208C481.451 151.727 460.936 196.19 426.235 229.81C396.19 258.919 358.288 277.184 317.694 282.642C382.076 199.392 376.984 78.9564 301.835 2.98361C299.87 1.09156 297.106 0 294.269 0C291.431 0 288.74 1.09156 286.848 3.05638C254.839 35.3667 234.469 76.1911 227.922 121.091C227.122 126.84 231.05 132.152 236.797 133.025C242.544 133.826 247.855 129.823 248.655 124.147C254.039 87.3978 269.752 53.5594 294.269 25.8337C325.551 61.3459 342.21 107.046 341.337 155.148C340.537 196.772 326.642 236.36 301.762 268.888C288.449 165.335 200.205 84.0504 94.1369 82.9588C91.2997 82.9588 88.608 83.9776 86.571 86.0152C84.6068 87.98 83.4428 90.6725 83.4428 93.4378V112.94C83.4428 113.304 83.4428 113.668 83.5156 114.032C87.153 149.69 99.9568 184.11 120.545 213.583C123.818 218.313 130.366 219.477 135.167 216.13C137.495 214.529 139.023 212.127 139.459 209.362C139.969 206.597 139.314 203.831 137.713 201.503C119.308 175.16 107.741 144.377 104.394 112.431V104.426C151.39 107.555 195.258 128.15 228.504 162.716C257.24 192.625 275.281 230.174 280.665 270.489C198.022 206.815 78.3504 213.146 3.1282 286.79C1.09123 288.755 0 291.447 0 294.213C0 296.978 1.09123 299.743 3.05545 301.708L16.805 315.462C17.096 315.753 17.3142 315.971 17.6052 316.19C55.1436 346.753 102.503 363.636 151.099 363.636H151.463C189.438 363.636 226.612 353.375 259.131 334.164C261.532 332.708 263.278 330.453 263.932 327.76C264.66 325.068 264.223 322.229 262.768 319.828C261.314 317.427 259.058 315.68 256.367 315.025C253.675 314.297 250.838 314.734 248.437 316.19C219.192 333.509 185.728 342.678 151.536 342.751H151.026C107.523 342.751 64.9646 327.687 31.282 300.398L25.6076 294.722C61.0362 263.649 106.577 247.057 154.446 247.785C204.06 248.585 250.547 268.015 285.466 302.509L285.539 302.581C325.551 342.169 378.875 364 435.62 364C492.436 364 545.761 342.169 585.846 302.509C587.81 300.544 588.974 297.851 588.974 295.086C589.192 292.102 588.028 289.41 586.064 287.445Z" fill="white"/>
</svg>
