<svg width="26" height="26" viewBox="0 0 26 26" fill="none" xmlns="http://www.w3.org/2000/svg">
<path d="M25.9925 12.1738C25.9925 12.7156 25.9925 13.2573 25.9925 13.799C25.9518 14.1173 25.9179 14.4356 25.8705 14.7471C25.4976 17.3407 24.4604 19.6295 22.7113 21.5798C20.7114 23.8212 18.2233 25.223 15.2608 25.7579C14.7794 25.846 14.2913 25.8934 13.81 25.9611C13.2676 25.9611 12.7253 25.9611 12.1829 25.9611C12.1016 25.9475 12.0202 25.9272 11.9389 25.9137C11.3965 25.8324 10.8474 25.7918 10.3118 25.6767C7.20011 25.0063 4.64429 23.4149 2.71895 20.889C0.305496 17.7334 -0.508027 14.1715 0.305496 10.2845C1.01733 6.87831 2.86809 4.18993 5.73576 2.23967C8.57632 0.309726 11.7355 -0.360676 15.132 0.181063C17.5861 0.573824 19.7487 1.61667 21.6062 3.26898C23.857 5.28018 25.2671 7.76541 25.7959 10.745C25.8772 11.219 25.9247 11.6998 25.9925 12.1738ZM12.9897 18.8846C15.1998 18.8846 17.403 18.8846 19.6131 18.8846C20.7114 18.8846 21.3757 18.2142 21.3757 17.1104C21.3757 14.3679 21.3757 11.6185 21.3757 8.87598C21.3757 7.75864 20.7114 7.08824 19.5996 7.08824C15.1998 7.08824 10.8067 7.08824 6.40692 7.08824C5.29511 7.08824 4.63073 7.75864 4.63073 8.87598C4.63073 11.605 4.65107 14.334 4.61717 17.063C4.60361 18.0923 5.32222 18.9185 6.44082 18.8982C8.62377 18.8575 10.8067 18.8846 12.9897 18.8846Z" fill="#F6D2E6"/>
<path d="M20.0267 9.10645C20.0267 9.2622 20.0267 9.34346 20.0267 9.42472C20.0267 11.9573 20.0267 14.4968 20.0267 17.0294C20.0267 17.4899 19.9724 17.544 19.5182 17.544C15.1726 17.544 10.8271 17.544 6.47471 17.544C6.0205 17.544 5.96626 17.4899 5.96626 17.0294C5.96626 14.4968 5.96626 11.9573 5.96626 9.42472C5.96626 9.34346 5.96626 9.25542 5.96626 9.11322C6.07473 9.19448 6.14931 9.24188 6.2171 9.29605C8.30514 10.9484 10.3864 12.6074 12.4744 14.2597C12.8609 14.5645 13.132 14.5712 13.5185 14.2597C15.5726 12.6345 17.6268 11.0025 19.6741 9.37731C19.7758 9.30283 19.8775 9.22834 20.0267 9.10645Z" fill="#F6D2E6"/>
<path d="M7.31535 8.43555C11.1186 8.43555 14.8743 8.43555 18.6369 8.43555C18.6572 8.45586 18.6776 8.47618 18.6979 8.49649C18.6369 8.53035 18.5623 8.55744 18.5081 8.59807C16.7319 10.0066 14.9557 11.4083 13.1863 12.8236C13.0507 12.932 12.9693 12.9523 12.8202 12.8372C11.0372 11.4151 9.24747 9.99982 7.45772 8.57775C7.42382 8.53712 7.38315 8.49649 7.31535 8.43555Z" fill="#F6D2E6"/>
</svg>
