<svg width="35" height="35" viewBox="0 0 35 35" fill="none" xmlns="http://www.w3.org/2000/svg">
<path d="M16.1671 0C16.8732 0 17.6066 0 18.3127 0C18.3942 0.0271603 18.4757 0.0543206 18.5843 0.0543206C21.2732 0.244442 23.7991 1.03209 26.0806 2.44442C30.5349 5.18761 33.278 9.12585 34.2558 14.3135C34.3645 14.9382 34.4459 15.59 34.5274 16.2147C34.5274 16.948 34.5274 17.6542 34.5274 18.3875C34.5003 18.469 34.4731 18.5505 34.4731 18.6591C34.283 21.3208 33.4682 23.7924 32.1373 26.0739C28.688 32.022 21.7349 35.417 14.9449 34.4392C10.3276 33.7874 6.55233 31.6146 3.67334 27.9479C0.821515 24.3084 -0.346381 20.1529 0.0881837 15.5628C0.441267 11.8962 1.88076 8.63697 4.32519 5.86662C7.01406 2.85183 10.3548 0.97777 14.3202 0.271603C14.9177 0.162962 15.5424 0.108641 16.1671 0ZM27.2213 17.3011C27.167 15.6715 27.167 14.0147 27.0312 12.3579C26.8411 10.3752 25.8633 8.85425 24.0164 8.01228C23.2016 7.63204 22.3596 7.46908 21.4633 7.44192C19.1275 7.41475 16.7918 7.3876 14.456 7.3876C13.614 7.3876 12.7449 7.44192 11.9029 7.57772C9.89304 7.9308 8.45355 9.07153 7.8017 11.0271C7.58442 11.6789 7.44862 12.3579 7.44862 13.0369C7.3943 15.3727 7.3943 17.7357 7.3943 20.0986C7.3943 20.8048 7.44862 21.5381 7.5301 22.2443C7.77454 24.743 9.5128 26.6171 12.0115 26.9973C13.2609 27.1874 14.5103 27.1874 15.7868 27.1874C17.9325 27.1874 20.1053 27.1874 22.251 27.0516C24.9398 26.8615 26.8682 24.8788 27.0855 22.1899C27.1398 20.5603 27.1398 18.9307 27.2213 17.3011Z" fill="#F6D2E6"/>
<path d="M9.07825 17.2736C9.13257 15.7526 9.13257 14.2588 9.21405 12.765C9.34985 10.7008 10.6535 9.31563 12.7177 9.26131C15.7054 9.17983 18.7201 9.17983 21.7078 9.26131C23.8263 9.31563 25.1843 10.6736 25.2386 12.7921C25.3201 15.8069 25.3201 18.8217 25.2386 21.8365C25.2115 23.3575 24.4238 24.5525 22.9028 25.0686C22.3053 25.2587 21.6806 25.3673 21.0559 25.3673C18.5029 25.3945 15.9498 25.3945 13.3967 25.3673C12.7177 25.3673 12.0116 25.2315 11.3869 25.0143C9.94738 24.4982 9.29553 23.3032 9.21405 21.8637C9.13257 20.3155 9.10541 18.7946 9.07825 17.2736ZM22.3325 17.3007C22.3325 14.5032 20.0782 12.2218 17.2535 12.1946C14.4288 12.1675 12.1474 14.4489 12.1474 17.2736C12.1474 20.0711 14.4017 22.3526 17.2263 22.3797C20.0238 22.3797 22.3325 20.1254 22.3325 17.3007ZM23.7176 11.9773C23.7176 11.3255 23.1744 10.8094 22.5226 10.8094C21.8436 10.8094 21.3275 11.3255 21.3275 12.0045C21.3275 12.6835 21.8707 13.1995 22.5497 13.1724C23.2016 13.1724 23.7176 12.6292 23.7176 11.9773Z" fill="#F6D2E6"/>
<path d="M17.2535 20.5876C15.4338 20.5876 13.9399 19.121 13.9399 17.3012C13.9399 15.4815 15.4066 13.9605 17.2535 13.9877C19.0732 13.9877 20.5399 15.4815 20.5399 17.3012C20.5399 19.0938 19.0732 20.5876 17.2535 20.5876Z" fill="#F6D2E6"/>
</svg>
