<svg width="26" height="27" viewBox="0 0 26 27" fill="none" xmlns="http://www.w3.org/2000/svg">
<path d="M0 14.6503C0 14.1084 0 13.5664 0 13.0245C0.0135637 12.9364 0.033906 12.8416 0.0474697 12.7535C0.108506 12.2997 0.142421 11.8458 0.230585 11.3987C0.929117 7.90996 2.73987 5.13252 5.66963 3.12735C8.62653 1.10185 11.9089 0.437974 15.4355 1.0883C18.4534 1.64379 20.9695 3.13412 22.9363 5.48478C25.3845 8.41803 26.3543 11.8051 25.8728 15.5919C25.5473 18.1729 24.4825 20.4491 22.7599 22.4001C20.7525 24.6694 18.25 26.0785 15.266 26.6204C14.7845 26.7085 14.2962 26.7559 13.8146 26.8236C13.2721 26.8236 12.7296 26.8236 12.187 26.8236C11.8683 26.783 11.5495 26.7491 11.2375 26.7085C8.83676 26.3698 6.68691 25.4552 4.81512 23.9175C2.33296 21.8784 0.779914 19.2704 0.203456 16.1068C0.115292 15.6258 0.0678186 15.1381 0 14.6503ZM13.0008 22.2849C13.1026 22.1765 13.1839 22.0952 13.2585 22.0072C14.2216 20.8352 15.2185 19.6768 16.1476 18.4778C17.1785 17.15 18.1076 15.7478 18.8061 14.2032C19.1655 13.4174 19.4639 12.6045 19.4436 11.7239C19.3826 8.30287 16.6766 5.54575 13.2518 5.41027C9.69128 5.26801 6.68691 8.05899 6.56484 11.6087C6.53093 12.53 6.82933 13.37 7.19555 14.1897C7.83983 15.619 8.70791 16.9197 9.63024 18.1797C10.6679 19.6023 11.7937 20.9504 13.0008 22.2849Z" fill="#F6D2E6"/>
<path d="M10.5593 11.69C10.5661 10.3487 11.6648 9.27158 13.0144 9.27835C14.364 9.28513 15.4491 10.3893 15.4355 11.7509C15.4219 13.0855 14.3165 14.1626 12.9669 14.149C11.6309 14.1355 10.5526 13.0313 10.5593 11.69Z" fill="#F6D2E6"/>
</svg>
