<svg width="204" height="162" viewBox="0 0 204 162" fill="none" xmlns="http://www.w3.org/2000/svg">
<path d="M146.294 66.0972C148.586 66.0972 150.688 66.0205 152.789 66.1356C153.4 66.174 154.279 66.4811 154.584 66.9417C154.852 67.3255 154.584 68.2468 154.279 68.7458C149.541 76.1923 144.728 83.6389 139.953 91.0471C138.998 92.5441 138.005 92.5441 137.011 91.0087C132.198 83.6005 127.423 76.1539 122.647 68.7074C122.342 68.2084 122.113 67.2872 122.38 66.9033C122.686 66.4427 123.526 66.1356 124.176 66.0972C126.277 65.9821 128.34 66.0589 130.67 66.0589C130.67 65.4063 130.67 64.8306 130.67 64.2932C130.67 50.9354 130.67 37.5777 130.67 24.2199C130.67 21.8784 130.861 21.6865 133.191 21.6865C136.629 21.6865 140.067 21.6865 143.467 21.6865C146.18 21.6865 146.333 21.8017 146.333 24.4886C146.333 37.6544 146.333 50.8203 146.333 63.9861C146.294 64.677 146.294 65.2912 146.294 66.0972ZM150.802 68.9377C148.968 68.9377 147.44 68.9377 145.912 68.9377C143.658 68.9377 143.467 68.7074 143.467 66.4811C143.467 53.1233 143.467 39.7656 143.467 26.4462C143.467 25.8704 143.467 25.333 143.467 24.6805C140.029 24.6805 136.782 24.6805 133.344 24.6805C133.344 25.3714 133.344 25.9856 133.344 26.5997C133.344 39.9575 133.344 53.3152 133.344 66.6346C133.344 68.669 133.077 68.9377 131.014 68.9377C129.409 68.9377 127.843 68.9377 126.009 68.9377C130.211 75.463 134.261 81.7197 138.425 88.1683C142.627 81.6813 146.638 75.463 150.802 68.9377Z" fill="#555555"/>
<path d="M57.3223 66.0976C57.3223 65.3299 57.3223 64.7158 57.3223 64.1016C57.3223 50.859 57.3223 37.578 57.3223 24.3354C57.3223 21.9556 57.5133 21.7637 59.8054 21.7637C63.4346 21.7637 67.0638 21.7637 70.6548 21.7637C72.7177 21.7637 72.9851 21.994 72.9851 24.0667C72.9851 37.4629 72.9851 50.859 72.9851 64.2936C72.9851 64.8693 72.9851 65.4067 72.9851 66.136C75.2008 66.136 77.2255 66.0592 79.2502 66.1744C79.9378 66.2128 80.931 66.4431 81.1985 66.9421C81.4659 67.4027 81.1984 68.4007 80.8546 68.9765C76.194 76.3079 71.457 83.6009 66.72 90.8939C65.5739 92.6212 64.657 92.6596 63.5492 90.9323C58.8504 83.6393 54.1134 76.3079 49.4528 68.9765C49.1089 68.4007 48.8415 67.4027 49.1089 66.9421C49.3763 66.4431 50.3696 66.2128 51.0572 66.1744C53.1201 66.0592 55.1448 66.0976 57.3223 66.0976ZM65.1919 88.1686C69.3941 81.6817 73.4435 75.3866 77.6075 68.9381C75.8502 68.9381 74.3603 68.9381 72.9086 68.9381C70.4637 68.9381 70.3109 68.7845 70.3109 66.3279C70.3109 53.0086 70.3109 39.7276 70.3109 26.4082C70.3109 25.8324 70.3109 25.295 70.3109 24.6425C66.8728 24.6425 63.6256 24.6425 60.1875 24.6425C60.1875 25.295 60.1875 25.8324 60.1875 26.4082C60.1875 39.8427 60.1875 53.3156 60.1875 66.7502C60.1875 68.631 59.8818 68.9381 58.0482 68.9381C56.4055 68.9381 54.7628 68.9381 52.8909 68.9381C56.9785 75.4634 60.9897 81.6817 65.1919 88.1686Z" fill="#555555"/>
<path d="M93.9961 97.4583C93.9961 96.729 93.9961 96.1532 93.9961 95.5774C93.9961 82.2581 93.9961 68.9771 93.9961 55.6577C93.9961 53.2011 94.1489 53.0859 96.5938 53.0859C100.185 53.0859 103.738 53.0859 107.329 53.0859C109.391 53.0859 109.621 53.3162 109.621 55.389C109.621 68.7851 109.621 82.1813 109.621 95.5774C109.621 96.1532 109.621 96.6906 109.621 97.4199C111.875 97.4199 113.976 97.3815 116.039 97.4583C116.688 97.4967 117.643 97.727 117.834 98.1876C118.063 98.725 117.834 99.6846 117.49 100.222C112.791 107.592 108.054 114.923 103.317 122.255C102.248 123.943 101.293 123.905 100.223 122.216C95.486 114.885 90.749 107.553 86.0501 100.184C85.7063 99.6462 85.4007 98.6482 85.6681 98.2643C85.9737 97.7654 86.8906 97.4583 87.5782 97.4583C89.6793 97.4199 91.7422 97.4583 93.9961 97.4583ZM89.4119 100.299C93.6141 106.824 97.6635 113.119 101.827 119.568C106.03 113.042 110.041 106.786 114.243 100.299C112.562 100.299 111.187 100.299 109.812 100.299C106.947 100.299 106.908 100.26 106.908 97.4199C106.908 84.2157 106.908 71.0114 106.908 57.7688C106.908 57.1931 106.908 56.6557 106.908 56.0032C103.47 56.0032 100.223 56.0032 96.8231 56.0032C96.8231 56.5789 96.8231 57.1163 96.8231 57.6153C96.8231 64.8316 96.8231 72.0862 96.8231 79.3025C96.8231 85.5207 96.8231 91.739 96.8231 97.9573C96.8231 99.9916 96.5556 100.26 94.4927 100.26C92.85 100.299 91.2838 100.299 89.4119 100.299Z" fill="#555555"/>
<path d="M101.789 46.2916C89.1063 46.2916 78.7918 35.9662 78.7536 23.2225C78.7154 10.4405 89.1063 0 101.827 0C114.549 0 124.94 10.5173 124.863 23.2609C124.787 36.0045 114.472 46.2916 101.789 46.2916ZM101.827 2.84044C90.6344 2.84044 81.5423 11.9375 81.5041 23.1458C81.5041 34.354 90.5961 43.5279 101.751 43.5663C112.868 43.6046 122.074 34.3924 122.074 23.2225C122.113 11.9759 113.021 2.84044 101.827 2.84044Z" fill="#555555"/>
<path d="M103.203 11.8999C105.648 12.706 107.29 14.1646 107.94 16.6212C108.054 17.005 108.093 17.3889 108.093 17.7343C108.169 18.6556 107.902 19.3849 106.908 19.5C105.877 19.6152 105.495 18.9242 105.304 18.0414C104.845 15.7 103.738 14.6252 101.789 14.6252C100.07 14.6252 98.6185 15.8151 98.3511 17.4656C98.0455 19.3081 99.0005 20.997 100.72 21.5344C101.216 21.6879 101.751 21.7263 102.248 21.8031C105.151 22.0718 107.481 24.1445 108.016 26.9466C108.551 29.8254 107.099 32.7426 104.387 33.8941C103.432 34.3164 103.126 34.777 103.165 35.775C103.241 37.8477 102.782 38.6154 101.751 38.5003C100.07 38.3083 100.299 36.9265 100.414 35.8517C100.529 34.7386 100.07 34.3164 99.1152 33.8941C97.0141 32.9345 95.8298 31.2072 95.5242 28.9042C95.4096 27.9446 95.486 26.985 96.6702 26.793C97.8545 26.6395 98.1601 27.5223 98.3129 28.5203C98.6567 30.5931 99.9556 31.7062 101.904 31.6679C103.699 31.6295 105.075 30.3244 105.266 28.5971C105.457 26.7547 104.349 25.1425 102.592 24.7587C102.133 24.6435 101.636 24.6435 101.178 24.5667C98.2747 24.2213 95.9826 22.0718 95.5242 19.3081C95.0658 16.3141 96.5556 13.5504 99.4207 12.3605C100.147 12.0534 100.49 11.708 100.376 10.9019C100.299 10.4797 100.376 10.0575 100.376 9.59684C100.376 8.59885 100.758 7.83116 101.827 7.86954C102.783 7.86954 103.203 8.59885 103.203 9.55845C103.203 10.2494 103.203 11.0171 103.203 11.8999Z" fill="#555555"/>
<path d="M6.05078 141.541C5.20573 141.541 4.44303 141.58 3.7627 141.659C3.08236 141.731 2.49512 141.81 2.00098 141.896C1.42806 142.003 0.916016 142.121 0.464844 142.25L0.776367 140.51C0.862305 140.517 0.991211 140.524 1.16309 140.531C1.33496 140.538 1.52474 140.546 1.73242 140.553C1.94727 140.56 2.16927 140.567 2.39844 140.574C2.63477 140.574 2.85677 140.578 3.06445 140.585C3.27214 140.585 3.45475 140.589 3.6123 140.596C3.77702 140.596 3.89518 140.596 3.9668 140.596H10.1006C10.1722 140.596 10.2868 140.596 10.4443 140.596C10.609 140.589 10.7952 140.585 11.0029 140.585C11.2106 140.578 11.429 140.574 11.6582 140.574C11.8945 140.567 12.1165 140.56 12.3242 140.553C12.5391 140.546 12.7324 140.538 12.9043 140.531C13.0762 140.524 13.2051 140.517 13.291 140.51L13.6025 142.25C13.1442 142.121 12.6286 142.003 12.0557 141.896C11.5615 141.81 10.9743 141.731 10.2939 141.659C9.61361 141.58 8.85091 141.541 8.00586 141.541V151.8C8.00586 152.409 8.01302 152.942 8.02734 153.4C8.04883 153.852 8.07031 154.242 8.0918 154.571C8.12044 154.901 8.15267 155.176 8.18848 155.398C8.23145 155.62 8.27441 155.807 8.31738 155.957V156H5.75V155.957C5.79297 155.807 5.83236 155.62 5.86816 155.398C5.90397 155.176 5.9362 154.901 5.96484 154.571C5.99349 154.242 6.01497 153.852 6.0293 153.4C6.04362 152.942 6.05078 152.409 6.05078 151.8V141.541ZM25.8057 148.631C25.5192 148.624 25.1611 148.62 24.7314 148.62C24.3018 148.613 23.8327 148.606 23.3242 148.599C22.8229 148.591 22.2965 148.588 21.7451 148.588C21.2008 148.581 20.6673 148.577 20.1445 148.577C19.6217 148.57 19.124 148.57 18.6514 148.577C18.1787 148.584 17.7669 148.595 17.416 148.609V151.8C17.416 152.409 17.4232 152.942 17.4375 153.4C17.459 153.852 17.4805 154.242 17.502 154.571C17.5306 154.901 17.5628 155.176 17.5986 155.398C17.6416 155.62 17.6846 155.807 17.7275 155.957V156H15.1494V155.957C15.1924 155.807 15.2318 155.62 15.2676 155.398C15.3105 155.176 15.3464 154.901 15.375 154.571C15.4036 154.242 15.4251 153.852 15.4395 153.4C15.4538 152.942 15.4609 152.409 15.4609 151.8V144.807C15.4609 144.198 15.4538 143.668 15.4395 143.217C15.4251 142.758 15.4036 142.365 15.375 142.035C15.3464 141.699 15.3105 141.419 15.2676 141.197C15.2318 140.975 15.1924 140.789 15.1494 140.639V140.596H17.7275V140.639C17.6846 140.789 17.6416 140.975 17.5986 141.197C17.5628 141.419 17.5306 141.699 17.502 142.035C17.4805 142.365 17.459 142.758 17.4375 143.217C17.4232 143.668 17.416 144.198 17.416 144.807V147.557C17.7884 147.571 18.2109 147.582 18.6836 147.589C19.1562 147.589 19.6504 147.589 20.166 147.589C20.6816 147.582 21.2044 147.575 21.7344 147.567C22.2715 147.56 22.7871 147.553 23.2812 147.546C23.7826 147.532 24.248 147.517 24.6777 147.503C25.1146 147.489 25.4906 147.474 25.8057 147.46V144.807C25.8057 144.198 25.7949 143.668 25.7734 143.217C25.7591 142.758 25.7376 142.365 25.709 142.035C25.6875 141.699 25.6553 141.419 25.6123 141.197C25.5765 140.975 25.5371 140.789 25.4941 140.639V140.596H28.0723V140.639C28.0293 140.789 27.9863 140.975 27.9434 141.197C27.9076 141.419 27.8753 141.699 27.8467 142.035C27.818 142.365 27.7965 142.758 27.7822 143.217C27.7679 143.668 27.7607 144.198 27.7607 144.807V151.8C27.7607 152.409 27.7679 152.942 27.7822 153.4C27.7965 153.852 27.818 154.242 27.8467 154.571C27.8753 154.901 27.9076 155.176 27.9434 155.398C27.9863 155.62 28.0293 155.807 28.0723 155.957V156H25.4941V155.957C25.5371 155.807 25.5765 155.62 25.6123 155.398C25.6553 155.176 25.6875 154.901 25.709 154.571C25.7376 154.242 25.7591 153.852 25.7734 153.4C25.7949 152.942 25.8057 152.409 25.8057 151.8V148.631ZM31.1553 140.596C32.0505 140.596 32.9385 140.592 33.8193 140.585C34.7074 140.578 35.5202 140.571 36.2578 140.563C36.9954 140.549 37.6257 140.531 38.1484 140.51C38.6712 140.488 39.0257 140.46 39.2119 140.424L38.6855 141.853C38.4492 141.788 38.1735 141.731 37.8584 141.681C37.5863 141.638 37.2533 141.598 36.8594 141.562C36.4727 141.52 36.0251 141.498 35.5166 141.498C35.3447 141.498 35.137 141.505 34.8936 141.52C34.6572 141.527 34.4281 141.537 34.2061 141.552C33.9482 141.566 33.6868 141.58 33.4219 141.595V147.46C34.1595 147.453 34.8255 147.431 35.4199 147.396C36.0143 147.36 36.5192 147.324 36.9346 147.288C37.4215 147.245 37.8512 147.195 38.2236 147.138L37.8906 148.695C37.3965 148.631 36.8916 148.57 36.376 148.513C35.932 148.463 35.4486 148.42 34.9258 148.384C34.403 148.341 33.9017 148.319 33.4219 148.319V155.055C34.2669 155.055 35.0439 155.019 35.7529 154.947C36.4619 154.876 37.0814 154.793 37.6113 154.7C38.2272 154.6 38.7894 154.482 39.2979 154.346L38.9863 156.086C38.9004 156.079 38.7715 156.072 38.5996 156.064C38.4277 156.057 38.2344 156.05 38.0195 156.043C37.8118 156.036 37.5898 156.029 37.3535 156.021C37.1243 156.021 36.9059 156.018 36.6982 156.011C36.4906 156.011 36.3044 156.007 36.1396 156C35.9821 156 35.8675 156 35.7959 156H31.1553V155.957C31.1982 155.807 31.2376 155.62 31.2734 155.398C31.3164 155.176 31.3522 154.901 31.3809 154.571C31.4095 154.242 31.431 153.852 31.4453 153.4C31.4596 152.942 31.4668 152.409 31.4668 151.8V144.807C31.4668 144.198 31.4596 143.668 31.4453 143.217C31.431 142.758 31.4095 142.365 31.3809 142.035C31.3522 141.699 31.3164 141.419 31.2734 141.197C31.2376 140.975 31.1982 140.789 31.1553 140.639V140.596ZM50.8027 155.055C51.6478 155.055 52.4248 155.019 53.1338 154.947C53.8428 154.876 54.4622 154.793 54.9922 154.7C55.6081 154.6 56.1702 154.482 56.6787 154.346L56.3672 156.086C56.2812 156.079 56.1523 156.072 55.9805 156.064C55.8086 156.057 55.6152 156.05 55.4004 156.043C55.1927 156.036 54.9707 156.029 54.7344 156.021C54.5052 156.021 54.2868 156.018 54.0791 156.011C53.8714 156.011 53.6852 156.007 53.5205 156C53.363 156 53.2484 156 53.1768 156H48.5361V155.957C48.5791 155.807 48.6185 155.62 48.6543 155.398C48.6973 155.176 48.7331 154.901 48.7617 154.571C48.7904 154.242 48.8118 153.852 48.8262 153.4C48.8405 152.942 48.8477 152.409 48.8477 151.8V144.807C48.8477 144.198 48.8405 143.668 48.8262 143.217C48.8118 142.758 48.7904 142.365 48.7617 142.035C48.7331 141.699 48.6973 141.419 48.6543 141.197C48.6185 140.975 48.5791 140.789 48.5361 140.639V140.596H51.1143V140.639C51.0713 140.789 51.0283 140.975 50.9854 141.197C50.9495 141.419 50.9173 141.699 50.8887 142.035C50.8672 142.365 50.8457 142.758 50.8242 143.217C50.8099 143.668 50.8027 144.198 50.8027 144.807V155.055ZM65.6807 140.338C66.8766 140.338 67.9795 140.535 68.9893 140.929C70.0062 141.315 70.8835 141.863 71.6211 142.572C72.3587 143.274 72.9352 144.119 73.3506 145.107C73.766 146.096 73.9736 147.188 73.9736 148.384C73.9736 149.064 73.8949 149.734 73.7373 150.393C73.5798 151.051 73.347 151.674 73.0391 152.262C72.7383 152.849 72.3659 153.393 71.9219 153.895C71.4779 154.389 70.9694 154.818 70.3965 155.184C69.8307 155.542 69.2041 155.821 68.5166 156.021C67.8291 156.229 67.0879 156.333 66.293 156.333C65.097 156.333 63.9906 156.143 62.9736 155.764C61.9639 155.377 61.0902 154.833 60.3525 154.131C59.6149 153.429 59.0384 152.588 58.623 151.606C58.2077 150.618 58 149.522 58 148.319C58 147.639 58.0788 146.969 58.2363 146.311C58.3939 145.652 58.623 145.025 58.9238 144.431C59.2318 143.836 59.6042 143.292 60.041 142.798C60.485 142.297 60.9899 141.863 61.5557 141.498C62.1286 141.133 62.7588 140.85 63.4463 140.649C64.141 140.442 64.8857 140.338 65.6807 140.338ZM66.293 155.366C67.0879 155.366 67.8148 155.223 68.4736 154.937C69.1325 154.65 69.6982 154.235 70.1709 153.69C70.6507 153.146 71.0231 152.484 71.2881 151.703C71.5531 150.915 71.6855 150.024 71.6855 149.028C71.6855 147.925 71.5566 146.905 71.2988 145.967C71.0482 145.021 70.6722 144.205 70.1709 143.518C69.6696 142.823 69.043 142.282 68.291 141.896C67.5462 141.502 66.6761 141.305 65.6807 141.305C64.8857 141.305 64.1589 141.448 63.5 141.734C62.8411 142.014 62.2718 142.422 61.792 142.959C61.3193 143.496 60.9505 144.155 60.6855 144.936C60.4206 145.716 60.2881 146.604 60.2881 147.6C60.2881 148.695 60.4134 149.719 60.6641 150.672C60.9147 151.617 61.2907 152.437 61.792 153.132C62.2933 153.826 62.9199 154.374 63.6719 154.775C64.4238 155.169 65.2975 155.366 66.293 155.366ZM86.4561 142.626L90.7529 153.057L94.9316 142.819C95.0964 142.397 95.2181 142.039 95.2969 141.745C95.3757 141.451 95.415 141.201 95.415 140.993C95.415 140.929 95.4115 140.864 95.4043 140.8C95.3971 140.728 95.3864 140.674 95.3721 140.639V140.596H97.499V140.639C97.3558 140.796 97.1982 141.047 97.0264 141.391C96.8617 141.734 96.6683 142.16 96.4463 142.669L90.71 156.333H89.8936L85.7148 146.192L81.9014 156.333H81.0957L75.832 143.195C75.7031 142.887 75.5706 142.59 75.4346 142.304C75.3057 142.017 75.1803 141.759 75.0586 141.53C74.944 141.301 74.8402 141.108 74.7471 140.95C74.6468 140.793 74.5752 140.689 74.5322 140.639V140.596H77.5078V140.639C77.4935 140.717 77.4863 140.778 77.4863 140.821C77.4863 140.864 77.4863 140.914 77.4863 140.972C77.4863 141.215 77.5114 141.473 77.5615 141.745C77.6188 142.017 77.7262 142.347 77.8838 142.733L81.9229 152.938L85.7793 142.669L86.4561 142.626ZM98.7236 140.596C99.6188 140.596 100.507 140.592 101.388 140.585C102.276 140.578 103.089 140.571 103.826 140.563C104.564 140.549 105.194 140.531 105.717 140.51C106.24 140.488 106.594 140.46 106.78 140.424L106.254 141.853C106.018 141.788 105.742 141.731 105.427 141.681C105.155 141.638 104.822 141.598 104.428 141.562C104.041 141.52 103.593 141.498 103.085 141.498C102.913 141.498 102.705 141.505 102.462 141.52C102.226 141.527 101.996 141.537 101.774 141.552C101.517 141.566 101.255 141.58 100.99 141.595V147.46C101.728 147.453 102.394 147.431 102.988 147.396C103.583 147.36 104.088 147.324 104.503 147.288C104.99 147.245 105.42 147.195 105.792 147.138L105.459 148.695C104.965 148.631 104.46 148.57 103.944 148.513C103.5 148.463 103.017 148.42 102.494 148.384C101.971 148.341 101.47 148.319 100.99 148.319V155.055C101.835 155.055 102.612 155.019 103.321 154.947C104.03 154.876 104.65 154.793 105.18 154.7C105.796 154.6 106.358 154.482 106.866 154.346L106.555 156.086C106.469 156.079 106.34 156.072 106.168 156.064C105.996 156.057 105.803 156.05 105.588 156.043C105.38 156.036 105.158 156.029 104.922 156.021C104.693 156.021 104.474 156.018 104.267 156.011C104.059 156.011 103.873 156.007 103.708 156C103.55 156 103.436 156 103.364 156H98.7236V155.957C98.7666 155.807 98.806 155.62 98.8418 155.398C98.8848 155.176 98.9206 154.901 98.9492 154.571C98.9779 154.242 98.9993 153.852 99.0137 153.4C99.028 152.942 99.0352 152.409 99.0352 151.8V144.807C99.0352 144.198 99.028 143.668 99.0137 143.217C98.9993 142.758 98.9779 142.365 98.9492 142.035C98.9206 141.699 98.8848 141.419 98.8418 141.197C98.806 140.975 98.7666 140.789 98.7236 140.639V140.596ZM115.933 143.045H115.696C115.639 142.88 115.546 142.694 115.417 142.486C115.295 142.279 115.131 142.085 114.923 141.906C114.722 141.72 114.475 141.566 114.182 141.444C113.895 141.323 113.555 141.262 113.161 141.262C112.81 141.262 112.499 141.315 112.227 141.423C111.954 141.53 111.725 141.681 111.539 141.874C111.36 142.067 111.224 142.297 111.131 142.562C111.038 142.826 110.991 143.12 110.991 143.442C110.991 143.958 111.134 144.452 111.421 144.925C111.715 145.39 112.08 145.852 112.517 146.311C112.953 146.769 113.426 147.227 113.935 147.686C114.443 148.144 114.916 148.62 115.353 149.114C115.789 149.608 116.151 150.128 116.438 150.672C116.731 151.209 116.878 151.789 116.878 152.412C116.878 152.878 116.796 153.347 116.631 153.819C116.473 154.285 116.226 154.704 115.89 155.076C115.553 155.449 115.12 155.753 114.59 155.989C114.06 156.218 113.43 156.333 112.699 156.333C112.291 156.333 111.901 156.294 111.528 156.215C111.163 156.143 110.823 156.054 110.508 155.946C110.2 155.832 109.921 155.71 109.67 155.581C109.426 155.452 109.226 155.334 109.068 155.227L109.315 152.853H109.584C109.663 153.189 109.792 153.511 109.971 153.819C110.15 154.12 110.368 154.389 110.626 154.625C110.891 154.854 111.192 155.04 111.528 155.184C111.865 155.32 112.234 155.388 112.635 155.388C113 155.388 113.326 155.334 113.612 155.227C113.906 155.112 114.157 154.958 114.364 154.765C114.572 154.564 114.729 154.328 114.837 154.056C114.951 153.784 115.009 153.486 115.009 153.164C115.009 152.713 114.926 152.298 114.762 151.918C114.597 151.531 114.379 151.166 114.106 150.822C113.841 150.479 113.537 150.146 113.193 149.823C112.857 149.501 112.509 149.179 112.151 148.856C111.793 148.527 111.442 148.19 111.099 147.847C110.762 147.503 110.458 147.138 110.186 146.751C109.921 146.357 109.706 145.938 109.541 145.494C109.376 145.043 109.294 144.549 109.294 144.012C109.294 143.446 109.401 142.938 109.616 142.486C109.838 142.028 110.128 141.638 110.486 141.315C110.852 140.993 111.263 140.746 111.722 140.574C112.18 140.402 112.653 140.316 113.14 140.316C113.498 140.316 113.827 140.345 114.128 140.402C114.429 140.46 114.697 140.528 114.934 140.606C115.177 140.685 115.388 140.764 115.567 140.843C115.746 140.922 115.893 140.986 116.008 141.036L115.933 143.045ZM123.57 141.541C122.725 141.541 121.963 141.58 121.282 141.659C120.602 141.731 120.015 141.81 119.521 141.896C118.948 142.003 118.436 142.121 117.984 142.25L118.296 140.51C118.382 140.517 118.511 140.524 118.683 140.531C118.854 140.538 119.044 140.546 119.252 140.553C119.467 140.56 119.689 140.567 119.918 140.574C120.154 140.574 120.376 140.578 120.584 140.585C120.792 140.585 120.974 140.589 121.132 140.596C121.297 140.596 121.415 140.596 121.486 140.596H127.62C127.692 140.596 127.806 140.596 127.964 140.596C128.129 140.589 128.315 140.585 128.522 140.585C128.73 140.578 128.949 140.574 129.178 140.574C129.414 140.567 129.636 140.56 129.844 140.553C130.059 140.546 130.252 140.538 130.424 140.531C130.596 140.524 130.725 140.517 130.811 140.51L131.122 142.25C130.664 142.121 130.148 142.003 129.575 141.896C129.081 141.81 128.494 141.731 127.813 141.659C127.133 141.58 126.37 141.541 125.525 141.541V151.8C125.525 152.409 125.533 152.942 125.547 153.4C125.568 153.852 125.59 154.242 125.611 154.571C125.64 154.901 125.672 155.176 125.708 155.398C125.751 155.62 125.794 155.807 125.837 155.957V156H123.27V155.957C123.312 155.807 123.352 155.62 123.388 155.398C123.424 155.176 123.456 154.901 123.484 154.571C123.513 154.242 123.535 153.852 123.549 153.4C123.563 152.942 123.57 152.409 123.57 151.8V141.541ZM141.531 149.179C142.233 149.308 142.874 149.322 143.454 149.222C144.041 149.114 144.543 148.892 144.958 148.556C145.381 148.212 145.706 147.75 145.936 147.17C146.172 146.59 146.29 145.881 146.29 145.043C146.29 144.463 146.229 143.937 146.107 143.464C145.986 142.984 145.803 142.579 145.56 142.25C145.323 141.913 145.022 141.656 144.657 141.477C144.292 141.29 143.866 141.197 143.379 141.197C143.071 141.197 142.802 141.212 142.573 141.24C142.344 141.262 142.151 141.287 141.993 141.315C141.807 141.351 141.653 141.391 141.531 141.434V149.179ZM139.265 140.596C139.408 140.61 139.558 140.624 139.716 140.639C139.852 140.653 140.002 140.664 140.167 140.671C140.339 140.671 140.514 140.671 140.693 140.671C140.973 140.671 141.349 140.639 141.821 140.574C142.301 140.503 142.91 140.467 143.647 140.467C144.335 140.467 144.969 140.567 145.549 140.768C146.136 140.968 146.645 141.262 147.074 141.648C147.504 142.035 147.837 142.508 148.073 143.066C148.317 143.618 148.438 144.248 148.438 144.957C148.438 145.91 148.249 146.733 147.869 147.428C147.49 148.122 146.981 148.685 146.344 149.114C145.706 149.544 144.972 149.838 144.142 149.995C143.311 150.146 142.441 150.153 141.531 150.017V151.8C141.531 152.409 141.538 152.942 141.553 153.4C141.574 153.852 141.596 154.242 141.617 154.571C141.646 154.901 141.678 155.176 141.714 155.398C141.757 155.62 141.8 155.807 141.843 155.957V156H139.265V155.957C139.308 155.807 139.347 155.62 139.383 155.398C139.426 155.176 139.462 154.901 139.49 154.571C139.519 154.242 139.54 153.852 139.555 153.4C139.569 152.942 139.576 152.409 139.576 151.8V144.807C139.576 144.198 139.569 143.668 139.555 143.217C139.54 142.758 139.519 142.365 139.49 142.035C139.462 141.699 139.426 141.419 139.383 141.197C139.347 140.975 139.308 140.789 139.265 140.639V140.596ZM152.811 151.8C152.811 152.409 152.818 152.942 152.832 153.4C152.854 153.852 152.875 154.242 152.896 154.571C152.925 154.901 152.957 155.176 152.993 155.398C153.036 155.62 153.079 155.807 153.122 155.957V156H150.544V155.957C150.587 155.807 150.626 155.62 150.662 155.398C150.705 155.176 150.737 154.901 150.759 154.571C150.787 154.242 150.809 153.852 150.823 153.4C150.845 152.949 150.855 152.416 150.855 151.8V144.807C150.855 144.198 150.845 143.668 150.823 143.217C150.809 142.758 150.787 142.365 150.759 142.035C150.737 141.706 150.705 141.43 150.662 141.208C150.626 140.979 150.587 140.789 150.544 140.639V140.596L150.995 140.639C151.131 140.653 151.282 140.664 151.446 140.671C151.618 140.671 151.794 140.671 151.973 140.671C152.252 140.671 152.628 140.639 153.101 140.574C153.58 140.503 154.189 140.467 154.927 140.467C155.614 140.467 156.248 140.56 156.828 140.746C157.415 140.932 157.924 141.204 158.354 141.562C158.783 141.921 159.116 142.361 159.353 142.884C159.596 143.399 159.718 143.987 159.718 144.646C159.718 145.161 159.65 145.641 159.514 146.085C159.385 146.522 159.199 146.919 158.955 147.277C158.719 147.635 158.432 147.954 158.096 148.233C157.759 148.506 157.383 148.735 156.968 148.921L160.738 154.217C160.924 154.482 161.096 154.711 161.254 154.904C161.419 155.098 161.573 155.266 161.716 155.409C161.866 155.545 162.009 155.66 162.146 155.753C162.282 155.839 162.421 155.907 162.564 155.957V156H159.46C159.438 155.864 159.367 155.685 159.245 155.463C159.131 155.234 158.994 155.008 158.837 154.786L155.034 149.426C154.869 149.44 154.705 149.454 154.54 149.469C154.375 149.476 154.207 149.479 154.035 149.479C153.835 149.479 153.631 149.472 153.423 149.458C153.222 149.444 153.018 149.419 152.811 149.383V151.8ZM152.811 148.545C153.004 148.588 153.201 148.62 153.401 148.642C153.602 148.656 153.795 148.663 153.981 148.663C154.519 148.663 155.009 148.584 155.453 148.427C155.897 148.262 156.273 148.015 156.581 147.686C156.896 147.356 157.14 146.948 157.312 146.461C157.483 145.967 157.569 145.39 157.569 144.731C157.569 144.194 157.508 143.707 157.387 143.271C157.265 142.834 157.082 142.465 156.839 142.164C156.603 141.856 156.302 141.62 155.937 141.455C155.571 141.283 155.145 141.197 154.658 141.197C154.164 141.197 153.77 141.222 153.477 141.272C153.183 141.323 152.961 141.376 152.811 141.434V148.545ZM163.639 155.957C163.682 155.807 163.721 155.62 163.757 155.398C163.793 155.176 163.825 154.901 163.854 154.571C163.882 154.242 163.904 153.852 163.918 153.4C163.932 152.942 163.939 152.409 163.939 151.8V144.807C163.939 144.198 163.932 143.668 163.918 143.217C163.904 142.758 163.882 142.365 163.854 142.035C163.825 141.699 163.793 141.419 163.757 141.197C163.721 140.975 163.682 140.789 163.639 140.639V140.596H166.206V140.639C166.163 140.789 166.12 140.975 166.077 141.197C166.041 141.419 166.009 141.699 165.98 142.035C165.959 142.365 165.938 142.758 165.916 143.217C165.902 143.668 165.895 144.198 165.895 144.807V151.8C165.895 152.409 165.902 152.942 165.916 153.4C165.938 153.852 165.959 154.242 165.98 154.571C166.009 154.901 166.041 155.176 166.077 155.398C166.12 155.62 166.163 155.807 166.206 155.957V156H163.639V155.957ZM181.847 142.959L181.75 143.002C181.191 142.486 180.518 142.075 179.73 141.767C178.95 141.459 178.09 141.305 177.152 141.305C176.25 141.305 175.423 141.448 174.671 141.734C173.919 142.014 173.271 142.422 172.727 142.959C172.189 143.496 171.771 144.155 171.47 144.936C171.169 145.716 171.019 146.604 171.019 147.6C171.019 148.695 171.162 149.719 171.448 150.672C171.735 151.617 172.161 152.437 172.727 153.132C173.292 153.826 173.998 154.374 174.843 154.775C175.695 155.169 176.687 155.366 177.818 155.366C178.227 155.366 178.635 155.323 179.043 155.237C179.451 155.151 179.841 155.026 180.214 154.861C180.593 154.689 180.948 154.485 181.277 154.249C181.614 154.006 181.918 153.73 182.19 153.422L182.309 153.497L181.449 155.688C180.912 155.896 180.318 156.054 179.666 156.161C179.021 156.276 178.37 156.333 177.711 156.333C176.386 156.333 175.172 156.143 174.069 155.764C172.974 155.377 172.028 154.833 171.233 154.131C170.446 153.429 169.83 152.588 169.386 151.606C168.949 150.618 168.73 149.522 168.73 148.319C168.73 147.639 168.816 146.969 168.988 146.311C169.167 145.652 169.425 145.025 169.762 144.431C170.098 143.836 170.514 143.292 171.008 142.798C171.502 142.297 172.064 141.863 172.694 141.498C173.332 141.133 174.03 140.85 174.789 140.649C175.555 140.442 176.382 140.338 177.271 140.338C178.653 140.338 179.935 140.549 181.116 140.972L181.847 142.959ZM184.274 140.596C185.17 140.596 186.058 140.592 186.938 140.585C187.826 140.578 188.639 140.571 189.377 140.563C190.115 140.549 190.745 140.531 191.268 140.51C191.79 140.488 192.145 140.46 192.331 140.424L191.805 141.853C191.568 141.788 191.293 141.731 190.978 141.681C190.705 141.638 190.372 141.598 189.979 141.562C189.592 141.52 189.144 141.498 188.636 141.498C188.464 141.498 188.256 141.505 188.013 141.52C187.776 141.527 187.547 141.537 187.325 141.552C187.067 141.566 186.806 141.58 186.541 141.595V147.46C187.279 147.453 187.945 147.431 188.539 147.396C189.133 147.36 189.638 147.324 190.054 147.288C190.541 147.245 190.97 147.195 191.343 147.138L191.01 148.695C190.516 148.631 190.011 148.57 189.495 148.513C189.051 148.463 188.568 148.42 188.045 148.384C187.522 148.341 187.021 148.319 186.541 148.319V155.055C187.386 155.055 188.163 155.019 188.872 154.947C189.581 154.876 190.201 154.793 190.73 154.7C191.346 154.6 191.909 154.482 192.417 154.346L192.105 156.086C192.02 156.079 191.891 156.072 191.719 156.064C191.547 156.057 191.354 156.05 191.139 156.043C190.931 156.036 190.709 156.029 190.473 156.021C190.243 156.021 190.025 156.018 189.817 156.011C189.61 156.011 189.424 156.007 189.259 156C189.101 156 188.987 156 188.915 156H184.274V155.957C184.317 155.807 184.357 155.62 184.393 155.398C184.436 155.176 184.471 154.901 184.5 154.571C184.529 154.242 184.55 153.852 184.564 153.4C184.579 152.942 184.586 152.409 184.586 151.8V144.807C184.586 144.198 184.579 143.668 184.564 143.217C184.55 142.758 184.529 142.365 184.5 142.035C184.471 141.699 184.436 141.419 184.393 141.197C184.357 140.975 184.317 140.789 184.274 140.639V140.596ZM201.483 143.045H201.247C201.19 142.88 201.097 142.694 200.968 142.486C200.846 142.279 200.681 142.085 200.474 141.906C200.273 141.72 200.026 141.566 199.732 141.444C199.446 141.323 199.106 141.262 198.712 141.262C198.361 141.262 198.049 141.315 197.777 141.423C197.505 141.53 197.276 141.681 197.09 141.874C196.911 142.067 196.775 142.297 196.682 142.562C196.589 142.826 196.542 143.12 196.542 143.442C196.542 143.958 196.685 144.452 196.972 144.925C197.265 145.39 197.631 145.852 198.067 146.311C198.504 146.769 198.977 147.227 199.485 147.686C199.994 148.144 200.466 148.62 200.903 149.114C201.34 149.608 201.702 150.128 201.988 150.672C202.282 151.209 202.429 151.789 202.429 152.412C202.429 152.878 202.346 153.347 202.182 153.819C202.024 154.285 201.777 154.704 201.44 155.076C201.104 155.449 200.671 155.753 200.141 155.989C199.611 156.218 198.98 156.333 198.25 156.333C197.842 156.333 197.451 156.294 197.079 156.215C196.714 156.143 196.374 156.054 196.059 155.946C195.751 155.832 195.471 155.71 195.221 155.581C194.977 155.452 194.777 155.334 194.619 155.227L194.866 152.853H195.135C195.214 153.189 195.342 153.511 195.521 153.819C195.701 154.12 195.919 154.389 196.177 154.625C196.442 154.854 196.743 155.04 197.079 155.184C197.416 155.32 197.785 155.388 198.186 155.388C198.551 155.388 198.877 155.334 199.163 155.227C199.457 155.112 199.707 154.958 199.915 154.765C200.123 154.564 200.28 154.328 200.388 154.056C200.502 153.784 200.56 153.486 200.56 153.164C200.56 152.713 200.477 152.298 200.312 151.918C200.148 151.531 199.929 151.166 199.657 150.822C199.392 150.479 199.088 150.146 198.744 149.823C198.408 149.501 198.06 149.179 197.702 148.856C197.344 148.527 196.993 148.19 196.649 147.847C196.313 147.503 196.008 147.138 195.736 146.751C195.471 146.357 195.257 145.938 195.092 145.494C194.927 145.043 194.845 144.549 194.845 144.012C194.845 143.446 194.952 142.938 195.167 142.486C195.389 142.028 195.679 141.638 196.037 141.315C196.402 140.993 196.814 140.746 197.272 140.574C197.731 140.402 198.203 140.316 198.69 140.316C199.049 140.316 199.378 140.345 199.679 140.402C199.979 140.46 200.248 140.528 200.484 140.606C200.728 140.685 200.939 140.764 201.118 140.843C201.297 140.922 201.444 140.986 201.559 141.036L201.483 143.045Z" fill="#656565"/>
</svg>
