<svg width="226" height="162" viewBox="0 0 226 162" fill="none" xmlns="http://www.w3.org/2000/svg">
<path d="M81.8447 121.557C82.4624 118.028 82.8484 114.227 83.7748 110.581C84.6627 107.09 84.1609 104.53 81.1885 102.203C78.4092 100.07 76.0931 97.3545 73.5839 94.8722C72.7347 94.0577 72.0785 93.2044 72.5031 91.9632C72.9277 90.7221 73.8928 90.373 75.0894 90.2178C79.7602 89.5585 84.4311 88.8991 89.0633 88.1234C89.6809 88.007 90.453 87.464 90.7618 86.8822C92.9235 82.6545 94.9694 78.4268 97.0539 74.1603C97.5557 73.1131 98.1733 72.2598 99.4858 72.2598C100.798 72.2598 101.416 73.1131 101.918 74.1991C103.964 78.4268 106.087 82.5769 108.094 86.8046C108.519 87.7355 109.098 88.0846 110.024 88.2009C114.695 88.8603 119.366 89.5585 124.037 90.2178C125.195 90.373 126.044 90.7996 126.43 91.9632C126.816 93.1656 126.237 93.9801 125.426 94.7946C122.068 98.0527 118.748 101.35 115.39 104.608C114.656 105.306 114.386 105.965 114.579 107.012C115.428 111.667 116.2 116.36 117.011 121.014C117.204 122.1 117.088 123.07 116.162 123.768C115.197 124.505 114.193 124.35 113.189 123.807C109.098 121.635 105.006 119.54 100.953 117.291C99.8332 116.67 98.984 116.709 97.9031 117.329C93.8113 119.579 89.6809 121.751 85.5119 123.884C83.659 124.893 81.8061 123.807 81.8447 121.557ZM87.3648 117.523C90.453 115.894 93.3481 114.576 96.0116 112.908C98.4435 111.395 100.489 111.356 102.883 112.908C105.546 114.614 108.441 115.894 111.491 117.485C111.337 116.554 111.259 115.894 111.144 115.274C110.603 112.132 110.101 108.99 109.522 105.849C109.291 104.53 109.638 103.522 110.603 102.629C113.112 100.225 115.583 97.7812 118.053 95.3376C118.285 95.1049 118.517 94.7946 118.825 94.4068C114.849 93.825 111.028 93.2044 107.245 92.7002C106.01 92.545 105.199 91.9632 104.697 90.8772C103.925 89.2482 103.153 87.6579 102.342 86.0677C101.416 84.1672 100.489 82.3054 99.563 80.4049C99.3314 80.56 99.2156 80.5988 99.2156 80.6376C98.0961 82.926 96.9767 85.2144 95.8186 87.5028C92.8463 93.3983 94.4676 92.1959 87.7508 93.2432C85.2417 93.631 82.694 94.0189 80.5323 94.3292C82.9642 96.9279 85.3575 99.6817 87.9052 102.203C89.2563 103.522 89.6037 104.84 89.2563 106.624C88.6001 110.076 88.0596 113.606 87.3648 117.523Z" fill="#656565"/>
<path d="M133.764 81.3731C133.726 82.7694 132.799 83.8555 131.564 83.933C130.29 84.0106 129.209 83.1573 129.016 81.6834C128.592 78.7357 128.167 75.7491 127.82 72.7626C127.125 66.7119 126.546 60.6612 125.774 54.6106C124.77 46.543 119.173 41.2681 111.105 40.2984C102.883 39.3287 94.6992 39.4451 86.477 40.376C79.7602 41.1517 74.5104 45.8836 72.9277 53.0203C72.2329 56.162 72.1171 59.4201 71.7697 62.6393C71.0748 68.8839 70.38 75.1285 69.6466 81.3731C69.4149 83.2349 68.3727 84.1657 66.8286 83.933C65.4003 83.7391 64.7055 82.5367 64.8985 80.7526C65.825 72.3359 66.7514 63.9581 67.6393 55.5414C68.8745 43.9443 75.2824 37.1179 86.7086 35.6052C95.201 34.4804 103.693 34.5968 112.186 35.6052C121.141 36.6525 127.974 43.0134 130.02 52.1282C130.831 55.7354 130.985 59.4976 131.448 63.1823C132.182 69.0391 132.915 74.8958 133.648 80.7526C133.687 80.9853 133.726 81.218 133.764 81.3731Z" fill="#656565"/>
<path d="M39.1125 121.479C39.6529 118.454 40.1547 115.157 40.7724 111.86C41.0426 110.541 40.8882 109.572 39.7687 108.563C37.4526 106.508 35.3295 104.258 33.1292 102.125C32.2799 101.31 31.7009 100.418 32.1641 99.177C32.5888 98.0134 33.5152 97.6643 34.6347 97.5091C37.9544 97.0437 41.3128 96.5783 44.6325 96.0353C45.173 95.9577 45.8292 95.4147 46.0608 94.9105C47.6049 91.9627 49.0332 88.9762 50.5 85.9508C51.0019 84.8648 51.6581 84.0503 52.9706 84.0503C54.2444 84.0503 54.9006 84.9036 55.4025 85.9896C56.7535 88.821 58.2204 91.6136 59.5329 94.445C60.0347 95.531 60.6523 96.0353 61.8876 96.1516C65.1301 96.5007 68.3727 96.9661 71.5766 97.5867C72.3873 97.7419 73.3137 98.4788 73.7384 99.177C74.2788 100.108 73.777 101.116 72.9663 101.892C70.4958 104.258 68.0253 106.663 65.632 109.106C65.2073 109.533 64.9371 110.386 65.0529 110.968C65.5548 114.342 66.2496 117.717 66.6742 121.13C66.79 121.945 66.404 123.031 65.8636 123.69C65.1687 124.543 64.0493 124.349 63.0842 123.845C60.1505 122.294 57.1782 120.781 54.283 119.152C53.3952 118.648 52.7003 118.609 51.7739 119.113C48.8401 120.742 45.8292 122.294 42.8569 123.845C40.8496 124.892 39.0353 123.768 39.1125 121.479ZM39.7301 101.659C41.5058 103.482 43.1271 105.228 44.8256 106.895C45.752 107.826 46.138 108.796 45.8678 110.153C45.4046 112.481 45.0572 114.885 44.6325 117.523C46.8715 116.359 48.9174 115.39 50.8474 114.226C52.3143 113.373 53.5496 113.373 55.0164 114.226C56.9465 115.351 58.9538 116.321 61.1927 117.523C60.7681 115.041 60.4979 112.907 60.0347 110.774C59.6487 109.029 59.9961 107.749 61.3472 106.508C63.007 105.034 64.4739 103.327 66.0952 101.62C63.9721 101.31 61.9262 100.922 59.8803 100.767C57.9116 100.612 56.5991 99.7975 55.8271 97.897C55.0164 95.9189 53.9742 94.0184 52.8933 91.8851C51.6967 94.3287 50.5772 96.5395 49.535 98.7503C49.0332 99.7975 48.2997 100.418 47.1417 100.573C44.6711 100.884 42.2392 101.271 39.7301 101.659Z" fill="#656565"/>
<path d="M157.157 124.272C156.887 124.156 156.269 123.962 155.729 123.652C152.872 122.139 150.016 120.665 147.198 119.113C146.387 118.648 145.731 118.687 144.92 119.152C142.025 120.743 139.053 122.255 136.119 123.807C135.115 124.35 134.112 124.544 133.147 123.807C132.182 123.07 132.104 122.1 132.297 120.936C132.915 117.601 133.494 114.265 133.996 110.93C134.073 110.387 133.803 109.572 133.417 109.184C131.062 106.779 128.63 104.413 126.198 102.086C125.349 101.272 124.847 100.418 125.195 99.2549C125.581 98.0137 126.546 97.6646 127.742 97.5095C131.062 97.0828 134.421 96.5786 137.74 96.0356C138.281 95.958 138.898 95.3763 139.169 94.872C140.713 91.9243 142.141 88.9377 143.608 85.9124C144.11 84.8264 144.804 84.0119 146.078 84.0506C147.314 84.0894 147.931 84.8652 148.433 85.9124C149.9 88.8989 151.405 91.8855 152.795 94.872C153.181 95.6865 153.683 95.9968 154.532 96.1132C157.929 96.5398 161.287 97.0053 164.646 97.6259C165.418 97.781 166.46 98.5567 166.692 99.2937C166.923 99.9918 166.537 101.233 165.997 101.854C163.604 104.375 161.056 106.741 158.624 109.223C158.238 109.611 157.968 110.387 158.083 110.93C158.585 114.265 159.203 117.601 159.743 120.936C160.168 122.953 159.203 124.311 157.157 124.272ZM132.722 101.698C133.803 102.784 134.691 103.677 135.579 104.569C140.018 108.99 139.439 107.361 138.512 113.412C138.396 114.265 138.203 115.118 138.049 115.972C137.972 116.398 137.972 116.864 137.933 117.484C140.211 116.282 142.295 115.274 144.303 114.149C145.576 113.412 146.696 113.451 147.97 114.149C150.016 115.312 152.1 116.321 154.416 117.523C153.992 114.963 153.683 112.597 153.181 110.309C152.872 108.835 153.297 107.827 154.3 106.818C155.999 105.189 157.582 103.483 159.319 101.66C157.041 101.349 154.879 100.961 152.718 100.729C151.019 100.535 149.9 99.8755 149.205 98.2077C148.317 96.152 147.236 94.1351 146.117 91.8855C144.92 94.2902 143.839 96.4623 142.797 98.6731C142.295 99.7591 141.523 100.38 140.288 100.535C137.779 100.884 135.386 101.272 132.722 101.698Z" fill="#656565"/>
<path d="M99.3314 0.000190247C107.245 0.0389766 113.498 4.77091 115.235 11.9852C117.204 20.2079 111.761 30.6026 103.886 33.5892C100.219 34.9467 96.6293 34.714 93.1165 32.9686C86.7472 29.7493 82.1922 21.4878 82.8098 14.3123C83.5432 5.85693 90.3758 -0.0385961 99.3314 0.000190247ZM110.873 15.5923C110.796 14.8554 110.758 13.9633 110.565 13.11C109.368 7.79624 104.35 4.34426 98.4822 4.77091C92.6919 5.19756 88.4457 8.64954 87.6736 13.6142C86.8244 19.0055 90.0669 25.7543 94.8536 28.4306C97.7487 30.0208 100.682 30.0984 103.5 28.3918C108.21 25.5216 110.565 21.2163 110.873 15.5923Z" fill="#656565"/>
<path d="M84.4311 58.8007C83.9292 66.0925 83.4274 73.3843 82.9256 80.6762C82.887 81.064 82.8484 81.4519 82.8098 81.8397C82.5782 83.2748 81.5359 84.0893 80.1849 83.973C78.9496 83.8566 78.1004 82.887 78.1004 81.4519C78.139 79.9004 78.2934 78.349 78.3706 76.8363C78.8338 70.4366 79.2584 63.998 79.7602 57.5983C79.876 56.1244 80.9569 55.1935 82.2308 55.2711C83.5046 55.3487 84.4311 56.3959 84.4697 57.831C84.4697 58.1801 84.4697 58.4904 84.4697 58.8395C84.4697 58.8007 84.4311 58.8007 84.4311 58.8007Z" fill="#656565"/>
<path d="M113.923 59.1106C113.884 58.6451 113.846 58.1409 113.846 57.6755C113.884 56.2404 114.849 55.2319 116.162 55.2319C117.436 55.2319 118.439 56.2016 118.555 57.6367C118.864 61.399 119.096 65.1612 119.366 68.9235C119.636 72.8409 119.945 76.7196 120.176 80.637C120.215 81.3739 120.138 82.1884 119.829 82.8478C119.366 83.8175 118.324 84.2829 117.397 83.8563C116.625 83.5072 115.776 82.6927 115.583 81.9169C115.197 80.5594 115.274 79.0467 115.158 77.6117C114.772 71.4446 114.348 65.2776 113.923 59.1106Z" fill="#656565"/>
<path d="M-26.2539 155.785C-26.1465 155.649 -25.9782 155.466 -25.749 155.237C-25.5199 155.001 -25.2549 154.725 -24.9541 154.41C-24.6533 154.088 -24.3311 153.73 -23.9873 153.336C-23.6436 152.942 -23.2998 152.516 -22.9561 152.058C-22.6123 151.599 -22.2829 151.112 -21.9678 150.597C-21.6455 150.074 -21.3626 149.53 -21.1191 148.964C-20.8757 148.398 -20.6823 147.811 -20.5391 147.202C-20.3887 146.593 -20.3135 145.97 -20.3135 145.333C-20.3135 144.653 -20.3958 144.065 -20.5605 143.571C-20.7181 143.07 -20.9365 142.658 -21.2158 142.336C-21.4951 142.007 -21.8245 141.763 -22.2041 141.605C-22.5765 141.448 -22.9811 141.369 -23.418 141.369C-23.9622 141.369 -24.4564 141.462 -24.9004 141.648C-25.3372 141.827 -25.7204 142.039 -26.0498 142.282C-26.3721 142.526 -26.637 142.769 -26.8447 143.013C-27.0452 143.256 -27.1813 143.442 -27.2529 143.571L-27.4033 143.507L-26.6729 141.326C-26.2933 141.154 -25.9388 141.007 -25.6094 140.886C-25.2728 140.757 -24.9362 140.653 -24.5996 140.574C-24.2559 140.495 -23.9049 140.438 -23.5469 140.402C-23.1816 140.359 -22.7806 140.338 -22.3438 140.338C-22.0501 140.338 -21.7386 140.37 -21.4092 140.435C-21.0798 140.499 -20.7539 140.603 -20.4316 140.746C-20.1094 140.889 -19.805 141.076 -19.5186 141.305C-19.2249 141.527 -18.9671 141.802 -18.7451 142.132C-18.516 142.454 -18.3369 142.83 -18.208 143.26C-18.0719 143.689 -18.0039 144.18 -18.0039 144.731C-18.0039 145.319 -18.0934 145.91 -18.2725 146.504C-18.4515 147.091 -18.6878 147.671 -18.9814 148.244C-19.2751 148.81 -19.6117 149.365 -19.9912 149.909C-20.3708 150.453 -20.7611 150.973 -21.1621 151.467C-21.5632 151.961 -21.9606 152.426 -22.3545 152.863C-22.7484 153.293 -23.1029 153.687 -23.418 154.045H-19.2822C-19.0173 154.045 -18.7594 154.041 -18.5088 154.034C-18.251 154.02 -18.0146 154.002 -17.7998 153.98C-17.585 153.952 -17.3988 153.916 -17.2412 153.873C-17.0765 153.83 -16.9512 153.776 -16.8652 153.712H-16.8223V156H-26.2539V155.785ZM-17.3164 157.676C-16.543 157.618 -15.7874 157.468 -15.0498 157.225C-14.305 156.988 -13.5924 156.673 -12.9121 156.279C-12.2318 155.893 -11.5944 155.438 -11 154.915C-10.3984 154.385 -9.86133 153.805 -9.38867 153.175C-8.90885 152.537 -8.50065 151.857 -8.16406 151.134C-7.82031 150.403 -7.56608 149.641 -7.40137 148.846C-7.70215 149.032 -7.98503 149.193 -8.25 149.329C-8.50781 149.458 -8.77637 149.565 -9.05566 149.651C-9.3278 149.737 -9.62142 149.802 -9.93652 149.845C-10.2445 149.888 -10.5954 149.909 -10.9893 149.909C-11.4834 149.909 -12.0062 149.816 -12.5576 149.63C-13.1019 149.444 -13.6032 149.157 -14.0615 148.771C-14.5199 148.384 -14.8994 147.893 -15.2002 147.299C-15.501 146.704 -15.6514 145.995 -15.6514 145.172C-15.6514 144.613 -15.5439 144.048 -15.3291 143.475C-15.1143 142.895 -14.792 142.375 -14.3623 141.917C-13.9255 141.451 -13.3776 141.072 -12.7188 140.778C-12.0599 140.485 -11.2829 140.338 -10.3877 140.338C-9.69303 140.338 -9.02344 140.467 -8.37891 140.725C-7.72721 140.982 -7.15072 141.376 -6.64941 141.906C-6.14811 142.429 -5.75065 143.088 -5.45703 143.883C-5.15625 144.678 -5.00586 145.616 -5.00586 146.697C-5.00586 147.643 -5.15267 148.577 -5.44629 149.501C-5.73991 150.418 -6.15169 151.291 -6.68164 152.122C-7.21159 152.953 -7.84538 153.726 -8.58301 154.442C-9.32064 155.151 -10.137 155.771 -11.0322 156.301C-11.9274 156.838 -12.8835 157.268 -13.9004 157.59C-14.9173 157.912 -15.9701 158.102 -17.0586 158.159L-17.3164 157.676ZM-9.77539 148.781C-9.35286 148.781 -8.92318 148.72 -8.48633 148.599C-8.04948 148.477 -7.64128 148.291 -7.26172 148.04C-7.22591 147.84 -7.20443 147.635 -7.19727 147.428C-7.18294 147.22 -7.17578 147.005 -7.17578 146.783C-7.17578 145.888 -7.27246 145.093 -7.46582 144.398C-7.65918 143.697 -7.91699 143.106 -8.23926 142.626C-8.56152 142.146 -8.9375 141.781 -9.36719 141.53C-9.78971 141.28 -10.2337 141.154 -10.6992 141.154C-11.0573 141.154 -11.4082 141.222 -11.752 141.358C-12.0957 141.494 -12.4036 141.702 -12.6758 141.981C-12.9479 142.261 -13.1663 142.615 -13.3311 143.045C-13.4958 143.475 -13.5781 143.987 -13.5781 144.581C-13.5781 145.175 -13.4886 145.73 -13.3096 146.246C-13.1305 146.755 -12.8763 147.199 -12.5469 147.578C-12.2174 147.951 -11.82 148.244 -11.3545 148.459C-10.8818 148.674 -10.3555 148.781 -9.77539 148.781ZM10.3877 148.609V151.8C10.3877 152.409 10.3949 152.942 10.4092 153.4C10.4235 153.852 10.445 154.242 10.4736 154.571C10.5023 154.901 10.5345 155.176 10.5703 155.398C10.6133 155.62 10.6562 155.807 10.6992 155.957V156H8.12109V155.957C8.16406 155.807 8.20345 155.62 8.23926 155.398C8.28223 155.176 8.31445 154.901 8.33594 154.571C8.36458 154.242 8.38607 153.852 8.40039 153.4C8.42188 152.942 8.43262 152.409 8.43262 151.8V148.824L3.63086 142.293C3.46615 142.071 3.30143 141.867 3.13672 141.681C2.97917 141.494 2.82878 141.333 2.68555 141.197C2.54232 141.054 2.41341 140.936 2.29883 140.843C2.18424 140.75 2.09473 140.682 2.03027 140.639V140.596H5.28516C5.28516 140.76 5.35319 141.033 5.48926 141.412C5.63249 141.785 5.88672 142.225 6.25195 142.733L9.77539 147.557L13.2236 142.519C13.3454 142.34 13.4671 142.157 13.5889 141.971C13.7106 141.785 13.8216 141.605 13.9219 141.434C14.0221 141.262 14.1009 141.104 14.1582 140.961C14.2227 140.818 14.2549 140.696 14.2549 140.596H16.3496V140.639C16.1921 140.775 15.9808 140.979 15.7158 141.251C15.4508 141.516 15.1644 141.87 14.8564 142.314L10.3877 148.609ZM17.7783 140.596C18.6735 140.596 19.5615 140.592 20.4424 140.585C21.3304 140.578 22.1432 140.571 22.8809 140.563C23.6185 140.549 24.2487 140.531 24.7715 140.51C25.2943 140.488 25.6488 140.46 25.835 140.424L25.3086 141.853C25.0723 141.788 24.7965 141.731 24.4814 141.681C24.2093 141.638 23.8763 141.598 23.4824 141.562C23.0957 141.52 22.6481 141.498 22.1396 141.498C21.9678 141.498 21.7601 141.505 21.5166 141.52C21.2803 141.527 21.0511 141.537 20.8291 141.552C20.5713 141.566 20.3099 141.58 20.0449 141.595V147.46C20.7826 147.453 21.4486 147.431 22.043 147.396C22.6374 147.36 23.1423 147.324 23.5576 147.288C24.0446 147.245 24.4743 147.195 24.8467 147.138L24.5137 148.695C24.0195 148.631 23.5146 148.57 22.999 148.513C22.555 148.463 22.0716 148.42 21.5488 148.384C21.026 148.341 20.5247 148.319 20.0449 148.319V155.055C20.89 155.055 21.667 155.019 22.376 154.947C23.085 154.876 23.7044 154.793 24.2344 154.7C24.8503 154.6 25.4124 154.482 25.9209 154.346L25.6094 156.086C25.5234 156.079 25.3945 156.072 25.2227 156.064C25.0508 156.057 24.8574 156.05 24.6426 156.043C24.4349 156.036 24.2129 156.029 23.9766 156.021C23.7474 156.021 23.529 156.018 23.3213 156.011C23.1136 156.011 22.9274 156.007 22.7627 156C22.6051 156 22.4906 156 22.4189 156H17.7783V155.957C17.8213 155.807 17.8607 155.62 17.8965 155.398C17.9395 155.176 17.9753 154.901 18.0039 154.571C18.0326 154.242 18.054 153.852 18.0684 153.4C18.0827 152.942 18.0898 152.409 18.0898 151.8V144.807C18.0898 144.198 18.0827 143.668 18.0684 143.217C18.054 142.758 18.0326 142.365 18.0039 142.035C17.9753 141.699 17.9395 141.419 17.8965 141.197C17.8607 140.975 17.8213 140.789 17.7783 140.639V140.596ZM39.2197 156V155.957C39.234 155.921 39.2448 155.868 39.252 155.796C39.2591 155.724 39.2627 155.66 39.2627 155.603C39.2627 155.381 39.2305 155.137 39.166 154.872C39.1087 154.6 38.9941 154.263 38.8223 153.862L37.5225 150.94C37.1214 150.926 36.5879 150.919 35.9219 150.919C35.2559 150.919 34.5361 150.919 33.7627 150.919C33.1969 150.919 32.6491 150.919 32.1191 150.919C31.5964 150.919 31.1237 150.926 30.7012 150.94L29.4658 153.776C29.3584 154.041 29.2438 154.331 29.1221 154.646C29.0003 154.962 28.9395 155.28 28.9395 155.603C28.9395 155.696 28.9466 155.774 28.9609 155.839C28.9753 155.896 28.9896 155.936 29.0039 155.957V156H26.8125V155.957C26.9414 155.821 27.1025 155.581 27.2959 155.237C27.4893 154.886 27.7005 154.45 27.9297 153.927L34.085 140.273H34.9443L40.7773 153.4C40.9134 153.708 41.0531 154.009 41.1963 154.303C41.3467 154.589 41.4863 154.847 41.6152 155.076C41.7441 155.305 41.8587 155.499 41.959 155.656C42.0592 155.814 42.1273 155.914 42.1631 155.957V156H39.2197ZM32.2588 149.995C32.6742 149.995 33.1003 149.995 33.5371 149.995C33.974 149.988 34.4001 149.984 34.8154 149.984C35.238 149.977 35.6426 149.974 36.0293 149.974C36.416 149.966 36.7669 149.959 37.082 149.952L34.0635 143.131L31.0986 149.995H32.2588ZM45.7617 151.8C45.7617 152.409 45.7689 152.942 45.7832 153.4C45.8047 153.852 45.8262 154.242 45.8477 154.571C45.8763 154.901 45.9085 155.176 45.9443 155.398C45.9873 155.62 46.0303 155.807 46.0732 155.957V156H43.4951V155.957C43.5381 155.807 43.5775 155.62 43.6133 155.398C43.6562 155.176 43.6885 154.901 43.71 154.571C43.7386 154.242 43.7601 153.852 43.7744 153.4C43.7959 152.949 43.8066 152.416 43.8066 151.8V144.807C43.8066 144.198 43.7959 143.668 43.7744 143.217C43.7601 142.758 43.7386 142.365 43.71 142.035C43.6885 141.706 43.6562 141.43 43.6133 141.208C43.5775 140.979 43.5381 140.789 43.4951 140.639V140.596L43.9463 140.639C44.0824 140.653 44.2327 140.664 44.3975 140.671C44.5693 140.671 44.7448 140.671 44.9238 140.671C45.2031 140.671 45.5791 140.639 46.0518 140.574C46.5316 140.503 47.1403 140.467 47.8779 140.467C48.5654 140.467 49.1992 140.56 49.7793 140.746C50.3665 140.932 50.875 141.204 51.3047 141.562C51.7344 141.921 52.0674 142.361 52.3037 142.884C52.5472 143.399 52.6689 143.987 52.6689 144.646C52.6689 145.161 52.6009 145.641 52.4648 146.085C52.3359 146.522 52.1497 146.919 51.9062 147.277C51.6699 147.635 51.3835 147.954 51.0469 148.233C50.7103 148.506 50.3343 148.735 49.9189 148.921L53.6895 154.217C53.8757 154.482 54.0475 154.711 54.2051 154.904C54.3698 155.098 54.5238 155.266 54.667 155.409C54.8174 155.545 54.9606 155.66 55.0967 155.753C55.2327 155.839 55.3724 155.907 55.5156 155.957V156H52.4111C52.3896 155.864 52.318 155.685 52.1963 155.463C52.0817 155.234 51.9456 155.008 51.7881 154.786L47.9854 149.426C47.8206 149.44 47.6559 149.454 47.4912 149.469C47.3265 149.476 47.1582 149.479 46.9863 149.479C46.7858 149.479 46.5817 149.472 46.374 149.458C46.1735 149.444 45.9694 149.419 45.7617 149.383V151.8ZM45.7617 148.545C45.9551 148.588 46.152 148.62 46.3525 148.642C46.5531 148.656 46.7464 148.663 46.9326 148.663C47.4697 148.663 47.9603 148.584 48.4043 148.427C48.8483 148.262 49.2243 148.015 49.5322 147.686C49.8473 147.356 50.0908 146.948 50.2627 146.461C50.4346 145.967 50.5205 145.39 50.5205 144.731C50.5205 144.194 50.4596 143.707 50.3379 143.271C50.2161 142.834 50.0335 142.465 49.79 142.164C49.5537 141.856 49.2529 141.62 48.8877 141.455C48.5225 141.283 48.0964 141.197 47.6094 141.197C47.1152 141.197 46.7214 141.222 46.4277 141.272C46.1341 141.323 45.9121 141.376 45.7617 141.434V148.545ZM62.917 143.045H62.6807C62.6234 142.88 62.5303 142.694 62.4014 142.486C62.2796 142.279 62.1149 142.085 61.9072 141.906C61.7067 141.72 61.4596 141.566 61.166 141.444C60.8796 141.323 60.5394 141.262 60.1455 141.262C59.7946 141.262 59.4831 141.315 59.2109 141.423C58.9388 141.53 58.7096 141.681 58.5234 141.874C58.3444 142.067 58.2083 142.297 58.1152 142.562C58.0221 142.826 57.9756 143.12 57.9756 143.442C57.9756 143.958 58.1188 144.452 58.4053 144.925C58.6989 145.39 59.0641 145.852 59.501 146.311C59.9378 146.769 60.4105 147.227 60.9189 147.686C61.4274 148.144 61.9001 148.62 62.3369 149.114C62.7738 149.608 63.1354 150.128 63.4219 150.672C63.7155 151.209 63.8623 151.789 63.8623 152.412C63.8623 152.878 63.7799 153.347 63.6152 153.819C63.4577 154.285 63.2106 154.704 62.874 155.076C62.5374 155.449 62.1042 155.753 61.5742 155.989C61.0443 156.218 60.4141 156.333 59.6836 156.333C59.2754 156.333 58.8851 156.294 58.5127 156.215C58.1475 156.143 57.8073 156.054 57.4922 155.946C57.1842 155.832 56.9049 155.71 56.6543 155.581C56.4108 155.452 56.2103 155.334 56.0527 155.227L56.2998 152.853H56.5684C56.6471 153.189 56.776 153.511 56.9551 153.819C57.1341 154.12 57.3525 154.389 57.6104 154.625C57.8753 154.854 58.1761 155.04 58.5127 155.184C58.8493 155.32 59.2181 155.388 59.6191 155.388C59.9844 155.388 60.3102 155.334 60.5967 155.227C60.8903 155.112 61.141 154.958 61.3486 154.765C61.5563 154.564 61.7139 154.328 61.8213 154.056C61.9359 153.784 61.9932 153.486 61.9932 153.164C61.9932 152.713 61.9108 152.298 61.7461 151.918C61.5814 151.531 61.363 151.166 61.0908 150.822C60.8258 150.479 60.5215 150.146 60.1777 149.823C59.8411 149.501 59.4938 149.179 59.1357 148.856C58.7777 148.527 58.4268 148.19 58.083 147.847C57.7464 147.503 57.4421 147.138 57.1699 146.751C56.9049 146.357 56.6901 145.938 56.5254 145.494C56.3607 145.043 56.2783 144.549 56.2783 144.012C56.2783 143.446 56.3857 142.938 56.6006 142.486C56.8226 142.028 57.1126 141.638 57.4707 141.315C57.8359 140.993 58.2477 140.746 58.7061 140.574C59.1644 140.402 59.637 140.316 60.124 140.316C60.4821 140.316 60.8115 140.345 61.1123 140.402C61.4131 140.46 61.6816 140.528 61.918 140.606C62.1615 140.685 62.3727 140.764 62.5518 140.843C62.7308 140.922 62.8776 140.986 62.9922 141.036L62.917 143.045ZM80.126 140.338C81.3219 140.338 82.4248 140.535 83.4346 140.929C84.4515 141.315 85.3288 141.863 86.0664 142.572C86.804 143.274 87.3805 144.119 87.7959 145.107C88.2113 146.096 88.4189 147.188 88.4189 148.384C88.4189 149.064 88.3402 149.734 88.1826 150.393C88.0251 151.051 87.7923 151.674 87.4844 152.262C87.1836 152.849 86.8112 153.393 86.3672 153.895C85.9232 154.389 85.4147 154.818 84.8418 155.184C84.276 155.542 83.6494 155.821 82.9619 156.021C82.2744 156.229 81.5332 156.333 80.7383 156.333C79.5423 156.333 78.4359 156.143 77.4189 155.764C76.4092 155.377 75.5355 154.833 74.7979 154.131C74.0602 153.429 73.4837 152.588 73.0684 151.606C72.653 150.618 72.4453 149.522 72.4453 148.319C72.4453 147.639 72.5241 146.969 72.6816 146.311C72.8392 145.652 73.0684 145.025 73.3691 144.431C73.6771 143.836 74.0495 143.292 74.4863 142.798C74.9303 142.297 75.4352 141.863 76.001 141.498C76.5739 141.133 77.2041 140.85 77.8916 140.649C78.5863 140.442 79.3311 140.338 80.126 140.338ZM80.7383 155.366C81.5332 155.366 82.2601 155.223 82.9189 154.937C83.5778 154.65 84.1436 154.235 84.6162 153.69C85.096 153.146 85.4684 152.484 85.7334 151.703C85.9984 150.915 86.1309 150.024 86.1309 149.028C86.1309 147.925 86.002 146.905 85.7441 145.967C85.4935 145.021 85.1175 144.205 84.6162 143.518C84.1149 142.823 83.4883 142.282 82.7363 141.896C81.9915 141.502 81.1214 141.305 80.126 141.305C79.3311 141.305 78.6042 141.448 77.9453 141.734C77.2865 142.014 76.7171 142.422 76.2373 142.959C75.7646 143.496 75.3958 144.155 75.1309 144.936C74.8659 145.716 74.7334 146.604 74.7334 147.6C74.7334 148.695 74.8587 149.719 75.1094 150.672C75.36 151.617 75.736 152.437 76.2373 153.132C76.7386 153.826 77.3652 154.374 78.1172 154.775C78.8691 155.169 79.7428 155.366 80.7383 155.366ZM93.1133 151.8C93.1133 152.409 93.1204 152.942 93.1348 153.4C93.1562 153.852 93.1777 154.242 93.1992 154.571C93.2279 154.901 93.2601 155.176 93.2959 155.398C93.3389 155.62 93.3818 155.807 93.4248 155.957V156H90.8467V155.957C90.8896 155.807 90.929 155.62 90.9648 155.398C91.0078 155.176 91.0436 154.901 91.0723 154.571C91.1009 154.242 91.1224 153.852 91.1367 153.4C91.151 152.942 91.1582 152.409 91.1582 151.8V144.807C91.1582 144.198 91.151 143.668 91.1367 143.217C91.1224 142.758 91.1009 142.365 91.0723 142.035C91.0436 141.699 91.0078 141.419 90.9648 141.197C90.929 140.975 90.8896 140.789 90.8467 140.639V140.596C91.4411 140.596 92.0426 140.596 92.6514 140.596C93.2601 140.589 93.8509 140.585 94.4238 140.585C94.9967 140.578 95.541 140.571 96.0566 140.563C96.5723 140.549 97.0378 140.538 97.4531 140.531C97.8685 140.517 98.2194 140.503 98.5059 140.488C98.7923 140.467 98.9964 140.445 99.1182 140.424L98.5918 141.853C98.3555 141.788 98.0798 141.731 97.7646 141.681C97.4925 141.638 97.1595 141.598 96.7656 141.562C96.3789 141.52 95.9313 141.498 95.4229 141.498C95.251 141.498 95.0361 141.505 94.7783 141.52C94.5205 141.527 94.2663 141.537 94.0156 141.552C93.7292 141.566 93.4284 141.58 93.1133 141.595V147.02C93.8509 147.012 94.5277 146.991 95.1436 146.955C95.7594 146.919 96.2894 146.883 96.7334 146.848C97.249 146.805 97.7145 146.755 98.1299 146.697L97.8076 148.255C97.2705 148.19 96.7262 148.13 96.1748 148.072C95.7021 148.022 95.1937 147.979 94.6494 147.943C94.1051 147.9 93.5931 147.879 93.1133 147.879V151.8ZM107.69 140.596C108.586 140.596 109.474 140.592 110.354 140.585C111.243 140.578 112.055 140.571 112.793 140.563C113.531 140.549 114.161 140.531 114.684 140.51C115.206 140.488 115.561 140.46 115.747 140.424L115.221 141.853C114.984 141.788 114.709 141.731 114.394 141.681C114.121 141.638 113.788 141.598 113.395 141.562C113.008 141.52 112.56 141.498 112.052 141.498C111.88 141.498 111.672 141.505 111.429 141.52C111.192 141.527 110.963 141.537 110.741 141.552C110.483 141.566 110.222 141.58 109.957 141.595V147.46C110.695 147.453 111.361 147.431 111.955 147.396C112.549 147.36 113.054 147.324 113.47 147.288C113.957 147.245 114.386 147.195 114.759 147.138L114.426 148.695C113.932 148.631 113.427 148.57 112.911 148.513C112.467 148.463 111.984 148.42 111.461 148.384C110.938 148.341 110.437 148.319 109.957 148.319V155.055C110.802 155.055 111.579 155.019 112.288 154.947C112.997 154.876 113.617 154.793 114.146 154.7C114.762 154.6 115.325 154.482 115.833 154.346L115.521 156.086C115.436 156.079 115.307 156.072 115.135 156.064C114.963 156.057 114.77 156.05 114.555 156.043C114.347 156.036 114.125 156.029 113.889 156.021C113.66 156.021 113.441 156.018 113.233 156.011C113.026 156.011 112.84 156.007 112.675 156C112.517 156 112.403 156 112.331 156H107.69V155.957C107.733 155.807 107.773 155.62 107.809 155.398C107.852 155.176 107.887 154.901 107.916 154.571C107.945 154.242 107.966 153.852 107.98 153.4C107.995 152.942 108.002 152.409 108.002 151.8V144.807C108.002 144.198 107.995 143.668 107.98 143.217C107.966 142.758 107.945 142.365 107.916 142.035C107.887 141.699 107.852 141.419 107.809 141.197C107.773 140.975 107.733 140.789 107.69 140.639V140.596ZM124.223 149.265L120.42 154.088C120.277 154.26 120.137 154.439 120.001 154.625C119.865 154.804 119.743 154.979 119.636 155.151C119.528 155.323 119.439 155.484 119.367 155.635C119.303 155.778 119.271 155.9 119.271 156H117.187V155.957C117.344 155.821 117.566 155.613 117.853 155.334C118.146 155.055 118.458 154.704 118.787 154.281L123.514 148.341L118.658 141.96C118.393 141.616 118.132 141.33 117.874 141.101C117.616 140.864 117.423 140.71 117.294 140.639V140.596H120.656C120.656 140.682 120.667 140.793 120.688 140.929C120.717 141.065 120.767 141.226 120.839 141.412C120.91 141.591 121.007 141.792 121.129 142.014C121.258 142.236 121.423 142.476 121.623 142.733L124.728 146.805L128.154 142.519C128.283 142.361 128.409 142.189 128.53 142.003C128.659 141.817 128.77 141.638 128.863 141.466C128.964 141.287 129.042 141.122 129.1 140.972C129.164 140.821 129.196 140.696 129.196 140.596H131.28V140.639C131.209 140.696 131.13 140.764 131.044 140.843C130.958 140.922 130.858 141.018 130.743 141.133C130.636 141.247 130.514 141.383 130.378 141.541C130.242 141.699 130.088 141.885 129.916 142.1L125.437 147.75L130.442 154.303C130.786 154.747 131.105 155.116 131.398 155.409C131.699 155.696 131.918 155.878 132.054 155.957V156H128.713C128.713 155.835 128.645 155.563 128.509 155.184C128.373 154.804 128.118 154.364 127.746 153.862L124.223 149.265ZM136.104 149.179C136.805 149.308 137.446 149.322 138.026 149.222C138.614 149.114 139.115 148.892 139.53 148.556C139.953 148.212 140.279 147.75 140.508 147.17C140.744 146.59 140.862 145.881 140.862 145.043C140.862 144.463 140.801 143.937 140.68 143.464C140.558 142.984 140.375 142.579 140.132 142.25C139.896 141.913 139.595 141.656 139.229 141.477C138.864 141.29 138.438 141.197 137.951 141.197C137.643 141.197 137.375 141.212 137.146 141.24C136.916 141.262 136.723 141.287 136.565 141.315C136.379 141.351 136.225 141.391 136.104 141.434V149.179ZM133.837 140.596C133.98 140.61 134.131 140.624 134.288 140.639C134.424 140.653 134.575 140.664 134.739 140.671C134.911 140.671 135.087 140.671 135.266 140.671C135.545 140.671 135.921 140.639 136.394 140.574C136.873 140.503 137.482 140.467 138.22 140.467C138.907 140.467 139.541 140.567 140.121 140.768C140.708 140.968 141.217 141.262 141.646 141.648C142.076 142.035 142.409 142.508 142.646 143.066C142.889 143.618 143.011 144.248 143.011 144.957C143.011 145.91 142.821 146.733 142.441 147.428C142.062 148.122 141.553 148.685 140.916 149.114C140.279 149.544 139.545 149.838 138.714 149.995C137.883 150.146 137.013 150.153 136.104 150.017V151.8C136.104 152.409 136.111 152.942 136.125 153.4C136.146 153.852 136.168 154.242 136.189 154.571C136.218 154.901 136.25 155.176 136.286 155.398C136.329 155.62 136.372 155.807 136.415 155.957V156H133.837V155.957C133.88 155.807 133.919 155.62 133.955 155.398C133.998 155.176 134.034 154.901 134.062 154.571C134.091 154.242 134.113 153.852 134.127 153.4C134.141 152.942 134.148 152.409 134.148 151.8V144.807C134.148 144.198 134.141 143.668 134.127 143.217C134.113 142.758 134.091 142.365 134.062 142.035C134.034 141.699 133.998 141.419 133.955 141.197C133.919 140.975 133.88 140.789 133.837 140.639V140.596ZM145.116 140.596C146.011 140.596 146.899 140.592 147.78 140.585C148.668 140.578 149.481 140.571 150.219 140.563C150.956 140.549 151.587 140.531 152.109 140.51C152.632 140.488 152.987 140.46 153.173 140.424L152.646 141.853C152.41 141.788 152.134 141.731 151.819 141.681C151.547 141.638 151.214 141.598 150.82 141.562C150.434 141.52 149.986 141.498 149.478 141.498C149.306 141.498 149.098 141.505 148.854 141.52C148.618 141.527 148.389 141.537 148.167 141.552C147.909 141.566 147.648 141.58 147.383 141.595V147.46C148.12 147.453 148.786 147.431 149.381 147.396C149.975 147.36 150.48 147.324 150.896 147.288C151.382 147.245 151.812 147.195 152.185 147.138L151.852 148.695C151.357 148.631 150.853 148.57 150.337 148.513C149.893 148.463 149.41 148.42 148.887 148.384C148.364 148.341 147.863 148.319 147.383 148.319V155.055C148.228 155.055 149.005 155.019 149.714 154.947C150.423 154.876 151.042 154.793 151.572 154.7C152.188 154.6 152.75 154.482 153.259 154.346L152.947 156.086C152.861 156.079 152.732 156.072 152.561 156.064C152.389 156.057 152.195 156.05 151.98 156.043C151.773 156.036 151.551 156.029 151.314 156.021C151.085 156.021 150.867 156.018 150.659 156.011C150.451 156.011 150.265 156.007 150.101 156C149.943 156 149.828 156 149.757 156H145.116V155.957C145.159 155.807 145.199 155.62 145.234 155.398C145.277 155.176 145.313 154.901 145.342 154.571C145.37 154.242 145.392 153.852 145.406 153.4C145.421 152.942 145.428 152.409 145.428 151.8V144.807C145.428 144.198 145.421 143.668 145.406 143.217C145.392 142.758 145.37 142.365 145.342 142.035C145.313 141.699 145.277 141.419 145.234 141.197C145.199 140.975 145.159 140.789 145.116 140.639V140.596ZM158.168 151.8C158.168 152.409 158.175 152.942 158.189 153.4C158.211 153.852 158.232 154.242 158.254 154.571C158.283 154.901 158.315 155.176 158.351 155.398C158.394 155.62 158.437 155.807 158.479 155.957V156H155.901V155.957C155.944 155.807 155.984 155.62 156.02 155.398C156.062 155.176 156.095 154.901 156.116 154.571C156.145 154.242 156.166 153.852 156.181 153.4C156.202 152.949 156.213 152.416 156.213 151.8V144.807C156.213 144.198 156.202 143.668 156.181 143.217C156.166 142.758 156.145 142.365 156.116 142.035C156.095 141.706 156.062 141.43 156.02 141.208C155.984 140.979 155.944 140.789 155.901 140.639V140.596L156.353 140.639C156.489 140.653 156.639 140.664 156.804 140.671C156.976 140.671 157.151 140.671 157.33 140.671C157.609 140.671 157.985 140.639 158.458 140.574C158.938 140.503 159.547 140.467 160.284 140.467C160.972 140.467 161.605 140.56 162.186 140.746C162.773 140.932 163.281 141.204 163.711 141.562C164.141 141.921 164.474 142.361 164.71 142.884C164.953 143.399 165.075 143.987 165.075 144.646C165.075 145.161 165.007 145.641 164.871 146.085C164.742 146.522 164.556 146.919 164.312 147.277C164.076 147.635 163.79 147.954 163.453 148.233C163.117 148.506 162.741 148.735 162.325 148.921L166.096 154.217C166.282 154.482 166.454 154.711 166.611 154.904C166.776 155.098 166.93 155.266 167.073 155.409C167.224 155.545 167.367 155.66 167.503 155.753C167.639 155.839 167.779 155.907 167.922 155.957V156H164.817C164.796 155.864 164.724 155.685 164.603 155.463C164.488 155.234 164.352 155.008 164.194 154.786L160.392 149.426C160.227 149.44 160.062 149.454 159.897 149.469C159.733 149.476 159.564 149.479 159.393 149.479C159.192 149.479 158.988 149.472 158.78 149.458C158.58 149.444 158.376 149.419 158.168 149.383V151.8ZM158.168 148.545C158.361 148.588 158.558 148.62 158.759 148.642C158.959 148.656 159.153 148.663 159.339 148.663C159.876 148.663 160.367 148.584 160.811 148.427C161.255 148.262 161.631 148.015 161.938 147.686C162.254 147.356 162.497 146.948 162.669 146.461C162.841 145.967 162.927 145.39 162.927 144.731C162.927 144.194 162.866 143.707 162.744 143.271C162.622 142.834 162.44 142.465 162.196 142.164C161.96 141.856 161.659 141.62 161.294 141.455C160.929 141.283 160.503 141.197 160.016 141.197C159.521 141.197 159.128 141.222 158.834 141.272C158.54 141.323 158.318 141.376 158.168 141.434V148.545ZM168.996 155.957C169.039 155.807 169.078 155.62 169.114 155.398C169.15 155.176 169.182 154.901 169.211 154.571C169.24 154.242 169.261 153.852 169.275 153.4C169.29 152.942 169.297 152.409 169.297 151.8V144.807C169.297 144.198 169.29 143.668 169.275 143.217C169.261 142.758 169.24 142.365 169.211 142.035C169.182 141.699 169.15 141.419 169.114 141.197C169.078 140.975 169.039 140.789 168.996 140.639V140.596H171.563V140.639C171.521 140.789 171.478 140.975 171.435 141.197C171.399 141.419 171.367 141.699 171.338 142.035C171.316 142.365 171.295 142.758 171.273 143.217C171.259 143.668 171.252 144.198 171.252 144.807V151.8C171.252 152.409 171.259 152.942 171.273 153.4C171.295 153.852 171.316 154.242 171.338 154.571C171.367 154.901 171.399 155.176 171.435 155.398C171.478 155.62 171.521 155.807 171.563 155.957V156H168.996V155.957ZM174.743 140.596C175.638 140.596 176.526 140.592 177.407 140.585C178.295 140.578 179.108 140.571 179.846 140.563C180.583 140.549 181.214 140.531 181.736 140.51C182.259 140.488 182.614 140.46 182.8 140.424L182.273 141.853C182.037 141.788 181.761 141.731 181.446 141.681C181.174 141.638 180.841 141.598 180.447 141.562C180.061 141.52 179.613 141.498 179.104 141.498C178.933 141.498 178.725 141.505 178.481 141.52C178.245 141.527 178.016 141.537 177.794 141.552C177.536 141.566 177.275 141.58 177.01 141.595V147.46C177.747 147.453 178.413 147.431 179.008 147.396C179.602 147.36 180.107 147.324 180.522 147.288C181.009 147.245 181.439 147.195 181.812 147.138L181.479 148.695C180.984 148.631 180.479 148.57 179.964 148.513C179.52 148.463 179.036 148.42 178.514 148.384C177.991 148.341 177.49 148.319 177.01 148.319V155.055C177.855 155.055 178.632 155.019 179.341 154.947C180.05 154.876 180.669 154.793 181.199 154.7C181.815 154.6 182.377 154.482 182.886 154.346L182.574 156.086C182.488 156.079 182.359 156.072 182.188 156.064C182.016 156.057 181.822 156.05 181.607 156.043C181.4 156.036 181.178 156.029 180.941 156.021C180.712 156.021 180.494 156.018 180.286 156.011C180.078 156.011 179.892 156.007 179.728 156C179.57 156 179.455 156 179.384 156H174.743V155.957C174.786 155.807 174.826 155.62 174.861 155.398C174.904 155.176 174.94 154.901 174.969 154.571C174.997 154.242 175.019 153.852 175.033 153.4C175.048 152.942 175.055 152.409 175.055 151.8V144.807C175.055 144.198 175.048 143.668 175.033 143.217C175.019 142.758 174.997 142.365 174.969 142.035C174.94 141.699 174.904 141.419 174.861 141.197C174.826 140.975 174.786 140.789 174.743 140.639V140.596ZM186.13 140.596L197.194 152.369V144.807C197.194 144.198 197.187 143.668 197.173 143.217C197.159 142.758 197.137 142.365 197.108 142.035C197.08 141.699 197.044 141.419 197.001 141.197C196.965 140.975 196.926 140.789 196.883 140.639V140.596H198.795V140.639C198.752 140.789 198.713 140.975 198.677 141.197C198.641 141.419 198.609 141.699 198.58 142.035C198.551 142.365 198.53 142.758 198.516 143.217C198.501 143.668 198.494 144.198 198.494 144.807V156.215H198.118L187.054 144.452V151.8C187.054 152.409 187.061 152.942 187.075 153.4C187.09 153.852 187.111 154.242 187.14 154.571C187.168 154.901 187.201 155.176 187.236 155.398C187.272 155.62 187.312 155.807 187.354 155.957V156H185.442V155.957C185.485 155.807 185.525 155.62 185.561 155.398C185.604 155.176 185.639 154.901 185.668 154.571C185.697 154.242 185.718 153.852 185.732 153.4C185.747 152.942 185.754 152.409 185.754 151.8V144.807C185.754 144.198 185.747 143.668 185.732 143.217C185.718 142.758 185.697 142.365 185.668 142.035C185.639 141.699 185.604 141.419 185.561 141.197C185.525 140.975 185.485 140.789 185.442 140.639V140.596H186.13ZM214.253 142.959L214.156 143.002C213.598 142.486 212.924 142.075 212.137 141.767C211.356 141.459 210.497 141.305 209.559 141.305C208.656 141.305 207.829 141.448 207.077 141.734C206.325 142.014 205.677 142.422 205.133 142.959C204.596 143.496 204.177 144.155 203.876 144.936C203.575 145.716 203.425 146.604 203.425 147.6C203.425 148.695 203.568 149.719 203.854 150.672C204.141 151.617 204.567 152.437 205.133 153.132C205.699 153.826 206.404 154.374 207.249 154.775C208.101 155.169 209.093 155.366 210.225 155.366C210.633 155.366 211.041 155.323 211.449 155.237C211.857 155.151 212.248 155.026 212.62 154.861C213 154.689 213.354 154.485 213.684 154.249C214.02 154.006 214.325 153.73 214.597 153.422L214.715 153.497L213.855 155.688C213.318 155.896 212.724 156.054 212.072 156.161C211.428 156.276 210.776 156.333 210.117 156.333C208.792 156.333 207.578 156.143 206.476 155.764C205.38 155.377 204.435 154.833 203.64 154.131C202.852 153.429 202.236 152.588 201.792 151.606C201.355 150.618 201.137 149.522 201.137 148.319C201.137 147.639 201.223 146.969 201.395 146.311C201.574 145.652 201.831 145.025 202.168 144.431C202.505 143.836 202.92 143.292 203.414 142.798C203.908 142.297 204.47 141.863 205.101 141.498C205.738 141.133 206.436 140.85 207.195 140.649C207.962 140.442 208.789 140.338 209.677 140.338C211.059 140.338 212.341 140.549 213.522 140.972L214.253 142.959ZM216.681 140.596C217.576 140.596 218.464 140.592 219.345 140.585C220.233 140.578 221.046 140.571 221.783 140.563C222.521 140.549 223.151 140.531 223.674 140.51C224.197 140.488 224.551 140.46 224.737 140.424L224.211 141.853C223.975 141.788 223.699 141.731 223.384 141.681C223.112 141.638 222.779 141.598 222.385 141.562C221.998 141.52 221.55 141.498 221.042 141.498C220.87 141.498 220.662 141.505 220.419 141.52C220.183 141.527 219.953 141.537 219.731 141.552C219.474 141.566 219.212 141.58 218.947 141.595V147.46C219.685 147.453 220.351 147.431 220.945 147.396C221.54 147.36 222.045 147.324 222.46 147.288C222.947 147.245 223.377 147.195 223.749 147.138L223.416 148.695C222.922 148.631 222.417 148.57 221.901 148.513C221.457 148.463 220.974 148.42 220.451 148.384C219.928 148.341 219.427 148.319 218.947 148.319V155.055C219.792 155.055 220.569 155.019 221.278 154.947C221.987 154.876 222.607 154.793 223.137 154.7C223.753 154.6 224.315 154.482 224.823 154.346L224.512 156.086C224.426 156.079 224.297 156.072 224.125 156.064C223.953 156.057 223.76 156.05 223.545 156.043C223.337 156.036 223.115 156.029 222.879 156.021C222.65 156.021 222.431 156.018 222.224 156.011C222.016 156.011 221.83 156.007 221.665 156C221.507 156 221.393 156 221.321 156H216.681V155.957C216.724 155.807 216.763 155.62 216.799 155.398C216.842 155.176 216.878 154.901 216.906 154.571C216.935 154.242 216.956 153.852 216.971 153.4C216.985 152.942 216.992 152.409 216.992 151.8V144.807C216.992 144.198 216.985 143.668 216.971 143.217C216.956 142.758 216.935 142.365 216.906 142.035C216.878 141.699 216.842 141.419 216.799 141.197C216.763 140.975 216.724 140.789 216.681 140.639V140.596Z" fill="#656565"/>
</svg>
