<svg width="212" height="158" viewBox="0 0 212 158" fill="none" xmlns="http://www.w3.org/2000/svg">
<path d="M108.277 0.0935499C110.046 0.654849 111.908 0.966682 113.553 1.77745C119.139 4.55276 122.305 9.13671 122.956 15.4046C123.081 16.496 123.453 17.2132 124.291 17.8992C130.839 23.5434 134.098 30.7467 134.253 39.3845C134.284 40.3512 134.284 41.3179 134.253 42.3157C134.222 43.8749 134.408 45.2158 135.277 46.6814C137.574 50.4546 134.843 55.4751 130.467 55.9117C129.846 55.974 129.257 56.0052 128.76 56.0364C128.294 57.9386 127.953 59.7784 127.363 61.5558C125.719 66.4516 122.646 70.256 118.332 73.0313C117.711 73.4367 117.432 73.8421 117.463 74.6216C117.525 76.3991 117.525 78.2077 117.463 79.9852C117.401 82.0745 118.332 83.4153 120.256 84.2261C125.656 86.5025 131.057 88.8412 136.457 91.18C141.174 93.2381 143.533 96.9177 143.564 102.063C143.595 107.083 143.564 112.104 143.564 117.124C143.564 117.467 143.595 117.842 143.502 118.154C143.253 119.089 142.633 119.65 141.639 119.557C140.739 119.463 140.181 118.902 140.088 117.935C140.057 117.436 140.057 116.937 140.057 116.407C140.057 111.636 140.057 106.834 140.057 102.063C140.057 98.3521 138.412 95.7639 134.967 94.3295C132.019 93.0822 129.07 91.8036 126.122 90.5251C125.781 90.3692 125.439 90.2445 124.974 90.0574C124.974 95.1403 124.974 100.067 124.974 104.963C129.319 106.928 131.119 109.89 130.312 113.788C129.629 117.062 126.587 119.526 123.205 119.557C119.76 119.557 116.749 117.124 116.005 113.757C115.198 109.984 117.06 106.928 121.405 104.963C121.405 100.473 121.405 95.9822 121.405 91.2423C120.97 91.523 120.629 91.7101 120.287 91.9284C116.905 94.2048 113.522 96.4499 110.139 98.7263C107.346 100.597 105.453 100.566 102.66 98.6952C99.2767 96.4188 95.8939 94.1736 92.5111 91.8972C92.2007 91.6789 91.8904 91.523 91.4559 91.2423C91.4559 94.5789 91.4559 97.7285 91.4559 101.096C93.318 101.096 95.149 101.096 96.9801 101.096C98.3457 101.096 99.5871 101.502 100.611 102.375C101.791 103.373 102.504 104.651 102.504 106.21C102.535 108.923 102.597 111.667 102.504 114.38C102.411 117 100.456 119.058 97.9112 119.494C96.5456 119.713 95.5835 119.183 95.3973 118.06C95.2111 116.969 95.8629 116.283 97.2284 116.033C98.4077 115.815 99.0284 115.191 99.0284 113.975C99.0595 111.511 99.0595 109.079 99.0284 106.616C98.9974 105.306 98.2526 104.589 96.9801 104.589C92.1076 104.558 87.2351 104.558 82.3316 104.589C80.9971 104.589 80.2212 105.337 80.1902 106.678C80.1591 109.079 80.1591 111.511 80.1902 113.913C80.2212 115.16 80.873 115.815 82.0833 116.033C83.3868 116.251 83.9765 116.937 83.8523 118.029C83.7282 119.089 82.7971 119.682 81.4936 119.526C78.7936 119.183 76.7453 116.937 76.6832 114.1C76.6212 111.574 76.6212 109.048 76.6832 106.522C76.7763 103.373 79.1039 101.159 82.2074 101.096C84.0075 101.065 85.8386 101.096 87.7317 101.096C87.7317 97.4166 87.7317 93.8306 87.7317 90.0886C86.8317 90.4628 85.9937 90.8058 85.1558 91.1488C82.735 92.1778 80.3454 93.2693 77.8936 94.2671C74.3556 95.7016 72.6797 98.321 72.6797 102.125C72.7108 106.959 72.6797 111.761 72.6797 116.594C72.6797 116.906 72.6797 117.218 72.6797 117.53C72.6487 118.715 72.028 119.494 71.0348 119.526C69.9797 119.557 69.2348 118.777 69.2038 117.561C69.1728 114.224 69.2038 110.857 69.2038 107.52C69.2038 105.649 69.1728 103.778 69.2038 101.907C69.2659 96.793 71.6245 93.1757 76.2798 91.1176C81.5557 88.81 86.8627 86.5648 92.1697 84.2885C94.6525 83.2282 95.2732 82.2616 95.2732 79.5798C95.2732 77.8335 95.3042 76.0873 95.2421 74.341C95.2421 73.9668 94.9939 73.4055 94.6835 73.2184C88.5076 69.1957 85.0316 63.5204 84.1627 56.1923C84.1627 56.1611 84.1316 56.1299 84.0695 56.0052C83.604 55.974 83.0764 55.9117 82.5178 55.8493C79.2591 55.5375 76.6522 52.7621 76.6211 49.5503C76.5901 46.276 79.0108 43.5319 82.3316 43.1265C83.3557 43.0018 84.4109 43.0641 85.4661 43.033C86.9868 43.0018 87.5765 42.4717 87.7937 41.006C88.1662 38.5737 89.2834 37.4823 91.7042 37.1393C101.728 35.7049 111.008 32.3059 119.605 26.9112C119.822 26.7553 120.039 26.5994 120.287 26.4746C121.187 26.0069 122.118 26.2252 122.646 27.0047C123.143 27.7843 122.987 28.751 122.181 29.3747C121.405 29.936 120.598 30.4349 119.667 31.0586C119.915 31.2457 120.07 31.3704 120.256 31.4951C123.298 33.522 124.756 36.4221 124.819 40.0705C124.85 42.5964 125.315 43.033 127.829 43.033C128.729 43.033 129.598 43.033 130.591 43.033C130.839 38.5426 130.56 34.1145 128.791 29.8424C124.539 19.5519 113.987 13.5024 102.846 14.968C92.2938 16.3712 83.6351 25.1026 82.1764 35.8608C82.1143 36.3909 82.1144 36.9522 81.9902 37.4823C81.773 38.5737 81.0281 39.135 80.004 39.0103C79.0729 38.8856 78.5143 38.1684 78.5764 37.0769C78.8246 33.0231 79.9729 29.2188 81.9281 25.6639C83.6971 22.452 86.0248 19.739 88.8179 17.4003C89.1903 17.0884 89.5938 16.5583 89.5938 16.1218C90.0283 7.39044 96.8249 0.997866 104.087 0.155917C104.18 0.155917 104.304 0.0623666 104.397 0C105.825 0.0935499 107.035 0.0935499 108.277 0.0935499ZM107.066 73.0625C116.78 72.5635 124.198 65.4849 125.067 55.7869C125.377 52.388 125.781 52.4815 128.729 52.4815C129.101 52.4815 129.505 52.4815 129.877 52.4503C131.46 52.2944 132.577 51.1718 132.639 49.675C132.701 48.3029 131.646 46.9932 130.125 46.775C128.946 46.619 127.736 46.6814 126.525 46.619C124.167 46.4631 122.149 44.8104 121.622 42.5028C121.436 41.7233 121.498 40.8813 121.467 40.0705C121.374 37.1081 119.76 34.8317 117.153 33.9274C116.16 33.5844 115.26 33.5844 114.267 34.0834C107.315 37.4511 100.022 39.6963 92.3869 40.7566C91.6731 40.8501 91.4248 41.1308 91.3317 41.848C91.0214 44.5921 88.942 46.5255 86.211 46.6814C85.1558 46.7438 84.1316 46.6814 83.0764 46.7438C81.4316 46.8685 80.2833 48.0535 80.2212 49.5815C80.1591 51.0471 81.3385 52.3568 82.9523 52.5127C83.8833 52.6062 84.8144 52.5439 85.7454 52.6062C87.0179 52.6686 87.5455 53.2299 87.6386 54.4772C87.7006 55.1321 87.7317 55.7869 87.7937 56.4418C88.6627 65.8591 97.5077 73.5614 107.066 73.0625ZM92.7593 87.8745C97.1042 90.7746 101.232 93.5499 105.36 96.294C106.197 96.8553 107.035 96.637 107.842 96.1069C109.953 94.6725 112.094 93.2693 114.205 91.8348C116.098 90.5563 117.991 89.309 119.946 87.9681C119.636 87.8122 119.449 87.6874 119.232 87.5939C115.508 86.1595 113.832 83.4153 113.987 79.4551C114.049 78.1142 113.987 76.7733 113.987 75.2765C108.867 76.9916 103.901 76.9916 98.8112 75.2765C98.8112 76.3367 98.7491 77.2099 98.8112 78.083C99.2146 82.7293 97.8491 86.3154 92.7593 87.8745ZM119.17 14.4067C119.046 8.76251 112.529 3.46135 106.042 3.61726C99.9284 3.742 93.5973 9.23026 93.6904 14.3755C102.163 10.3217 110.635 10.2905 119.17 14.4067ZM119.387 112.26C119.387 114.412 121.094 116.127 123.236 116.095C125.315 116.095 127.084 114.318 127.084 112.229C127.084 110.108 125.346 108.393 123.205 108.393C121.032 108.393 119.356 110.108 119.387 112.26Z" fill="#555555"/>
<path d="M165.909 105.368C165.319 106.117 164.667 106.803 163.581 106.366C162.495 105.961 162.402 105.056 162.402 104.059C162.433 99.7553 162.402 95.4208 162.402 91.1175C162.402 89.5896 162.029 89.0594 160.571 88.5605C159.298 88.1239 158.026 87.7186 156.598 87.2508C156.598 90.0573 156.567 92.7391 156.629 95.3897C156.629 95.6703 157.126 96.0133 157.436 96.2004C159.702 97.5101 160.757 100.005 160.074 102.468C159.422 104.869 157.188 106.553 154.736 106.522C152.222 106.491 150.081 104.713 149.491 102.219C148.933 99.8801 150.05 97.3854 152.284 96.2316C152.936 95.8886 153.122 95.5144 153.122 94.7972C153.06 92.5832 153.091 90.3691 153.091 88.1551C153.091 88.0928 153.029 88.0304 152.905 87.8745C151.881 88.6229 150.888 89.4025 149.864 90.1509C148.095 91.4606 146.667 91.4606 144.867 90.1197C143.657 89.2154 142.415 88.3422 141.267 87.3755C140.522 86.7519 139.839 86.5336 138.97 86.9702C138.722 87.0949 138.381 87.2508 138.195 87.1573C137.574 86.8454 136.829 86.5648 136.488 86.0347C136.053 85.3174 136.394 84.5379 137.108 84.0077C137.263 83.883 137.45 83.8206 137.636 83.7583C138.412 83.4464 139.591 83.3841 139.901 82.7916C140.305 82.0744 139.964 80.983 140.088 80.0475C140.243 78.7066 139.777 77.8023 138.722 76.898C135.991 74.528 134.594 71.4097 134.501 67.7612C134.439 65.7031 134.47 63.6451 134.501 61.587C134.594 56.7535 138.163 52.8868 142.974 52.6062C145.829 52.4191 148.715 52.4502 151.571 52.575C156.164 52.7933 159.733 56.0675 160.198 60.6826C160.478 63.4891 160.385 66.358 160.136 69.1645C159.826 72.5635 158.119 75.3076 155.481 77.4593C154.953 77.8958 154.705 78.3324 154.736 79.0184C154.798 80.2969 154.736 81.5755 154.736 82.9163C156.753 83.6024 158.709 84.3508 160.695 84.9121C163.209 85.5981 165.071 86.939 165.878 89.5272C165.909 94.7972 165.909 100.067 165.909 105.368ZM147.443 55.974C147.443 56.0051 147.443 56.0051 147.443 56.0363C145.984 56.0363 144.495 55.9116 143.036 56.0675C140.181 56.317 138.07 58.6557 138.008 61.5246C137.946 63.5827 137.946 65.6408 138.008 67.6989C138.132 72.5635 141.888 76.3678 146.884 76.7732C151.446 77.1474 155.916 73.7173 156.598 69.0398C156.94 66.701 156.816 64.2999 156.816 61.9612C156.816 58.4998 154.488 56.0987 151.043 55.974C149.864 55.9428 148.653 55.974 147.443 55.974ZM143.688 80.0787C143.595 81.326 143.47 82.698 143.377 84.1013C143.377 84.2884 143.439 84.569 143.595 84.6938C144.867 85.6916 146.171 86.6271 147.443 87.5938C148.715 86.6271 149.895 85.754 151.074 84.8497C151.291 84.6938 151.509 84.3819 151.509 84.1325C151.446 82.698 151.291 81.2948 151.198 80.0787C148.684 80.0787 146.202 80.0787 143.688 80.0787ZM156.816 100.971C156.784 99.8801 155.853 99.0069 154.767 99.0693C153.65 99.1005 152.843 100.036 152.874 101.127C152.936 102.156 153.836 103.03 154.86 103.03C155.915 102.998 156.847 102.032 156.816 100.971Z" fill="#555555"/>
<path d="M58.0622 95.5461C58.0622 92.4901 58.0622 89.6213 58.0622 86.6277C55.8588 87.3761 53.7173 88.0621 51.638 88.8417C50.6759 89.1847 50.4587 90.0578 50.4587 91.0245C50.4897 95.2654 50.4587 99.5064 50.4587 103.747C50.4587 104.028 50.4587 104.277 50.4587 104.558C50.4276 105.743 49.7138 106.491 48.7517 106.523C47.7586 106.523 47.0138 105.774 47.0138 104.62C46.9828 103.529 47.0138 102.438 47.0138 101.346C47.0138 97.916 47.0138 94.4859 47.0138 91.0869C47.0138 88.1245 48.3483 86.2535 51.1414 85.318C53.2208 84.6007 55.3001 83.9147 57.4105 83.2287C57.9691 83.0416 58.2795 82.7921 58.1864 82.1685C58.1554 81.9814 58.1554 81.7631 58.1864 81.576C58.4347 79.4243 58.0002 77.7092 56.1381 76.1189C53.6242 73.9672 52.6622 70.8489 52.6001 67.5435C52.5691 65.0176 52.5691 62.4918 52.6001 59.9659C52.6311 55.9433 55.4864 52.7626 59.4899 52.6067C63.4934 52.4508 67.559 52.4508 71.5625 52.6067C75.5349 52.7626 78.3591 55.8809 78.3902 59.9036C78.4212 63.1155 78.4833 66.3585 78.1729 69.5704C77.8626 72.8447 76.0625 75.4329 73.5797 77.5533C73.1763 77.8963 72.897 78.5512 72.8659 79.0813C72.7728 80.3598 72.8349 81.6383 72.8349 82.948C73.6729 83.2287 74.4487 83.4782 75.1936 83.7588C76.3108 84.1642 76.7764 85.0685 76.497 86.0352C76.1867 86.9707 75.1936 87.5008 74.1384 87.0642C73.0521 86.5965 72.2763 86.846 71.4383 87.5632C70.4452 88.4051 69.359 89.1535 68.3038 89.9643C66.2244 91.5234 64.89 91.5234 62.8416 89.9955C62.5313 89.7772 62.2209 89.5589 61.7864 89.2471C61.7864 91.3987 61.7864 93.4256 61.7864 95.6085C62.4692 95.6085 63.152 95.5773 63.8348 95.6085C65.7279 95.702 67.1865 97.1364 67.2486 99.0386C67.2796 100.411 67.2796 101.752 67.2486 103.124C67.1865 104.62 66.2244 105.868 64.8279 106.367C63.4934 106.834 62.4071 106.429 62.0347 105.338C61.6933 104.277 62.252 103.467 63.7416 102.999C63.7416 101.783 63.7416 100.535 63.7416 99.1945C61.2588 99.1945 58.776 99.1945 56.2001 99.1945C56.2001 100.38 56.2001 101.627 56.2001 102.905C56.2001 102.905 56.2312 102.999 56.2932 102.999C57.6588 103.467 58.2485 104.309 57.9071 105.369C57.5657 106.398 56.4795 106.803 55.176 106.367C53.7794 105.899 52.7242 104.683 52.6622 103.186C52.6001 101.783 52.6001 100.38 52.6622 98.9763C52.7553 97.0741 54.2449 95.6708 56.1381 95.5773C56.6967 95.5149 57.3484 95.5461 58.0622 95.5461ZM74.7591 67.1381C70.1349 66.7327 65.9762 65.2047 62.2209 62.523C61.9727 62.3359 61.352 62.3982 61.0726 62.5853C59.583 63.6144 58.1243 64.7058 56.6967 65.8596C56.3553 66.1402 56.045 66.7327 56.045 67.2005C55.9829 73.2188 61.2899 77.6781 67.2176 76.649C71.6556 75.8694 75.2246 71.4102 74.7591 67.1381ZM74.8832 63.6144C74.8832 62.3982 74.8832 61.3068 74.8832 60.2154C74.8522 57.4713 73.3935 55.9745 70.6314 55.9745C67.1865 55.9433 63.7416 55.9433 60.3278 55.9745C57.1002 56.0057 55.2691 58.5939 56.2622 61.7746C57.1312 61.1197 58.0002 60.4649 58.8692 59.81C61.0416 58.1885 62.1899 58.1573 64.4244 59.7165C67.4969 61.9305 70.9107 63.2402 74.8832 63.6144ZM69.1728 79.8921C67.9314 80.048 66.69 80.2975 65.4175 80.2975C64.1761 80.2975 62.9347 80.048 61.7244 79.8921C61.6002 81.3577 61.4761 82.7609 61.383 84.1954C61.383 84.3825 61.5382 84.6319 61.6933 84.7567C62.9347 85.7234 64.2072 86.6589 65.4796 87.5944C66.7831 86.6277 67.9934 85.7234 69.1728 84.819C69.359 84.6631 69.5452 84.3825 69.5142 84.1642C69.4211 82.7298 69.2969 81.2953 69.1728 79.8921Z" fill="#555555"/>
<path d="M106.415 63.4579C104.087 63.4267 102.039 62.8654 100.208 61.5557C99.1215 60.7761 98.8112 59.7783 99.4008 58.9051C99.9905 58.0008 101.015 57.9384 102.132 58.6868C104.77 60.4643 108.06 60.4331 110.729 58.6557C111.784 57.9384 112.777 58.032 113.398 58.8428C114.018 59.7159 113.77 60.7449 112.715 61.5245C110.791 62.8966 108.618 63.4579 106.415 63.4579Z" fill="#555555"/>
<path d="M98.8733 49.6124C98.8422 49.9866 98.8733 50.3919 98.8112 50.7661C98.6871 51.6393 98.1284 52.1382 97.2595 52.2006C96.3284 52.2629 95.6457 51.8264 95.4905 50.8909C95.3663 50.1425 95.3663 49.3629 95.4284 48.5833C95.4905 47.5543 96.2353 46.8994 97.1353 46.8994C98.0974 46.8994 98.7802 47.5854 98.8733 48.6769C98.8422 48.9887 98.8422 49.3005 98.8733 49.6124C98.8422 49.6124 98.8422 49.6124 98.8733 49.6124Z" fill="#555555"/>
<path d="M113.987 49.4571C114.018 49.0829 113.987 48.6776 114.049 48.3034C114.205 47.399 114.794 46.9313 115.632 46.9001C116.47 46.8689 117.184 47.2743 117.339 48.1474C117.463 48.927 117.494 49.769 117.432 50.5797C117.339 51.64 116.656 52.2325 115.694 52.2013C114.732 52.1701 114.111 51.5776 114.018 50.4862C113.987 50.1432 114.018 49.8002 114.018 49.4571C114.018 49.4571 114.018 49.4571 113.987 49.4571Z" fill="#555555"/>
<path d="M6.04395 137.541C5.19889 137.541 4.4362 137.58 3.75586 137.659C3.07552 137.731 2.48828 137.81 1.99414 137.896C1.42122 138.003 0.90918 138.121 0.458008 138.25L0.769531 136.51C0.855469 136.517 0.984375 136.524 1.15625 136.531C1.32812 136.538 1.5179 136.546 1.72559 136.553C1.94043 136.56 2.16243 136.567 2.3916 136.574C2.62793 136.574 2.84993 136.578 3.05762 136.585C3.2653 136.585 3.44792 136.589 3.60547 136.596C3.77018 136.596 3.88835 136.596 3.95996 136.596H10.0938C10.1654 136.596 10.2799 136.596 10.4375 136.596C10.6022 136.589 10.7884 136.585 10.9961 136.585C11.2038 136.578 11.4222 136.574 11.6514 136.574C11.8877 136.567 12.1097 136.56 12.3174 136.553C12.5322 136.546 12.7256 136.538 12.8975 136.531C13.0693 136.524 13.1982 136.517 13.2842 136.51L13.5957 138.25C13.1374 138.121 12.6217 138.003 12.0488 137.896C11.5547 137.81 10.9674 137.731 10.2871 137.659C9.60677 137.58 8.84408 137.541 7.99902 137.541V147.8C7.99902 148.409 8.00618 148.942 8.02051 149.4C8.04199 149.852 8.06348 150.242 8.08496 150.571C8.11361 150.901 8.14583 151.176 8.18164 151.398C8.22461 151.62 8.26758 151.807 8.31055 151.957V152H5.74316V151.957C5.78613 151.807 5.82552 151.62 5.86133 151.398C5.89714 151.176 5.92936 150.901 5.95801 150.571C5.98665 150.242 6.00814 149.852 6.02246 149.4C6.03678 148.942 6.04395 148.409 6.04395 147.8V137.541ZM21.7168 136.338C22.9128 136.338 24.0156 136.535 25.0254 136.929C26.0423 137.315 26.9196 137.863 27.6572 138.572C28.3949 139.274 28.9714 140.119 29.3867 141.107C29.8021 142.096 30.0098 143.188 30.0098 144.384C30.0098 145.064 29.931 145.734 29.7734 146.393C29.6159 147.051 29.3831 147.674 29.0752 148.262C28.7744 148.849 28.402 149.393 27.958 149.895C27.514 150.389 27.0055 150.818 26.4326 151.184C25.8669 151.542 25.2402 151.821 24.5527 152.021C23.8652 152.229 23.124 152.333 22.3291 152.333C21.1331 152.333 20.0267 152.143 19.0098 151.764C18 151.377 17.1263 150.833 16.3887 150.131C15.651 149.429 15.0745 148.588 14.6592 147.606C14.2438 146.618 14.0361 145.522 14.0361 144.319C14.0361 143.639 14.1149 142.969 14.2725 142.311C14.43 141.652 14.6592 141.025 14.96 140.431C15.2679 139.836 15.6403 139.292 16.0771 138.798C16.5212 138.297 17.026 137.863 17.5918 137.498C18.1647 137.133 18.7949 136.85 19.4824 136.649C20.1771 136.442 20.9219 136.338 21.7168 136.338ZM22.3291 151.366C23.124 151.366 23.8509 151.223 24.5098 150.937C25.1686 150.65 25.7344 150.235 26.207 149.69C26.6868 149.146 27.0592 148.484 27.3242 147.703C27.5892 146.915 27.7217 146.024 27.7217 145.028C27.7217 143.925 27.5928 142.905 27.335 141.967C27.0843 141.021 26.7083 140.205 26.207 139.518C25.7057 138.823 25.0791 138.282 24.3271 137.896C23.5824 137.502 22.7122 137.305 21.7168 137.305C20.9219 137.305 20.195 137.448 19.5361 137.734C18.8773 138.014 18.3079 138.422 17.8281 138.959C17.3555 139.496 16.9867 140.155 16.7217 140.936C16.4567 141.716 16.3242 142.604 16.3242 143.6C16.3242 144.695 16.4495 145.719 16.7002 146.672C16.9508 147.617 17.3268 148.437 17.8281 149.132C18.3294 149.826 18.9561 150.374 19.708 150.775C20.46 151.169 21.3337 151.366 22.3291 151.366ZM34.7041 145.179C35.4059 145.308 36.0469 145.322 36.627 145.222C37.2142 145.114 37.7155 144.892 38.1309 144.556C38.5534 144.212 38.8792 143.75 39.1084 143.17C39.3447 142.59 39.4629 141.881 39.4629 141.043C39.4629 140.463 39.402 139.937 39.2803 139.464C39.1585 138.984 38.9759 138.579 38.7324 138.25C38.4961 137.913 38.1953 137.656 37.8301 137.477C37.4648 137.29 37.0387 137.197 36.5518 137.197C36.2438 137.197 35.9753 137.212 35.7461 137.24C35.5169 137.262 35.3236 137.287 35.166 137.315C34.9798 137.351 34.8258 137.391 34.7041 137.434V145.179ZM32.4375 136.596C32.5807 136.61 32.7311 136.624 32.8887 136.639C33.0247 136.653 33.1751 136.664 33.3398 136.671C33.5117 136.671 33.6872 136.671 33.8662 136.671C34.1455 136.671 34.5215 136.639 34.9941 136.574C35.474 136.503 36.0827 136.467 36.8203 136.467C37.5078 136.467 38.1416 136.567 38.7217 136.768C39.3089 136.968 39.8174 137.262 40.2471 137.648C40.6768 138.035 41.0098 138.508 41.2461 139.066C41.4896 139.618 41.6113 140.248 41.6113 140.957C41.6113 141.91 41.4215 142.733 41.042 143.428C40.6624 144.122 40.154 144.685 39.5166 145.114C38.8792 145.544 38.1452 145.838 37.3145 145.995C36.4837 146.146 35.6136 146.153 34.7041 146.017V147.8C34.7041 148.409 34.7113 148.942 34.7256 149.4C34.7471 149.852 34.7686 150.242 34.79 150.571C34.8187 150.901 34.8509 151.176 34.8867 151.398C34.9297 151.62 34.9727 151.807 35.0156 151.957V152H32.4375V151.957C32.4805 151.807 32.5199 151.62 32.5557 151.398C32.5986 151.176 32.6344 150.901 32.6631 150.571C32.6917 150.242 32.7132 149.852 32.7275 149.4C32.7419 148.942 32.749 148.409 32.749 147.8V140.807C32.749 140.198 32.7419 139.668 32.7275 139.217C32.7132 138.758 32.6917 138.365 32.6631 138.035C32.6344 137.699 32.5986 137.419 32.5557 137.197C32.5199 136.975 32.4805 136.789 32.4375 136.639V136.596ZM49.5498 151.957C49.6286 151.842 49.7181 151.674 49.8184 151.452C49.9186 151.223 49.9974 150.937 50.0547 150.593C50.1335 150.091 50.2194 149.529 50.3125 148.906C50.4128 148.276 50.513 147.617 50.6133 146.93C50.7207 146.242 50.8245 145.54 50.9248 144.824C51.0322 144.101 51.1325 143.392 51.2256 142.697C51.3258 141.995 51.4189 141.322 51.5049 140.678C51.598 140.026 51.6803 139.432 51.752 138.895C51.8236 138.357 51.8809 137.892 51.9238 137.498C51.974 137.097 52.0098 136.796 52.0312 136.596H53.3955L60.1523 149.229L66.8555 136.596H67.876L69.6377 149.357C69.6878 149.758 69.7415 150.102 69.7988 150.389C69.8561 150.675 69.9134 150.922 69.9707 151.13C70.028 151.33 70.0817 151.499 70.1318 151.635C70.1891 151.764 70.2428 151.871 70.293 151.957V152H67.5859V151.957C67.6217 151.878 67.654 151.749 67.6826 151.57C67.7184 151.391 67.7363 151.176 67.7363 150.926C67.7363 150.833 67.7327 150.74 67.7256 150.646C67.7184 150.546 67.7077 150.439 67.6934 150.324L66.3291 140.033L59.9912 151.957L59.25 151.871L52.8691 139.926C52.6185 141.623 52.4001 143.191 52.2139 144.631C52.1351 145.247 52.0563 145.863 51.9775 146.479C51.8988 147.087 51.8271 147.657 51.7627 148.187C51.7054 148.716 51.6589 149.186 51.623 149.594C51.5872 149.995 51.5693 150.292 51.5693 150.485C51.5693 150.729 51.5765 150.944 51.5908 151.13C51.6051 151.316 51.6195 151.474 51.6338 151.603C51.6553 151.753 51.6768 151.885 51.6982 152H49.5498V151.957ZM72.7207 136.596C73.6159 136.596 74.5039 136.592 75.3848 136.585C76.2728 136.578 77.0856 136.571 77.8232 136.563C78.5609 136.549 79.1911 136.531 79.7139 136.51C80.2367 136.488 80.5911 136.46 80.7773 136.424L80.251 137.853C80.0146 137.788 79.7389 137.731 79.4238 137.681C79.1517 137.638 78.8187 137.598 78.4248 137.562C78.0381 137.52 77.5905 137.498 77.082 137.498C76.9102 137.498 76.7025 137.505 76.459 137.52C76.2227 137.527 75.9935 137.537 75.7715 137.552C75.5137 137.566 75.2523 137.58 74.9873 137.595V143.46C75.7249 143.453 76.391 143.431 76.9854 143.396C77.5798 143.36 78.0846 143.324 78.5 143.288C78.987 143.245 79.4167 143.195 79.7891 143.138L79.4561 144.695C78.9619 144.631 78.457 144.57 77.9414 144.513C77.4974 144.463 77.014 144.42 76.4912 144.384C75.9684 144.341 75.4671 144.319 74.9873 144.319V151.055C75.8324 151.055 76.6094 151.019 77.3184 150.947C78.0273 150.876 78.6468 150.793 79.1768 150.7C79.7926 150.6 80.3548 150.482 80.8633 150.346L80.5518 152.086C80.4658 152.079 80.3369 152.072 80.165 152.064C79.9932 152.057 79.7998 152.05 79.585 152.043C79.3773 152.036 79.1553 152.029 78.9189 152.021C78.6898 152.021 78.4714 152.018 78.2637 152.011C78.056 152.011 77.8698 152.007 77.7051 152C77.5475 152 77.4329 152 77.3613 152H72.7207V151.957C72.7637 151.807 72.8031 151.62 72.8389 151.398C72.8818 151.176 72.9176 150.901 72.9463 150.571C72.9749 150.242 72.9964 149.852 73.0107 149.4C73.0251 148.942 73.0322 148.409 73.0322 147.8V140.807C73.0322 140.198 73.0251 139.668 73.0107 139.217C72.9964 138.758 72.9749 138.365 72.9463 138.035C72.9176 137.699 72.8818 137.419 72.8389 137.197C72.8031 136.975 72.7637 136.789 72.7207 136.639V136.596ZM85.8584 137.52C85.8441 138.322 85.8298 139.099 85.8154 139.851C85.8083 140.173 85.8011 140.502 85.7939 140.839C85.7939 141.175 85.7904 141.508 85.7832 141.838C85.7832 142.16 85.7796 142.472 85.7725 142.772C85.7725 143.066 85.7725 143.327 85.7725 143.557C85.7725 144.036 85.776 144.617 85.7832 145.297C85.7904 145.977 85.7975 146.675 85.8047 147.392C85.819 148.108 85.8369 148.795 85.8584 149.454C85.8799 150.113 85.9049 150.661 85.9336 151.098C86.0339 151.112 86.1663 151.13 86.3311 151.151C86.5029 151.166 86.682 151.18 86.8682 151.194C87.0544 151.201 87.237 151.209 87.416 151.216C87.5951 151.223 87.7454 151.227 87.8672 151.227C88.3685 151.227 88.8805 151.194 89.4033 151.13C89.9333 151.058 90.4417 150.929 90.9287 150.743C91.4229 150.557 91.8848 150.303 92.3145 149.98C92.7513 149.651 93.1309 149.229 93.4531 148.713C93.7826 148.197 94.0404 147.578 94.2266 146.854C94.4128 146.124 94.5059 145.265 94.5059 144.276C94.5059 143.181 94.3734 142.207 94.1084 141.354C93.8434 140.495 93.4531 139.772 92.9375 139.185C92.429 138.597 91.7952 138.153 91.0361 137.853C90.2842 137.545 89.4176 137.391 88.4365 137.391C88.2432 137.391 88.0247 137.398 87.7812 137.412C87.5378 137.419 87.2943 137.43 87.0508 137.444C86.8145 137.451 86.5889 137.466 86.374 137.487C86.1663 137.502 85.9945 137.512 85.8584 137.52ZM83.5059 136.553C83.6706 136.56 83.8245 136.567 83.9678 136.574C84.0895 136.581 84.2148 136.589 84.3438 136.596C84.4727 136.596 84.5765 136.596 84.6553 136.596C84.7913 136.596 85.0169 136.589 85.332 136.574C85.6543 136.56 86.0195 136.546 86.4277 136.531C86.8359 136.517 87.2585 136.503 87.6953 136.488C88.1393 136.474 88.5547 136.467 88.9414 136.467C89.9798 136.467 90.9681 136.596 91.9062 136.854C92.8444 137.111 93.668 137.534 94.377 138.121C95.0859 138.708 95.6481 139.478 96.0635 140.431C96.4788 141.383 96.6865 142.554 96.6865 143.943C96.6865 144.939 96.5755 145.834 96.3535 146.629C96.1387 147.424 95.8343 148.126 95.4404 148.734C95.0465 149.343 94.5739 149.866 94.0225 150.303C93.4782 150.732 92.873 151.087 92.207 151.366C91.5482 151.646 90.8428 151.85 90.0908 151.979C89.3389 152.107 88.5618 152.172 87.7598 152.172C87.4733 152.172 87.126 152.161 86.7178 152.14C86.3167 152.125 85.9121 152.107 85.5039 152.086C85.0957 152.064 84.709 152.043 84.3438 152.021C83.9857 152.007 83.7064 152 83.5059 152V151.957C83.5488 151.807 83.5882 151.62 83.624 151.398C83.667 151.176 83.7028 150.901 83.7314 150.571C83.7601 150.242 83.7816 149.852 83.7959 149.4C83.8102 148.942 83.8174 148.409 83.8174 147.8V140.807C83.8174 140.198 83.8102 139.664 83.7959 139.206C83.7816 138.741 83.7601 138.343 83.7314 138.014C83.7028 137.677 83.667 137.394 83.624 137.165C83.5882 136.936 83.5488 136.746 83.5059 136.596V136.553ZM99.3076 151.957C99.3506 151.807 99.39 151.62 99.4258 151.398C99.4616 151.176 99.4938 150.901 99.5225 150.571C99.5511 150.242 99.5726 149.852 99.5869 149.4C99.6012 148.942 99.6084 148.409 99.6084 147.8V140.807C99.6084 140.198 99.6012 139.668 99.5869 139.217C99.5726 138.758 99.5511 138.365 99.5225 138.035C99.4938 137.699 99.4616 137.419 99.4258 137.197C99.39 136.975 99.3506 136.789 99.3076 136.639V136.596H101.875V136.639C101.832 136.789 101.789 136.975 101.746 137.197C101.71 137.419 101.678 137.699 101.649 138.035C101.628 138.365 101.606 138.758 101.585 139.217C101.571 139.668 101.563 140.198 101.563 140.807V147.8C101.563 148.409 101.571 148.942 101.585 149.4C101.606 149.852 101.628 150.242 101.649 150.571C101.678 150.901 101.71 151.176 101.746 151.398C101.789 151.62 101.832 151.807 101.875 151.957V152H99.3076V151.957ZM117.516 138.959L117.419 139.002C116.86 138.486 116.187 138.075 115.399 137.767C114.619 137.459 113.759 137.305 112.821 137.305C111.919 137.305 111.092 137.448 110.34 137.734C109.588 138.014 108.94 138.422 108.396 138.959C107.858 139.496 107.439 140.155 107.139 140.936C106.838 141.716 106.688 142.604 106.688 143.6C106.688 144.695 106.831 145.719 107.117 146.672C107.404 147.617 107.83 148.437 108.396 149.132C108.961 149.826 109.667 150.374 110.512 150.775C111.364 151.169 112.356 151.366 113.487 151.366C113.896 151.366 114.304 151.323 114.712 151.237C115.12 151.151 115.51 151.026 115.883 150.861C116.262 150.689 116.617 150.485 116.946 150.249C117.283 150.006 117.587 149.73 117.859 149.422L117.978 149.497L117.118 151.688C116.581 151.896 115.987 152.054 115.335 152.161C114.69 152.276 114.039 152.333 113.38 152.333C112.055 152.333 110.841 152.143 109.738 151.764C108.643 151.377 107.697 150.833 106.902 150.131C106.115 149.429 105.499 148.588 105.055 147.606C104.618 146.618 104.399 145.522 104.399 144.319C104.399 143.639 104.485 142.969 104.657 142.311C104.836 141.652 105.094 141.025 105.431 140.431C105.767 139.836 106.183 139.292 106.677 138.798C107.171 138.297 107.733 137.863 108.363 137.498C109.001 137.133 109.699 136.85 110.458 136.649C111.224 136.442 112.051 136.338 112.939 136.338C114.322 136.338 115.604 136.549 116.785 136.972L117.516 138.959ZM130.814 152V151.957C130.829 151.921 130.84 151.868 130.847 151.796C130.854 151.724 130.857 151.66 130.857 151.603C130.857 151.381 130.825 151.137 130.761 150.872C130.703 150.6 130.589 150.263 130.417 149.862L129.117 146.94C128.716 146.926 128.183 146.919 127.517 146.919C126.851 146.919 126.131 146.919 125.357 146.919C124.792 146.919 124.244 146.919 123.714 146.919C123.191 146.919 122.718 146.926 122.296 146.94L121.061 149.776C120.953 150.041 120.839 150.331 120.717 150.646C120.595 150.962 120.534 151.28 120.534 151.603C120.534 151.696 120.541 151.774 120.556 151.839C120.57 151.896 120.584 151.936 120.599 151.957V152H118.407V151.957C118.536 151.821 118.697 151.581 118.891 151.237C119.084 150.886 119.295 150.45 119.524 149.927L125.68 136.273H126.539L132.372 149.4C132.508 149.708 132.648 150.009 132.791 150.303C132.941 150.589 133.081 150.847 133.21 151.076C133.339 151.305 133.453 151.499 133.554 151.656C133.654 151.814 133.722 151.914 133.758 151.957V152H130.814ZM123.854 145.995C124.269 145.995 124.695 145.995 125.132 145.995C125.569 145.988 125.995 145.984 126.41 145.984C126.833 145.977 127.237 145.974 127.624 145.974C128.011 145.966 128.362 145.959 128.677 145.952L125.658 139.131L122.693 145.995H123.854ZM137.356 151.055C138.201 151.055 138.979 151.019 139.688 150.947C140.396 150.876 141.016 150.793 141.546 150.7C142.162 150.6 142.724 150.482 143.232 150.346L142.921 152.086C142.835 152.079 142.706 152.072 142.534 152.064C142.362 152.057 142.169 152.05 141.954 152.043C141.746 152.036 141.524 152.029 141.288 152.021C141.059 152.021 140.84 152.018 140.633 152.011C140.425 152.011 140.239 152.007 140.074 152C139.917 152 139.802 152 139.73 152H135.09V151.957C135.133 151.807 135.172 151.62 135.208 151.398C135.251 151.176 135.287 150.901 135.315 150.571C135.344 150.242 135.366 149.852 135.38 149.4C135.394 148.942 135.401 148.409 135.401 147.8V140.807C135.401 140.198 135.394 139.668 135.38 139.217C135.366 138.758 135.344 138.365 135.315 138.035C135.287 137.699 135.251 137.419 135.208 137.197C135.172 136.975 135.133 136.789 135.09 136.639V136.596H137.668V136.639C137.625 136.789 137.582 136.975 137.539 137.197C137.503 137.419 137.471 137.699 137.442 138.035C137.421 138.365 137.399 138.758 137.378 139.217C137.364 139.668 137.356 140.198 137.356 140.807V151.055ZM155.854 137.541C155.009 137.541 154.247 137.58 153.566 137.659C152.886 137.731 152.299 137.81 151.805 137.896C151.232 138.003 150.72 138.121 150.269 138.25L150.58 136.51C150.666 136.517 150.795 136.524 150.967 136.531C151.139 136.538 151.328 136.546 151.536 136.553C151.751 136.56 151.973 136.567 152.202 136.574C152.438 136.574 152.66 136.578 152.868 136.585C153.076 136.585 153.258 136.589 153.416 136.596C153.581 136.596 153.699 136.596 153.771 136.596H159.904C159.976 136.596 160.09 136.596 160.248 136.596C160.413 136.589 160.599 136.585 160.807 136.585C161.014 136.578 161.233 136.574 161.462 136.574C161.698 136.567 161.92 136.56 162.128 136.553C162.343 136.546 162.536 136.538 162.708 136.531C162.88 136.524 163.009 136.517 163.095 136.51L163.406 138.25C162.948 138.121 162.432 138.003 161.859 137.896C161.365 137.81 160.778 137.731 160.098 137.659C159.417 137.58 158.655 137.541 157.81 137.541V147.8C157.81 148.409 157.817 148.942 157.831 149.4C157.853 149.852 157.874 150.242 157.896 150.571C157.924 150.901 157.956 151.176 157.992 151.398C158.035 151.62 158.078 151.807 158.121 151.957V152H155.554V151.957C155.597 151.807 155.636 151.62 155.672 151.398C155.708 151.176 155.74 150.901 155.769 150.571C155.797 150.242 155.819 149.852 155.833 149.4C155.847 148.942 155.854 148.409 155.854 147.8V137.541ZM164.953 136.596C165.848 136.596 166.736 136.592 167.617 136.585C168.505 136.578 169.318 136.571 170.056 136.563C170.793 136.549 171.424 136.531 171.946 136.51C172.469 136.488 172.824 136.46 173.01 136.424L172.483 137.853C172.247 137.788 171.971 137.731 171.656 137.681C171.384 137.638 171.051 137.598 170.657 137.562C170.271 137.52 169.823 137.498 169.314 137.498C169.143 137.498 168.935 137.505 168.691 137.52C168.455 137.527 168.226 137.537 168.004 137.552C167.746 137.566 167.485 137.58 167.22 137.595V143.46C167.957 143.453 168.623 143.431 169.218 143.396C169.812 143.36 170.317 143.324 170.732 143.288C171.219 143.245 171.649 143.195 172.021 143.138L171.688 144.695C171.194 144.631 170.689 144.57 170.174 144.513C169.73 144.463 169.246 144.42 168.724 144.384C168.201 144.341 167.7 144.319 167.22 144.319V151.055C168.065 151.055 168.842 151.019 169.551 150.947C170.26 150.876 170.879 150.793 171.409 150.7C172.025 150.6 172.587 150.482 173.096 150.346L172.784 152.086C172.698 152.079 172.569 152.072 172.397 152.064C172.226 152.057 172.032 152.05 171.817 152.043C171.61 152.036 171.388 152.029 171.151 152.021C170.922 152.021 170.704 152.018 170.496 152.011C170.288 152.011 170.102 152.007 169.938 152C169.78 152 169.665 152 169.594 152H164.953V151.957C164.996 151.807 165.035 151.62 165.071 151.398C165.114 151.176 165.15 150.901 165.179 150.571C165.207 150.242 165.229 149.852 165.243 149.4C165.257 148.942 165.265 148.409 165.265 147.8V140.807C165.265 140.198 165.257 139.668 165.243 139.217C165.229 138.758 165.207 138.365 165.179 138.035C165.15 137.699 165.114 137.419 165.071 137.197C165.035 136.975 164.996 136.789 164.953 136.639V136.596ZM186.395 152V151.957C186.409 151.921 186.42 151.868 186.427 151.796C186.434 151.724 186.438 151.66 186.438 151.603C186.438 151.381 186.405 151.137 186.341 150.872C186.284 150.6 186.169 150.263 185.997 149.862L184.697 146.94C184.296 146.926 183.763 146.919 183.097 146.919C182.431 146.919 181.711 146.919 180.938 146.919C180.372 146.919 179.824 146.919 179.294 146.919C178.771 146.919 178.299 146.926 177.876 146.94L176.641 149.776C176.533 150.041 176.419 150.331 176.297 150.646C176.175 150.962 176.114 151.28 176.114 151.603C176.114 151.696 176.121 151.774 176.136 151.839C176.15 151.896 176.164 151.936 176.179 151.957V152H173.987V151.957C174.116 151.821 174.277 151.581 174.471 151.237C174.664 150.886 174.875 150.45 175.104 149.927L181.26 136.273H182.119L187.952 149.4C188.088 149.708 188.228 150.009 188.371 150.303C188.521 150.589 188.661 150.847 188.79 151.076C188.919 151.305 189.034 151.499 189.134 151.656C189.234 151.814 189.302 151.914 189.338 151.957V152H186.395ZM179.434 145.995C179.849 145.995 180.275 145.995 180.712 145.995C181.149 145.988 181.575 145.984 181.99 145.984C182.413 145.977 182.817 145.974 183.204 145.974C183.591 145.966 183.942 145.959 184.257 145.952L181.238 139.131L178.273 145.995H179.434ZM189.907 151.957C189.986 151.842 190.076 151.674 190.176 151.452C190.276 151.223 190.355 150.937 190.412 150.593C190.491 150.091 190.577 149.529 190.67 148.906C190.77 148.276 190.87 147.617 190.971 146.93C191.078 146.242 191.182 145.54 191.282 144.824C191.39 144.101 191.49 143.392 191.583 142.697C191.683 141.995 191.776 141.322 191.862 140.678C191.955 140.026 192.038 139.432 192.109 138.895C192.181 138.357 192.238 137.892 192.281 137.498C192.331 137.097 192.367 136.796 192.389 136.596H193.753L200.51 149.229L207.213 136.596H208.233L209.995 149.357C210.045 149.758 210.099 150.102 210.156 150.389C210.214 150.675 210.271 150.922 210.328 151.13C210.385 151.33 210.439 151.499 210.489 151.635C210.547 151.764 210.6 151.871 210.65 151.957V152H207.943V151.957C207.979 151.878 208.011 151.749 208.04 151.57C208.076 151.391 208.094 151.176 208.094 150.926C208.094 150.833 208.09 150.74 208.083 150.646C208.076 150.546 208.065 150.439 208.051 150.324L206.687 140.033L200.349 151.957L199.607 151.871L193.227 139.926C192.976 141.623 192.757 143.191 192.571 144.631C192.493 145.247 192.414 145.863 192.335 146.479C192.256 147.087 192.185 147.657 192.12 148.187C192.063 148.716 192.016 149.186 191.98 149.594C191.945 149.995 191.927 150.292 191.927 150.485C191.927 150.729 191.934 150.944 191.948 151.13C191.963 151.316 191.977 151.474 191.991 151.603C192.013 151.753 192.034 151.885 192.056 152H189.907V151.957Z" fill="#656565"/>
</svg>
