<svg width="187" height="162" viewBox="0 0 187 162" fill="none" xmlns="http://www.w3.org/2000/svg">
<path d="M104.887 123.549C102.193 123.162 99.4984 122.872 96.8359 122.356C84.4218 119.971 73.7399 114.202 64.8543 105.177C55.1988 95.4108 49.2965 83.7109 47.5643 70.0449C45.2547 51.8665 50.0343 35.5897 61.9031 21.6336C72.0077 9.7081 84.903 2.45608 100.397 0.554446C121.985 -2.12074 140.205 4.90565 154.736 21.1824C163.462 30.9484 168.241 42.5839 169.685 55.6375C169.781 56.4755 169.877 57.2813 169.973 58.1193C169.973 60.6011 169.973 63.1152 169.973 65.597C169.909 65.9515 169.813 66.2738 169.781 66.6283C168.979 77.1357 165.771 86.8373 159.965 95.5719C150.181 110.302 136.58 119.326 119.226 122.549C116.949 122.968 114.639 123.194 112.362 123.484C109.86 123.549 107.357 123.549 104.887 123.549ZM165.162 61.8904C165.162 30.4327 139.788 4.80896 108.609 4.80896C77.3647 4.80896 51.8307 30.4005 51.7986 61.7937C51.7665 93.1546 77.3005 118.746 108.641 118.714C139.788 118.714 165.162 93.1868 165.162 61.8904Z" fill="#555555"/>
<path d="M160.318 61.8903C160.318 90.5438 137.158 113.815 108.641 113.847C80.0591 113.879 56.6423 90.4793 56.6423 61.8903C56.6423 33.2045 80.0592 9.67578 108.576 9.67578C137.062 9.67578 160.35 33.1723 160.318 61.8903ZM155.538 61.8258C155.474 35.7186 134.367 14.4138 108.544 14.4782C82.5933 14.5427 61.4219 35.8475 61.454 61.9225C61.4861 87.9008 82.7537 109.109 108.673 109.044C134.527 108.98 155.57 87.7719 155.538 61.8258Z" fill="#555555"/>
<path d="M106.203 49.1272C106.203 45.2917 106.203 41.5851 106.203 37.9107C106.203 37.2983 106.171 36.6859 106.267 36.1058C106.427 34.8165 107.358 33.9785 108.609 33.9785C109.86 33.9785 110.854 34.7843 110.95 36.0735C111.047 37.6206 111.014 39.2 111.014 40.7793C111.014 43.5189 111.014 46.2264 111.014 49.1272C114.19 48.4825 117.077 48.8371 119.451 51.0933C121.761 53.3172 122.434 56.1213 122.146 59.3767C124.455 59.3767 126.636 59.3444 128.818 59.3767C130.261 59.4089 131.256 60.2792 131.32 61.6006C131.416 63.0833 130.422 64.1791 128.818 64.2114C126.412 64.2436 124.006 64.2436 121.632 64.2114C120.894 64.2114 120.51 64.437 120.157 65.0816C117.687 69.3361 113.998 72.3014 109.763 74.6543C109.186 74.9766 108.095 75.0088 107.518 74.6865C103.316 72.3336 99.5947 69.4006 97.0926 65.1461C95.4888 62.4064 94.6227 59.4734 95.1359 56.2825C95.97 51.19 99.9797 48.3214 105.08 48.9982C105.401 48.9982 105.722 49.0305 106.203 49.1272ZM108.609 69.7229C111.432 67.9179 113.966 65.8874 115.762 63.0188C116.853 61.2783 117.558 59.4411 117.398 57.3461C117.205 54.7032 115.217 53.1883 112.683 53.7685C111.849 53.9618 111.014 54.3486 110.277 54.7999C109.122 55.5089 108.063 55.5412 106.941 54.7676C106.299 54.3486 105.593 54.0263 104.888 53.8329C102.065 53.0594 99.9797 54.6709 99.8193 57.604C99.723 59.4411 100.333 61.0849 101.231 62.632C102.995 65.694 105.657 67.8535 108.609 69.7229Z" fill="#555555"/>
<path d="M106.074 24.1477C106.074 23.3419 106.042 22.5361 106.074 21.7303C106.139 20.3766 107.197 19.3452 108.448 19.3452C109.731 19.3452 110.79 20.3444 110.822 21.6981C110.886 23.3419 110.886 24.9857 110.822 26.6295C110.79 28.0476 109.763 28.9823 108.448 28.9823C107.133 28.9823 106.139 28.0476 106.042 26.6617C106.042 25.8559 106.074 24.9857 106.074 24.1477Z" fill="#555555"/>
<path d="M71.0454 64.1784C70.2434 64.1784 69.4415 64.2107 68.6396 64.1784C67.2923 64.114 66.2979 63.0503 66.2979 61.7611C66.2979 60.4718 67.3244 59.4082 68.6717 59.376C70.3076 59.3115 71.9435 59.3115 73.5795 59.376C74.9589 59.4082 75.8892 60.4396 75.8892 61.7933C75.8892 63.1148 74.9589 64.114 73.5475 64.1784C72.7135 64.2107 71.8794 64.1784 71.0454 64.1784Z" fill="#555555"/>
<path d="M145.819 64.1784C145.017 64.1784 144.215 64.2107 143.413 64.1784C142.034 64.114 141.071 63.1148 141.071 61.7933C141.071 60.4718 142.002 59.4404 143.381 59.376C145.017 59.3115 146.653 59.3115 148.289 59.376C149.668 59.4082 150.663 60.4718 150.663 61.7611C150.663 63.0503 149.668 64.0817 148.321 64.1784C147.487 64.2107 146.653 64.1784 145.819 64.1784Z" fill="#555555"/>
<path d="M106.074 99.3105C106.074 98.537 106.042 97.7957 106.074 97.0221C106.138 95.5395 107.069 94.5403 108.448 94.5403C109.827 94.5081 110.822 95.475 110.886 96.9577C110.918 98.5692 110.918 100.181 110.886 101.76C110.854 103.146 109.795 104.145 108.544 104.177C107.229 104.21 106.171 103.146 106.106 101.728C106.074 100.922 106.074 100.116 106.074 99.3105Z" fill="#555555"/>
<path d="M139.018 76.9429C139.179 77.0073 139.532 77.0396 139.788 77.2007C141.296 78.0387 142.804 78.8445 144.247 79.7792C145.402 80.5205 145.659 81.9709 144.985 83.0668C144.343 84.1304 143.028 84.5172 141.841 83.9048C140.366 83.1313 138.922 82.2932 137.511 81.3585C136.548 80.7462 136.163 79.7792 136.548 78.6511C136.869 77.4908 137.671 76.9429 139.018 76.9429Z" fill="#555555"/>
<path d="M127.92 24.7602C129.973 24.728 131.288 26.3396 130.614 27.8544C129.812 29.5949 128.818 31.2709 127.791 32.8503C127.118 33.8494 125.802 34.0106 124.776 33.3982C123.749 32.7858 123.236 31.4643 123.814 30.3685C124.648 28.7569 125.514 27.1776 126.54 25.6949C126.861 25.2115 127.631 24.9536 127.92 24.7602Z" fill="#555555"/>
<path d="M138.73 46.613C137.671 46.5808 136.901 46.0329 136.516 44.9692C136.131 43.9378 136.388 42.9709 137.254 42.3908C138.858 41.3271 140.526 40.3924 142.226 39.5222C143.189 39.0387 144.343 39.5544 144.921 40.4569C145.498 41.3271 145.53 42.7453 144.664 43.3255C142.932 44.518 141.039 45.4849 139.211 46.5486C139.115 46.613 138.954 46.5808 138.73 46.613Z" fill="#555555"/>
<path d="M90.8696 89.5776C92.698 89.8355 93.9169 91.576 93.1791 93.1231C92.4093 94.7346 91.479 96.3139 90.5167 97.8288C89.843 98.8924 88.3675 99.1181 87.341 98.4412C86.3145 97.7966 85.8975 96.5073 86.4749 95.3792C87.2769 93.8644 88.1108 92.3495 89.0732 90.9313C89.4581 90.3189 90.2601 89.9966 90.8696 89.5776Z" fill="#555555"/>
<path d="M123.589 92.1234C123.653 91.092 124.166 90.3506 125.161 89.9639C126.187 89.5771 127.182 89.7705 127.727 90.6407C128.785 92.2845 129.78 93.9928 130.614 95.7333C131.095 96.7646 130.614 97.6994 129.716 98.344C128.882 98.9886 127.438 99.0208 126.861 98.1828C125.642 96.4101 124.679 94.4762 123.589 92.6391C123.557 92.5101 123.589 92.3168 123.589 92.1234Z" fill="#555555"/>
<path d="M93.3717 31.3355C93.3396 32.4313 92.8264 33.2049 91.7678 33.5916C90.7413 33.9784 89.779 33.7206 89.2016 32.8503C88.143 31.2388 87.2127 29.5628 86.3466 27.8545C85.8654 26.8876 86.3787 25.7272 87.2769 25.1148C88.1751 24.5347 89.5544 24.5025 90.1318 25.3405C91.3187 27.081 92.281 28.9826 93.3396 30.7875C93.4038 30.9809 93.3717 31.1421 93.3717 31.3355Z" fill="#555555"/>
<path d="M77.9743 46.6134C77.6855 46.5167 77.2685 46.42 76.8836 46.1944C75.6004 45.4853 74.3174 44.7439 73.0663 43.9704C71.719 43.1646 71.302 41.8109 71.9756 40.6184C72.6493 39.3936 74.0286 39.039 75.3759 39.7803C76.7873 40.5539 78.1667 41.3274 79.5139 42.1977C80.4763 42.8101 80.8612 43.777 80.4763 44.9051C80.0913 46.0654 79.2894 46.5489 77.9743 46.6134Z" fill="#555555"/>
<path d="M78.2629 76.9429C79.2894 77.0073 80.0593 77.523 80.4121 78.5222C80.7971 79.5536 80.5726 80.5528 79.7385 81.1007C78.1667 82.1643 76.4666 83.099 74.7665 83.9693C73.8041 84.4527 72.6493 84.0015 72.0399 83.099C71.4304 82.1966 71.3982 80.7461 72.2964 80.1338C73.9965 78.9734 75.8571 78.0065 77.6535 76.9751C77.8139 76.9106 78.0705 76.9751 78.2629 76.9429Z" fill="#555555"/>
<path d="M14.2744 142.959L14.1777 143.002C13.6191 142.486 12.946 142.075 12.1582 141.767C11.3776 141.459 10.5182 141.305 9.58008 141.305C8.67773 141.305 7.85059 141.448 7.09863 141.734C6.34668 142.014 5.69857 142.422 5.1543 142.959C4.61719 143.496 4.19824 144.155 3.89746 144.936C3.59668 145.716 3.44629 146.604 3.44629 147.6C3.44629 148.695 3.58952 149.719 3.87598 150.672C4.16243 151.617 4.58854 152.437 5.1543 153.132C5.72005 153.826 6.42546 154.374 7.27051 154.775C8.12272 155.169 9.11458 155.366 10.2461 155.366C10.6543 155.366 11.0625 155.323 11.4707 155.237C11.8789 155.151 12.2692 155.026 12.6416 154.861C13.0212 154.689 13.3757 154.485 13.7051 154.249C14.0417 154.006 14.346 153.73 14.6182 153.422L14.7363 153.497L13.877 155.688C13.3398 155.896 12.7454 156.054 12.0938 156.161C11.4492 156.276 10.7975 156.333 10.1387 156.333C8.8138 156.333 7.59993 156.143 6.49707 155.764C5.40137 155.377 4.45605 154.833 3.66113 154.131C2.87337 153.429 2.25749 152.588 1.81348 151.606C1.37663 150.618 1.1582 149.522 1.1582 148.319C1.1582 147.639 1.24414 146.969 1.41602 146.311C1.59505 145.652 1.85286 145.025 2.18945 144.431C2.52604 143.836 2.94141 143.292 3.43555 142.798C3.92969 142.297 4.49186 141.863 5.12207 141.498C5.75944 141.133 6.45768 140.85 7.2168 140.649C7.98307 140.442 8.81022 140.338 9.69824 140.338C11.0804 140.338 12.3623 140.549 13.5439 140.972L14.2744 142.959ZM23.7275 140.338C24.9235 140.338 26.0264 140.535 27.0361 140.929C28.0531 141.315 28.9303 141.863 29.668 142.572C30.4056 143.274 30.9821 144.119 31.3975 145.107C31.8128 146.096 32.0205 147.188 32.0205 148.384C32.0205 149.064 31.9417 149.734 31.7842 150.393C31.6266 151.051 31.3939 151.674 31.0859 152.262C30.7852 152.849 30.4128 153.393 29.9688 153.895C29.5247 154.389 29.0163 154.818 28.4434 155.184C27.8776 155.542 27.251 155.821 26.5635 156.021C25.876 156.229 25.1348 156.333 24.3398 156.333C23.1439 156.333 22.0374 156.143 21.0205 155.764C20.0107 155.377 19.137 154.833 18.3994 154.131C17.6618 153.429 17.0853 152.588 16.6699 151.606C16.2546 150.618 16.0469 149.522 16.0469 148.319C16.0469 147.639 16.1257 146.969 16.2832 146.311C16.4408 145.652 16.6699 145.025 16.9707 144.431C17.2786 143.836 17.651 143.292 18.0879 142.798C18.5319 142.297 19.0368 141.863 19.6025 141.498C20.1755 141.133 20.8057 140.85 21.4932 140.649C22.1878 140.442 22.9326 140.338 23.7275 140.338ZM24.3398 155.366C25.1348 155.366 25.8617 155.223 26.5205 154.937C27.1794 154.65 27.7451 154.235 28.2178 153.69C28.6976 153.146 29.07 152.484 29.335 151.703C29.5999 150.915 29.7324 150.024 29.7324 149.028C29.7324 147.925 29.6035 146.905 29.3457 145.967C29.0951 145.021 28.7191 144.205 28.2178 143.518C27.7165 142.823 27.0898 142.282 26.3379 141.896C25.5931 141.502 24.723 141.305 23.7275 141.305C22.9326 141.305 22.2057 141.448 21.5469 141.734C20.888 142.014 20.3187 142.422 19.8389 142.959C19.3662 143.496 18.9974 144.155 18.7324 144.936C18.4674 145.716 18.335 146.604 18.335 147.6C18.335 148.695 18.4603 149.719 18.7109 150.672C18.9616 151.617 19.3376 152.437 19.8389 153.132C20.3402 153.826 20.9668 154.374 21.7188 154.775C22.4707 155.169 23.3444 155.366 24.3398 155.366ZM35.0498 140.596L46.1143 152.369V144.807C46.1143 144.198 46.1071 143.668 46.0928 143.217C46.0785 142.758 46.057 142.365 46.0283 142.035C45.9997 141.699 45.9639 141.419 45.9209 141.197C45.8851 140.975 45.8457 140.789 45.8027 140.639V140.596H47.7148V140.639C47.6719 140.789 47.6325 140.975 47.5967 141.197C47.5609 141.419 47.5286 141.699 47.5 142.035C47.4714 142.365 47.4499 142.758 47.4355 143.217C47.4212 143.668 47.4141 144.198 47.4141 144.807V156.215H47.0381L35.9736 144.452V151.8C35.9736 152.409 35.9808 152.942 35.9951 153.4C36.0094 153.852 36.0309 154.242 36.0596 154.571C36.0882 154.901 36.1204 155.176 36.1562 155.398C36.1921 155.62 36.2314 155.807 36.2744 155.957V156H34.3623V155.957C34.4053 155.807 34.4447 155.62 34.4805 155.398C34.5234 155.176 34.5592 154.901 34.5879 154.571C34.6165 154.242 34.638 153.852 34.6523 153.4C34.6667 152.942 34.6738 152.409 34.6738 151.8V144.807C34.6738 144.198 34.6667 143.668 34.6523 143.217C34.638 142.758 34.6165 142.365 34.5879 142.035C34.5592 141.699 34.5234 141.419 34.4805 141.197C34.4447 140.975 34.4053 140.789 34.3623 140.639V140.596H35.0498ZM51.6787 140.596V140.639C51.6644 140.674 51.6536 140.728 51.6465 140.8C51.6393 140.871 51.6357 140.936 51.6357 140.993C51.6357 141.215 51.6644 141.462 51.7217 141.734C51.7861 141.999 51.9043 142.332 52.0762 142.733L56.835 153.465L61.4326 142.819C61.54 142.554 61.6546 142.264 61.7764 141.949C61.8981 141.634 61.959 141.315 61.959 140.993C61.959 140.907 61.9518 140.836 61.9375 140.778C61.9232 140.714 61.9089 140.667 61.8945 140.639V140.596H64.0967V140.639C63.9606 140.775 63.7959 141.018 63.6025 141.369C63.4092 141.72 63.1979 142.153 62.9688 142.669L56.8135 156.333H55.9541L50.1211 143.195C49.985 142.887 49.8418 142.59 49.6914 142.304C49.5482 142.017 49.4121 141.759 49.2832 141.53C49.1543 141.294 49.0397 141.097 48.9395 140.939C48.8392 140.782 48.7712 140.682 48.7354 140.639V140.596H51.6787ZM65.1924 140.596C66.0876 140.596 66.9756 140.592 67.8564 140.585C68.7445 140.578 69.5573 140.571 70.2949 140.563C71.0326 140.549 71.6628 140.531 72.1855 140.51C72.7083 140.488 73.0628 140.46 73.249 140.424L72.7227 141.853C72.4863 141.788 72.2106 141.731 71.8955 141.681C71.6234 141.638 71.2904 141.598 70.8965 141.562C70.5098 141.52 70.0622 141.498 69.5537 141.498C69.3818 141.498 69.1742 141.505 68.9307 141.52C68.6943 141.527 68.4652 141.537 68.2432 141.552C67.9854 141.566 67.724 141.58 67.459 141.595V147.46C68.1966 147.453 68.8626 147.431 69.457 147.396C70.0514 147.36 70.5563 147.324 70.9717 147.288C71.4587 147.245 71.8883 147.195 72.2607 147.138L71.9277 148.695C71.4336 148.631 70.9287 148.57 70.4131 148.513C69.9691 148.463 69.4857 148.42 68.9629 148.384C68.4401 148.341 67.9388 148.319 67.459 148.319V155.055C68.304 155.055 69.0811 155.019 69.79 154.947C70.499 154.876 71.1185 154.793 71.6484 154.7C72.2643 154.6 72.8265 154.482 73.335 154.346L73.0234 156.086C72.9375 156.079 72.8086 156.072 72.6367 156.064C72.4648 156.057 72.2715 156.05 72.0566 156.043C71.849 156.036 71.627 156.029 71.3906 156.021C71.1615 156.021 70.943 156.018 70.7354 156.011C70.5277 156.011 70.3415 156.007 70.1768 156C70.0192 156 69.9046 156 69.833 156H65.1924V155.957C65.2354 155.807 65.2747 155.62 65.3105 155.398C65.3535 155.176 65.3893 154.901 65.418 154.571C65.4466 154.242 65.4681 153.852 65.4824 153.4C65.4967 152.942 65.5039 152.409 65.5039 151.8V144.807C65.5039 144.198 65.4967 143.668 65.4824 143.217C65.4681 142.758 65.4466 142.365 65.418 142.035C65.3893 141.699 65.3535 141.419 65.3105 141.197C65.2747 140.975 65.2354 140.789 65.1924 140.639V140.596ZM76.5791 140.596L87.6436 152.369V144.807C87.6436 144.198 87.6364 143.668 87.6221 143.217C87.6077 142.758 87.5863 142.365 87.5576 142.035C87.529 141.699 87.4932 141.419 87.4502 141.197C87.4144 140.975 87.375 140.789 87.332 140.639V140.596H89.2441V140.639C89.2012 140.789 89.1618 140.975 89.126 141.197C89.0902 141.419 89.0579 141.699 89.0293 142.035C89.0007 142.365 88.9792 142.758 88.9648 143.217C88.9505 143.668 88.9434 144.198 88.9434 144.807V156.215H88.5674L77.5029 144.452V151.8C77.5029 152.409 77.5101 152.942 77.5244 153.4C77.5387 153.852 77.5602 154.242 77.5889 154.571C77.6175 154.901 77.6497 155.176 77.6855 155.398C77.7214 155.62 77.7607 155.807 77.8037 155.957V156H75.8916V155.957C75.9346 155.807 75.974 155.62 76.0098 155.398C76.0527 155.176 76.0885 154.901 76.1172 154.571C76.1458 154.242 76.1673 153.852 76.1816 153.4C76.196 152.942 76.2031 152.409 76.2031 151.8V144.807C76.2031 144.198 76.196 143.668 76.1816 143.217C76.1673 142.758 76.1458 142.365 76.1172 142.035C76.0885 141.699 76.0527 141.419 76.0098 141.197C75.974 140.975 75.9346 140.789 75.8916 140.639V140.596H76.5791ZM92.3379 155.957C92.3809 155.807 92.4202 155.62 92.4561 155.398C92.4919 155.176 92.5241 154.901 92.5527 154.571C92.5814 154.242 92.6029 153.852 92.6172 153.4C92.6315 152.942 92.6387 152.409 92.6387 151.8V144.807C92.6387 144.198 92.6315 143.668 92.6172 143.217C92.6029 142.758 92.5814 142.365 92.5527 142.035C92.5241 141.699 92.4919 141.419 92.4561 141.197C92.4202 140.975 92.3809 140.789 92.3379 140.639V140.596H94.9053V140.639C94.8623 140.789 94.8193 140.975 94.7764 141.197C94.7406 141.419 94.7083 141.699 94.6797 142.035C94.6582 142.365 94.6367 142.758 94.6152 143.217C94.6009 143.668 94.5938 144.198 94.5938 144.807V151.8C94.5938 152.409 94.6009 152.942 94.6152 153.4C94.6367 153.852 94.6582 154.242 94.6797 154.571C94.7083 154.901 94.7406 155.176 94.7764 155.398C94.8193 155.62 94.8623 155.807 94.9053 155.957V156H92.3379V155.957ZM98.085 140.596C98.9801 140.596 99.8682 140.592 100.749 140.585C101.637 140.578 102.45 140.571 103.188 140.563C103.925 140.549 104.555 140.531 105.078 140.51C105.601 140.488 105.955 140.46 106.142 140.424L105.615 141.853C105.379 141.788 105.103 141.731 104.788 141.681C104.516 141.638 104.183 141.598 103.789 141.562C103.402 141.52 102.955 141.498 102.446 141.498C102.274 141.498 102.067 141.505 101.823 141.52C101.587 141.527 101.358 141.537 101.136 141.552C100.878 141.566 100.617 141.58 100.352 141.595V147.46C101.089 147.453 101.755 147.431 102.35 147.396C102.944 147.36 103.449 147.324 103.864 147.288C104.351 147.245 104.781 147.195 105.153 147.138L104.82 148.695C104.326 148.631 103.821 148.57 103.306 148.513C102.862 148.463 102.378 148.42 101.855 148.384C101.333 148.341 100.831 148.319 100.352 148.319V155.055C101.197 155.055 101.974 155.019 102.683 154.947C103.392 154.876 104.011 154.793 104.541 154.7C105.157 154.6 105.719 154.482 106.228 154.346L105.916 156.086C105.83 156.079 105.701 156.072 105.529 156.064C105.357 156.057 105.164 156.05 104.949 156.043C104.742 156.036 104.52 156.029 104.283 156.021C104.054 156.021 103.836 156.018 103.628 156.011C103.42 156.011 103.234 156.007 103.069 156C102.912 156 102.797 156 102.726 156H98.085V155.957C98.1279 155.807 98.1673 155.62 98.2031 155.398C98.2461 155.176 98.2819 154.901 98.3105 154.571C98.3392 154.242 98.3607 153.852 98.375 153.4C98.3893 152.942 98.3965 152.409 98.3965 151.8V144.807C98.3965 144.198 98.3893 143.668 98.375 143.217C98.3607 142.758 98.3392 142.365 98.3105 142.035C98.2819 141.699 98.2461 141.419 98.2031 141.197C98.1673 140.975 98.1279 140.789 98.085 140.639V140.596ZM109.472 140.596L120.536 152.369V144.807C120.536 144.198 120.529 143.668 120.515 143.217C120.5 142.758 120.479 142.365 120.45 142.035C120.422 141.699 120.386 141.419 120.343 141.197C120.307 140.975 120.268 140.789 120.225 140.639V140.596H122.137V140.639C122.094 140.789 122.054 140.975 122.019 141.197C121.983 141.419 121.951 141.699 121.922 142.035C121.893 142.365 121.872 142.758 121.857 143.217C121.843 143.668 121.836 144.198 121.836 144.807V156.215H121.46L110.396 144.452V151.8C110.396 152.409 110.403 152.942 110.417 153.4C110.431 153.852 110.453 154.242 110.481 154.571C110.51 154.901 110.542 155.176 110.578 155.398C110.614 155.62 110.653 155.807 110.696 155.957V156H108.784V155.957C108.827 155.807 108.867 155.62 108.902 155.398C108.945 155.176 108.981 154.901 109.01 154.571C109.038 154.242 109.06 153.852 109.074 153.4C109.089 152.942 109.096 152.409 109.096 151.8V144.807C109.096 144.198 109.089 143.668 109.074 143.217C109.06 142.758 109.038 142.365 109.01 142.035C108.981 141.699 108.945 141.419 108.902 141.197C108.867 140.975 108.827 140.789 108.784 140.639V140.596H109.472ZM129.184 141.541C128.339 141.541 127.576 141.58 126.896 141.659C126.215 141.731 125.628 141.81 125.134 141.896C124.561 142.003 124.049 142.121 123.598 142.25L123.909 140.51C123.995 140.517 124.124 140.524 124.296 140.531C124.468 140.538 124.658 140.546 124.865 140.553C125.08 140.56 125.302 140.567 125.531 140.574C125.768 140.574 125.99 140.578 126.197 140.585C126.405 140.585 126.588 140.589 126.745 140.596C126.91 140.596 127.028 140.596 127.1 140.596H133.233C133.305 140.596 133.42 140.596 133.577 140.596C133.742 140.589 133.928 140.585 134.136 140.585C134.343 140.578 134.562 140.574 134.791 140.574C135.027 140.567 135.249 140.56 135.457 140.553C135.672 140.546 135.865 140.538 136.037 140.531C136.209 140.524 136.338 140.517 136.424 140.51L136.735 142.25C136.277 142.121 135.761 142.003 135.188 141.896C134.694 141.81 134.107 141.731 133.427 141.659C132.746 141.58 131.984 141.541 131.139 141.541V151.8C131.139 152.409 131.146 152.942 131.16 153.4C131.182 153.852 131.203 154.242 131.225 154.571C131.253 154.901 131.285 155.176 131.321 155.398C131.364 155.62 131.407 155.807 131.45 155.957V156H128.883V155.957C128.926 155.807 128.965 155.62 129.001 155.398C129.037 155.176 129.069 154.901 129.098 154.571C129.126 154.242 129.148 153.852 129.162 153.4C129.176 152.942 129.184 152.409 129.184 151.8V141.541ZM155.534 148.631C155.248 148.624 154.89 148.62 154.46 148.62C154.03 148.613 153.561 148.606 153.053 148.599C152.551 148.591 152.025 148.588 151.474 148.588C150.929 148.581 150.396 148.577 149.873 148.577C149.35 148.57 148.853 148.57 148.38 148.577C147.907 148.584 147.495 148.595 147.145 148.609V151.8C147.145 152.409 147.152 152.942 147.166 153.4C147.188 153.852 147.209 154.242 147.23 154.571C147.259 154.901 147.291 155.176 147.327 155.398C147.37 155.62 147.413 155.807 147.456 155.957V156H144.878V155.957C144.921 155.807 144.96 155.62 144.996 155.398C145.039 155.176 145.075 154.901 145.104 154.571C145.132 154.242 145.154 153.852 145.168 153.4C145.182 152.942 145.189 152.409 145.189 151.8V144.807C145.189 144.198 145.182 143.668 145.168 143.217C145.154 142.758 145.132 142.365 145.104 142.035C145.075 141.699 145.039 141.419 144.996 141.197C144.96 140.975 144.921 140.789 144.878 140.639V140.596H147.456V140.639C147.413 140.789 147.37 140.975 147.327 141.197C147.291 141.419 147.259 141.699 147.23 142.035C147.209 142.365 147.188 142.758 147.166 143.217C147.152 143.668 147.145 144.198 147.145 144.807V147.557C147.517 147.571 147.939 147.582 148.412 147.589C148.885 147.589 149.379 147.589 149.895 147.589C150.41 147.582 150.933 147.575 151.463 147.567C152 147.56 152.516 147.553 153.01 147.546C153.511 147.532 153.977 147.517 154.406 147.503C154.843 147.489 155.219 147.474 155.534 147.46V144.807C155.534 144.198 155.523 143.668 155.502 143.217C155.488 142.758 155.466 142.365 155.438 142.035C155.416 141.699 155.384 141.419 155.341 141.197C155.305 140.975 155.266 140.789 155.223 140.639V140.596H157.801V140.639C157.758 140.789 157.715 140.975 157.672 141.197C157.636 141.419 157.604 141.699 157.575 142.035C157.547 142.365 157.525 142.758 157.511 143.217C157.496 143.668 157.489 144.198 157.489 144.807V151.8C157.489 152.409 157.496 152.942 157.511 153.4C157.525 153.852 157.547 154.242 157.575 154.571C157.604 154.901 157.636 155.176 157.672 155.398C157.715 155.62 157.758 155.807 157.801 155.957V156H155.223V155.957C155.266 155.807 155.305 155.62 155.341 155.398C155.384 155.176 155.416 154.901 155.438 154.571C155.466 154.242 155.488 153.852 155.502 153.4C155.523 152.942 155.534 152.409 155.534 151.8V148.631ZM167.909 140.338C169.105 140.338 170.208 140.535 171.218 140.929C172.235 141.315 173.112 141.863 173.85 142.572C174.587 143.274 175.164 144.119 175.579 145.107C175.994 146.096 176.202 147.188 176.202 148.384C176.202 149.064 176.123 149.734 175.966 150.393C175.808 151.051 175.576 151.674 175.268 152.262C174.967 152.849 174.594 153.393 174.15 153.895C173.706 154.389 173.198 154.818 172.625 155.184C172.059 155.542 171.433 155.821 170.745 156.021C170.058 156.229 169.316 156.333 168.521 156.333C167.326 156.333 166.219 156.143 165.202 155.764C164.192 155.377 163.319 154.833 162.581 154.131C161.843 153.429 161.267 152.588 160.852 151.606C160.436 150.618 160.229 149.522 160.229 148.319C160.229 147.639 160.307 146.969 160.465 146.311C160.622 145.652 160.852 145.025 161.152 144.431C161.46 143.836 161.833 143.292 162.27 142.798C162.714 142.297 163.218 141.863 163.784 141.498C164.357 141.133 164.987 140.85 165.675 140.649C166.369 140.442 167.114 140.338 167.909 140.338ZM168.521 155.366C169.316 155.366 170.043 155.223 170.702 154.937C171.361 154.65 171.927 154.235 172.399 153.69C172.879 153.146 173.252 152.484 173.517 151.703C173.782 150.915 173.914 150.024 173.914 149.028C173.914 147.925 173.785 146.905 173.527 145.967C173.277 145.021 172.901 144.205 172.399 143.518C171.898 142.823 171.271 142.282 170.52 141.896C169.775 141.502 168.905 141.305 167.909 141.305C167.114 141.305 166.387 141.448 165.729 141.734C165.07 142.014 164.5 142.422 164.021 142.959C163.548 143.496 163.179 144.155 162.914 144.936C162.649 145.716 162.517 146.604 162.517 147.6C162.517 148.695 162.642 149.719 162.893 150.672C163.143 151.617 163.519 152.437 164.021 153.132C164.522 153.826 165.148 154.374 165.9 154.775C166.652 155.169 167.526 155.366 168.521 155.366ZM189.651 144.807C189.651 144.198 189.644 143.668 189.63 143.217C189.616 142.758 189.594 142.365 189.565 142.035C189.537 141.699 189.505 141.419 189.469 141.197C189.433 140.975 189.394 140.789 189.351 140.639V140.596H191.263V140.639C191.22 140.789 191.177 140.975 191.134 141.197C191.098 141.419 191.066 141.699 191.037 142.035C191.016 142.365 190.994 142.758 190.973 143.217C190.958 143.668 190.951 144.198 190.951 144.807V150.607C190.951 151.632 190.804 152.505 190.511 153.229C190.217 153.952 189.809 154.546 189.286 155.012C188.763 155.47 188.137 155.803 187.406 156.011C186.676 156.226 185.877 156.333 185.011 156.333C184.144 156.333 183.335 156.233 182.583 156.032C181.838 155.832 181.187 155.509 180.628 155.065C180.076 154.614 179.643 154.034 179.328 153.325C179.013 152.609 178.855 151.739 178.855 150.715V144.807C178.855 144.198 178.848 143.668 178.834 143.217C178.82 142.758 178.798 142.365 178.77 142.035C178.741 141.699 178.705 141.419 178.662 141.197C178.626 140.975 178.587 140.789 178.544 140.639V140.596H181.122V140.639C181.079 140.789 181.036 140.975 180.993 141.197C180.957 141.419 180.925 141.699 180.896 142.035C180.868 142.365 180.846 142.758 180.832 143.217C180.818 143.668 180.811 144.198 180.811 144.807V150.833C180.811 151.685 180.936 152.391 181.187 152.949C181.444 153.501 181.781 153.941 182.196 154.271C182.612 154.593 183.084 154.818 183.614 154.947C184.144 155.076 184.685 155.141 185.236 155.141C185.788 155.141 186.328 155.076 186.858 154.947C187.388 154.818 187.857 154.593 188.266 154.271C188.681 153.941 189.014 153.501 189.265 152.949C189.522 152.391 189.651 151.685 189.651 150.833V144.807ZM196.516 151.8C196.516 152.409 196.523 152.942 196.537 153.4C196.559 153.852 196.58 154.242 196.602 154.571C196.63 154.901 196.662 155.176 196.698 155.398C196.741 155.62 196.784 155.807 196.827 155.957V156H194.249V155.957C194.292 155.807 194.331 155.62 194.367 155.398C194.41 155.176 194.442 154.901 194.464 154.571C194.493 154.242 194.514 153.852 194.528 153.4C194.55 152.949 194.561 152.416 194.561 151.8V144.807C194.561 144.198 194.55 143.668 194.528 143.217C194.514 142.758 194.493 142.365 194.464 142.035C194.442 141.706 194.41 141.43 194.367 141.208C194.331 140.979 194.292 140.789 194.249 140.639V140.596L194.7 140.639C194.836 140.653 194.987 140.664 195.151 140.671C195.323 140.671 195.499 140.671 195.678 140.671C195.957 140.671 196.333 140.639 196.806 140.574C197.285 140.503 197.894 140.467 198.632 140.467C199.319 140.467 199.953 140.56 200.533 140.746C201.12 140.932 201.629 141.204 202.059 141.562C202.488 141.921 202.821 142.361 203.058 142.884C203.301 143.399 203.423 143.987 203.423 144.646C203.423 145.161 203.355 145.641 203.219 146.085C203.09 146.522 202.904 146.919 202.66 147.277C202.424 147.635 202.137 147.954 201.801 148.233C201.464 148.506 201.088 148.735 200.673 148.921L204.443 154.217C204.63 154.482 204.801 154.711 204.959 154.904C205.124 155.098 205.278 155.266 205.421 155.409C205.571 155.545 205.715 155.66 205.851 155.753C205.987 155.839 206.126 155.907 206.27 155.957V156H203.165C203.144 155.864 203.072 155.685 202.95 155.463C202.836 155.234 202.7 155.008 202.542 154.786L198.739 149.426C198.575 149.44 198.41 149.454 198.245 149.469C198.08 149.476 197.912 149.479 197.74 149.479C197.54 149.479 197.336 149.472 197.128 149.458C196.927 149.444 196.723 149.419 196.516 149.383V151.8ZM196.516 148.545C196.709 148.588 196.906 148.62 197.106 148.642C197.307 148.656 197.5 148.663 197.687 148.663C198.224 148.663 198.714 148.584 199.158 148.427C199.602 148.262 199.978 148.015 200.286 147.686C200.601 147.356 200.845 146.948 201.017 146.461C201.188 145.967 201.274 145.39 201.274 144.731C201.274 144.194 201.214 143.707 201.092 143.271C200.97 142.834 200.787 142.465 200.544 142.164C200.308 141.856 200.007 141.62 199.642 141.455C199.276 141.283 198.85 141.197 198.363 141.197C197.869 141.197 197.475 141.222 197.182 141.272C196.888 141.323 196.666 141.376 196.516 141.434V148.545ZM213.671 143.045H213.435C213.377 142.88 213.284 142.694 213.155 142.486C213.034 142.279 212.869 142.085 212.661 141.906C212.461 141.72 212.214 141.566 211.92 141.444C211.633 141.323 211.293 141.262 210.899 141.262C210.549 141.262 210.237 141.315 209.965 141.423C209.693 141.53 209.464 141.681 209.277 141.874C209.098 142.067 208.962 142.297 208.869 142.562C208.776 142.826 208.729 143.12 208.729 143.442C208.729 143.958 208.873 144.452 209.159 144.925C209.453 145.39 209.818 145.852 210.255 146.311C210.692 146.769 211.164 147.227 211.673 147.686C212.181 148.144 212.654 148.62 213.091 149.114C213.528 149.608 213.889 150.128 214.176 150.672C214.469 151.209 214.616 151.789 214.616 152.412C214.616 152.878 214.534 153.347 214.369 153.819C214.212 154.285 213.965 154.704 213.628 155.076C213.291 155.449 212.858 155.753 212.328 155.989C211.798 156.218 211.168 156.333 210.438 156.333C210.029 156.333 209.639 156.294 209.267 156.215C208.901 156.143 208.561 156.054 208.246 155.946C207.938 155.832 207.659 155.71 207.408 155.581C207.165 155.452 206.964 155.334 206.807 155.227L207.054 152.853H207.322C207.401 153.189 207.53 153.511 207.709 153.819C207.888 154.12 208.106 154.389 208.364 154.625C208.629 154.854 208.93 155.04 209.267 155.184C209.603 155.32 209.972 155.388 210.373 155.388C210.738 155.388 211.064 155.334 211.351 155.227C211.644 155.112 211.895 154.958 212.103 154.765C212.31 154.564 212.468 154.328 212.575 154.056C212.69 153.784 212.747 153.486 212.747 153.164C212.747 152.713 212.665 152.298 212.5 151.918C212.335 151.531 212.117 151.166 211.845 150.822C211.58 150.479 211.275 150.146 210.932 149.823C210.595 149.501 210.248 149.179 209.89 148.856C209.532 148.527 209.181 148.19 208.837 147.847C208.5 147.503 208.196 147.138 207.924 146.751C207.659 146.357 207.444 145.938 207.279 145.494C207.115 145.043 207.032 144.549 207.032 144.012C207.032 143.446 207.14 142.938 207.354 142.486C207.576 142.028 207.867 141.638 208.225 141.315C208.59 140.993 209.002 140.746 209.46 140.574C209.918 140.402 210.391 140.316 210.878 140.316C211.236 140.316 211.565 140.345 211.866 140.402C212.167 140.46 212.436 140.528 212.672 140.606C212.915 140.685 213.127 140.764 213.306 140.843C213.485 140.922 213.632 140.986 213.746 141.036L213.671 143.045Z" fill="#656565"/>
</svg>
