<svg width="26" height="27" viewBox="0 0 26 27" fill="none" xmlns="http://www.w3.org/2000/svg">
<path d="M13.768 26.939C13.259 26.939 12.75 26.939 12.241 26.939C12.1583 26.9263 12.0756 26.9072 11.9929 26.8945C11.5157 26.8309 11.0322 26.7928 10.5614 26.7038C7.71745 26.1573 5.31887 24.81 3.37201 22.6747C1.67964 20.819 0.617142 18.6392 0.197231 16.1607C0.114522 15.6777 0.0636228 15.1947 0 14.7117C0 14.2033 0 13.6949 0 13.1865C0.0127246 13.0975 0.0318103 13.0085 0.0445348 12.9195C0.108158 12.4493 0.146331 11.979 0.235403 11.5151C0.769835 8.73787 2.05502 6.36105 4.14821 4.45451C7.36752 1.51843 11.1531 0.438062 15.4349 1.19432C18.2598 1.69638 20.6583 3.04367 22.5734 5.16628C25.2774 8.15955 26.3971 11.693 25.8754 15.6967C25.4746 18.7917 24.0749 21.41 21.7717 23.5263C19.9076 25.2421 17.7126 26.3098 15.2122 26.7356C14.7414 26.8246 14.2515 26.8754 13.768 26.939ZM6.15869 10.2059C6.13324 11.2418 6.39409 11.9027 6.67404 12.5573C7.38661 14.216 8.42366 15.6586 9.69612 16.9296C11.3694 18.6074 13.2717 19.9165 15.5749 20.5838C16.4401 20.8317 17.28 20.7618 18.0943 20.3741C18.6988 20.0881 19.1377 19.5988 19.5958 19.1412C19.9394 18.8044 19.9394 18.5248 19.5958 18.1816C18.8451 17.4253 18.088 16.6691 17.3372 15.9192C17 15.5823 16.7137 15.5887 16.3765 15.9255C15.963 16.3386 15.5558 16.758 15.1422 17.1711C14.6523 17.6605 14.0606 17.6986 13.4944 17.2982C12.0374 16.256 10.7713 15.0231 9.70248 13.5868C9.25712 12.9894 9.28894 12.4111 9.81701 11.8837C10.2369 11.4579 10.6696 11.0384 11.0895 10.6063C11.4076 10.2822 11.4139 9.99618 11.0958 9.67842C10.3323 8.90945 9.56888 8.14684 8.79904 7.38422C8.49365 7.07918 8.20098 7.07918 7.88923 7.37787C7.65383 7.60665 7.41842 7.84179 7.18938 8.07693C6.53406 8.75693 6.17778 9.56403 6.15869 10.2059Z" fill="#F6D2E6"/>
</svg>
