<svg width="248" height="162" viewBox="0 0 248 162" fill="none" xmlns="http://www.w3.org/2000/svg">
<path d="M92.085 108.611C94.6463 95.9039 101.97 87.3791 114.176 82.9559C109.014 79.0151 106.332 73.9083 106.732 67.4342C107.013 62.8501 108.974 58.9898 112.375 55.9338C119.259 49.701 129.744 50.1835 136.147 56.8184C142.31 63.1718 143.431 75.5167 133.466 83.0765C139.229 84.9664 144.111 88.1431 148.033 92.687C151.955 97.2711 154.396 102.579 155.477 108.812C156.357 108.048 157.118 107.404 157.838 106.681C169.924 94.6172 174.687 80.0606 172.446 63.1316C172.205 61.4427 172.846 60.357 174.166 60.156C175.447 59.9549 176.408 60.7591 176.648 62.4882C178.889 77.9696 175.367 92.0436 165.722 104.348C157.438 114.964 146.472 121.277 133.306 123.77C131.385 124.132 130.064 123.087 130.264 121.478C130.424 120.192 131.345 119.749 132.505 119.548C138.228 118.543 143.631 116.653 148.594 113.637C152.155 111.506 151.875 112.632 151.035 108.249C148.393 94.7378 136.547 85.5294 122.62 85.9717C109.414 86.3738 98.2481 96.5473 96.3271 109.898C96.127 111.224 96.3672 112.069 97.6478 112.833C103.091 116.13 108.893 118.422 115.137 119.548C115.777 119.669 116.617 119.91 116.858 120.352C117.218 120.996 117.378 121.961 117.178 122.685C116.818 123.851 115.697 124.052 114.616 123.811C111.455 123.006 108.213 122.443 105.212 121.237C86.6423 113.919 75.3166 100.367 71.2345 80.7442C69.9939 74.8331 70.0339 68.8416 70.9143 62.8501C70.9543 62.5687 70.9944 62.3274 71.0744 62.0459C71.3545 60.7189 72.3951 59.9549 73.5557 60.156C74.7163 60.3972 75.3966 61.4427 75.2765 62.7697C75.0364 66.1073 74.5161 69.485 74.6762 72.7824C75.2765 86.6955 80.7593 98.3568 91.0045 107.766C91.3246 108.048 91.6848 108.289 92.085 108.611ZM136.628 68.6808C136.628 61.6036 130.865 55.7729 123.781 55.8131C116.737 55.8131 110.935 61.6036 110.935 68.721C110.935 75.7982 116.737 81.6289 123.781 81.6289C130.865 81.5887 136.628 75.758 136.628 68.6808Z" fill="#555555"/>
<path d="M108.493 42.4231C109.133 38.5628 109.814 34.4612 110.574 30.3596C110.774 29.2337 110.534 28.5501 109.734 27.7861C106.892 25.1322 104.171 22.3576 101.37 19.6634C100.609 18.8994 99.9689 18.1354 100.369 16.9692C100.769 15.8433 101.73 15.5618 102.81 15.4412C106.772 14.8782 110.734 14.2751 114.696 13.7121C115.497 13.5915 115.937 13.2296 116.257 12.5058C117.938 9.04757 119.659 5.6296 121.3 2.17142C121.82 1.08571 122.3 0.0402115 123.701 0C125.142 0 125.622 1.00529 126.142 2.091C127.823 5.58939 129.584 9.04758 131.265 12.5862C131.585 13.2296 131.945 13.5915 132.745 13.6719C136.787 14.1946 140.87 14.8782 144.912 15.4412C145.952 15.602 146.833 15.9639 147.153 17.0497C147.473 18.0952 146.993 18.8592 146.272 19.5428C143.351 22.3978 140.469 25.2528 137.548 28.0676C136.908 28.6708 136.747 29.2337 136.908 30.0782C137.628 33.9385 138.268 37.839 138.949 41.6993C139.149 42.785 139.309 43.8707 138.268 44.6347C137.188 45.4389 136.187 44.9564 135.147 44.3934C131.865 42.6643 128.583 40.9755 125.342 39.1659C124.221 38.5226 123.341 38.4824 122.18 39.1257C118.778 41.0559 115.257 42.8252 111.815 44.6347C110.014 45.64 108.413 44.6347 108.493 42.4231ZM113.416 39.0051C116.497 37.3564 119.339 35.9088 122.14 34.3808C123.261 33.7374 124.261 33.7374 125.422 34.3808C127.703 35.6676 130.064 36.8337 132.385 38.0802C132.906 38.3617 133.426 38.603 134.146 39.0051C133.546 35.5067 133.066 32.33 132.465 29.1935C132.225 27.947 132.545 27.0221 133.426 26.1777C135.227 24.4888 136.948 22.7597 138.708 21.0306C139.269 20.5078 139.869 19.9851 140.469 19.5026C137.428 18.7385 134.626 18.256 131.825 17.9343C129.864 17.7332 128.583 17.0497 127.743 15.0793C126.622 12.3851 125.182 9.81159 123.821 6.99679C123.461 7.64018 123.221 8.04229 123.021 8.4444C121.78 10.9777 120.539 13.4708 119.299 16.0042C118.818 16.9692 118.178 17.5322 117.058 17.6528C115.337 17.8539 113.616 18.1354 111.895 18.4168C110.334 18.6581 108.813 18.8994 107.533 19.1004C109.734 21.4327 111.895 23.8052 114.136 26.1374C114.976 27.0221 115.337 27.9067 115.097 29.1533C114.496 32.2898 114.016 35.4665 113.416 39.0051Z" fill="#555555"/>
<path d="M72.5951 51.511C73.1154 48.5353 73.5956 45.3586 74.1959 42.1819C74.356 41.2571 74.1959 40.6137 73.5156 39.9301C71.3545 37.8793 69.2334 35.7481 67.0723 33.6571C66.3119 32.9333 65.7517 32.1693 66.1118 31.0836C66.472 29.9174 67.4325 29.636 68.513 29.4751C71.5546 29.0328 74.5961 28.6307 77.6377 28.1079C78.1179 28.0275 78.7582 27.5852 78.9984 27.1026C80.4391 24.3683 81.7597 21.5937 83.0804 18.8191C83.5607 17.854 84.161 17.1704 85.2815 17.1704C86.4021 17.1704 87.0424 17.8138 87.4826 18.8191C88.8033 21.5937 90.164 24.3683 91.5647 27.1026C91.8048 27.545 92.4051 27.9873 92.8854 28.0677C95.8869 28.5905 98.8484 28.9926 101.85 29.4349C102.97 29.5957 103.971 29.837 104.371 31.0434C104.771 32.2095 104.091 32.9735 103.331 33.7375C101.21 35.7883 99.1285 37.8793 97.0075 39.8899C96.3271 40.5333 96.087 41.1766 96.2871 42.1417C96.8474 45.1174 97.3276 48.1332 97.8479 51.1089C98.008 52.1142 97.9279 52.9988 97.0475 53.6422C96.167 54.2856 95.2866 54.0845 94.4061 53.602C91.6448 52.1142 88.8834 50.7068 86.162 49.2189C85.4817 48.857 85.0014 48.857 84.321 49.2189C81.5196 50.747 78.6782 52.2348 75.7968 53.7226C74.1159 54.6475 72.5151 53.5618 72.5951 51.511ZM77.5577 48.0126C79.6387 46.9269 81.4796 46.0422 83.2405 44.9967C84.6812 44.1523 85.8818 44.1121 87.3225 44.9967C89.0834 46.0824 90.9644 46.9269 93.0054 48.0126C92.6052 45.6401 92.3651 43.5089 91.8849 41.4179C91.5647 39.9703 91.9249 38.965 92.9654 37.9597C94.5262 36.4719 95.9669 34.8232 97.4877 33.2148C95.8068 32.9735 94.086 32.5312 92.3651 32.491C90.044 32.4106 88.5632 31.4455 87.7628 29.2338C87.1625 27.545 86.202 25.9767 85.3215 24.1672C84.361 26.0974 83.4006 27.6656 82.8003 29.3947C81.9999 31.5661 80.5592 32.4106 78.3581 32.5312C76.5972 32.6116 74.8363 33.0539 73.1554 33.2952C74.7963 35.0243 76.357 36.7132 77.9579 38.3216C78.7583 39.1259 79.0384 39.9703 78.7983 41.0962C78.318 43.2676 77.9979 45.5195 77.5577 48.0126Z" fill="#555555"/>
<path d="M149.634 51.4706C150.154 48.495 150.635 45.3182 151.235 42.1818C151.435 41.2167 151.195 40.6135 150.515 39.9299C148.353 37.9193 146.312 35.8283 144.191 33.7776C143.431 33.0135 142.751 32.2495 143.151 31.0834C143.551 29.8771 144.592 29.6358 145.672 29.4749C148.674 29.0326 151.675 28.6305 154.637 28.148C155.117 28.0675 155.717 27.585 155.957 27.1427C157.358 24.4083 158.719 21.6337 160.039 18.8591C160.52 17.894 161.12 17.2104 162.241 17.2104C163.361 17.2104 163.961 17.894 164.442 18.8591C165.762 21.6337 167.123 24.4083 168.524 27.1427C168.764 27.585 169.364 28.0273 169.884 28.1078C172.886 28.6305 175.847 29.0326 178.849 29.4749C179.969 29.6358 180.97 29.8771 181.37 31.1236C181.73 32.2897 181.05 33.0538 180.29 33.8178C178.129 35.9088 176.047 38.04 173.846 40.0908C173.206 40.6939 173.086 41.2971 173.206 42.1013C173.766 45.1172 174.247 48.1733 174.767 51.2293C174.927 52.2346 174.847 53.1193 173.966 53.7224C173.086 54.3658 172.206 54.1246 171.325 53.642C168.644 52.1944 165.962 50.8272 163.321 49.3796C162.481 48.8971 161.84 48.9373 161 49.4198C158.279 50.9076 155.517 52.3955 152.716 53.8029C151.155 54.6473 149.514 53.5616 149.634 51.4706ZM162.321 24.1268C161.2 26.4189 160.159 28.4294 159.199 30.4802C158.719 31.4855 157.998 32.0485 156.878 32.2093C154.597 32.4908 152.356 32.8929 150.154 33.2146C151.755 34.9437 153.276 36.5924 154.877 38.2008C155.717 39.0453 155.997 39.9299 155.757 41.096C155.317 43.3077 154.997 45.5595 154.557 48.0124C156.678 46.8865 158.639 45.9214 160.52 44.8357C161.72 44.1521 162.801 44.1521 164.041 44.8357C165.922 45.9214 167.883 46.8865 170.004 48.0124C169.604 45.5997 169.284 43.3881 168.844 41.2167C168.564 39.9299 168.924 39.0051 169.844 38.1204C171.405 36.5522 172.886 34.9035 174.487 33.2548C172.286 32.9331 170.084 32.531 167.843 32.2495C166.643 32.0887 165.922 31.5257 165.402 30.4802C164.482 28.4294 163.441 26.4189 162.321 24.1268Z" fill="#555555"/>
<path d="M125.942 122.363C125.982 123.529 125.021 124.534 123.861 124.534C122.7 124.575 121.7 123.61 121.7 122.443C121.66 121.277 122.62 120.272 123.781 120.272C124.901 120.272 125.902 121.197 125.942 122.363Z" fill="#555555"/>
<path d="M8.69336 140.338C9.88932 140.338 10.9922 140.535 12.002 140.929C13.0189 141.315 13.8962 141.863 14.6338 142.572C15.3714 143.274 15.9479 144.119 16.3633 145.107C16.7786 146.096 16.9863 147.188 16.9863 148.384C16.9863 149.064 16.9076 149.734 16.75 150.393C16.5924 151.051 16.3597 151.674 16.0518 152.262C15.751 152.849 15.3786 153.393 14.9346 153.895C14.4906 154.389 13.9821 154.818 13.4092 155.184C12.8434 155.542 12.2168 155.821 11.5293 156.021C10.8418 156.229 10.1006 156.333 9.30566 156.333C8.1097 156.333 7.00326 156.143 5.98633 155.764C4.97656 155.377 4.10286 154.833 3.36523 154.131C2.6276 153.429 2.05111 152.588 1.63574 151.606C1.22038 150.618 1.0127 149.522 1.0127 148.319C1.0127 147.639 1.09147 146.969 1.24902 146.311C1.40658 145.652 1.63574 145.025 1.93652 144.431C2.24447 143.836 2.61686 143.292 3.05371 142.798C3.49772 142.297 4.0026 141.863 4.56836 141.498C5.14128 141.133 5.77148 140.85 6.45898 140.649C7.15365 140.442 7.89844 140.338 8.69336 140.338ZM9.30566 155.366C10.1006 155.366 10.8275 155.223 11.4863 154.937C12.1452 154.65 12.7109 154.235 13.1836 153.69C13.6634 153.146 14.0358 152.484 14.3008 151.703C14.5658 150.915 14.6982 150.024 14.6982 149.028C14.6982 147.925 14.5693 146.905 14.3115 145.967C14.0609 145.021 13.6849 144.205 13.1836 143.518C12.6823 142.823 12.0557 142.282 11.3037 141.896C10.5589 141.502 9.6888 141.305 8.69336 141.305C7.89844 141.305 7.17155 141.448 6.5127 141.734C5.85384 142.014 5.28451 142.422 4.80469 142.959C4.33203 143.496 3.96322 144.155 3.69824 144.936C3.43327 145.716 3.30078 146.604 3.30078 147.6C3.30078 148.695 3.42611 149.719 3.67676 150.672C3.92741 151.617 4.30339 152.437 4.80469 153.132C5.30599 153.826 5.93262 154.374 6.68457 154.775C7.43652 155.169 8.31022 155.366 9.30566 155.366ZM30.4355 144.807C30.4355 144.198 30.4284 143.668 30.4141 143.217C30.3997 142.758 30.3783 142.365 30.3496 142.035C30.321 141.699 30.2887 141.419 30.2529 141.197C30.2171 140.975 30.1777 140.789 30.1348 140.639V140.596H32.0469V140.639C32.0039 140.789 31.9609 140.975 31.918 141.197C31.8822 141.419 31.8499 141.699 31.8213 142.035C31.7998 142.365 31.7783 142.758 31.7568 143.217C31.7425 143.668 31.7354 144.198 31.7354 144.807V150.607C31.7354 151.632 31.5885 152.505 31.2949 153.229C31.0013 153.952 30.5931 154.546 30.0703 155.012C29.5475 155.47 28.9209 155.803 28.1904 156.011C27.46 156.226 26.6615 156.333 25.7949 156.333C24.9284 156.333 24.1191 156.233 23.3672 156.032C22.6224 155.832 21.9707 155.509 21.4121 155.065C20.8607 154.614 20.4274 154.034 20.1123 153.325C19.7972 152.609 19.6396 151.739 19.6396 150.715V144.807C19.6396 144.198 19.6325 143.668 19.6182 143.217C19.6038 142.758 19.5824 142.365 19.5537 142.035C19.5251 141.699 19.4893 141.419 19.4463 141.197C19.4105 140.975 19.3711 140.789 19.3281 140.639V140.596H21.9062V140.639C21.8633 140.789 21.8203 140.975 21.7773 141.197C21.7415 141.419 21.7093 141.699 21.6807 142.035C21.652 142.365 21.6305 142.758 21.6162 143.217C21.6019 143.668 21.5947 144.198 21.5947 144.807V150.833C21.5947 151.685 21.7201 152.391 21.9707 152.949C22.2285 153.501 22.5651 153.941 22.9805 154.271C23.3958 154.593 23.8685 154.818 24.3984 154.947C24.9284 155.076 25.4691 155.141 26.0205 155.141C26.5719 155.141 27.1126 155.076 27.6426 154.947C28.1725 154.818 28.6416 154.593 29.0498 154.271C29.4652 153.941 29.7982 153.501 30.0488 152.949C30.3066 152.391 30.4355 151.685 30.4355 150.833V144.807ZM39.083 141.541C38.238 141.541 37.4753 141.58 36.7949 141.659C36.1146 141.731 35.5273 141.81 35.0332 141.896C34.4603 142.003 33.9482 142.121 33.4971 142.25L33.8086 140.51C33.8945 140.517 34.0234 140.524 34.1953 140.531C34.3672 140.538 34.557 140.546 34.7646 140.553C34.9795 140.56 35.2015 140.567 35.4307 140.574C35.667 140.574 35.889 140.578 36.0967 140.585C36.3044 140.585 36.487 140.589 36.6445 140.596C36.8092 140.596 36.9274 140.596 36.999 140.596H43.1328C43.2044 140.596 43.319 140.596 43.4766 140.596C43.6413 140.589 43.8275 140.585 44.0352 140.585C44.2428 140.578 44.4613 140.574 44.6904 140.574C44.9268 140.567 45.1488 140.56 45.3564 140.553C45.5713 140.546 45.7646 140.538 45.9365 140.531C46.1084 140.524 46.2373 140.517 46.3232 140.51L46.6348 142.25C46.1764 142.121 45.6608 142.003 45.0879 141.896C44.5938 141.81 44.0065 141.731 43.3262 141.659C42.6458 141.58 41.8831 141.541 41.0381 141.541V151.8C41.0381 152.409 41.0452 152.942 41.0596 153.4C41.0811 153.852 41.1025 154.242 41.124 154.571C41.1527 154.901 41.1849 155.176 41.2207 155.398C41.2637 155.62 41.3066 155.807 41.3496 155.957V156H38.7822V155.957C38.8252 155.807 38.8646 155.62 38.9004 155.398C38.9362 155.176 38.9684 154.901 38.9971 154.571C39.0257 154.242 39.0472 153.852 39.0615 153.4C39.0758 152.942 39.083 152.409 39.083 151.8V141.541ZM54.6055 143.045H54.3691C54.3118 142.88 54.2188 142.694 54.0898 142.486C53.9681 142.279 53.8034 142.085 53.5957 141.906C53.3952 141.72 53.1481 141.566 52.8545 141.444C52.568 141.323 52.2279 141.262 51.834 141.262C51.4831 141.262 51.1715 141.315 50.8994 141.423C50.6273 141.53 50.3981 141.681 50.2119 141.874C50.0329 142.067 49.8968 142.297 49.8037 142.562C49.7106 142.826 49.6641 143.12 49.6641 143.442C49.6641 143.958 49.8073 144.452 50.0938 144.925C50.3874 145.39 50.7526 145.852 51.1895 146.311C51.6263 146.769 52.099 147.227 52.6074 147.686C53.1159 148.144 53.5885 148.62 54.0254 149.114C54.4622 149.608 54.8239 150.128 55.1104 150.672C55.404 151.209 55.5508 151.789 55.5508 152.412C55.5508 152.878 55.4684 153.347 55.3037 153.819C55.1462 154.285 54.8991 154.704 54.5625 155.076C54.2259 155.449 53.7926 155.753 53.2627 155.989C52.7327 156.218 52.1025 156.333 51.3721 156.333C50.9639 156.333 50.5736 156.294 50.2012 156.215C49.8359 156.143 49.4958 156.054 49.1807 155.946C48.8727 155.832 48.5934 155.71 48.3428 155.581C48.0993 155.452 47.8988 155.334 47.7412 155.227L47.9883 152.853H48.2568C48.3356 153.189 48.4645 153.511 48.6436 153.819C48.8226 154.12 49.041 154.389 49.2988 154.625C49.5638 154.854 49.8646 155.04 50.2012 155.184C50.5378 155.32 50.9066 155.388 51.3076 155.388C51.6729 155.388 51.9987 155.334 52.2852 155.227C52.5788 155.112 52.8294 154.958 53.0371 154.765C53.2448 154.564 53.4023 154.328 53.5098 154.056C53.6243 153.784 53.6816 153.486 53.6816 153.164C53.6816 152.713 53.5993 152.298 53.4346 151.918C53.2699 151.531 53.0514 151.166 52.7793 150.822C52.5143 150.479 52.21 150.146 51.8662 149.823C51.5296 149.501 51.1823 149.179 50.8242 148.856C50.4661 148.527 50.1152 148.19 49.7715 147.847C49.4349 147.503 49.1305 147.138 48.8584 146.751C48.5934 146.357 48.3786 145.938 48.2139 145.494C48.0492 145.043 47.9668 144.549 47.9668 144.012C47.9668 143.446 48.0742 142.938 48.2891 142.486C48.5111 142.028 48.8011 141.638 49.1592 141.315C49.5244 140.993 49.9362 140.746 50.3945 140.574C50.8529 140.402 51.3255 140.316 51.8125 140.316C52.1706 140.316 52.5 140.345 52.8008 140.402C53.1016 140.46 53.3701 140.528 53.6064 140.606C53.8499 140.685 54.0612 140.764 54.2402 140.843C54.4193 140.922 54.5661 140.986 54.6807 141.036L54.6055 143.045ZM62.2432 141.541C61.3981 141.541 60.6354 141.58 59.9551 141.659C59.2747 141.731 58.6875 141.81 58.1934 141.896C57.6204 142.003 57.1084 142.121 56.6572 142.25L56.9688 140.51C57.0547 140.517 57.1836 140.524 57.3555 140.531C57.5273 140.538 57.7171 140.546 57.9248 140.553C58.1396 140.56 58.3617 140.567 58.5908 140.574C58.8271 140.574 59.0492 140.578 59.2568 140.585C59.4645 140.585 59.6471 140.589 59.8047 140.596C59.9694 140.596 60.0876 140.596 60.1592 140.596H66.293C66.3646 140.596 66.4792 140.596 66.6367 140.596C66.8014 140.589 66.9876 140.585 67.1953 140.585C67.403 140.578 67.6214 140.574 67.8506 140.574C68.0869 140.567 68.3089 140.56 68.5166 140.553C68.7314 140.546 68.9248 140.538 69.0967 140.531C69.2686 140.524 69.3975 140.517 69.4834 140.51L69.7949 142.25C69.3366 142.121 68.821 142.003 68.248 141.896C67.7539 141.81 67.1667 141.731 66.4863 141.659C65.806 141.58 65.0433 141.541 64.1982 141.541V151.8C64.1982 152.409 64.2054 152.942 64.2197 153.4C64.2412 153.852 64.2627 154.242 64.2842 154.571C64.3128 154.901 64.3451 155.176 64.3809 155.398C64.4238 155.62 64.4668 155.807 64.5098 155.957V156H61.9424V155.957C61.9854 155.807 62.0247 155.62 62.0605 155.398C62.0964 155.176 62.1286 154.901 62.1572 154.571C62.1859 154.242 62.2074 153.852 62.2217 153.4C62.236 152.942 62.2432 152.409 62.2432 151.8V141.541ZM80.9023 156V155.957C80.9167 155.921 80.9274 155.868 80.9346 155.796C80.9417 155.724 80.9453 155.66 80.9453 155.603C80.9453 155.381 80.9131 155.137 80.8486 154.872C80.7913 154.6 80.6768 154.263 80.5049 153.862L79.2051 150.94C78.804 150.926 78.2705 150.919 77.6045 150.919C76.9385 150.919 76.2188 150.919 75.4453 150.919C74.8796 150.919 74.3317 150.919 73.8018 150.919C73.279 150.919 72.8063 150.926 72.3838 150.94L71.1484 153.776C71.041 154.041 70.9264 154.331 70.8047 154.646C70.6829 154.962 70.6221 155.28 70.6221 155.603C70.6221 155.696 70.6292 155.774 70.6436 155.839C70.6579 155.896 70.6722 155.936 70.6865 155.957V156H68.4951V155.957C68.624 155.821 68.7852 155.581 68.9785 155.237C69.1719 154.886 69.3831 154.45 69.6123 153.927L75.7676 140.273H76.627L82.46 153.4C82.596 153.708 82.7357 154.009 82.8789 154.303C83.0293 154.589 83.1689 154.847 83.2979 155.076C83.4268 155.305 83.5413 155.499 83.6416 155.656C83.7419 155.814 83.8099 155.914 83.8457 155.957V156H80.9023ZM73.9414 149.995C74.3568 149.995 74.7829 149.995 75.2197 149.995C75.6566 149.988 76.0827 149.984 76.498 149.984C76.9206 149.977 77.3252 149.974 77.7119 149.974C78.0986 149.966 78.4495 149.959 78.7646 149.952L75.7461 143.131L72.7812 149.995H73.9414ZM85.7793 140.596L96.8438 152.369V144.807C96.8438 144.198 96.8366 143.668 96.8223 143.217C96.8079 142.758 96.7865 142.365 96.7578 142.035C96.7292 141.699 96.6934 141.419 96.6504 141.197C96.6146 140.975 96.5752 140.789 96.5322 140.639V140.596H98.4443V140.639C98.4014 140.789 98.362 140.975 98.3262 141.197C98.2904 141.419 98.2581 141.699 98.2295 142.035C98.2008 142.365 98.1794 142.758 98.165 143.217C98.1507 143.668 98.1436 144.198 98.1436 144.807V156.215H97.7676L86.7031 144.452V151.8C86.7031 152.409 86.7103 152.942 86.7246 153.4C86.7389 153.852 86.7604 154.242 86.7891 154.571C86.8177 154.901 86.8499 155.176 86.8857 155.398C86.9215 155.62 86.9609 155.807 87.0039 155.957V156H85.0918V155.957C85.1348 155.807 85.1742 155.62 85.21 155.398C85.2529 155.176 85.2887 154.901 85.3174 154.571C85.346 154.242 85.3675 153.852 85.3818 153.4C85.3962 152.942 85.4033 152.409 85.4033 151.8V144.807C85.4033 144.198 85.3962 143.668 85.3818 143.217C85.3675 142.758 85.346 142.365 85.3174 142.035C85.2887 141.699 85.2529 141.419 85.21 141.197C85.1742 140.975 85.1348 140.789 85.0918 140.639V140.596H85.7793ZM103.794 141.52C103.78 142.322 103.765 143.099 103.751 143.851C103.744 144.173 103.737 144.502 103.729 144.839C103.729 145.175 103.726 145.508 103.719 145.838C103.719 146.16 103.715 146.472 103.708 146.772C103.708 147.066 103.708 147.327 103.708 147.557C103.708 148.036 103.712 148.617 103.719 149.297C103.726 149.977 103.733 150.675 103.74 151.392C103.755 152.108 103.772 152.795 103.794 153.454C103.815 154.113 103.84 154.661 103.869 155.098C103.969 155.112 104.102 155.13 104.267 155.151C104.438 155.166 104.618 155.18 104.804 155.194C104.99 155.201 105.173 155.209 105.352 155.216C105.531 155.223 105.681 155.227 105.803 155.227C106.304 155.227 106.816 155.194 107.339 155.13C107.869 155.058 108.377 154.929 108.864 154.743C109.358 154.557 109.82 154.303 110.25 153.98C110.687 153.651 111.066 153.229 111.389 152.713C111.718 152.197 111.976 151.578 112.162 150.854C112.348 150.124 112.441 149.265 112.441 148.276C112.441 147.181 112.309 146.207 112.044 145.354C111.779 144.495 111.389 143.772 110.873 143.185C110.365 142.597 109.731 142.153 108.972 141.853C108.22 141.545 107.353 141.391 106.372 141.391C106.179 141.391 105.96 141.398 105.717 141.412C105.473 141.419 105.23 141.43 104.986 141.444C104.75 141.451 104.524 141.466 104.31 141.487C104.102 141.502 103.93 141.512 103.794 141.52ZM101.441 140.553C101.606 140.56 101.76 140.567 101.903 140.574C102.025 140.581 102.15 140.589 102.279 140.596C102.408 140.596 102.512 140.596 102.591 140.596C102.727 140.596 102.952 140.589 103.268 140.574C103.59 140.56 103.955 140.546 104.363 140.531C104.771 140.517 105.194 140.503 105.631 140.488C106.075 140.474 106.49 140.467 106.877 140.467C107.915 140.467 108.904 140.596 109.842 140.854C110.78 141.111 111.604 141.534 112.312 142.121C113.021 142.708 113.584 143.478 113.999 144.431C114.414 145.383 114.622 146.554 114.622 147.943C114.622 148.939 114.511 149.834 114.289 150.629C114.074 151.424 113.77 152.126 113.376 152.734C112.982 153.343 112.509 153.866 111.958 154.303C111.414 154.732 110.809 155.087 110.143 155.366C109.484 155.646 108.778 155.85 108.026 155.979C107.274 156.107 106.497 156.172 105.695 156.172C105.409 156.172 105.062 156.161 104.653 156.14C104.252 156.125 103.848 156.107 103.439 156.086C103.031 156.064 102.645 156.043 102.279 156.021C101.921 156.007 101.642 156 101.441 156V155.957C101.484 155.807 101.524 155.62 101.56 155.398C101.603 155.176 101.638 154.901 101.667 154.571C101.696 154.242 101.717 153.852 101.731 153.4C101.746 152.942 101.753 152.409 101.753 151.8V144.807C101.753 144.198 101.746 143.664 101.731 143.206C101.717 142.741 101.696 142.343 101.667 142.014C101.638 141.677 101.603 141.394 101.56 141.165C101.524 140.936 101.484 140.746 101.441 140.596V140.553ZM117.243 155.957C117.286 155.807 117.326 155.62 117.361 155.398C117.397 155.176 117.429 154.901 117.458 154.571C117.487 154.242 117.508 153.852 117.522 153.4C117.537 152.942 117.544 152.409 117.544 151.8V144.807C117.544 144.198 117.537 143.668 117.522 143.217C117.508 142.758 117.487 142.365 117.458 142.035C117.429 141.699 117.397 141.419 117.361 141.197C117.326 140.975 117.286 140.789 117.243 140.639V140.596H119.811V140.639C119.768 140.789 119.725 140.975 119.682 141.197C119.646 141.419 119.614 141.699 119.585 142.035C119.563 142.365 119.542 142.758 119.521 143.217C119.506 143.668 119.499 144.198 119.499 144.807V151.8C119.499 152.409 119.506 152.942 119.521 153.4C119.542 153.852 119.563 154.242 119.585 154.571C119.614 154.901 119.646 155.176 119.682 155.398C119.725 155.62 119.768 155.807 119.811 155.957V156H117.243V155.957ZM123.592 140.596L134.656 152.369V144.807C134.656 144.198 134.649 143.668 134.635 143.217C134.62 142.758 134.599 142.365 134.57 142.035C134.542 141.699 134.506 141.419 134.463 141.197C134.427 140.975 134.388 140.789 134.345 140.639V140.596H136.257V140.639C136.214 140.789 136.174 140.975 136.139 141.197C136.103 141.419 136.071 141.699 136.042 142.035C136.013 142.365 135.992 142.758 135.978 143.217C135.963 143.668 135.956 144.198 135.956 144.807V156.215H135.58L124.516 144.452V151.8C124.516 152.409 124.523 152.942 124.537 153.4C124.551 153.852 124.573 154.242 124.602 154.571C124.63 154.901 124.662 155.176 124.698 155.398C124.734 155.62 124.773 155.807 124.816 155.957V156H122.904V155.957C122.947 155.807 122.987 155.62 123.022 155.398C123.065 155.176 123.101 154.901 123.13 154.571C123.159 154.242 123.18 153.852 123.194 153.4C123.209 152.942 123.216 152.409 123.216 151.8V144.807C123.216 144.198 123.209 143.668 123.194 143.217C123.18 142.758 123.159 142.365 123.13 142.035C123.101 141.699 123.065 141.419 123.022 141.197C122.987 140.975 122.947 140.789 122.904 140.639V140.596H123.592ZM152.811 154.195C152.811 154.274 152.8 154.356 152.778 154.442C152.764 154.528 152.725 154.6 152.66 154.657C152.338 154.901 151.987 155.126 151.607 155.334C151.235 155.535 150.83 155.71 150.394 155.86C149.957 156.011 149.484 156.125 148.976 156.204C148.474 156.29 147.934 156.333 147.354 156.333C146.05 156.333 144.861 156.143 143.787 155.764C142.713 155.377 141.789 154.833 141.016 154.131C140.249 153.429 139.655 152.588 139.232 151.606C138.81 150.618 138.599 149.522 138.599 148.319C138.599 147.639 138.685 146.969 138.856 146.311C139.035 145.652 139.293 145.025 139.63 144.431C139.966 143.836 140.382 143.292 140.876 142.798C141.37 142.297 141.932 141.863 142.562 141.498C143.2 141.133 143.898 140.85 144.657 140.649C145.424 140.442 146.251 140.338 147.139 140.338C147.482 140.338 147.833 140.356 148.191 140.392C148.549 140.42 148.904 140.467 149.255 140.531C149.606 140.589 149.942 140.66 150.265 140.746C150.594 140.832 150.906 140.929 151.199 141.036L151.93 143.023L151.844 143.066C151.564 142.816 151.242 142.583 150.877 142.368C150.512 142.153 150.121 141.967 149.706 141.81C149.291 141.652 148.854 141.53 148.396 141.444C147.944 141.351 147.486 141.305 147.021 141.305C146.118 141.305 145.291 141.448 144.539 141.734C143.787 142.014 143.139 142.422 142.595 142.959C142.058 143.496 141.639 144.155 141.338 144.936C141.037 145.716 140.887 146.604 140.887 147.6C140.887 148.695 141.03 149.712 141.316 150.65C141.603 151.589 142.029 152.401 142.595 153.089C143.16 153.776 143.866 154.317 144.711 154.711C145.563 155.098 146.555 155.291 147.687 155.291C148.188 155.291 148.635 155.252 149.029 155.173C149.423 155.094 149.756 154.997 150.028 154.883C150.3 154.761 150.505 154.632 150.641 154.496C150.784 154.353 150.855 154.224 150.855 154.109V153.69C150.855 153.189 150.848 152.756 150.834 152.391C150.82 152.025 150.798 151.71 150.77 151.445C150.741 151.173 150.709 150.94 150.673 150.747C150.637 150.554 150.594 150.375 150.544 150.21V150.167H153.122V150.21C153.079 150.36 153.036 150.539 152.993 150.747C152.957 150.948 152.925 151.188 152.896 151.467C152.868 151.746 152.846 152.076 152.832 152.455C152.818 152.827 152.811 153.261 152.811 153.755V154.195ZM164.444 151.8C164.444 152.409 164.451 152.942 164.466 153.4C164.487 153.852 164.509 154.242 164.53 154.571C164.559 154.901 164.591 155.176 164.627 155.398C164.67 155.62 164.713 155.807 164.756 155.957V156H162.178V155.957C162.221 155.807 162.26 155.62 162.296 155.398C162.339 155.176 162.371 154.901 162.393 154.571C162.421 154.242 162.443 153.852 162.457 153.4C162.479 152.949 162.489 152.416 162.489 151.8V144.807C162.489 144.198 162.479 143.668 162.457 143.217C162.443 142.758 162.421 142.365 162.393 142.035C162.371 141.706 162.339 141.43 162.296 141.208C162.26 140.979 162.221 140.789 162.178 140.639V140.596L162.629 140.639C162.765 140.653 162.915 140.664 163.08 140.671C163.252 140.671 163.427 140.671 163.606 140.671C163.886 140.671 164.262 140.639 164.734 140.574C165.214 140.503 165.823 140.467 166.561 140.467C167.248 140.467 167.882 140.56 168.462 140.746C169.049 140.932 169.558 141.204 169.987 141.562C170.417 141.921 170.75 142.361 170.986 142.884C171.23 143.399 171.352 143.987 171.352 144.646C171.352 145.161 171.284 145.641 171.147 146.085C171.019 146.522 170.832 146.919 170.589 147.277C170.353 147.635 170.066 147.954 169.729 148.233C169.393 148.506 169.017 148.735 168.602 148.921L172.372 154.217C172.558 154.482 172.73 154.711 172.888 154.904C173.052 155.098 173.206 155.266 173.35 155.409C173.5 155.545 173.643 155.66 173.779 155.753C173.915 155.839 174.055 155.907 174.198 155.957V156H171.094C171.072 155.864 171.001 155.685 170.879 155.463C170.764 155.234 170.628 155.008 170.471 154.786L166.668 149.426C166.503 149.44 166.339 149.454 166.174 149.469C166.009 149.476 165.841 149.479 165.669 149.479C165.468 149.479 165.264 149.472 165.057 149.458C164.856 149.444 164.652 149.419 164.444 149.383V151.8ZM164.444 148.545C164.638 148.588 164.835 148.62 165.035 148.642C165.236 148.656 165.429 148.663 165.615 148.663C166.152 148.663 166.643 148.584 167.087 148.427C167.531 148.262 167.907 148.015 168.215 147.686C168.53 147.356 168.773 146.948 168.945 146.461C169.117 145.967 169.203 145.39 169.203 144.731C169.203 144.194 169.142 143.707 169.021 143.271C168.899 142.834 168.716 142.465 168.473 142.164C168.236 141.856 167.936 141.62 167.57 141.455C167.205 141.283 166.779 141.197 166.292 141.197C165.798 141.197 165.404 141.222 165.11 141.272C164.817 141.323 164.595 141.376 164.444 141.434V148.545ZM175.176 140.596C176.071 140.596 176.959 140.592 177.84 140.585C178.728 140.578 179.541 140.571 180.278 140.563C181.016 140.549 181.646 140.531 182.169 140.51C182.692 140.488 183.046 140.46 183.232 140.424L182.706 141.853C182.47 141.788 182.194 141.731 181.879 141.681C181.607 141.638 181.274 141.598 180.88 141.562C180.493 141.52 180.046 141.498 179.537 141.498C179.365 141.498 179.158 141.505 178.914 141.52C178.678 141.527 178.449 141.537 178.227 141.552C177.969 141.566 177.707 141.58 177.442 141.595V147.46C178.18 147.453 178.846 147.431 179.44 147.396C180.035 147.36 180.54 147.324 180.955 147.288C181.442 147.245 181.872 147.195 182.244 147.138L181.911 148.695C181.417 148.631 180.912 148.57 180.396 148.513C179.952 148.463 179.469 148.42 178.946 148.384C178.424 148.341 177.922 148.319 177.442 148.319V155.055C178.287 155.055 179.064 155.019 179.773 154.947C180.482 154.876 181.102 154.793 181.632 154.7C182.248 154.6 182.81 154.482 183.318 154.346L183.007 156.086C182.921 156.079 182.792 156.072 182.62 156.064C182.448 156.057 182.255 156.05 182.04 156.043C181.832 156.036 181.61 156.029 181.374 156.021C181.145 156.021 180.926 156.018 180.719 156.011C180.511 156.011 180.325 156.007 180.16 156C180.003 156 179.888 156 179.816 156H175.176V155.957C175.219 155.807 175.258 155.62 175.294 155.398C175.337 155.176 175.373 154.901 175.401 154.571C175.43 154.242 175.451 153.852 175.466 153.4C175.48 152.942 175.487 152.409 175.487 151.8V144.807C175.487 144.198 175.48 143.668 175.466 143.217C175.451 142.758 175.43 142.365 175.401 142.035C175.373 141.699 175.337 141.419 175.294 141.197C175.258 140.975 175.219 140.789 175.176 140.639V140.596ZM186.928 140.596V140.639C186.913 140.674 186.903 140.728 186.896 140.8C186.888 140.871 186.885 140.936 186.885 140.993C186.885 141.215 186.913 141.462 186.971 141.734C187.035 141.999 187.153 142.332 187.325 142.733L192.084 153.465L196.682 142.819C196.789 142.554 196.904 142.264 197.025 141.949C197.147 141.634 197.208 141.315 197.208 140.993C197.208 140.907 197.201 140.836 197.187 140.778C197.172 140.714 197.158 140.667 197.144 140.639V140.596H199.346V140.639C199.21 140.775 199.045 141.018 198.852 141.369C198.658 141.72 198.447 142.153 198.218 142.669L192.062 156.333H191.203L185.37 143.195C185.234 142.887 185.091 142.59 184.94 142.304C184.797 142.017 184.661 141.759 184.532 141.53C184.403 141.294 184.289 141.097 184.188 140.939C184.088 140.782 184.02 140.682 183.984 140.639V140.596H186.928ZM200.538 155.957C200.581 155.807 200.62 155.62 200.656 155.398C200.692 155.176 200.724 154.901 200.753 154.571C200.782 154.242 200.803 153.852 200.817 153.4C200.832 152.942 200.839 152.409 200.839 151.8V144.807C200.839 144.198 200.832 143.668 200.817 143.217C200.803 142.758 200.782 142.365 200.753 142.035C200.724 141.699 200.692 141.419 200.656 141.197C200.62 140.975 200.581 140.789 200.538 140.639V140.596H203.105V140.639C203.062 140.789 203.02 140.975 202.977 141.197C202.941 141.419 202.909 141.699 202.88 142.035C202.858 142.365 202.837 142.758 202.815 143.217C202.801 143.668 202.794 144.198 202.794 144.807V151.8C202.794 152.409 202.801 152.942 202.815 153.4C202.837 153.852 202.858 154.242 202.88 154.571C202.909 154.901 202.941 155.176 202.977 155.398C203.02 155.62 203.062 155.807 203.105 155.957V156H200.538V155.957ZM206.285 140.596C207.18 140.596 208.068 140.592 208.949 140.585C209.837 140.578 210.65 140.571 211.388 140.563C212.125 140.549 212.756 140.531 213.278 140.51C213.801 140.488 214.156 140.46 214.342 140.424L213.815 141.853C213.579 141.788 213.303 141.731 212.988 141.681C212.716 141.638 212.383 141.598 211.989 141.562C211.603 141.52 211.155 141.498 210.646 141.498C210.475 141.498 210.267 141.505 210.023 141.52C209.787 141.527 209.558 141.537 209.336 141.552C209.078 141.566 208.817 141.58 208.552 141.595V147.46C209.289 147.453 209.955 147.431 210.55 147.396C211.144 147.36 211.649 147.324 212.064 147.288C212.551 147.245 212.981 147.195 213.354 147.138L213.021 148.695C212.526 148.631 212.021 148.57 211.506 148.513C211.062 148.463 210.578 148.42 210.056 148.384C209.533 148.341 209.032 148.319 208.552 148.319V155.055C209.397 155.055 210.174 155.019 210.883 154.947C211.592 154.876 212.211 154.793 212.741 154.7C213.357 154.6 213.919 154.482 214.428 154.346L214.116 156.086C214.03 156.079 213.901 156.072 213.729 156.064C213.558 156.057 213.364 156.05 213.149 156.043C212.942 156.036 212.72 156.029 212.483 156.021C212.254 156.021 212.036 156.018 211.828 156.011C211.62 156.011 211.434 156.007 211.27 156C211.112 156 210.997 156 210.926 156H206.285V155.957C206.328 155.807 206.368 155.62 206.403 155.398C206.446 155.176 206.482 154.901 206.511 154.571C206.539 154.242 206.561 153.852 206.575 153.4C206.59 152.942 206.597 152.409 206.597 151.8V144.807C206.597 144.198 206.59 143.668 206.575 143.217C206.561 142.758 206.539 142.365 206.511 142.035C206.482 141.699 206.446 141.419 206.403 141.197C206.368 140.975 206.328 140.789 206.285 140.639V140.596ZM227.125 142.626L231.422 153.057L235.601 142.819C235.765 142.397 235.887 142.039 235.966 141.745C236.045 141.451 236.084 141.201 236.084 140.993C236.084 140.929 236.08 140.864 236.073 140.8C236.066 140.728 236.055 140.674 236.041 140.639V140.596H238.168V140.639C238.025 140.796 237.867 141.047 237.695 141.391C237.531 141.734 237.337 142.16 237.115 142.669L231.379 156.333H230.562L226.384 146.192L222.57 156.333H221.765L216.501 143.195C216.372 142.887 216.24 142.59 216.104 142.304C215.975 142.017 215.849 141.759 215.728 141.53C215.613 141.301 215.509 141.108 215.416 140.95C215.316 140.793 215.244 140.689 215.201 140.639V140.596H218.177V140.639C218.162 140.717 218.155 140.778 218.155 140.821C218.155 140.864 218.155 140.914 218.155 140.972C218.155 141.215 218.18 141.473 218.23 141.745C218.288 142.017 218.395 142.347 218.553 142.733L222.592 152.938L226.448 142.669L227.125 142.626ZM245.816 143.045H245.58C245.523 142.88 245.43 142.694 245.301 142.486C245.179 142.279 245.014 142.085 244.807 141.906C244.606 141.72 244.359 141.566 244.065 141.444C243.779 141.323 243.439 141.262 243.045 141.262C242.694 141.262 242.382 141.315 242.11 141.423C241.838 141.53 241.609 141.681 241.423 141.874C241.244 142.067 241.108 142.297 241.015 142.562C240.922 142.826 240.875 143.12 240.875 143.442C240.875 143.958 241.018 144.452 241.305 144.925C241.598 145.39 241.964 145.852 242.4 146.311C242.837 146.769 243.31 147.227 243.818 147.686C244.327 148.144 244.799 148.62 245.236 149.114C245.673 149.608 246.035 150.128 246.321 150.672C246.615 151.209 246.762 151.789 246.762 152.412C246.762 152.878 246.679 153.347 246.515 153.819C246.357 154.285 246.11 154.704 245.773 155.076C245.437 155.449 245.004 155.753 244.474 155.989C243.944 156.218 243.313 156.333 242.583 156.333C242.175 156.333 241.785 156.294 241.412 156.215C241.047 156.143 240.707 156.054 240.392 155.946C240.084 155.832 239.804 155.71 239.554 155.581C239.31 155.452 239.11 155.334 238.952 155.227L239.199 152.853H239.468C239.547 153.189 239.675 153.511 239.854 153.819C240.034 154.12 240.252 154.389 240.51 154.625C240.775 154.854 241.076 155.04 241.412 155.184C241.749 155.32 242.118 155.388 242.519 155.388C242.884 155.388 243.21 155.334 243.496 155.227C243.79 155.112 244.04 154.958 244.248 154.765C244.456 154.564 244.613 154.328 244.721 154.056C244.835 153.784 244.893 153.486 244.893 153.164C244.893 152.713 244.81 152.298 244.646 151.918C244.481 151.531 244.262 151.166 243.99 150.822C243.725 150.479 243.421 150.146 243.077 149.823C242.741 149.501 242.393 149.179 242.035 148.856C241.677 148.527 241.326 148.19 240.982 147.847C240.646 147.503 240.341 147.138 240.069 146.751C239.804 146.357 239.59 145.938 239.425 145.494C239.26 145.043 239.178 144.549 239.178 144.012C239.178 143.446 239.285 142.938 239.5 142.486C239.722 142.028 240.012 141.638 240.37 141.315C240.735 140.993 241.147 140.746 241.605 140.574C242.064 140.402 242.536 140.316 243.023 140.316C243.382 140.316 243.711 140.345 244.012 140.402C244.312 140.46 244.581 140.528 244.817 140.606C245.061 140.685 245.272 140.764 245.451 140.843C245.63 140.922 245.777 140.986 245.892 141.036L245.816 143.045Z" fill="#656565"/>
</svg>
