<svg width="35" height="35" viewBox="0 0 35 35" fill="none" xmlns="http://www.w3.org/2000/svg">
<path d="M34.3734 16.1617C34.3734 16.8679 34.3734 17.6012 34.3734 18.3074C34.3462 18.3888 34.319 18.4703 34.319 18.579C34.1017 21.5394 33.1783 24.2555 31.5215 26.6999C28.7783 30.7739 25.003 33.2727 20.1685 34.169C19.5438 34.2776 18.892 34.3591 18.2401 34.4406C17.534 34.4406 16.8007 34.4406 16.0945 34.4406C15.9858 34.4134 15.9044 34.3862 15.7957 34.3862C13.5957 34.2233 11.5316 33.6529 9.57602 32.6751C3.00323 29.3887 -0.744891 22.5444 0.124237 15.2111C0.694603 10.3222 3.00323 6.35684 6.96863 3.42353C12.5365 -0.704836 19.7883 -1.1394 25.7635 2.33711C30.3536 4.99882 33.124 9.01854 34.1017 14.2605C34.2376 14.8852 34.2919 15.537 34.3734 16.1617ZM7.29456 27.3246C7.78344 27.3246 8.16368 27.2974 8.57108 27.3246C8.92417 27.3517 9.14145 27.2159 9.35873 26.9443C11.4229 24.5271 13.4871 22.137 15.5513 19.7468C15.6328 19.6654 15.6871 19.5839 15.7957 19.4752C15.8772 19.611 15.9587 19.7197 16.0402 19.8283C17.6969 22.2456 19.3537 24.6357 20.9833 27.053C21.092 27.2159 21.2006 27.3246 21.4451 27.3246C23.2105 27.3246 24.9759 27.3246 26.7413 27.3246C26.8228 27.3246 26.9043 27.2974 27.0129 27.2974C24.324 23.4135 21.6895 19.5296 19.0278 15.7C21.4722 12.8481 23.9166 10.0235 26.3882 7.14448C25.8722 7.14448 25.4648 7.17164 25.0302 7.14448C24.7314 7.11732 24.5685 7.22596 24.3784 7.44325C22.4228 9.75187 20.4401 12.0333 18.4846 14.3148C18.4031 14.3963 18.3488 14.4778 18.2673 14.5592C18.1587 14.3963 18.05 14.2333 17.9414 14.0975C16.4204 11.8704 14.8723 9.64323 13.3513 7.41609C13.2427 7.25312 13.134 7.14448 12.8896 7.14448C11.1241 7.14448 9.35873 7.14448 7.59331 7.14448C7.51183 7.14448 7.43035 7.17164 7.32171 7.17164C9.90194 10.9198 12.455 14.6407 15.0081 18.3617C12.455 21.3221 9.90194 24.2826 7.29456 27.3246Z" fill="#F6D2E6"/>
<path d="M24.65 26.0753C23.7537 26.0753 22.9389 26.0753 22.1241 26.0753C22.0155 26.0753 21.8796 25.9395 21.7982 25.8308C19.7883 22.9518 17.7785 20.0728 15.7686 17.1938C13.8131 14.3963 11.8575 11.5988 9.90197 8.80133C9.82049 8.69268 9.76617 8.6112 9.68469 8.4754C9.79333 8.4754 9.87481 8.44824 9.9563 8.44824C10.6625 8.44824 11.3686 8.44824 12.0748 8.44824C12.2106 8.44824 12.4007 8.52972 12.4822 8.63836C16.5019 14.3692 20.4945 20.1 24.487 25.8308C24.5414 25.8851 24.5685 25.9395 24.65 26.0753Z" fill="#F6D2E6"/>
</svg>
