<svg width="322" height="408" viewBox="0 0 322 408" fill="none" xmlns="http://www.w3.org/2000/svg">
<path d="M157.816 234.284C141.541 208.234 138.421 177.892 129.334 164.941C120.247 151.989 99.6081 119.412 94.7685 102.936C89.9289 86.4601 93.8861 57.8077 91.1668 30.2621C88.6273 2.6658 72.4783 -2.28301 65.7358 2.72078C59.0719 7.3146 65.7651 35.8729 69.2748 57.9598C72.6047 80.0974 81.5856 94.0484 91.8782 114.029C101.991 134.06 114.16 153.124 114.16 153.124C114.16 153.124 123.912 139.515 132.785 120.724C141.478 101.983 158.656 92.6796 172.035 69.9032C185.414 47.1267 174.481 26.9391 174.481 26.9391C174.481 26.9391 137.369 55.0495 129.18 69.3815C120.991 83.7135 120.752 106.276 119.28 122.398C117.449 138.622 116.853 153.722 133.395 142.852C149.988 132.163 175.15 87.8352 200.8 70.7131C226.63 53.5403 224.92 64.688 227.05 78.4377C229.23 92.3669 211.024 115.923 198.022 126.957C184.841 138.043 165.569 137.853 145.041 144.223C124.692 150.542 124.441 155.849 108.525 157.234C92.7885 158.568 74.0536 152.021 39.5572 139.834C5.06085 127.648 4.98464 134.263 1.42056 147.097C-2.14353 159.931 25.056 167.581 50.1686 170.585C75.4611 173.537 85.2635 160.108 101.012 162.261C116.761 164.413 125.327 165.877 125.327 165.877C125.327 165.877 120.469 161.041 114.641 161.714C108.864 162.568 73.5489 170.198 46.8043 191.701C20.5207 213.462 20.8311 246.922 20.8311 246.922C20.8311 246.922 61.6578 234.054 72.904 218.86C84.0995 203.486 97.6811 181.428 104.816 174.375C112.131 167.27 125.467 162.929 129.848 185.352C133.322 203.182 147.186 228.943 152.871 238.781C154.12 241.144 157.094 242.051 159.459 240.802C165.399 237.77 176.407 231.37 184.828 223.371C197.088 211.77 233.264 193.425 246.458 172.059C259.652 150.692 259.017 135.357 259.017 135.357C259.017 135.357 251.447 135.359 240.702 139.939C229.778 144.571 206.914 157.805 185.516 183.812C164.349 209.948 167.676 239.649 160.226 248.343C152.777 257.036 133.363 267.358 112.664 284.829C91.9149 302.121 55.1611 310.157 55.1611 310.157C55.1611 310.157 56.4636 291.367 67.9528 279.789C79.442 268.211 100.12 256.176 125.843 253.771C151.567 251.366 163.488 254.404 184.526 256.035C205.563 257.667 252.912 250.716 271.029 244.056C289.197 237.576 300.937 220.692 300.274 219.715C299.61 218.739 274.961 208.43 252.515 212.819C230.069 217.209 184.056 230.958 169.162 246.987C154.218 262.835 152.839 288.24 143.442 316.875C134.044 345.51 102.725 368.69 102.725 368.69C102.725 368.69 93.6231 346.047 99.0389 325.322C104.455 304.597 128.621 286.342 145.391 269.397C162.161 252.451 176.626 261.753 179.806 289.557C181.971 307.563 196.79 331.891 207.024 346.846C212.946 355.454 225.805 354.931 230.792 345.768L230.921 345.538C236.116 335.734 252.231 308.89 256.17 291.878C260.16 275.045 255.515 254.442 255.515 254.442C255.515 254.442 231.778 261.135 225.617 275.089C219.637 288.992 218.604 338.345 220.268 353.195C220.291 353.965 220.443 354.504 220.645 355.222C223.016 366.383 236.961 370.402 244.922 362.146C249.714 357.11 256.513 350.927 264.334 345.619C280.337 334.901 297.717 326.316 304.89 315.955C312.114 305.774 323.12 279.4 320.385 269.7C317.65 259.999 303.327 267.722 285.607 284.742C267.886 301.761 244.115 324.171 236.851 345.223C233.555 354.879 231.159 364.281 229.565 371.711C227.764 379.782 221.376 386.043 212.98 387.247C203.864 388.654 191.355 391.793 177.908 398.493C152.273 411.539 116.419 405.553 116.574 398.528C116.599 391.733 134.712 372.664 158.168 365.663C181.625 358.661 228.874 357.556 238.068 383.276C239.744 387.846 235.193 390.292 233.602 390.159C232.011 390.026 208.916 355.621 208.719 339.775C208.702 323.878 189.564 308.331 186.28 287.731C182.996 267.132 174.557 259.234 174.557 259.234" stroke="white" stroke-width="2" stroke-miterlimit="10" stroke-linecap="round" stroke-linejoin="round"/>
</svg>
