<svg width="354" height="373" viewBox="0 0 354 373" fill="none" xmlns="http://www.w3.org/2000/svg">
<path d="M78.5558 210.391C78.5558 210.391 80.6407 211.966 89.9149 221.175C99.1891 230.384 106.542 240.887 113.117 259.082C119.692 277.278 112.574 294.081 112.574 294.081C112.574 294.081 98.2936 286.01 96.3002 267.428C94.3069 248.847 87.575 251.984 79.7584 229.319C72.092 206.738 76.4513 204.64 76.4513 204.64C76.4513 204.64 83.1635 211.012 92.0783 212.084C100.993 213.156 122.038 220.489 128.476 245.946C134.913 271.402 120.136 289.826 107.424 314.773C107.424 314.773 120.267 294.859 138.031 273.958C155.795 253.056 169.298 246.011 189.049 246.861C208.8 247.71 225.858 254.377 225.858 254.377C225.858 254.377 208.63 270.821 192.16 275.396C175.69 279.971 143.567 276.095 143.567 276.095C143.567 276.095 152.135 262.69 173.174 259.507C194.297 256.174 212.231 257.782 212.231 257.782" stroke="white" stroke-width="2" stroke-miterlimit="10" stroke-linecap="round" stroke-linejoin="round"/>
<path d="M138.116 273.807C155.285 249.396 164.638 229.691 181.977 200.418C199.166 171.059 207.31 153.844 211.075 139.113C214.839 124.381 216.787 114.97 208.049 101.303C199.225 87.7874 190.67 81.1667 178.448 78.2256C166.227 75.2845 162.952 75.8139 163.397 79.2386C163.756 82.8136 167.939 93.31 166.534 104.218C165.063 114.891 198.389 137.694 202.931 138.08C207.709 138.4 214.388 128.688 235.159 123.172C255.929 117.656 264.204 105.473 266.38 94.6044C268.642 83.5851 269.615 76.5984 266.753 73.592C263.89 70.5855 239.858 65.7294 228.081 79.8989C216.454 94.1533 208.63 124.839 208.63 124.839C208.63 124.839 200.278 115.754 199.408 99.3949C198.539 83.0359 183.357 74.4545 191.474 60.7948C199.507 47.2855 229.904 53.1612 238.525 55.4552C242.191 56.3376 244.917 57.4813 246.956 58.4355C249.446 59.6447 250.936 62.272 250.649 64.8863L249.989 70.2652" stroke="white" stroke-width="2" stroke-miterlimit="10" stroke-linecap="round" stroke-linejoin="round"/>
<path d="M212.545 133.002C212.545 133.002 227.872 144.838 237.741 143.871C247.609 142.903 259.472 137.708 266.798 133.518C274.125 129.329 283.203 115.022 282.687 105.408C282.171 95.7939 257.067 95.2906 245.048 99.0094C233.028 102.728 217.133 120.322 217.133 120.322C221.016 107.839 218.826 97.6761 215.29 88.1404C214.879 87.1143 213.336 87.0359 212.977 88.0228C210.454 93.5389 209.088 99.1139 210.186 104.891" stroke="white" stroke-width="2" stroke-miterlimit="10" stroke-linecap="round" stroke-linejoin="round"/>
<path d="M274.53 229.326C274.53 229.326 283.588 229.09 290.32 225.953C296.902 222.731 293.536 222.019 295.81 213.784C298.085 205.549 301.353 194.503 294.418 195.542C287.484 196.582 270.373 192.464 266.7 194.751C262.942 197.189 263.615 199.157 271.086 198.222C278.406 197.202 293.379 188.608 293.02 185.033C292.66 181.458 289.83 180.85 291.118 176.817C292.556 172.87 294.464 168.792 287.301 166.726C280.138 164.661 271.092 167.68 263.589 170.778C256.152 174.112 242.387 184.778 233.976 195.098C225.564 205.418 234.178 206.32 240.557 201C246.936 195.679 262.191 183.079 268.38 173.883C274.569 164.687 274.354 159.805 268.269 159.341C262.184 158.877 255.472 161.628 244.08 166.694C232.688 171.759 231.845 179.216 226.309 190.765C220.774 202.313 216.395 204.797 221.342 209.378C226.375 213.81 224.453 224.228 238.178 228.018C251.903 231.809 253.335 240.155 265.922 234.378C278.51 228.6 287.131 217.208 285.647 211.411C284.164 205.614 277.367 208.516 265.726 201.738C254.086 194.961 245.211 193.117 233.263 198.464C221.466 203.895 184.481 208.973 165.939 228.443C165.939 228.443 163.364 209.136 157.155 191.346C150.946 173.556 137.58 164.216 125.47 157.569C113.359 150.922 110.359 150.615 111.274 153.909C112.274 157.053 125.241 163.589 129.339 165.112C133.437 166.634 143.201 166.203 143.201 166.203C143.201 166.203 127.136 143.04 112.764 138.289C98.2418 133.452 98.0653 136.923 93.0132 142.001C87.8107 146.994 80.5103 143.066 79.1051 149.413C77.6999 155.759 81.4906 160.282 96.1176 164.582C110.81 169.118 116.633 177.765 123.489 178.268C130.43 178.621 145.116 168.079 145.116 168.079C145.116 168.079 150.743 157.772 152.789 150.994C154.92 144.067 149.364 133.191 150.358 121.257C151.351 109.323 150.639 103.565 146.11 101.401C141.58 99.2379 127.143 107.937 123.483 113.009C119.823 118.08 121.77 136.041 130.103 145.511C130.103 145.511 129.849 136.838 128.509 125.172C127.084 113.656 127.215 109.564 119.339 106.303C111.464 103.042 106.457 108.741 100.216 111.362C94.1243 114.067 89.5558 108.113 82.8109 113.028C76.0661 117.943 72.3015 123.551 73.5563 130.805C74.9615 138.145 83.6148 142.838 83.6148 142.838C83.6148 142.838 74.3667 134.635 79.0986 125.211C83.8305 115.786 92.7714 117.865 95.0393 108.238C97.3072 98.6104 106.431 89.4865 116.934 91.2577C122.143 92.2185 125.319 93.6172 127.104 95.0223C128.672 96.1073 130.561 96.9765 132.574 96.9243C134.888 97.0419 137.999 98.2053 139.41 102.375" stroke="white" stroke-width="2" stroke-miterlimit="10" stroke-linecap="round" stroke-linejoin="round"/>
</svg>
