<svg width="218" height="377" viewBox="0 0 218 377" fill="none" xmlns="http://www.w3.org/2000/svg">
<path d="M211.257 39.9602C208.258 39.0819 205.113 38.7891 201.969 38.8623C195.825 39.0087 189.682 40.1065 183.612 41.058C186.757 39.3746 189.828 37.6181 192.9 35.7152C196.483 33.5195 200.067 31.1042 203.504 28.6158C205.918 26.8592 208.989 25.1758 210.086 22.2483C210.891 20.0526 209.867 17.7105 207.6 17.0518C205.698 16.4663 203.504 16.9786 201.676 17.4909C199.482 18.0764 197.361 18.9547 195.313 19.9062C193.997 20.5649 192.607 21.1504 191.364 22.0287C189.463 23.2729 187.707 24.6635 186.025 26.1273C186.025 26.0541 186.098 26.0541 186.098 25.9809C187.927 23.2729 189.828 20.6381 191.437 17.7837C193.046 15.0025 194.655 11.9285 195.167 8.70816C195.606 6.14652 195.679 2.34066 193.266 0.657298C191.072 -0.806496 188.146 0.437729 186.245 1.82833C181.637 5.34144 179.516 11.343 177.688 16.6126C175.275 23.6389 173.666 30.8846 171.691 38.0572C171.472 38.8623 171.764 39.4478 172.276 39.887C172.203 39.9602 172.13 39.9602 172.057 40.0333C171.179 40.9116 170.301 41.7899 169.351 42.7414C168.766 42.8877 168.4 43.3269 168.254 43.8392C160.94 51.2314 153.846 58.8431 147.118 66.7476C139.731 75.384 133.295 84.7522 127.445 94.4865C127.006 95.1452 126.64 95.8771 126.201 96.5358C128.322 90.2415 130.077 83.874 131.613 77.4333C133.149 70.9194 134.392 64.3323 135.343 57.7452C136.294 50.9386 137.098 44.0588 136.879 37.1789C136.66 29.494 135.124 21.8091 133.442 14.2706C133.149 12.9532 131.248 12.7336 130.589 13.9046C129.712 15.4416 129.931 17.2714 129.785 19.0279C129.639 20.8576 129.419 22.7606 129.127 24.5903C128.469 28.2498 127.518 31.9093 126.494 35.4956C124.446 42.8877 122.618 50.2799 121.009 57.7452C120.204 61.5511 119.4 65.357 118.815 69.236C118.23 73.1151 118.01 76.9941 118.083 80.9464C118.157 88.4117 119.18 95.8771 118.815 103.342C118.669 107.002 118.01 110.588 116.84 114.101C116.255 115.346 115.597 116.59 115.012 117.907C115.012 117.98 114.939 118.054 114.939 118.054C113.988 120.103 113.037 122.225 112.16 124.275C111.575 125.153 111.209 126.104 110.989 127.129C106.821 137.302 103.383 147.769 100.312 158.235C97.0939 169.067 94.3879 179.972 92.3402 191.097C91.7551 192.707 91.2432 194.317 90.7312 195.927C90.073 197.903 89.4879 199.953 88.976 202.002C87.7327 197.391 86.4163 192.707 85.2461 188.023C84.2954 184.144 83.7103 180.265 83.5641 176.313C83.4178 172.214 83.5641 168.115 83.7103 164.017C83.9297 156.405 83.5641 148.72 82.6133 141.181C81.6626 133.716 80.1267 126.324 77.3476 119.371C75.6656 115.199 73.6178 111.32 71.2775 107.441C70.1073 105.538 69.0103 103.635 67.8402 101.732C67.4745 101.074 67.0357 100.488 66.67 99.8293C66.1581 98.4387 65.573 97.1213 64.7685 95.9503C64.2566 95.2184 63.4521 94.8524 62.5745 95.2184C61.8432 95.5843 61.2581 96.4626 61.5506 97.2677C62.0626 98.8046 62.7939 100.195 63.5984 101.586C63.7447 101.952 63.8178 102.318 63.9641 102.684C64.6223 104.587 65.2073 106.49 65.7924 108.466C66.8894 112.418 67.767 116.517 68.4253 120.542C69.8148 128.739 70.473 137.083 70.9118 145.353C71.1312 149.598 71.2775 153.916 71.3506 158.161C71.4238 162.406 71.3506 166.651 71.4238 170.896C71.4969 175.141 71.7163 179.313 72.2282 183.485C72.667 187.511 73.179 191.609 74.276 195.488C74.8611 197.684 75.6656 199.733 76.6163 201.783C77.567 203.685 78.3715 205.662 79.3223 207.565C80.3461 209.614 81.6626 211.444 83.0521 213.273C83.7103 214.152 84.4417 215.03 85.173 215.835C85.8312 216.567 86.5626 217.152 87.0014 217.957C87.367 218.616 88.0253 218.909 88.7566 218.836C88.4641 222.568 88.1715 226.301 87.9521 230.107C87.5864 236.255 87.8059 242.403 88.0253 248.551C88.2447 254.625 88.3909 260.7 88.6835 266.775C89.2685 277.022 90.8044 287.195 92.6327 297.295C90.3655 291.001 88.1715 284.706 85.9775 278.412C83.0521 269.995 80.4924 261.505 78.5178 252.796C76.5432 244.013 74.7879 235.157 72.9596 226.301C69.376 208.516 65.9387 190.658 61.4775 173.092C60.8924 170.75 60.2342 168.408 59.576 166.066C59.7954 165.627 59.7223 165.041 59.5029 164.602C59.2103 163.943 58.9178 163.358 58.5521 162.699C58.3327 161.894 58.0402 161.162 57.8208 160.357C56.5044 156.185 54.8223 152.087 53.2865 147.915C52.2626 145.134 51.2387 142.353 50.2148 139.645C50.2148 139.571 50.2148 139.571 50.2148 139.498C49.9223 136.205 49.1909 132.911 48.5327 129.691C47.8745 126.47 47.3626 123.177 47.07 119.883C46.3387 113.077 46.3387 106.27 46.9238 99.4634C47.5088 92.6567 48.3865 85.8501 49.1909 79.1166C49.9954 72.3832 51.0924 65.7961 53.067 59.3554C53.579 57.7452 54.0909 56.1351 54.6029 54.5249C54.6029 54.4517 54.676 54.3785 54.676 54.3053C55.0417 54.5981 55.4805 54.8177 55.9193 55.0372C56.7969 55.4764 57.6745 55.8423 58.5521 56.2083C58.7715 56.2815 59.0641 56.4278 59.2835 56.501C59.576 56.6474 59.7954 56.7938 60.0879 56.9402C62.6476 58.3308 65.2073 59.8677 68.0596 60.8192C70.8387 61.7707 73.7641 62.0634 76.6163 62.283C78.7372 62.4294 81.0044 62.7221 83.0521 61.9171C85.6118 60.9656 87.2208 58.6235 87.367 55.8423C87.5864 50.1335 80.8581 47.5719 76.3238 46.7668C76.2506 46.7668 76.1775 46.7668 76.1775 46.7668C79.176 45.5958 82.0282 44.2052 84.6611 42.1558C86.5626 40.692 88.5372 38.8623 89.3417 36.5202C90.073 34.3977 88.9029 32.4948 86.782 31.9093C84.6611 31.3238 82.2476 31.7629 80.1267 32.202C77.567 32.7144 75.1536 33.6658 72.7402 34.6905C69.376 36.1543 66.085 38.2768 63.3059 40.7652C64.9148 37.1058 66.7432 33.4463 68.279 29.7868C69.7417 26.3469 70.8387 22.8338 71.2775 19.1743C71.4969 17.1982 71.6432 15.2952 71.3506 13.2459C71.2044 12.1481 70.9118 11.343 70.3267 10.3915C69.8879 9.65963 69.5223 8.78135 68.7178 8.34221C64.8417 6.21971 61.1118 12.0749 59.5029 14.7829C55.9924 20.6381 54.2372 27.2252 53.7253 33.9586C52.9939 32.0557 52.2626 30.1527 51.385 28.2498C50.1417 25.3954 48.679 22.541 46.7775 20.0526C45.1685 17.8569 42.0238 15.0025 39.4641 17.6373C37.7088 19.467 37.5626 22.3214 37.9282 24.7367C38.3671 27.5911 39.6835 30.2259 41.2193 32.6412C42.9014 35.2028 44.8029 37.6181 46.4118 40.2529C48.0939 43.0341 49.776 45.9617 51.2387 48.8893C51.5312 49.548 51.8238 50.1335 52.1163 50.7922C51.3118 53.2807 50.5073 55.7691 49.7029 58.1844C47.7282 64.4055 46.5581 70.6998 45.7536 77.1405C44.9491 83.5812 44.0715 90.0951 43.4865 96.609C42.9014 103.05 42.682 109.564 43.1939 116.004C43.4865 119.151 43.8521 122.299 44.3641 125.373C44.0715 124.787 43.779 124.201 43.4865 123.616C41.5118 119.81 39.0253 116.297 36.5387 112.857C33.979 109.271 31.4924 105.684 28.8596 102.098C24.5447 96.243 20.3029 89.4364 14.0865 85.4109C13.5745 85.045 12.9894 84.7522 12.4775 84.4595C12.6969 83.5812 12.4775 82.7029 12.185 81.7515C12.185 81.6783 12.1118 81.6051 12.1118 81.5319C12.8432 79.7753 13.3551 77.8724 13.5745 75.9695C14.0133 72.6759 14.379 69.3824 14.4521 66.0889C14.5984 62.7221 14.4521 59.4286 14.0865 56.0619C13.7208 52.9879 13.282 49.6944 11.9656 46.7668C11.7462 46.1813 11.4536 45.5958 11.0879 45.0834C10.7223 44.5711 10.4297 43.9124 9.99093 43.3269C9.25959 42.4486 7.50436 41.1312 6.04168 41.8631C5.38347 42.1558 4.57899 42.5218 4.21332 43.1073C3.70138 43.6928 3.40884 44.6443 3.1163 45.3762C2.53123 46.6936 2.16556 48.1574 1.87302 49.6212C1.43421 52.4756 1.28795 55.4764 1.21481 58.404C1.21481 61.4779 1.50735 64.5519 2.23869 67.5527C2.31182 67.8454 2.38496 68.1382 2.45809 68.4309C1.87302 67.6259 1.36108 66.8208 0.776005 66.0157C0.483467 65.6497 0.190929 65.2838 -0.101608 64.9178C-0.0284748 64.991 -0.0284729 64.991 -0.174742 64.8446C-0.174742 64.8446 -0.17474 64.7715 -0.247875 64.7715C-0.467278 64.5519 -0.613548 64.2591 -0.832952 64.0396C-1.27176 63.454 -1.7837 62.8685 -2.2225 62.283C-3.39265 60.8192 -4.63593 59.4286 -6.02549 58.1844C-7.41504 56.9402 -8.95086 55.6959 -10.8524 55.1104C-11.2912 54.964 -11.73 54.8909 -12.1688 54.8177C-12.315 54.8177 -12.4613 54.8177 -12.6807 54.8177C-12.827 54.8177 -12.9732 54.8177 -13.1195 54.8909C-13.0464 54.8909 -13.0464 54.8909 -13.1927 54.8909H-13.2658C-13.2658 54.8909 -13.2658 54.8909 -13.3389 54.8909C-13.3389 54.8909 -13.3389 54.8909 -13.2658 54.8909C-14.2165 55.0372 -15.0941 55.4032 -15.8255 56.0619C-17.8001 57.8916 -18.2389 60.9656 -17.215 63.3809C-16.63 64.7715 -15.6792 66.0157 -14.8016 67.1867C-13.7777 68.5773 -12.6807 69.8215 -11.4374 71.0658C-9.38967 73.1151 -7.1225 74.8716 -4.85534 76.6282C-10.121 75.0912 -15.533 74.5789 -20.9449 75.5303C-22.9195 75.8963 -25.4061 76.4818 -26.5031 78.3847C-27.6001 80.3609 -26.7225 82.8493 -25.4061 84.5327C-24.0897 86.2892 -22.0419 87.2407 -19.921 87.6798C-17.4344 88.1922 -14.8016 88.4117 -12.2419 88.5581C-9.38967 88.7777 -6.53743 88.8509 -3.68519 88.7777C-5.87922 90.0219 -8.07325 91.4125 -10.0479 92.8763C-15.1673 96.7553 -20.0673 101.366 -24.0165 106.49C-24.9673 107.734 -25.5524 109.198 -25.6986 110.735C-25.8449 111.613 -25.918 112.491 -25.5524 113.369C-25.2598 113.955 -24.8941 114.54 -24.4553 114.98C-22.4807 116.809 -19.7747 116.224 -17.5076 115.346C-11.73 112.93 -6.9031 108.393 -2.51504 104.001C0.117796 101.366 2.53123 98.5119 4.87153 95.5843C6.04168 94.1205 7.35809 92.6567 8.60138 91.2661C9.25959 90.5342 9.91779 89.7291 10.5029 88.9972C10.7954 88.6313 11.0148 88.2653 11.2342 87.9726C15.9879 91.1929 19.4984 96.1698 22.8626 100.634C28.0551 107.587 33.3208 114.614 37.9282 121.933C42.4626 129.178 45.2417 137.449 48.167 145.426C48.9715 147.549 49.7029 149.671 50.5073 151.721C47.1432 148.5 43.3402 145.719 39.4641 143.231C35.2954 140.596 30.9073 138.254 26.373 136.131C21.7656 134.009 17.0118 132.106 12.0387 131.008C10.7223 130.715 9.40586 130.496 8.0163 130.203C6.62675 129.983 5.16407 129.618 3.77451 129.691C2.4581 129.764 0.0446625 130.715 1.06854 132.472C1.65362 133.423 2.60436 134.302 3.40884 135.107C4.28645 135.985 5.2372 136.79 6.18795 137.595C10.0641 140.816 14.0865 143.963 17.8163 147.403C21.5462 150.843 24.9103 154.575 28.5671 158.161C30.5417 160.064 32.5163 161.894 34.8566 163.358C37.1238 164.675 39.5372 165.7 42.0969 166.359C44.9491 167.164 47.9476 167.457 50.7267 168.335C51.3118 168.554 51.97 168.774 52.6282 168.92C53.2864 169.067 54.0909 169.067 54.7491 169.359C55.1148 169.506 55.4805 169.799 55.8462 170.018C56.1387 170.165 56.4312 170.238 56.6506 170.311C61.3312 187.511 64.6223 205.149 68.279 222.642C69.6685 229.302 70.9849 236.035 72.3745 242.696C71.7894 241.598 71.2044 240.5 70.6193 239.402C67.5476 233.913 63.9641 228.863 59.7954 224.105C57.7476 221.763 55.6268 219.568 53.4327 217.372C51.3118 215.249 49.1909 213.127 46.9238 211.078C42.2432 206.906 36.9775 203.612 31.0536 201.49C27.6894 200.319 24.2521 199.514 20.7417 199.075C17.0118 198.635 13.2088 198.562 9.47899 197.977C8.60138 197.83 7.72377 198.196 7.43123 199.148C7.21183 200.026 7.72377 200.977 8.60138 201.197C14.1596 202.734 19.4253 205.735 23.8865 209.321C28.3476 212.907 32.2969 217.226 35.3685 222.056C39.1715 227.911 41.8044 234.425 44.7297 240.719C47.4357 246.575 50.7999 252.137 55.9193 256.162C57.2357 257.187 58.6984 258.139 60.2342 258.87C61.9163 259.676 63.6715 260.481 65.573 260.92C67.4014 261.286 69.3029 260.993 71.1312 261.505C72.5939 261.871 74.1297 262.53 75.2267 263.481C75.8118 263.994 76.6894 264.14 77.3476 263.628L77.4208 263.555C78.4447 267.214 79.6148 270.874 80.9312 274.46C85.8312 288.146 90.8044 301.833 96.4357 315.3C98.3372 322.619 100.824 329.791 103.749 336.818C103.164 336.012 102.579 335.207 101.994 334.402C99.3611 330.816 96.6551 327.303 93.876 323.863C91.17 320.496 88.4641 317.129 85.3924 314.055C82.2476 310.908 78.9566 307.834 75.6656 304.76C72.4476 301.686 69.2297 298.612 65.7193 295.904C62.3551 293.27 58.8447 290.854 55.1148 288.659C51.5312 286.463 47.8745 284.487 43.9253 282.877C39.4641 281.047 34.7835 279.949 29.9566 279.656C27.5432 279.51 25.2029 279.73 22.7894 279.803C21.2536 279.876 19.2059 279.51 18.1088 280.901C17.4506 281.632 17.4506 282.803 18.4014 283.389C20.4491 284.56 22.6432 285.365 24.8372 286.317C27.0312 287.414 29.2253 288.512 31.3462 289.757C35.3685 292.099 39.3178 294.733 42.8282 297.881C49.4103 303.663 54.6029 310.835 59.6491 317.935C65.0611 325.619 70.1073 333.67 76.8357 340.331C83.5641 346.991 91.0238 353.139 99.4342 357.677C104.042 360.165 108.795 362.288 113.257 364.922C114.792 365.874 116.475 366.825 117.791 368.069C118.23 368.875 118.742 369.68 119.254 370.412C119.473 370.704 119.692 370.997 119.912 371.29C120.351 372.388 120.789 373.486 121.74 374.291C122.106 374.583 122.472 374.803 122.91 374.803C123.13 375.242 123.422 375.681 123.642 376.12C124.666 378.096 127.591 376.34 126.567 374.364C119.18 359.726 111.136 345.234 105.285 329.938C105.358 329.645 105.431 329.279 105.212 328.913C104.554 327.376 103.822 325.839 103.164 324.302C102.798 323.204 102.433 322.106 102.067 321.009C102.433 320.423 102.433 319.618 102.14 319.032C102.213 318.3 102.36 317.569 102.433 316.837C102.506 315.812 102.579 314.714 102.725 313.69C103.018 311.567 103.603 309.445 104.334 307.395C105.066 305.419 106.089 303.516 107.113 301.613C108.21 299.564 109.307 297.441 110.404 295.392C114.573 287.634 119.4 280.242 123.349 272.337C127.298 264.36 130.224 255.87 132.564 247.307C134.977 238.597 136.586 229.668 138.707 220.885C139.951 215.908 141.486 211.004 142.949 206.028C143.68 203.539 144.412 201.124 145.143 198.635C145.801 196.293 146.825 193.878 146.679 191.39C146.606 190.145 145.436 189.121 144.192 189.487C142.364 189.999 141.267 191.39 140.17 192.853C138.854 194.537 137.391 196.001 135.928 197.538C132.93 200.831 130.151 204.198 127.81 208.004C123.495 215.176 120.936 223.227 118.157 231.058C115.231 239.402 111.501 247.38 107.918 255.431C106.089 259.529 104.407 263.701 102.945 267.946C101.482 272.191 100.385 276.509 99.5073 280.901C98.4835 285.877 97.6059 290.854 96.9476 295.904C96.8014 296.783 96.7282 297.661 96.6551 298.539C96.3626 296.71 95.9969 294.88 95.7044 293.123C94.7536 287.195 93.6566 281.193 93.0715 275.192C91.9014 263.262 91.6088 251.186 91.5357 239.182C91.4626 232.815 91.7551 226.374 92.3402 220.007C92.7058 219.86 92.9984 219.568 93.1447 219.202C95.8506 213.786 98.1909 208.296 100.604 202.734C103.018 197.172 105.577 191.756 108.283 186.34C113.769 175.434 119.254 164.602 125.177 153.99C126.786 151.208 128.395 148.354 130.224 145.719C132.125 143.011 134.319 140.523 136.075 137.742C136.66 136.79 136.221 135.619 135.343 135.034C133.295 133.716 130.809 136.205 129.419 137.522C127.152 139.571 124.885 141.547 122.691 143.597C117.718 148.354 113.183 153.477 109.088 158.967C105.797 163.431 102.798 168.188 100.092 173.092C100.531 171.262 101.043 169.506 101.482 167.676C104.48 156.478 107.991 145.353 112.013 134.521C113.183 131.301 114.5 128.154 115.816 125.08C116.548 124.348 117.279 123.689 117.937 123.03C119.692 121.201 121.375 119.225 122.91 117.175C124.227 115.492 125.47 113.955 127.298 112.857C129.419 111.613 131.686 110.588 133.954 109.564C138.415 107.587 143.022 105.758 147.191 103.196C151.36 100.561 155.382 97.6336 158.892 94.1937C162.695 90.3878 165.986 86.0697 170.375 82.9225C171.252 82.2638 171.618 81.3123 171.033 80.2877C170.155 78.6043 167.888 79.3362 166.498 79.7021C165.036 80.1413 163.646 80.5804 162.257 81.0928C160.282 81.8247 158.234 82.4102 156.26 83.0689C153.334 84.0935 150.409 85.1914 147.63 86.4356C140.901 89.4364 134.685 93.6814 129.2 98.7315C133.88 90.6806 139 82.8493 144.704 75.4571C151.945 66.1621 160.063 57.5257 168.254 49.1089C168.985 48.377 169.643 47.7183 170.375 46.9864C170.813 49.4016 171.618 51.7437 172.203 54.0858C173.08 57.4525 174.543 60.5265 176.372 63.454C179.589 68.7969 183.392 73.847 189.536 76.0427C192.242 76.9941 195.46 77.2137 198.019 75.6767C200.725 74.1397 202.261 71.0658 202.115 67.9918C201.969 64.991 200.652 62.0634 198.824 59.7214C196.849 57.2329 193.997 55.33 191.364 53.7198C189.901 52.8415 188.439 52.0365 186.976 51.2314C187.561 51.3777 188.219 51.4509 188.804 51.5973C195.752 52.7683 202.7 53.2075 209.575 51.1582C212.719 50.2067 215.864 48.9625 217.619 46.1081C217.912 45.6689 217.912 44.937 217.619 44.4247C216.23 42.229 214.036 40.692 211.257 39.9602ZM87.2939 212.468C87.1476 212.249 86.9282 212.102 86.782 211.883C85.6118 210.419 84.4417 208.809 83.4909 207.199C82.5402 205.515 81.8088 203.759 81.0044 202.002C80.273 200.246 79.3954 198.562 78.8103 196.806C77.567 193.073 76.982 189.267 76.47 185.388C75.9581 181.216 75.6656 176.971 75.5193 172.799C75.373 168.554 75.4462 164.309 75.373 160.064C75.2999 155.819 75.1536 151.501 74.9342 147.256C74.4954 138.839 73.8372 130.423 72.4476 122.079C72.0088 119.298 71.4969 116.517 70.8387 113.809C71.57 115.199 72.3014 116.517 72.8864 117.907C75.9581 124.641 77.7133 132.033 78.8103 139.352C79.9073 146.744 80.4924 154.356 80.4193 161.894C80.3461 169.945 79.8342 178.069 81.5894 185.974C82.6133 190.511 83.9297 194.976 85.2461 199.514C86.1238 202.514 86.9282 205.515 87.7327 208.589C87.5133 209.76 87.3671 211.078 87.2939 212.468ZM78.1521 51.4509C79.9073 51.9633 81.8088 52.6952 82.8327 54.159C83.6372 55.2568 83.5641 56.9402 82.5402 57.8184C81.4432 58.6967 79.9073 58.5503 78.2984 58.4771C76.0312 58.3308 73.6909 58.1112 71.4969 57.6721C69.0835 57.1597 66.8894 56.1351 64.6954 54.964C63.0864 54.0858 61.4775 53.2075 59.7954 52.4756C61.0387 52.1096 62.4282 51.8901 63.6715 51.5973C66.1581 51.085 68.6447 50.5727 71.2044 50.4995C73.6909 50.4263 75.9581 50.719 78.1521 51.4509ZM72.3745 39.3746C75.9581 37.3985 80.273 35.7883 84.3685 35.642C84.7342 35.642 85.0999 35.642 85.4656 35.642C85.4656 35.642 85.4656 35.642 85.6118 35.7152C85.5387 35.7883 85.5387 35.8615 85.5387 35.9347C84.6611 37.5449 83.1253 38.7891 81.5894 39.8138C79.9805 40.9116 78.2984 41.9363 76.47 42.6682C74.4223 43.5464 72.3014 44.132 70.1805 44.7907C67.9133 45.4494 65.573 45.9617 63.3059 46.5472C65.8656 43.6196 69.0103 41.2044 72.3745 39.3746ZM57.5282 34.7637C57.967 27.8839 59.8685 21.004 63.6715 15.1489C64.4029 13.9778 64.9148 13.2459 65.9387 12.2945C66.085 12.1481 66.1581 12.0749 66.3044 11.9285C66.3775 11.8553 66.3775 11.8553 66.3775 11.8553C66.3775 11.8553 66.4506 11.8553 66.4506 11.7821C66.5969 11.7089 66.8163 11.5626 66.9626 11.4894C67.3282 12.0749 67.6939 12.6604 67.8402 13.3191C67.9864 14.1974 68.0596 15.0757 68.0596 15.9539C68.0596 17.6373 67.767 19.3939 67.4014 21.0772C66.7432 24.2976 65.4999 27.2983 64.1103 30.2991C61.8432 35.3492 59.2835 40.3261 57.382 45.5226C57.0894 42.0095 57.2357 38.35 57.5282 34.7637ZM52.1163 43.3269C50.5805 40.6921 49.0447 37.984 47.2163 35.4956C45.5342 33.1535 43.7058 30.8846 42.3894 28.2498C41.3656 26.2005 40.4879 23.5657 41.2193 21.2968C41.3656 20.9308 41.5118 20.6381 41.7312 20.3453C41.7312 20.3453 41.8044 20.2721 41.8775 20.1989C42.0238 20.2721 42.0969 20.3453 42.2432 20.4185C42.2432 20.4917 42.682 20.7845 42.7551 20.8576C42.9745 21.0772 43.1939 21.2968 43.3402 21.5164C43.4865 21.6627 43.2671 21.4432 43.2671 21.4432C43.8521 22.1019 43.5596 21.8091 43.4865 21.6627C43.6327 21.8091 43.7059 21.9555 43.779 22.1019C45.5342 24.5171 46.8506 27.2983 48.0939 30.0064C48.679 31.3238 48.9715 32.0557 49.4835 33.2999C50.5073 35.9347 51.4581 38.7159 52.0432 41.4971C52.1894 42.229 52.3357 42.9609 52.4088 43.6928C52.2626 43.6928 52.1894 43.4733 52.1163 43.3269ZM-5.65982 71.6513C-8.00011 69.7484 -10.1941 67.699 -12.0225 65.357C-12.827 64.2591 -13.7777 63.1613 -14.2165 61.8439C-14.5822 60.746 -14.2897 59.9409 -13.7777 59.0627C-13.7777 58.9895 -13.7046 58.9163 -13.6315 58.9163C-13.5583 58.8431 -13.4121 58.6967 -13.3389 58.6235C-13.2658 58.6235 -13.2658 58.5503 -13.1927 58.5503H-13.1195C-13.0464 58.5503 -12.9732 58.4771 -13.0464 58.5503H-12.9732C-12.9001 58.5503 -12.827 58.5503 -12.7538 58.5503C-12.6807 58.5503 -12.6076 58.5503 -12.5344 58.6235C-12.3882 58.6967 -12.2419 58.6967 -12.0956 58.7699C-12.0225 58.7699 -11.9494 58.8431 -11.8762 58.8431C-11.73 58.9163 -11.5837 58.9895 -11.4374 59.0627C-11.0718 59.2822 -10.7792 59.5018 -10.4135 59.7214C-10.3404 59.7946 -10.2673 59.7946 -10.2673 59.8677C-10.2673 59.8677 -10.1941 59.8677 -10.1941 59.9409C-10.0479 60.0873 -9.90161 60.1605 -9.75534 60.3069C-9.38967 60.5996 -9.09713 60.8924 -8.73146 61.1852C-7.48817 62.4294 -6.31803 63.7468 -5.22101 65.1374C-5.00161 65.4302 -4.7822 65.7229 -4.5628 66.0157C-4.48967 66.1621 -4.3434 66.3084 -4.27026 66.3816C-4.12399 66.528 -3.90459 66.894 -4.19713 66.528C-3.83146 67.0403 -3.39265 67.5527 -3.02698 68.065C-0.832952 70.9194 0.995407 73.9934 2.82376 77.0673C3.18944 77.6528 3.48198 78.2384 3.84765 78.8239C3.18944 78.3847 2.53123 77.9456 1.94616 77.5065C-0.467278 75.4572 -3.17325 73.7006 -5.65982 71.6513ZM-7.92698 85.1182C-10.7061 85.045 -13.4852 84.8986 -16.1912 84.6059C-17.8732 84.4595 -19.7016 84.3131 -21.2374 83.508C-21.8956 83.1421 -22.4076 82.6297 -22.7732 81.971C-22.9195 81.6783 -23.0658 81.3855 -23.1389 81.0196C-23.1389 80.9464 -23.1389 80.8732 -23.2121 80.8732C-23.2121 80.8732 -23.2121 80.8 -23.2121 80.7268C-23.2121 80.6536 -23.2121 80.5804 -23.2121 80.5804C-23.2121 80.5072 -23.2121 80.5072 -23.2121 80.434C-23.2121 80.3609 -23.1389 80.3609 -23.1389 80.3609C-23.1389 80.3609 -23.1389 80.3609 -23.0658 80.3609C-23.4315 80.5804 -22.4076 79.9949 -22.5538 80.0681C-21.53 79.629 -20.2867 79.4826 -19.1897 79.3362C-14.1434 78.6775 -9.2434 79.4094 -4.48967 81.0196C-1.85683 81.8978 0.629738 82.9957 3.04317 84.3131C3.40884 84.5327 3.70138 84.679 4.06705 84.9718C2.75063 85.045 1.43422 85.045 0.117796 85.1182C-2.51504 85.045 -5.22101 85.1182 -7.92698 85.1182ZM3.62824 91.0465C1.65362 93.3886 -0.174742 95.8039 -2.14937 98.0728C-4.05086 100.268 -6.09862 102.318 -8.21952 104.294C-10.2673 106.197 -12.3882 108.1 -14.7285 109.71C-16.5568 110.954 -18.6777 112.418 -20.8718 112.637C-21.3837 112.711 -21.6031 112.711 -21.9688 112.198C-21.9688 112.198 -21.9688 112.198 -21.9688 112.125C-21.9688 111.979 -21.9688 111.832 -21.9688 111.686C-21.9688 111.466 -21.8956 111.32 -21.8956 111.101C-21.7494 110.515 -21.53 109.929 -21.1643 109.417C-20.433 108.319 -19.4822 107.295 -18.6046 106.27C-17.5807 105.099 -16.4837 104.001 -15.3867 102.976C-13.3389 101.074 -11.2912 99.0974 -9.09713 97.3409C-6.61056 95.3647 -3.97773 93.6814 -1.27176 92.1444C0.702871 91.0465 2.82377 89.9487 5.09093 89.3632C4.65212 89.8755 4.14018 90.461 3.62824 91.0465ZM10.2835 73.481C10.2103 74.5057 10.0641 75.4571 9.84466 76.4818C8.89392 74.7253 7.7969 73.0419 7.06556 71.139C5.96854 68.4309 5.2372 65.5765 4.94466 62.649C4.65212 59.7214 4.72526 56.867 4.87153 53.9394C4.94466 52.4024 5.09093 50.9386 5.38346 49.4748C5.676 48.011 6.33421 46.7668 6.91929 45.5226C7.06556 45.6689 7.21183 45.8153 7.35809 46.0349C7.72377 46.6204 8.08944 47.3523 8.45511 47.9378C9.18645 49.3284 9.47899 50.7922 9.77153 52.256C10.4297 55.6959 10.7954 59.209 10.8685 62.7221C10.8685 66.3816 10.6491 69.9679 10.2835 73.481ZM52.2626 165.041C50.0685 164.309 47.8014 163.943 45.4611 163.504C41.5118 162.699 37.6357 161.382 34.4178 158.893C30.9073 156.185 27.8357 152.745 24.6909 149.598C21.5462 146.451 18.182 143.524 14.7447 140.669C12.77 139.059 10.7954 137.522 8.82078 135.912C7.72377 135.034 6.55362 134.082 5.52974 132.984C5.676 132.984 5.74914 133.057 5.89541 133.057C6.84615 133.204 7.87003 133.497 8.82078 133.643C13.5745 134.594 18.1088 136.058 22.57 138.034C27.0312 140.01 31.4193 142.206 35.5879 144.695C39.6835 147.183 43.7059 149.818 47.2894 153.038C49.2641 154.795 51.1656 156.698 52.6282 158.893C52.9939 159.406 53.3596 159.918 53.6521 160.504C54.2372 162.26 54.8223 163.943 55.3342 165.7C54.3103 165.554 53.2864 165.334 52.2626 165.041ZM74.276 258.358C72.7402 257.699 71.1312 257.333 69.4491 257.187C68.5715 257.114 67.6939 257.114 66.8163 257.041C66.0118 256.968 65.2074 256.675 64.4029 256.382C63.0133 255.87 61.5506 255.138 60.2342 254.333C54.8954 251.112 51.4581 245.623 48.7521 240.134C45.6805 233.84 43.0476 227.253 39.3178 221.251C36.0999 216.128 32.0775 211.37 27.3969 207.491C25.0566 205.515 22.4969 203.832 19.8641 202.368C22.4238 202.661 24.9835 203.173 27.47 203.905C33.1745 205.588 38.4402 208.443 42.9745 212.249C45.2417 214.152 47.2894 216.274 49.4103 218.323C51.5312 220.373 53.6521 222.495 55.6999 224.691C59.7954 229.155 63.5253 233.913 66.5969 239.109C70.1073 245.038 73.0327 251.259 75.7387 257.553C75.9581 258.285 76.1044 258.944 76.3238 259.676C75.8118 259.236 75.1536 258.724 74.276 258.358ZM106.163 345.6C106.894 346.771 107.552 348.016 108.21 349.187C108.503 350.431 108.869 351.675 109.307 352.846C110.258 355.408 111.721 357.677 113.11 359.945C113.183 360.019 113.257 360.165 113.33 360.238C110.624 358.701 107.772 357.384 104.992 355.993C100.751 353.871 96.7282 351.529 92.8521 348.821C89.0491 346.113 85.4655 343.039 82.0282 339.891C78.5909 336.671 75.373 333.231 72.5208 329.499C69.6685 325.766 67.0357 321.887 64.3297 318.081C59.1372 310.835 53.9447 303.516 47.4357 297.368C43.6327 293.782 39.3909 290.708 34.8566 288C32.4432 286.536 30.0297 285.219 27.47 283.975C26.6656 283.609 25.8611 283.243 24.9835 282.877C26.6656 282.803 28.4208 282.803 30.1029 282.95C34.1253 283.243 38.0745 284.267 41.8775 285.658C45.5342 287.048 48.9715 288.951 52.3357 291.001C55.8462 293.123 59.3566 295.319 62.6476 297.807C65.9387 300.296 68.9372 303.15 72.0088 306.005C75.2267 309.005 78.3715 312.006 81.5894 315.007C87.7327 320.716 92.9253 327.376 98.0447 333.963C100.97 337.696 103.749 341.575 106.163 345.6ZM102.506 284.999C103.31 280.754 104.261 276.509 105.504 272.337C106.748 268.239 108.357 264.213 110.039 260.334C113.476 252.283 117.425 244.525 120.57 236.328C123.495 228.716 125.763 220.812 129.492 213.493C131.613 209.394 134.246 205.588 137.318 202.148C138.707 200.538 140.17 199.001 141.633 197.464C140.975 199.587 140.316 201.783 139.658 203.905C138.342 208.296 136.879 212.688 135.709 217.152C133.442 225.935 131.833 234.864 129.566 243.647C127.372 252.137 124.666 260.627 120.863 268.531C117.06 276.436 112.233 283.828 108.064 291.586C106.821 293.855 105.651 296.124 104.407 298.393C103.237 300.662 101.994 302.931 101.043 305.273C100.604 306.371 100.239 307.468 99.873 308.639C99.5805 300.735 101.043 292.83 102.506 284.999ZM122.033 150.184C122.983 149.232 123.934 148.281 124.885 147.403C124.3 148.354 123.788 149.232 123.203 150.184C120.204 155.38 117.352 160.65 114.573 165.993C111.721 171.409 109.015 176.898 106.236 182.387C103.53 187.803 100.824 193.219 98.4103 198.782C96.8745 202.222 95.4118 205.735 93.876 209.175C94.1685 206.979 94.3879 204.856 94.7536 202.734C95.3387 198.709 95.9969 194.61 96.8014 190.585C97.8253 187.803 98.9954 185.022 100.312 182.314C105.651 170.604 112.891 159.479 122.033 150.184ZM122.252 74.2861C122.545 70.4802 123.203 66.6744 123.934 62.9417C125.397 55.2568 127.079 47.6451 129.054 40.1065C130.151 36.0811 131.248 31.9825 131.979 27.8839C132.198 26.9324 132.345 25.9077 132.491 24.9563C132.491 25.0295 132.491 25.0295 132.491 25.1026C133.076 28.4694 133.588 31.7629 133.734 35.1296C134.1 41.8631 133.515 48.5965 132.637 55.1836C130.809 68.2846 127.957 81.2391 123.934 93.8278C123.569 94.9256 123.203 96.0235 122.837 97.1945C122.691 93.4618 122.398 89.7291 122.252 86.0696C122.033 82.0442 121.96 78.1652 122.252 74.2861ZM133.515 100.415C137.464 96.9749 141.779 93.9009 146.46 91.5589C151.506 88.9972 156.845 87.1675 162.257 85.4109C162.33 85.4109 162.33 85.4109 162.403 85.3378C160.867 86.9479 159.331 88.5581 157.795 90.1683C154.504 93.6814 150.701 96.609 146.679 99.2438C142.364 102.025 137.61 103.928 132.93 106.05C130.663 107.075 128.395 108.027 126.275 109.271C124.958 110.003 123.788 110.881 122.764 111.906C125.909 107.587 129.639 103.782 133.515 100.415ZM190.048 27.4447C191.657 26.1273 193.339 24.9563 195.167 24.0048C196.776 23.1997 198.458 22.3946 199.848 21.8823C200.872 21.5164 201.822 21.1504 202.846 20.8576C203.285 20.7113 203.724 20.6381 204.163 20.4917C204.382 20.4185 204.601 20.4185 204.748 20.3453C204.894 20.3453 204.967 20.2721 205.113 20.2721C205.113 20.2721 205.113 20.2721 205.186 20.2721C205.552 20.2721 205.918 20.1989 206.357 20.1989C206.43 20.1989 206.503 20.1989 206.576 20.1989C206.649 20.1989 206.795 20.2721 206.869 20.2721C206.869 20.2721 206.942 20.2721 206.942 20.3453C206.942 20.3453 206.942 20.3453 207.015 20.4185C207.015 20.4917 207.015 20.4917 207.015 20.4917C207.088 21.4432 206.137 22.2483 205.333 22.907C204.382 23.712 203.358 24.2976 202.334 25.0295C199.116 27.3715 195.825 29.5672 192.461 31.6897C188.804 33.9586 185.148 36.1543 181.345 38.1304C180.101 38.7891 178.858 39.4478 177.542 39.9602C181.491 35.4956 185.44 31.1042 190.048 27.4447ZM180.028 21.5164C180.906 18.5888 181.857 15.7344 183.1 12.88C183.978 10.7575 185.001 8.70816 186.391 6.87842C187.488 5.48782 189.316 3.36532 191.291 3.43851C191.437 3.43851 191.437 3.36532 191.583 3.58489C191.73 3.73126 191.876 4.02402 191.949 4.46316C192.315 5.78058 192.169 7.17118 191.876 8.48859C191.291 11.343 189.828 13.9046 188.292 16.3931C186.683 19.0279 184.928 21.5164 183.246 24.0048C181.272 26.8592 179.297 29.7868 177.395 32.7144C177.103 33.1535 176.883 33.5195 176.591 33.9586C177.761 29.7868 178.785 25.615 180.028 21.5164ZM197.873 64.991C198.751 67.0403 199.189 69.5288 197.8 71.3585C196.483 73.1883 194.289 73.3346 192.388 72.8955C187.269 71.6513 183.831 67.4795 181.198 63.2345C179.37 60.3801 177.688 57.3793 176.737 54.159C176.298 52.5488 175.86 50.9386 175.421 49.4016C176.225 49.914 177.103 50.3531 177.907 50.7922C180.467 52.1096 183.1 53.4271 185.66 54.8177C190.121 57.0865 195.752 59.9409 197.873 64.991ZM208.624 48.011C205.552 48.8161 202.48 49.2552 199.263 49.1821C192.388 49.0357 185.733 47.4987 179.297 45.1566C179.37 45.1566 179.443 45.1566 179.443 45.1566C182.88 44.6443 186.318 44.0588 189.755 43.5464C195.752 42.6682 202.188 41.4971 208.258 42.6682C210.525 43.1073 212.792 43.6928 214.328 45.3762C212.866 46.84 210.598 47.4987 208.624 48.011Z" fill="white"/>
</svg>
