<svg width="153" height="387" viewBox="0 0 153 387" fill="none" xmlns="http://www.w3.org/2000/svg">
<path opacity="0.2" d="M186.348 251.372C171.001 253.989 158.24 264.419 146.99 274.54C152.563 262.027 157.616 249.219 162.25 236.394C162.349 236.333 162.349 236.334 162.448 236.273C163.167 236.447 163.925 236.462 164.701 236.397C168.723 235.851 172.849 235.922 176.829 235.197C180.612 234.593 184.312 233.631 187.869 232.212C191.228 230.913 194.645 229.375 197.74 227.421C200.736 225.527 203.27 223.099 205.403 220.234C207.634 217.31 209.564 213.889 208.7 210.128C207.939 206.646 204.699 205.015 201.35 204.879C198.021 204.662 194.541 205.762 191.48 206.88C187.942 208.219 184.546 210.016 181.352 212.031C175.459 215.758 170.27 220.417 165.904 225.867C169.947 214.082 173.691 202.14 177.095 190.2C177.855 190.554 178.772 190.607 179.805 190.181C180.461 189.918 181.056 189.555 181.652 189.192C182.327 188.849 182.983 188.585 183.718 188.341C185.328 187.633 186.998 187.023 188.587 186.395C191.867 185.077 195.146 183.759 198.304 182.242C201.263 180.847 204.342 179.311 206.958 177.241C209.555 175.25 211.75 172.824 212.684 169.669C213.464 167.153 213.264 164.145 210.823 162.707C208.321 161.17 204.66 161.973 202.136 162.966C199.273 163.963 196.693 165.535 194.234 167.305C188.92 171.088 183.907 175.367 179.718 180.438C181.115 175.028 182.512 169.618 183.75 164.169C184.467 161.215 185.123 158.162 185.76 155.188C185.86 155.128 185.879 155.048 185.978 154.988C186.571 154.286 187.104 153.485 187.636 152.684C188.583 151.223 189.51 149.842 190.456 148.381C192.349 145.458 194.162 142.516 195.774 139.357C198.193 134.617 200.328 129.302 200.948 123.957C201.213 121.823 201.136 119.353 199.411 117.751C197.245 115.873 194.603 117.007 192.701 118.574C188.598 121.891 185.904 127.07 184.144 131.885C181.563 139.036 181.298 146.75 180.573 154.268C180.536 154.766 180.679 155.223 181.02 155.56L181.001 155.64C180.984 156.058 181.146 156.436 181.327 156.733C179.503 163.9 177.68 171.066 175.776 178.213C174.216 174.537 172.1 171.065 169.666 167.853C167.796 165.455 165.709 163.258 163.521 161.121C161.555 159.122 159.109 157.006 156.215 156.389C153.64 155.848 150.816 156.685 149.337 158.947C148.035 160.829 148.192 163.319 148.586 165.528C148.999 167.657 149.85 169.724 150.9 171.669C152.071 173.813 153.757 175.575 155.364 177.318C157.592 179.634 160.117 181.769 162.839 183.444C164.24 184.291 165.74 185.078 167.199 185.685C168.978 186.37 170.795 186.896 172.493 187.562C172.653 187.6 172.873 187.738 173.033 187.777C169.589 199.877 165.907 211.918 161.844 223.783C161.551 224.642 161.238 225.581 160.945 226.439C160.418 225.128 159.91 223.736 159.402 222.345C158.123 218.907 156.665 215.509 154.848 212.194C153.111 208.898 151.157 205.803 148.905 202.889C146.853 200.193 144.681 197.299 142.075 195.145C140.812 194.077 139.332 193.211 137.616 192.963C135.722 192.757 133.953 193.427 132.646 194.632C130.15 196.901 129.997 200.668 130.437 203.734C131.36 210.383 134.587 215.901 139.302 220.511C141.569 222.667 143.974 224.604 146.458 226.559C149.383 228.791 152.228 231.003 155.173 233.155C156.034 233.787 156.975 234.438 157.875 234.91C153.203 247.895 148.07 260.683 142.478 273.276C142.255 272.799 142.013 272.402 141.871 271.945C141.871 271.945 141.83 271.766 141.769 271.667C141.709 271.567 141.728 271.488 141.668 271.388C141.566 271.11 141.464 270.832 141.283 270.534C139.945 267.335 138.231 264.298 136.496 261.341C134.237 257.411 131.68 253.662 128.707 250.236C126.578 247.859 124.069 245.306 121.091 243.991C119.412 243.246 117.616 242.979 115.847 243.649C113.88 244.439 112.616 246.162 112.052 248.139C111.158 251.473 111.944 255.552 113.003 258.853C114.164 262.432 116.457 265.524 119.126 268.116C121.794 270.709 124.898 272.899 128.06 274.85C129.461 275.697 130.882 276.465 132.263 277.392C133.865 278.457 135.447 279.601 137.107 280.427C137.707 280.742 138.326 280.976 138.946 281.211C137.375 284.55 135.823 287.809 134.252 291.147C132.543 294.706 130.754 298.246 128.904 301.686C128.74 300.97 128.675 300.193 128.51 299.477C128.302 298.243 127.756 297.011 127.289 295.799C125.666 291.685 123.647 287.813 121.349 284.043C119.353 280.769 117.217 277.376 114.507 274.605C111.858 271.933 107.977 269.808 104.12 271.07C100.263 272.332 99.0351 276.346 99.7385 280.067C100.481 283.629 102.476 286.903 104.668 289.718C107 292.651 109.748 295.262 112.635 297.653C115.802 300.282 119.087 302.77 122.331 305.079C123.113 305.691 123.994 306.243 124.814 306.696C124.954 306.815 125.194 306.873 125.414 307.011C125.515 307.289 125.557 307.468 125.658 307.746C119.638 318.967 113.197 329.832 106.496 340.718C106.334 340.341 106.153 340.043 105.991 339.666C104.315 336.469 102.658 333.192 100.783 330.117C98.8674 326.862 96.8136 323.827 94.4017 320.875C91.9293 317.823 88.9027 315.313 85.8374 312.963C84.1341 311.62 82.2348 310.736 80.1975 310.073C78.1602 309.409 75.5857 308.869 73.6593 309.839C70.2036 311.536 69.7914 315.325 70.6715 318.667C72.4511 325.271 77.0524 330.699 82.283 334.927C84.8887 337.081 87.7315 338.955 90.5139 340.729C91.9752 341.675 93.4559 342.542 94.8979 343.568C96.4197 344.614 97.8423 345.72 99.4633 346.705C100.284 347.158 101.104 347.61 102.023 348.003C100.663 350.124 99.3823 352.265 98.022 354.387C91.4187 364.874 84.6945 375.163 77.6508 385.375C76.23 387.397 74.7898 389.499 73.2891 391.502C72.6151 386.266 71.9217 381.11 71.3275 375.893C69.4845 360.143 66.7268 344.679 64.3659 328.973C63.467 322.921 62.7278 316.908 62.0684 310.915C63.3824 310.727 64.7328 310.04 65.9646 309.493C68.9459 308.357 71.7459 306.923 74.4443 305.21C77.1427 303.498 79.8 301.606 82.2565 299.497C84.5944 297.528 86.9323 295.559 88.8492 293.234C90.6282 291.13 92.6032 288.565 93.262 285.851C93.9595 282.976 92.322 279.62 89.1715 279.363C87.756 279.273 86.2823 279.423 84.9102 279.851C83.5381 280.278 82.3281 281.084 81.0769 281.71C78.2358 282.965 75.6778 284.796 73.5407 286.983C71.3043 289.23 69.068 291.478 67.1922 293.981C65.2171 296.546 63.4622 299.248 61.7678 302.05C61.6298 302.27 61.4725 302.57 61.3345 302.79C60.2313 290.263 59.5854 277.594 59.4985 265.061C60.4737 264.875 61.4078 264.509 62.2814 264.045C65.1201 262.451 67.8984 260.758 70.7371 259.164C76.9106 255.674 83.1229 252.025 88.5103 247.245C90.7877 245.177 93.1039 242.949 95.0596 240.464C96.916 238.04 98.9058 234.719 97.6482 231.539C95.3965 225.836 87.0671 228.802 83.0935 230.544C72.4843 235.24 65.2158 244.636 59.5248 254.499C59.5648 248.76 59.745 243.139 60.0244 237.458C60.5493 226.933 61.4129 216.405 62.6951 205.895C63.0098 205.295 63.3245 204.695 63.719 204.114C63.719 204.114 63.719 204.114 63.7989 204.134C65.7082 203.583 67.557 202.932 69.4253 202.202C76.6996 199.402 83.7709 196.045 90.8832 192.867C94.4793 191.288 98.1747 189.649 101.548 187.593C103.136 186.625 104.663 185.559 106.149 184.313C107.516 183.208 108.944 182.201 109.91 180.66C110.324 180 110.895 179.039 111.009 178.222C111.082 177.225 110.516 176.073 109.834 175.4C108.629 174.093 107.254 174.182 105.638 173.875C101.747 173.184 98.1271 174.166 94.427 175.128C87.4045 176.89 80.1495 179.61 74.3822 184.213C70.2994 187.45 66.9399 191.538 64.0208 195.902C66.4514 178.569 69.6999 161.349 73.6476 144.384C74.6639 144.377 75.7988 144.23 76.7546 144.124C80.9361 143.617 85.0524 142.333 89.009 141.01C93.0454 139.707 97.0601 138.145 101.075 136.583C104.632 135.163 108.17 133.824 111.626 132.126C113.255 131.338 114.922 130.39 116.43 129.403C117.243 128.839 117.896 128.237 118.71 127.673C119.423 127.17 120.198 126.766 120.791 126.065C121.938 124.821 122.681 122.804 122.331 121.112C121.961 119.501 120.137 117.959 118.678 117.351C116.839 116.567 114.826 116.501 112.873 116.534C111.019 116.507 109.108 116.72 107.237 117.111C103.257 117.836 99.3604 119.258 95.6845 120.818C92.0884 122.397 88.393 124.037 85.1598 126.211C81.9265 128.385 79.2352 131.114 76.5438 133.843C79.6872 121.586 83.45 109.564 88.0113 97.7354C89.0887 95.0378 90.166 92.3403 91.2434 89.6427C91.5821 89.6403 91.9209 89.638 92.2597 89.6357C94.1132 89.6627 95.7636 89.1332 97.5931 88.5627C99.4225 87.9921 101.312 87.5207 103.202 87.0494C106.823 86.0679 110.443 85.0864 114.082 84.0251C121.202 81.8637 128.14 79.4046 134.773 76.1108C136.402 75.3224 138.069 74.3743 139.657 73.4068C140.55 72.8627 141.242 72.1006 141.915 71.4185C142.251 71.0774 142.648 70.8355 142.904 70.4751C143.36 69.9937 143.415 69.4154 143.49 68.7573C143.563 67.7605 143.934 66.5822 143.191 65.8102C142.608 65.0769 141.708 64.6048 141.006 64.0119C140.145 63.3802 139.347 63.1864 138.289 63.0143C137.232 62.8423 136.194 62.5904 135.136 62.4184C134.239 62.2851 133.184 62.4518 132.247 62.4781C131.231 62.4852 130.115 62.5526 129.099 62.5596C127.226 62.6124 125.355 63.0039 123.485 63.3955C119.923 64.1374 116.443 65.2375 113.065 66.6158C109.706 67.9143 106.509 69.5903 103.433 71.4648C101.132 72.9353 98.9316 74.6842 96.8309 76.3725C100.148 68.9766 103.604 61.6993 107.061 54.422C108.221 52.0826 109.381 49.7431 110.54 47.4036C111.157 47.2997 111.752 46.9369 111.987 46.3176C112.145 46.0176 112.641 45.7153 113.176 45.2532C114.107 44.5494 114.899 43.7269 115.831 43.023C117.534 41.5765 119.219 40.2098 120.763 38.7246C123.931 35.7735 126.518 32.4278 129.266 29.1209C133.712 23.6899 138.659 18.6342 142.244 12.5715C143.425 10.491 144.664 8.17089 144.667 5.71984C144.726 2.69052 142.162 0.715502 139.154 0.915598C137.261 1.04822 135.572 1.73739 133.784 2.48703C131.817 3.27776 129.89 4.24755 128.085 5.41578C124.554 7.77161 121.865 10.839 119.498 14.3227C116.992 18.0264 114.669 22.0279 112.824 26.1456C110.347 31.1245 109.028 36.215 107.867 41.3443C107.771 41.7435 107.773 42.0823 107.855 42.4404C101.566 55.1175 95.4171 67.9133 89.8877 80.9439C89.3728 78.5363 88.6982 76.0899 87.9243 73.704C87.0683 70.96 86.1131 68.2764 85.078 65.5734C84.1033 62.9697 83.0682 60.2668 81.7161 57.8251C80.4849 55.5818 78.8568 53.5804 76.9915 51.8596C75.9682 50.8504 74.8697 50.4993 73.5704 49.9304C72.3509 49.3808 71.192 48.9305 69.7981 49.0995C67.3686 49.3554 65.002 50.0493 62.9183 51.3191C61.9261 51.9237 60.8951 52.6881 60.0238 53.4912C59.0339 54.4346 58.465 55.7337 57.9348 56.8732C57.3465 58.2523 57.5738 59.4065 57.7429 60.8002C57.9507 62.0342 58.2578 63.2078 58.7439 64.3403C59.6557 66.5061 60.8846 68.4106 62.3723 70.2934C65.851 74.7729 69.5886 79.2307 73.8394 82.9676C74.962 83.9164 76.1644 84.8845 77.3063 85.7534C78.6685 86.7603 79.9507 87.7478 81.5694 88.3942C82.2687 88.6485 82.9075 88.8035 83.6067 89.0577C84.4657 89.3507 85.206 89.784 86.0844 89.9971C80.8138 103.006 76.2426 116.269 72.5907 129.924C71.9297 132.3 71.329 134.775 70.7478 137.171C70.4454 136.675 70.2229 136.198 69.9206 135.702C69.1344 134.412 68.2684 133.103 67.383 131.873C65.5518 129.315 63.5826 126.978 61.3351 124.741C59.1674 122.524 56.782 120.508 54.1399 118.853C52.8189 118.025 51.4591 117.357 50.0994 116.689C48.6404 116.081 47.2201 115.314 45.841 114.725C42.7633 113.471 39.6081 112.536 36.315 111.822C33.421 111.204 29.9729 111.128 27.1295 112.045C21.9799 113.754 19.167 119.074 20.1798 124.308C21.1709 129.283 25.3588 132.582 29.8156 134.424C35.1314 136.56 40.8588 137.696 46.4264 138.793C49.7196 139.508 53.0127 140.222 56.226 140.918C59.5796 141.731 62.8705 142.107 66.2605 142.423C67.1776 142.476 68.0148 142.51 68.9319 142.564C69.0722 142.682 69.1327 142.781 69.2536 142.98C64.8773 161.363 61.3599 180.039 58.9193 198.807C58.6992 198.669 58.479 198.531 58.3387 198.412C56.016 196.834 53.9306 194.976 51.5886 193.477C46.7642 190.362 41.4073 188.048 36.014 186.232C33.2775 185.314 30.4417 184.457 27.6276 183.858C24.7337 183.241 21.7599 182.604 18.7692 182.385C17.4335 182.315 16.0179 182.225 14.7039 182.413C13.4698 182.621 12.0009 183.448 11.19 184.35C9.48858 186.136 9.54612 188.686 10.4579 190.852C12.4048 195.72 17.6625 198.095 22.2767 199.638C28.149 201.57 34.45 202.084 40.5742 202.979C43.7658 203.415 46.938 203.931 50.1296 204.368C52.8227 204.767 55.5158 205.167 58.2841 204.909C57.4915 211.311 56.878 217.672 56.3443 224.052C55.4443 235.078 55.0234 246.221 54.9606 257.28C54.2977 256.528 53.6155 255.855 52.834 255.243C46.9816 250.441 39.6961 248.757 32.3717 247.234C28.5801 246.483 24.7691 245.812 20.9628 245.818C18.0132 245.778 12.8735 246.053 12.9816 250.137C13.0344 252.01 14.3214 253.675 15.606 255.001C16.7503 256.209 18.1729 257.315 19.5738 258.162C22.7554 260.033 26.4889 261.024 30.082 261.896C33.9341 262.746 37.8637 263.277 41.832 263.648C45.7399 263.92 49.5656 263.834 53.4541 264.186C53.9525 264.222 54.451 264.258 54.9495 264.295C55.0411 277.506 55.7304 290.693 56.9376 303.836C56.7174 303.698 56.4779 303.64 56.2577 303.502C53.9979 302.362 51.7187 301.302 49.4007 300.401C44.5447 298.462 39.6134 297.181 34.3893 296.758C30.2418 296.428 26.0798 296.856 21.9588 297.462C18.3556 298.025 13.6223 299.413 13.8125 303.855C13.9857 308.716 20.3953 310.525 24.1482 311.436C29.9965 312.77 36.0579 313.227 42.0348 312.986C45.0232 312.866 47.9705 312.567 50.9179 312.267C52.3916 312.118 53.8846 311.888 55.4187 311.838C56.1955 311.773 56.9529 311.787 57.7103 311.802C57.8406 313.355 58.0702 314.848 58.2005 316.402C59.9831 332.052 63.0796 347.514 65.2009 363.162C66.7134 374.351 68.1072 385.68 69.4406 396.909C64.8006 403.139 60.1002 409.269 55.3199 415.379C47.8142 425.056 40.4101 435.011 32.1423 443.995C24.9031 451.877 16.7011 458.848 8.1967 465.323C6.01615 466.992 3.75575 468.642 1.51472 470.211C-0.844897 471.921 1.51357 475.791 3.87319 474.081C12.697 467.683 21.4192 461.007 29.2584 453.441C37.8502 445.211 45.0389 435.796 52.3872 426.419C58.3923 418.746 64.4578 411.172 70.2426 403.36C70.518 405.71 70.8538 408.158 71.1292 410.508C75.2168 442.443 77.6517 474.568 80.3649 506.592C80.6714 510.556 81.0771 514.459 81.4635 518.441C81.6977 520.612 85.0056 520.569 84.8705 518.338C82.8566 486.568 80.7822 454.699 77.2147 423.06C76.28 414.717 75.1662 406.415 74.1323 398.132C74.626 397.491 75.0399 396.831 75.5337 396.19C82.7781 386.196 89.6621 375.946 96.3258 365.558C99.6178 360.354 102.97 355.25 106.182 350.026C106.862 350.36 107.581 350.535 108.437 350.489C109.195 350.504 109.991 350.359 110.828 350.393C111.825 350.466 112.803 350.618 113.86 350.79C118.09 351.479 122.375 351.589 126.602 351.938C130.59 352.229 134.541 353.019 138.548 353.231C144.949 353.685 153.033 352.772 157.039 347.065C158.835 344.542 159.192 341.331 157.3 338.674C155.73 336.433 153.289 334.995 150.712 334.116C144.259 331.789 136.888 332.199 130.403 333.838C123.559 335.559 117.204 338.751 111.19 342.28C111.091 342.34 110.992 342.401 110.893 342.461C117.317 332.015 123.502 321.511 129.326 310.75C130.083 310.765 130.879 310.62 131.656 310.554L131.736 310.574C131.816 310.593 131.915 310.533 131.995 310.552C134.465 310.475 136.958 310.657 139.428 310.581C141.64 310.525 143.791 310.371 145.923 310.297C154.53 310.018 163.28 310.197 171.655 308.086C177.066 306.694 182.608 304.065 186.686 300.151C188.666 298.265 190.283 295.783 190.283 292.993C190.274 291.638 189.846 290.266 189.12 289.075C188.697 288.381 188.174 287.747 187.633 287.192C186.67 286.282 185.411 285.892 184.153 285.503C179.74 284.178 175.2 284.767 170.702 285.536C166.462 286.282 162.687 287.902 158.813 289.583C150.607 293.087 142.906 297.644 135.607 302.636C134.595 303.321 133.564 304.085 132.453 304.83C133.044 303.79 133.574 302.65 134.165 301.61C137.527 295.07 140.669 288.393 143.812 281.716C144.01 281.595 144.269 281.573 144.468 281.452L144.547 281.472C145.464 281.525 146.299 281.22 147.134 280.916C148.148 280.57 149.104 280.464 150.079 280.278C152.647 279.802 155.074 279.207 157.581 278.632C162.297 277.663 167.156 277.151 171.974 276.46C176.613 275.81 181.09 274.783 185.482 273.059C189.497 271.497 193.509 269.596 197.2 267.279C200.791 265.022 203.42 261.856 203.808 257.469C204.305 248.797 191.821 250.418 186.348 251.372ZM179.923 218.617C182.897 216.464 185.992 214.51 189.349 212.872C190.878 212.144 192.488 211.436 194.138 210.906C194.973 210.602 195.888 210.316 196.783 210.111C197.24 209.968 197.678 209.906 198.116 209.843C198.296 209.802 198.475 209.761 198.654 209.719C198.734 209.739 199.092 209.657 199.092 209.657C200.406 209.468 201.521 209.401 202.62 209.752C203.578 209.984 204.079 210.36 204.424 211.373C205.121 214.079 202.65 216.945 201.088 218.849C198.915 221.534 196.338 223.445 193.32 225.08C190.302 226.715 187.004 228.113 183.703 229.172C180.124 230.332 176.383 231.115 172.658 231.48C170.926 231.651 169.232 231.663 167.439 231.735C170.871 226.65 174.986 222.238 179.923 218.617ZM193.935 173.066C196.215 171.337 198.476 169.687 201.017 168.275C203.141 167.184 206.062 165.948 208.337 166.331C208.417 166.351 208.497 166.37 208.576 166.389C208.637 166.489 208.637 166.489 208.656 166.409C208.656 166.409 208.656 166.409 208.736 166.428C208.736 166.428 208.717 166.508 208.777 166.607L208.758 166.687C208.738 166.767 208.78 166.946 208.76 167.026C208.801 167.205 208.782 167.285 208.782 167.285C208.782 167.285 208.782 167.285 208.743 167.444C208.685 167.684 208.627 167.923 208.549 168.243C208.491 168.482 208.433 168.722 208.295 168.942L208.276 169.022C208.138 169.242 208.08 169.481 207.922 169.781C206.545 172.322 204.006 174.073 201.545 175.505C195.63 178.973 189.23 181.309 182.931 183.923C182.751 183.964 182.652 184.024 182.454 184.145C185.833 179.977 189.773 176.283 193.935 173.066ZM190.852 127.933C191.266 127.272 191.6 126.593 192.075 126.031C192.193 125.891 192.864 124.87 192.726 125.09C193.2 124.529 193.595 123.948 194.149 123.407C194.723 122.785 195.594 121.982 195.911 121.72C196.109 121.6 196.308 121.479 196.426 121.338C196.426 121.338 196.426 121.338 196.526 121.278C196.526 121.278 196.526 121.278 196.605 121.297C196.605 121.297 196.605 121.297 196.586 121.377C196.61 121.975 196.543 120.859 196.627 121.556C196.69 121.994 196.673 122.413 196.656 122.831C196.656 122.831 196.658 123.17 196.639 123.25C196.581 123.489 196.603 123.748 196.544 123.988C195.721 128.776 193.919 133.411 191.697 137.691C190.085 140.851 188.173 143.853 186.181 146.836C186.043 147.056 185.905 147.276 185.767 147.496C186.179 143.707 186.652 140.018 187.642 136.284C188.298 133.231 189.376 130.533 190.852 127.933ZM172.7 182.877C171.062 182.311 169.404 181.824 167.825 181.018C165.025 179.662 162.582 177.886 160.295 175.809C159.132 174.681 157.968 173.554 156.923 172.285C156.12 171.414 155.798 170.998 155.174 170.086C154.932 169.689 154.77 169.311 154.528 168.914C154.245 168.338 154.124 168.14 154.042 167.782C153.616 166.749 153.27 165.735 153.024 164.66C152.963 164.561 152.901 164.123 152.901 164.123C152.92 164.043 152.838 163.685 152.857 163.605C152.835 163.346 152.814 163.088 152.852 162.928C152.872 162.848 152.891 162.768 152.85 162.589L152.869 162.509C152.928 162.27 152.966 162.11 153.024 161.871C153.044 161.791 153.063 161.711 153.083 161.631C153.102 161.551 153.201 161.491 153.22 161.411C153.32 161.35 153.538 161.15 153.458 161.13C153.954 160.828 154.59 160.644 155.229 160.799C156.286 160.971 157.307 161.642 158.229 162.373C160.353 164.072 162.381 166.17 164.248 168.23C166.457 170.625 168.25 173.343 169.844 176.182C170.267 176.876 170.61 177.551 171.014 178.326C171.196 178.623 171.297 178.902 171.459 179.279C171.58 179.478 171.701 179.676 171.742 179.855C171.803 179.954 171.863 180.054 171.844 180.133C171.987 180.591 172.129 181.048 172.272 181.505C172.494 181.982 172.637 182.439 172.7 182.877C172.78 182.897 172.78 182.897 172.7 182.877ZM152.81 225.818C150.246 223.843 147.563 222.008 145.117 219.893C140.426 215.88 136.507 211.125 135.208 204.976C134.94 203.643 134.711 202.15 134.82 200.655C134.912 199.578 135.183 198.46 136.076 197.916C136.572 197.614 136.93 197.531 137.25 197.609C137.33 197.628 137.729 197.725 137.729 197.725C138.109 197.902 138.489 198.079 138.769 198.316C139.851 199.086 140.915 200.274 141.839 201.344C146.68 206.83 150.669 213.04 153.525 219.735C154.882 222.855 155.881 226.056 157.238 229.175C155.716 228.129 154.313 226.944 152.81 225.818ZM133.348 272.92C130.387 271.187 127.445 269.374 124.759 267.201C121.994 265.008 119.565 262.474 117.949 259.377C117.323 258.126 116.892 256.415 116.583 254.902C116.273 253.39 115.981 251.459 116.231 250.083C116.308 249.763 116.444 249.204 116.463 249.124C116.444 249.204 116.896 248.384 116.679 248.585C117.054 248.084 117.351 247.903 117.69 247.9C117.69 247.9 117.949 247.879 118.029 247.898C118.189 247.937 118.428 247.995 118.428 247.995C118.588 248.034 118.748 248.072 118.907 248.111C118.987 248.131 118.987 248.131 119.067 248.15L119.147 248.169C119.827 248.503 120.647 248.956 121.148 249.331C123.811 251.246 126.223 254.198 128.255 256.974C130.991 260.682 133.231 264.691 135.391 268.682C135.795 269.456 136.16 270.39 136.664 271.104C136.705 271.283 136.826 271.482 136.867 271.661C137.413 272.892 137.941 274.204 138.567 275.455C138.729 275.833 138.891 276.21 139.133 276.607C137.074 275.685 135.109 274.024 133.348 272.92ZM120.791 298.534C117.787 296.283 114.782 294.032 112.053 291.34C109.445 288.848 107.154 286.094 105.478 282.897C104.791 281.547 104.101 279.858 104.012 278.483C103.903 277.189 104.117 276.31 104.99 275.846C106.082 275.181 107.698 275.489 108.818 276.099C110.318 276.885 111.523 278.192 112.648 279.48C115.14 282.452 117.177 285.905 119.073 289.24C120.142 291.105 121.192 293.051 122.063 295.038C122.832 296.746 123.661 298.554 124.072 300.344C124.174 300.623 124.196 300.881 124.278 301.24C123.056 300.351 121.933 299.403 120.791 298.534ZM96.4232 339.373C93.5998 337.42 90.6189 335.766 87.8947 333.753C82.7873 330.061 77.9125 325.412 75.6391 319.45C75.1119 318.138 74.5436 316.648 74.7132 315.252C74.752 315.092 74.8682 314.613 75.1659 314.431C75.2845 314.291 75.5822 314.11 75.7806 313.989C75.7612 314.069 76.1 314.066 76.1 314.066C76.3396 314.124 76.5985 314.103 76.7582 314.141C78.6334 314.427 80.4312 315.033 82.0522 316.018C83.8136 317.122 85.3982 318.605 87.0216 319.929C92.574 324.574 96.287 331.224 99.6588 337.537C100.527 339.185 101.396 340.833 102.264 342.481C102.426 342.859 102.668 343.255 102.83 343.633C100.57 342.493 98.5063 340.893 96.4232 339.373ZM74.6139 292.316C76.8503 290.069 79.0478 287.981 81.8672 286.467C82.5424 286.124 83.1982 285.86 83.8734 285.517C84.4493 285.234 84.9648 284.852 85.6206 284.588C86.6539 284.163 87.6896 284.076 88.7858 284.088C88.8463 284.187 88.9261 284.207 88.9067 284.287C88.8463 284.187 88.9672 284.386 89.0083 284.565C88.9889 284.645 88.9696 284.725 89.0494 284.744C89.03 284.824 89.03 284.824 89.03 284.824C89.03 284.824 89.0106 284.904 88.9913 284.983C88.9525 285.143 88.8944 285.383 88.8556 285.542C88.8363 285.622 88.541 286.142 88.3836 286.442C87.3016 288.462 85.9582 290.165 84.3754 291.81C81.091 295.241 77.3059 298.296 73.2982 300.874C71.1952 302.224 69.1115 303.493 66.827 304.545C66.2511 304.828 65.6945 305.031 65.0387 305.295C67.8562 300.652 70.8141 296.129 74.6139 292.316ZM81.6985 236.292C84.0605 234.921 86.6039 233.847 89.3093 233.151C89.5876 233.049 89.8465 233.028 90.1054 233.006C90.2845 232.965 90.2845 232.965 90.2845 232.965C90.2845 232.965 90.3644 232.984 90.5434 232.943C91.1411 232.919 91.659 232.876 92.2566 232.852C92.2566 232.852 92.2566 232.852 92.3365 232.871C92.4164 232.89 92.4962 232.91 92.576 232.929C92.6559 232.948 92.9753 233.026 93.0551 233.045C93.0551 233.045 93.0551 233.045 93.135 233.065L93.2148 233.084C93.1955 233.164 93.2559 233.263 93.2753 233.183C93.2366 233.343 93.3187 233.701 93.3017 234.12C93.2072 234.858 93.0111 235.317 92.6166 235.898C91.9678 237.178 91.0384 238.22 90.0291 239.244C87.8727 241.51 85.6363 243.758 83.2186 245.707C77.7684 250.049 71.6336 253.379 65.5593 256.809C64.388 257.455 63.2965 258.12 62.2051 258.785C66.9666 249.964 72.8459 241.415 81.6985 236.292ZM75.0927 188.951C80.9351 183.69 88.8265 180.786 96.3669 178.98C98.5157 178.487 100.544 177.796 102.736 177.82C103.912 177.852 104.931 178.184 106.107 178.216C106.186 178.235 106.346 178.274 106.445 178.213C105.361 179.895 103.754 180.942 102.188 182.168C100.008 183.837 97.5852 185.109 95.0829 186.362C90.0783 188.868 84.931 190.916 79.8249 193.143C75.6528 195.005 71.4009 196.848 67.1273 198.432C69.3953 195.008 71.9633 191.743 75.0927 188.951ZM81.5238 133.529C83.8787 131.142 86.8143 129.149 89.7329 127.574C92.8305 125.959 95.9692 124.522 99.3087 123.304C102.549 122.145 105.968 120.946 109.434 120.603C111.265 120.372 113.138 120.319 115.033 120.525C116.449 120.615 117.588 121.145 118.333 122.256C118.318 123.013 117.984 123.693 117.35 124.215C116.815 124.677 116.16 124.941 115.625 125.403C115.01 125.846 114.495 126.228 113.8 126.651C111.399 128.182 108.837 129.336 106.213 130.39C100.49 132.721 94.6265 134.934 88.7412 136.887C85.6195 137.905 82.5366 138.763 79.3931 139.522C77.9606 139.851 76.5474 140.1 75.0132 140.15C77.2496 137.903 79.3867 135.716 81.5238 133.529ZM115.703 30.3104C117.073 26.7539 118.983 23.413 120.873 20.1518C122.725 17.0503 124.797 14.0868 127.43 11.5977C130.044 9.18841 133.241 7.5124 136.501 6.27436C137.156 6.01078 137.892 5.76658 138.608 5.60222C138.787 5.56113 138.947 5.59989 139.206 5.57817C139.206 5.57817 139.366 5.61692 139.446 5.6363C139.525 5.65568 139.605 5.67505 139.685 5.69443C139.746 5.79365 139.767 6.05255 139.748 6.13239C139.748 6.13239 139.729 6.21223 139.709 6.29208C139.651 6.5316 139.593 6.77113 139.554 6.93081C139.496 7.17034 139.438 7.40986 139.3 7.63001C139.281 7.70986 139.162 7.85016 139.143 7.93001C138.731 8.9292 138.259 9.82918 137.707 10.7098C134.417 16.2523 129.846 20.8073 125.854 25.7568C122.989 29.204 120.263 32.7698 116.996 35.7814C115.689 36.9861 114.302 38.1714 112.916 39.3566C113.652 36.3226 114.468 33.308 115.703 30.3104ZM93.0399 84.3297C97.9529 80.1111 102.706 75.8538 108.505 72.8645C114.124 69.9164 120.425 67.6411 126.637 66.7812C128.568 66.4889 130.502 66.5354 132.375 66.4826C134.327 66.4492 136.103 66.7956 138.039 67.1808C138.4 67.4374 138.82 67.7932 139.181 68.0497C139.142 68.2094 139.183 68.3885 139.145 68.5482C138.273 69.3513 137.383 70.2342 136.311 70.8195C134.96 71.5063 133.67 72.2924 132.24 72.9598C129.738 74.2126 127.115 75.2669 124.511 76.2414C119.303 78.1903 113.994 79.8609 108.643 81.3525C105.839 82.1092 103.034 82.8658 100.169 83.5233C98.816 83.8714 97.4633 84.2195 96.0912 84.6474C94.8982 85.0342 93.7051 85.4211 92.4904 85.549C92.6865 85.0893 92.8632 84.7095 93.0399 84.3297ZM83.5955 84.5742C81.9381 84.0874 80.6558 83.0999 79.2139 82.0737C76.4098 80.0405 73.8816 77.5671 71.4527 75.0332C69.3843 72.7558 67.3957 70.4979 65.5257 68.0996C63.7767 65.8998 62.1052 63.3806 61.6871 60.5737C61.5638 60.0365 61.339 59.2211 61.5544 58.6816C61.6513 58.2824 61.9877 57.9413 62.1838 57.4816C62.2419 57.2421 62.3799 57.0219 62.5179 56.8018C62.8931 56.301 63.5876 55.8777 64.183 55.5149C64.6984 55.1328 65.2938 54.77 65.8697 54.487C67.2007 53.88 68.6938 53.6505 70.0876 53.4815C70.7845 53.397 71.1256 53.7334 71.745 53.9682C72.4249 54.3023 73.1629 54.3969 73.8041 54.8906C74.3654 55.365 74.8879 55.999 75.35 56.5339C75.8919 57.0881 76.3346 57.7028 76.7772 58.3175C77.6626 59.5469 78.3302 60.977 79.0171 62.3273C80.5554 65.7441 81.8154 69.2625 82.9761 72.8414C84.1368 76.4203 85.2177 79.9798 85.9211 83.7013C86.0444 84.2385 86.0685 84.8361 86.1918 85.3733C85.3328 85.0803 84.4739 84.7873 83.5955 84.5742ZM65.5935 138.203C63.5996 138.057 61.6252 137.831 59.6096 137.427C55.259 136.54 51.0077 135.593 46.6378 134.786C42.7663 134.016 38.8948 133.246 35.1009 132.156C32.4054 131.417 29.5696 130.56 27.3656 128.842C25.0817 127.104 23.4683 124.345 23.827 121.473C24.1276 118.841 26.1437 116.455 28.791 115.999C32.612 115.235 36.4254 116.245 40.0402 117.376C42.0171 117.94 43.9358 118.744 45.8351 119.627C47.6546 120.492 49.4136 121.257 51.1145 122.261C54.4364 124.251 57.2646 126.882 59.8749 129.713C62.2845 132.327 64.377 135.202 66.1718 138.258C66.0121 138.22 65.7726 138.161 65.5935 138.203ZM53.431 200.519C51.3766 200.274 49.3223 200.029 47.2873 199.704C43.4376 199.193 39.6677 198.701 35.7986 198.269C31.9295 197.838 28.0193 197.227 24.2253 196.137C21.15 195.222 17.7141 194.05 15.486 191.734C14.603 190.843 13.8967 189.573 13.7881 188.278C13.7446 187.76 13.8027 187.521 14.1198 187.26C14.4562 186.918 15.0322 186.635 15.6298 186.611C17.5221 186.479 19.4168 186.685 21.3331 187.15C23.2688 187.535 25.3038 187.86 27.2202 188.325C34.8251 190.086 42.3984 193.023 49.0035 197.162C50.6245 198.147 52.0277 199.333 53.5302 200.458C53.5302 200.458 53.5302 200.458 53.431 200.519ZM47.4032 259.505C43.5364 259.412 39.6286 259.14 35.7982 258.549C31.9678 257.957 28.0359 257.088 24.3194 255.679C22.9209 255.17 21.5007 254.403 20.2789 253.514C19.7176 253.04 19.0765 252.546 18.6338 251.932C18.4934 251.813 18.0701 251.119 17.7678 250.622C18.305 250.499 18.9027 250.475 19.5004 250.451C21.2934 250.379 23.1276 250.486 24.9424 250.673C28.7316 251.085 32.5039 251.916 36.1963 252.727C39.6491 253.48 43.0438 254.473 46.1843 256.165C47.6844 256.952 49.1264 257.978 50.4691 259.065C50.6095 259.184 50.7498 259.302 50.8707 259.501C49.6754 259.549 48.5792 259.536 47.4032 259.505ZM53.9339 307.504C52.3005 307.615 50.7276 307.825 49.0749 308.016C45.6896 308.378 42.2438 308.641 38.7956 308.565C35.5072 308.528 32.197 308.232 28.9256 307.776C25.9131 307.299 22.5618 306.824 19.8205 305.228C19.3003 304.933 19.3003 304.933 18.8794 304.577C18.739 304.459 18.3979 304.122 18.3979 304.122C18.4584 304.221 18.1149 303.546 18.2964 303.844C18.1754 303.646 18.2553 303.665 18.2746 303.585C18.2553 303.665 18.2553 303.665 18.2746 303.585C18.2746 303.585 18.2746 303.585 18.294 303.505C18.294 303.505 18.294 303.505 18.3134 303.425L18.3328 303.346C18.3328 303.346 18.3328 303.346 18.3134 303.425L18.3328 303.346C18.432 303.285 18.4514 303.205 18.5699 303.065C18.7684 302.944 18.9668 302.823 19.1459 302.782C19.2451 302.722 19.3444 302.661 19.5234 302.62C20.08 302.417 20.5374 302.274 21.0746 302.151C21.8707 302.006 22.6669 301.861 23.7025 301.774C26.391 301.497 29.0987 301.139 31.7895 301.2C34.8989 301.278 37.9114 301.756 40.8658 302.473C45.2574 303.538 49.753 305.221 53.7742 307.465C54.0331 307.443 54.0137 307.523 53.9339 307.504ZM146.772 337.81C147.49 337.984 148.209 338.159 148.927 338.333C149.167 338.391 149.327 338.43 149.547 338.568L149.627 338.587C149.866 338.646 150.007 338.764 150.246 338.822C151.466 339.372 152.126 339.786 152.949 340.577C153.009 340.676 153.35 341.013 153.35 341.013C153.471 341.211 153.592 341.41 153.732 341.528C153.732 341.528 153.793 341.627 153.853 341.727C153.914 341.826 153.895 341.906 153.895 341.906C153.955 342.005 153.996 342.184 153.977 342.264L153.957 342.344C153.96 342.682 153.962 343.021 153.766 343.481C153.57 343.941 153.156 344.601 152.8 345.022C150.961 347.027 148.117 347.944 145.371 348.461C142.106 349.021 138.358 348.788 134.988 348.393C130.879 347.903 126.77 347.413 122.603 347.163C120.61 347.017 118.596 346.952 116.641 346.646C115.504 346.455 114.268 346.324 113.13 346.133C123.333 340.323 134.976 335.201 146.772 337.81ZM154.458 296.727C158.132 294.829 162.025 293.068 165.902 291.726C167.85 291.015 169.839 290.483 171.87 290.131C173.9 289.778 175.991 289.524 178.043 289.431C179.995 289.397 182.388 289.64 184.128 290.485C184.348 290.623 184.568 290.76 184.689 290.959C184.75 291.058 184.81 291.157 184.951 291.276C184.951 291.276 185.091 291.395 185.072 291.474C185.272 291.692 185.374 291.97 185.555 292.268C185.555 292.268 185.679 292.805 185.739 292.905C185.8 293.004 185.761 293.163 185.72 292.984C185.7 293.064 185.78 293.084 185.761 293.163C185.741 293.243 185.783 293.422 185.763 293.502C185.705 293.742 185.647 293.981 185.569 294.301C185.569 294.301 185.569 294.301 185.55 294.38C185.511 294.54 185.412 294.601 185.373 294.76C185.235 294.98 185.097 295.201 184.959 295.421C184.94 295.501 184.821 295.641 184.722 295.701C184.722 295.701 184.722 295.701 184.703 295.781C184.703 295.781 184.703 295.781 184.683 295.861C184.308 296.362 183.853 296.843 183.318 297.305C182.329 298.249 181.615 298.752 180.405 299.557C179.294 300.302 178.122 300.948 176.871 301.574C176.593 301.676 176.395 301.797 176.097 301.978C175.918 302.019 175.799 302.159 175.62 302.201C175.62 302.201 175.521 302.261 175.422 302.321C175.322 302.382 174.945 302.544 174.766 302.585C174.488 302.687 174.209 302.788 173.931 302.89C172.44 303.458 170.909 303.847 169.377 304.236C161.299 306.165 152.847 305.805 144.658 306.101C142.606 306.195 140.554 306.288 138.423 306.363C143.679 302.819 148.957 299.535 154.458 296.727ZM193.295 264.556C189.582 266.614 185.829 268.493 181.872 269.816C177.538 271.3 173.139 272.008 168.599 272.597C163.522 273.31 158.545 273.962 153.531 275.113C152.994 275.236 152.456 275.359 151.939 275.403C161.189 267.248 171.16 259.607 183.114 256.336C186.654 255.336 190.318 254.872 193.945 254.907C195.54 254.956 196.556 254.948 197.993 255.297C198.073 255.317 198.073 255.317 198.153 255.336C198.313 255.375 198.453 255.493 198.613 255.532C198.693 255.551 198.753 255.651 198.753 255.651C198.833 255.67 198.814 255.75 198.893 255.769C198.973 255.789 198.954 255.869 198.954 255.869C198.954 255.869 198.954 255.869 199.014 255.968C199.075 256.067 199.176 256.345 199.094 255.987C199.237 256.444 199.256 256.365 199.239 256.783C199.386 260.708 196.233 262.902 193.295 264.556Z" fill="white"/>
</svg>
