<svg width="248" height="390" viewBox="0 0 248 390" fill="none" xmlns="http://www.w3.org/2000/svg">
<path d="M219.457 32.8704C216.245 32.9979 213.082 33.7444 210.04 34.8477C204.097 37.0064 198.466 40.0929 192.859 43.0127C195.373 40.3392 197.792 37.6182 200.163 34.7546C202.937 31.4374 205.639 27.9061 208.175 24.3515C209.952 21.8465 212.395 19.197 212.504 15.982C212.568 13.5768 210.801 11.6289 208.374 11.7305C206.328 11.7835 204.356 13.0031 202.741 14.1027C200.794 15.3936 199.014 16.9461 197.329 18.5459C196.261 19.6203 195.099 20.6472 194.174 21.9117C192.728 23.749 191.473 25.6811 190.313 27.6605C190.289 27.5892 190.36 27.5652 190.336 27.4938C191.231 24.253 192.22 21.0596 192.853 17.748C193.509 14.5079 194.069 10.9822 193.512 7.67375C193.099 5.03168 191.922 1.29626 189.016 0.44664C186.396 -0.260857 183.951 1.91246 182.553 3.89253C179.213 8.83041 179.114 15.379 179.06 21.1179C179.012 28.7617 179.821 36.3557 180.249 43.9983C180.299 44.8554 180.777 45.3304 181.42 45.5906C181.373 45.686 181.302 45.71 181.254 45.8054C180.687 46.9498 180.119 48.0943 179.504 49.3341C178.981 49.6689 178.769 50.2171 178.794 50.7647C174.088 60.3734 169.668 70.1241 165.701 80.0404C161.331 90.8864 158.129 102.134 155.618 113.547C155.406 114.333 155.29 115.167 155.078 115.953C155.081 109.119 154.703 102.334 154.087 95.5488C153.447 88.6925 152.498 81.8609 151.264 75.1253C149.957 68.1756 148.484 61.2025 146.013 54.5654C143.277 47.1431 139.258 40.1529 135.143 33.3534C134.426 32.1647 132.499 32.5745 132.242 33.9325C131.89 35.7193 132.705 37.4317 133.139 39.1926C133.596 41.025 134.007 42.9527 134.322 44.833C134.881 48.6177 135.155 52.4984 135.333 56.3316C135.762 64.2124 136.405 72.0211 137.285 79.8291C137.75 83.8046 138.214 87.78 138.916 91.7548C139.619 95.7296 140.678 99.5843 142.046 103.415C144.567 110.671 148.015 117.615 150.108 125.015C151.167 128.632 151.702 132.345 151.713 136.155C151.551 137.56 151.318 138.989 151.179 140.466C151.203 140.538 151.156 140.633 151.156 140.633C150.901 142.943 150.671 145.325 150.487 147.612C150.205 148.66 150.161 149.708 150.283 150.779C149.556 162.068 149.639 173.402 150.078 184.617C150.494 196.236 151.434 207.759 153.088 219.279C153.045 221.042 153.075 222.78 153.104 224.518C153.11 226.661 153.212 228.852 153.385 231.018C150.66 226.929 147.839 222.794 145.161 218.61C142.961 215.139 141.117 211.548 139.678 207.742C138.19 203.793 136.988 199.748 135.785 195.703C133.502 188.208 130.623 180.834 127.222 173.795C123.845 166.826 119.922 160.122 114.93 154.253C111.921 150.737 108.651 147.626 105.096 144.611C103.33 143.139 101.636 141.644 99.8704 140.172C99.2976 139.65 98.6776 139.223 98.1048 138.7C97.1493 137.512 96.1464 136.419 94.9776 135.541C94.2382 134.996 93.3336 134.903 92.5978 135.548C92.0047 136.145 91.7224 137.193 92.2718 137.882C93.2754 139.213 94.445 140.329 95.6858 141.421C95.9485 141.73 96.1399 142.063 96.4027 142.372C97.669 144.012 98.864 145.675 100.083 147.41C102.45 150.905 104.651 154.613 106.613 158.323C110.658 165.861 114.038 173.781 117.18 181.703C118.787 185.77 120.347 189.933 121.811 194.049C123.275 198.165 124.597 202.328 126.061 206.444C127.526 210.56 129.109 214.556 130.977 218.456C132.726 222.238 134.57 226.067 136.913 229.49C138.204 231.439 139.661 233.173 141.26 234.86C142.812 236.403 144.245 238.067 145.797 239.61C147.467 241.273 149.352 242.625 151.307 243.953C152.237 244.594 153.239 245.21 154.216 245.756C155.098 246.253 156.003 246.584 156.696 247.225C157.268 247.748 158.006 247.817 158.695 247.506C159.635 251.242 160.575 254.978 161.61 258.761C163.27 264.877 165.502 270.8 167.733 276.724C169.941 282.576 172.077 288.452 174.355 294.28C178.288 304.08 183.125 313.497 188.222 322.746C183.945 317.352 179.74 311.934 175.535 306.516C169.921 299.268 164.638 291.829 159.855 283.983C155.047 276.066 150.429 268.006 145.74 259.97C136.409 243.802 127.197 227.515 117.082 211.849C115.743 209.757 114.333 207.689 112.922 205.621C112.992 205.121 112.729 204.574 112.371 204.218C111.869 203.671 111.392 203.196 110.819 202.674C110.341 201.961 109.816 201.343 109.337 200.63C106.685 196.994 103.699 193.549 100.833 189.985C98.9216 187.608 97.0104 185.232 95.1233 182.927C95.0993 182.856 95.0993 182.856 95.0753 182.785C93.7092 179.669 91.9152 176.697 90.2166 173.772C88.518 170.848 86.938 167.804 85.5719 164.688C82.6251 158.291 80.3915 151.653 78.7284 144.823C77.0654 137.993 75.6876 131.068 74.2625 124.237C72.8375 117.407 71.7457 110.623 71.5578 103.695C71.5287 101.956 71.4995 100.218 71.4704 98.4799C71.4464 98.4085 71.4937 98.3132 71.4697 98.2418C71.9223 98.4073 72.4223 98.4774 72.9223 98.5475C73.9222 98.6878 74.8981 98.7567 75.874 98.8255C76.112 98.8249 76.4453 98.8717 76.6833 98.871C77.0166 98.9178 77.2786 98.9885 77.6119 99.0353C80.5644 99.5514 83.565 100.21 86.6587 100.202C89.681 100.218 92.6299 99.5436 95.4834 98.8218C97.5997 98.2685 99.9067 97.8101 101.639 96.353C103.823 94.5852 104.624 91.7732 103.854 89.013C102.194 83.3739 94.7925 83.0837 90.1065 83.7866C90.0352 83.8106 89.9638 83.8346 89.9638 83.8346C92.5036 81.7086 94.8288 79.4166 96.7238 76.5541C98.0978 74.5027 99.423 72.0704 99.4389 69.5224C99.4556 67.2126 97.6901 65.7409 95.4296 65.8659C93.1692 65.9909 90.9598 67.2111 89.0356 68.3353C86.7076 69.6749 84.6663 71.3947 82.649 73.1859C79.8486 75.7173 77.3357 78.8671 75.4422 82.2058C75.8103 78.1091 76.3925 73.9405 76.6893 69.8678C76.9869 66.0333 76.9038 62.2474 76.1309 58.5347C75.6964 56.5356 75.2146 54.6319 74.2568 52.7294C73.7539 51.7068 73.2044 51.0177 72.3217 50.2818C71.6536 49.7121 71.0088 48.9756 70.0802 48.8114C65.6037 48.0135 63.8878 54.9473 63.2074 58.1161C61.7055 64.978 62.1553 71.9776 63.8657 78.7119C62.528 77.0962 61.1904 75.4805 59.7101 73.9128C57.561 71.5372 55.198 69.2336 52.5271 67.4309C50.2375 65.8176 46.2341 64.066 44.6025 67.4755C43.4913 69.8358 44.2853 72.6673 45.4345 74.9027C46.7991 77.5422 48.9475 79.6797 51.2377 81.531C53.7187 83.4771 56.3656 85.2085 58.7992 87.25C61.3522 89.4102 63.9533 91.7131 66.3404 94.0881C66.8418 94.6345 67.3192 95.1095 67.8206 95.6558C67.8527 98.3465 67.8848 101.037 67.8928 103.657C68.0087 110.371 68.9331 116.893 70.2621 123.438C71.5911 129.983 72.8728 136.623 74.4397 143.168C75.9827 149.64 77.9063 156.065 80.5191 162.178C81.8371 165.151 83.2264 168.1 84.7344 170.929C84.257 170.454 83.7795 169.979 83.3021 169.504C80.1276 166.441 76.5499 163.831 72.9962 161.292C69.3232 158.635 65.7215 155.954 61.9771 153.32C55.8479 149.026 49.4777 143.781 42.0946 141.895C41.4753 141.706 40.8087 141.613 40.2134 141.495C40.1391 140.567 39.637 139.782 39.0395 138.95C39.0154 138.879 38.9201 138.832 38.8961 138.76C39.0329 136.807 38.9077 134.784 38.4972 132.856C37.8443 129.5 37.1201 126.168 36.1107 122.932C35.1485 119.601 33.9251 116.437 32.4637 113.274C31.0984 110.397 29.5897 107.329 27.3452 104.906C26.9391 104.407 26.4617 103.932 25.937 103.552C25.4123 103.173 24.9109 102.626 24.2908 102.199C23.2894 101.583 21.1454 100.874 19.9592 102.068C19.4134 102.569 18.749 103.19 18.5845 103.881C18.2774 104.62 18.3044 105.644 18.2592 106.454C18.121 107.93 18.2448 109.478 18.4398 111.001C18.9486 113.929 19.7906 116.903 20.68 119.782C21.6887 122.78 22.9827 125.681 24.6807 128.368C24.848 128.629 25.0154 128.891 25.1828 129.152C24.3481 128.559 23.5846 127.942 22.7499 127.349C22.3445 127.088 21.9392 126.827 21.5338 126.566C21.6291 126.614 21.6291 126.614 21.4385 126.519C21.4385 126.519 21.4144 126.448 21.3431 126.472C21.0571 126.329 20.8184 126.092 20.5324 125.95C19.9123 125.523 19.221 125.12 18.6009 124.693C16.9795 123.649 15.3107 122.701 13.5473 121.944C11.784 121.186 9.87796 120.477 7.83151 120.53C7.35556 120.531 6.90362 120.604 6.45169 120.677C6.30905 120.725 6.16641 120.773 5.95245 120.845C5.80981 120.893 5.66717 120.941 5.54855 121.06C5.61987 121.036 5.61987 121.036 5.47723 121.084L5.40591 121.108C5.40591 121.108 5.40591 121.108 5.33459 121.132C5.33459 121.132 5.33459 121.132 5.40591 121.108C4.52679 121.563 3.79104 122.208 3.294 123.09C1.96881 125.522 2.54961 128.664 4.34066 130.683C5.36754 131.847 6.70299 132.749 7.9431 133.603C9.39791 134.623 10.876 135.476 12.4967 136.282C15.1662 137.608 17.9535 138.577 20.7408 139.546C15.1014 139.775 9.65565 141.051 4.69023 143.755C2.88469 144.76 0.65196 146.147 0.206615 148.363C-0.21471 150.65 1.45771 152.788 3.29386 153.998C5.15403 155.279 7.4632 155.535 9.67557 155.267C12.2686 154.951 14.9081 154.301 17.4523 153.604C20.3059 152.882 23.1113 152.017 25.8688 151.01C24.1375 152.943 22.4542 155.019 21.0089 157.095C17.2895 162.558 14.0242 168.662 11.8541 174.954C11.3353 176.48 11.245 178.099 11.6068 179.646C11.7523 180.55 11.9692 181.431 12.614 182.167C13.0914 182.642 13.6402 183.093 14.2122 183.378C16.7383 184.514 19.185 183.055 21.1077 181.454C25.9493 177.203 29.1673 171.194 32.0055 165.472C33.7084 162.038 35.1252 158.463 36.4468 154.84C37.1075 153.028 37.9109 151.169 38.6671 149.405C39.0688 148.475 39.4464 147.474 39.7768 146.568C39.942 146.115 40.0359 145.687 40.1538 145.329C45.8463 146.91 50.9028 150.611 55.6486 153.861C62.9939 158.937 70.4346 164.061 77.3294 169.687C84.129 175.265 89.5531 182.418 95.0237 189.238C96.5047 191.044 97.9144 192.873 99.3714 194.608C95.034 192.571 90.4127 191.107 85.8162 189.952C80.8863 188.751 75.8386 187.907 70.7203 187.325C65.5307 186.767 60.2704 186.471 55.0605 187.033C53.6806 187.179 52.3248 187.397 50.8737 187.568C49.4466 187.809 47.9001 187.933 46.569 188.46C45.3093 188.963 43.268 190.683 44.8429 192.06C45.7256 192.796 46.941 193.34 47.9897 193.862C49.1338 194.43 50.3251 194.903 51.5164 195.376C56.3531 197.245 61.3085 198.994 66.0746 201.124C70.8407 203.255 75.3463 205.791 80.0891 208.089C82.6392 209.296 85.1652 210.433 87.9278 211.092C90.571 211.633 93.2608 211.84 95.9732 211.643C99.0188 211.492 102.039 210.793 105.037 210.738C105.68 210.76 106.394 210.758 107.084 210.685C107.774 210.612 108.558 210.347 109.296 210.417C109.701 210.44 110.153 210.605 110.582 210.699C110.915 210.746 111.225 210.722 111.463 210.721C121.671 225.958 130.669 242.079 139.975 257.937C143.515 263.976 147.009 270.111 150.549 276.15C149.619 275.271 148.688 274.392 147.757 273.514C142.96 269.169 137.808 265.42 132.182 262.148C129.417 260.537 126.628 259.091 123.768 257.67C121.003 256.296 118.238 254.922 115.355 253.668C109.421 251.135 103.206 249.652 96.7322 249.526C93.0672 249.488 89.451 249.831 85.8836 250.554C82.1022 251.35 78.3695 252.527 74.5401 253.18C73.6362 253.325 72.9005 253.97 72.9274 254.993C73.0017 255.922 73.8131 256.682 74.741 256.608C80.6657 256.283 86.7854 257.481 92.3127 259.515C97.8401 261.548 103.108 264.463 107.689 268.166C113.319 272.628 118.024 278.116 122.942 283.294C127.502 288.116 132.608 292.436 138.922 294.682C140.542 295.249 142.28 295.697 144.018 295.907C145.923 296.14 147.899 296.349 149.897 296.153C151.8 295.91 153.558 295.001 155.509 294.901C157.056 294.777 158.77 294.916 160.152 295.484C160.891 295.791 161.794 295.646 162.268 294.93L162.315 294.835C164.515 298.068 166.857 301.252 169.317 304.318C178.587 316.057 187.928 327.772 197.839 339.056C202.095 345.57 206.873 351.748 212.032 357.64C211.197 357.047 210.362 356.454 209.528 355.861C205.783 353.228 201.992 350.69 198.153 348.247C194.409 345.852 190.665 343.457 186.661 341.467C182.562 339.43 178.344 337.512 174.125 335.594C169.979 333.653 165.832 331.711 161.52 330.222C157.375 328.757 153.159 327.553 148.801 326.636C144.586 325.671 140.371 324.944 135.992 324.669C131.041 324.349 126.116 324.814 121.313 326.113C118.911 326.762 116.701 327.744 114.372 328.607C112.898 329.183 110.781 329.498 110.167 331.214C109.766 332.144 110.15 333.286 111.269 333.545C113.65 334.015 116.054 334.08 118.506 334.288C121.006 334.638 123.506 334.989 125.982 335.506C130.673 336.47 135.389 337.744 139.845 339.661C148.162 343.139 155.579 348.43 162.83 353.697C170.629 359.416 178.192 365.611 186.939 369.898C195.686 374.185 204.978 377.732 214.669 379.398C219.979 380.312 225.311 380.822 230.526 381.928C232.336 382.352 234.288 382.728 235.981 383.509C236.673 384.15 237.436 384.767 238.175 385.313C238.485 385.526 238.796 385.74 239.106 385.953C239.894 386.88 240.682 387.807 241.873 388.28C242.326 388.445 242.755 388.539 243.182 388.395C243.541 388.752 243.97 389.084 244.328 389.44C245.975 391.031 248.251 388.358 246.604 386.767C234.598 374.916 221.997 363.424 211.272 350.427C211.247 350.118 211.198 349.737 210.864 349.452C209.718 348.169 208.501 346.91 207.354 345.627C206.637 344.677 205.921 343.726 205.204 342.776C205.368 342.085 205.104 341.299 204.627 340.824C204.458 340.087 204.36 339.325 204.191 338.587C203.926 337.564 203.637 336.469 203.444 335.422C203.033 333.256 202.907 330.995 202.947 328.756C203.012 326.589 203.386 324.397 203.76 322.206C204.157 319.847 204.531 317.417 204.928 315.059C206.447 306.125 208.729 297.333 209.986 288.328C211.22 279.253 211.286 270.013 210.759 260.895C210.254 251.609 208.893 242.374 208.079 233.113C207.658 227.852 207.547 222.566 207.34 217.232C207.237 214.566 207.157 211.97 207.054 209.304C206.927 206.804 207.133 204.112 206.174 201.734C205.694 200.544 204.217 199.929 203.125 200.694C201.51 201.793 200.896 203.509 200.307 205.297C199.576 207.371 198.63 209.278 197.708 211.257C195.864 215.453 194.259 219.648 193.226 224.127C191.371 232.538 191.517 241.229 191.377 249.778C191.262 258.874 190.243 267.878 189.39 276.905C188.952 281.502 188.68 286.122 188.647 290.742C188.614 295.361 188.961 299.932 189.546 304.503C190.181 309.692 190.958 314.834 191.973 319.974C192.119 320.879 192.336 321.759 192.553 322.64C191.667 320.951 190.71 319.287 189.848 317.67C186.976 312.201 183.937 306.708 181.397 301.048C176.341 289.798 172.093 278.117 168.082 266.436C165.922 260.25 164.093 253.873 162.574 247.472C162.883 247.209 163.072 246.828 163.095 246.423C163.956 240.253 164.437 234.132 164.965 227.916C165.494 221.7 166.213 215.578 167.074 209.408C168.844 196.974 170.639 184.611 172.933 172.317C173.59 169.077 174.222 165.766 175.14 162.596C176.106 159.331 177.429 156.185 178.228 152.897C178.486 151.777 177.674 150.779 176.626 150.496C174.197 149.883 172.589 153.126 171.666 154.866C170.127 157.609 168.565 160.28 167.098 162.998C163.809 169.27 161.069 175.754 158.876 182.451C157.132 187.884 155.769 193.508 154.739 199.178C154.567 197.249 154.489 195.368 154.317 193.44C153.566 181.536 153.339 169.535 153.707 157.652C153.791 154.127 154.042 150.626 154.318 147.197C154.791 146.243 155.288 145.361 155.713 144.502C156.825 142.142 157.816 139.663 158.642 137.16C159.373 135.087 160.081 133.18 161.504 131.509C163.164 129.6 165.038 127.857 166.913 126.114C170.615 122.723 174.508 119.426 177.732 115.56C180.933 111.623 183.895 107.448 186.189 102.942C188.649 97.9822 190.442 92.6912 193.688 88.1822C194.328 87.2519 194.372 86.204 193.465 85.3968C192.057 84.0432 190.086 85.5009 188.851 86.3138C187.569 87.222 186.358 88.1062 185.171 89.0618C183.486 90.4235 181.681 91.6665 179.971 92.9568C177.455 94.916 174.962 96.9466 172.66 99.0719C167.084 104.206 162.415 110.386 158.723 117.11C160.645 107.723 163.068 98.4065 166.205 89.3258C170.215 77.8855 175.298 66.7995 180.524 55.9036C180.997 54.9499 181.422 54.0915 181.896 53.1378C183.116 55.3492 184.669 57.3691 186.008 59.4611C187.969 62.4563 190.404 64.974 193.148 67.2289C198.039 71.3833 203.405 75.0601 210.116 75.1854C213.067 75.2252 216.277 74.3834 218.269 72.0446C220.404 69.6578 220.893 66.1561 219.741 63.2064C218.614 60.3281 216.369 57.9051 213.818 56.2212C211.076 54.4424 207.67 53.5227 204.574 52.8164C202.859 52.4399 201.169 52.1348 199.478 51.8297C200.097 51.7804 200.763 51.6358 201.381 51.5866C208.541 50.4486 215.46 48.597 221.492 44.3426C224.246 42.3828 226.905 40.1375 227.68 36.7779C227.821 36.2537 227.581 35.5399 227.127 35.1363C225.052 33.4511 222.408 32.6722 219.457 32.8704ZM155.18 241.776C154.965 241.61 154.703 241.54 154.488 241.373C152.867 240.33 151.197 239.144 149.742 237.885C148.262 236.556 146.972 235.083 145.612 233.634C144.322 232.161 142.914 230.807 141.767 229.286C139.329 226.054 137.51 222.535 135.738 218.92C133.87 215.02 132.191 210.976 130.68 206.956C129.144 202.864 127.822 198.7 126.358 194.585C124.894 190.469 123.334 186.306 121.727 182.238C118.537 174.174 115.133 166.183 111.04 158.502C109.7 155.934 108.288 153.39 106.757 150.965C107.927 152.081 109.072 153.126 110.099 154.29C115.304 159.848 119.442 166.481 122.913 173.258C126.409 180.107 129.477 187.338 131.88 194.713C134.45 202.588 136.617 210.679 140.922 217.811C143.41 221.9 146.159 225.822 148.932 229.815C150.772 232.454 152.541 235.116 154.335 237.85C154.505 239.064 154.795 240.396 155.18 241.776ZM93.4266 87.7545C95.3064 87.6781 97.4008 87.7679 98.8796 88.8594C100.024 89.666 100.506 91.3316 99.7952 92.524C99.0137 93.7405 97.4679 94.1018 95.8749 94.5584C93.6159 95.1596 91.2616 95.7134 88.9779 96.0052C86.4563 96.2975 83.9805 96.0183 81.4566 95.5963C79.5994 95.2678 77.7421 94.9393 75.8616 94.7775C76.9539 94.0127 78.237 93.3425 79.3533 92.6491C81.6101 91.3335 83.8668 90.0179 86.339 89.1066C88.7398 88.2192 91.0468 87.7607 93.4266 87.7545ZM83.8295 77.8738C86.6756 74.7707 90.3551 71.7846 94.301 70.2979C94.6576 70.1779 95.0142 70.0579 95.3708 69.9379C95.3708 69.9379 95.3708 69.9379 95.5374 69.9613C95.4901 70.0566 95.5142 70.128 95.5382 70.1994C95.2107 72.0576 94.1213 73.7749 92.9598 75.2781C91.7511 76.8767 90.447 78.4279 88.9041 79.7417C87.1954 81.2701 85.3193 82.5371 83.4672 83.8754C81.4724 85.2617 79.3583 86.5293 77.3395 87.8443C78.875 84.1494 81.1492 80.7621 83.8295 77.8738ZM67.8385 78.2491C66.0088 71.396 65.6055 64.0629 67.3927 57.105C67.7216 55.7231 67.9807 54.8413 68.6669 53.5775C68.7616 53.3868 68.8089 53.2914 68.9035 53.1006C68.9508 53.0053 68.9508 53.0053 68.9508 53.0053C68.9508 53.0053 69.0221 52.9813 68.9981 52.9099C69.1167 52.7905 69.2826 52.5758 69.4012 52.4564C69.95 52.9074 70.4987 53.3584 70.8575 53.9528C71.2883 54.7612 71.6479 55.5937 71.9361 56.4502C72.4885 58.0918 72.7796 59.9008 72.9754 61.6623C73.3903 65.0188 73.1626 68.3531 72.7922 71.7354C72.2385 77.4041 71.3755 83.0975 71.2264 88.789C69.7883 85.4591 68.7301 81.8424 67.8385 78.2491ZM65.3709 88.3757C63.0085 86.3103 60.6222 84.1734 58.0226 82.3467C55.6137 80.6147 53.0862 79.0021 50.9378 76.8646C49.2669 75.2022 47.5464 72.9207 47.5151 70.4681C47.5376 70.0633 47.5842 69.7298 47.7021 69.3723C47.7021 69.3723 47.7494 69.2769 47.7967 69.1816C47.9633 69.2049 48.0587 69.2523 48.2253 69.2757C48.2493 69.3471 48.7733 69.4886 48.8687 69.5359C49.1547 69.678 49.4407 69.8202 49.6554 69.9863C49.8461 70.081 49.56 69.9389 49.56 69.9389C50.3468 70.3893 49.9654 70.1998 49.846 70.081C50.0367 70.1758 50.1561 70.2945 50.2754 70.4133C52.7797 72.1926 54.9761 74.4728 57.0772 76.7057C58.08 77.7984 58.6055 78.4162 59.513 79.4615C61.3761 81.695 63.2159 84.0952 64.6991 86.6154C65.0819 87.2811 65.4648 87.9469 65.7762 88.6366C65.6336 88.6846 65.4902 88.4945 65.3709 88.3757ZM18.3231 134.957C15.4164 133.869 12.6044 132.59 10.0528 130.906C8.90804 130.1 7.62063 129.341 6.7604 128.2C6.04354 127.25 6.06463 126.369 6.27566 125.344C6.25164 125.273 6.29895 125.177 6.37026 125.153C6.41757 125.058 6.51217 124.867 6.55947 124.772C6.63079 124.748 6.60678 124.677 6.6781 124.653L6.74941 124.629C6.82073 124.605 6.86804 124.509 6.82073 124.605L6.89205 124.581C6.96337 124.557 7.03469 124.533 7.10601 124.509C7.17733 124.485 7.24865 124.461 7.34399 124.508C7.51064 124.531 7.65329 124.483 7.81994 124.507C7.89126 124.483 7.9866 124.53 8.05792 124.506C8.22457 124.53 8.39123 124.553 8.55788 124.576C8.98654 124.67 9.34387 124.789 9.77252 124.883C9.86785 124.93 9.93917 124.906 9.96319 124.977C9.96319 124.977 10.0345 124.953 10.0585 125.025C10.2492 125.12 10.4159 125.143 10.6065 125.238C11.0592 125.403 11.4405 125.593 11.8932 125.758C13.5139 126.563 15.0874 127.464 16.6135 128.46C16.9235 128.674 17.2335 128.887 17.5436 129.101C17.6629 129.22 17.8536 129.314 17.9489 129.362C18.1396 129.456 18.4737 129.741 18.0683 129.48C18.593 129.86 19.189 130.216 19.7138 130.595C22.79 132.659 25.5817 135.057 28.3735 137.454C28.9222 137.905 29.3996 138.38 29.9483 138.831C29.1624 138.619 28.3764 138.407 27.6617 138.171C24.6357 136.964 21.4205 136.139 18.3231 134.957ZM20.5314 148.833C17.7972 149.674 15.039 150.443 12.3041 151.046C10.6158 151.455 8.78474 151.912 7.02283 151.631C6.26087 151.49 5.59351 151.158 5.02076 150.636C4.78205 150.399 4.54334 150.161 4.35194 149.828C4.32792 149.757 4.3039 149.685 4.23258 149.709C4.23258 149.709 4.20857 149.638 4.18455 149.567C4.16053 149.495 4.13651 149.424 4.13651 149.424C4.1125 149.353 4.1125 149.353 4.08848 149.281C4.06446 149.21 4.13578 149.186 4.13578 149.186C4.13578 149.186 4.13578 149.186 4.2071 149.162C3.92256 149.496 4.72889 148.589 4.61027 148.708C5.46464 147.944 6.62904 147.393 7.6508 146.891C12.3557 144.592 17.3743 143.698 22.5384 143.708C25.3941 143.701 28.1793 143.956 30.9651 144.448C31.3938 144.542 31.7271 144.589 32.1798 144.755C30.92 145.258 29.6363 145.69 28.3765 146.193C25.785 146.986 23.1702 147.945 20.5314 148.833ZM33.7453 150.823C32.5882 153.755 31.5978 156.71 30.4167 159.57C29.2829 162.336 27.9584 165.006 26.5386 167.629C25.1661 170.157 23.7223 172.709 21.9685 175.047C20.5938 176.86 19.0058 178.983 16.9383 179.918C16.4631 180.157 16.2491 180.229 15.7244 179.849C15.7244 179.849 15.7244 179.849 15.7004 179.778C15.6524 179.635 15.6043 179.492 15.5563 179.35C15.4842 179.136 15.5075 178.969 15.4355 178.755C15.386 178.136 15.4078 177.493 15.5963 176.873C15.9492 175.563 16.5401 174.251 17.0597 172.964C17.6739 171.486 18.3834 170.056 19.117 168.696C20.4895 166.169 21.838 163.57 23.4011 161.137C25.1775 158.394 27.1927 155.888 29.3271 153.501C30.8925 151.783 32.6005 150.016 34.6193 148.701C34.3595 149.345 34.0524 150.084 33.7453 150.823ZM34.4712 131.509C34.7361 132.532 34.9057 133.508 35.028 134.579C33.5244 133.178 31.9022 131.897 30.5646 130.281C28.6062 128 26.9563 125.457 25.7103 122.698C24.4643 119.939 23.599 117.131 22.7809 114.228C22.3479 112.705 22.0102 111.23 21.8151 109.707C21.6201 108.183 21.8536 106.754 22.0159 105.348C22.2066 105.443 22.3972 105.538 22.6119 105.704C23.1607 106.155 23.7574 106.749 24.3062 107.2C25.4757 108.316 26.2413 109.647 27.007 110.979C28.7776 114.117 30.2871 117.423 31.5112 120.825C32.7121 124.394 33.675 127.963 34.4712 131.509ZM105.454 207.022C103.074 207.028 100.744 207.415 98.3172 207.755C94.2017 208.266 89.9895 208.253 86.0348 206.882C81.7229 205.393 77.5986 203.047 73.4991 201.01C69.3996 198.973 65.1583 197.222 60.8696 195.566C58.4156 194.644 55.9856 193.793 53.5315 192.871C52.1735 192.374 50.7202 191.83 49.3615 191.096C49.5041 191.048 49.5995 191.095 49.7421 191.047C50.7173 190.878 51.8118 190.827 52.787 190.658C57.735 190.026 62.6372 189.966 67.6361 190.429C72.6351 190.892 77.6348 191.593 82.5166 192.652C87.3271 193.735 92.1143 194.984 96.6657 196.949C99.1677 198.014 101.646 199.245 103.793 200.907C104.318 201.286 104.843 201.666 105.32 202.141C106.467 203.662 107.59 205.111 108.666 206.656C107.619 206.85 106.549 206.971 105.454 207.022ZM157.543 290.799C155.83 290.661 154.14 290.832 152.452 291.241C151.572 291.458 150.716 291.746 149.837 291.963C149.028 292.155 148.147 292.134 147.267 292.112C145.744 292.069 144.077 291.835 142.529 291.482C136.266 290.093 131.113 285.868 126.673 281.403C121.612 276.273 116.883 270.713 111.276 266.085C106.457 262.144 100.973 258.825 95.1356 256.578C92.2049 255.419 89.1563 254.618 86.1085 254.054C88.7008 253.5 91.3651 253.159 94.0301 253.057C100.145 252.827 106.217 253.882 111.888 256.106C114.723 257.218 117.417 258.615 120.157 259.918C122.898 261.22 125.663 262.594 128.38 264.063C133.839 267.073 139.038 270.489 143.738 274.548C149.107 279.177 154.001 284.284 158.706 289.534C159.16 290.176 159.519 290.77 159.973 291.412C159.329 291.152 158.519 290.868 157.543 290.799ZM217.267 365.413C218.365 366.315 219.415 367.312 220.441 368.238C221.135 369.356 221.9 370.449 222.712 371.447C224.48 373.633 226.651 375.366 228.75 377.122C228.845 377.17 228.965 377.289 229.06 377.336C225.917 376.725 222.703 376.376 219.537 375.932C214.704 375.254 210.013 374.29 205.344 372.921C200.747 371.529 196.243 369.707 191.859 367.766C187.45 365.753 183.183 363.455 179.177 360.751C175.17 358.046 171.33 355.128 167.442 352.304C160.001 346.942 152.535 341.509 144.17 337.649C139.285 335.4 134.14 333.794 128.829 332.641C125.995 332.006 123.209 331.513 120.305 331.14C119.4 331.047 118.496 330.954 117.52 330.885C119.136 330.262 120.848 329.686 122.536 329.276C126.555 328.242 130.742 327.945 134.907 328.053C138.93 328.21 142.906 328.937 146.859 329.832C150.979 330.75 155.123 331.739 159.149 333.086C163.175 334.432 167.036 336.232 170.968 338.008C175.091 339.878 179.142 341.772 183.265 343.643C191.129 347.194 198.378 351.985 205.532 356.729C209.61 359.409 213.593 362.28 217.267 365.413ZM193.815 307.516C193.207 303.112 192.741 298.66 192.584 294.184C192.452 289.779 192.7 285.326 193.067 280.991C193.777 272.012 195.083 263.15 195.46 254.125C195.815 245.742 195.432 237.289 196.667 228.928C197.39 224.235 198.709 219.66 200.576 215.297C201.402 213.271 202.324 211.292 203.246 209.313C203.301 211.599 203.38 213.957 203.434 216.242C203.592 220.957 203.606 225.719 203.93 230.457C204.601 239.766 205.962 249.001 206.634 258.31C207.28 267.309 207.427 276.477 206.312 285.433C205.198 294.389 202.916 303.182 201.397 312.115C200.929 314.736 200.532 317.333 200.065 319.953C199.668 322.55 199.2 325.17 199.042 327.766C198.974 328.981 198.978 330.171 199.005 331.433C196.126 323.821 194.959 315.633 193.815 307.516ZM168.618 169.638C169.233 168.398 169.847 167.158 170.486 165.99C170.228 167.11 170.017 168.134 169.759 169.254C168.54 175.305 167.488 181.38 166.531 187.503C165.527 193.72 164.689 199.961 163.78 206.226C162.919 212.396 162.057 218.565 161.529 224.782C161.16 228.64 160.886 232.546 160.518 236.405C160.082 234.167 159.6 232.026 159.26 229.836C158.509 225.718 157.806 221.505 157.27 217.316C157.356 214.268 157.584 211.171 157.979 208.099C159.343 194.927 162.753 181.702 168.618 169.638ZM143.926 95.5516C142.962 91.7442 142.355 87.8167 141.843 83.9367C140.748 75.9625 139.89 67.9877 139.342 59.9882C139.091 55.7027 138.816 51.3458 138.184 47.1089C138.086 46.109 137.892 45.0618 137.723 44.0859C137.747 44.1573 137.747 44.1573 137.771 44.2287C139.446 47.3199 141.026 50.3637 142.274 53.5989C144.84 60.0452 146.479 66.8036 147.785 73.5152C150.301 86.891 151.77 100.46 151.979 114.056C151.982 115.247 151.986 116.438 152.014 117.7C150.646 114.107 149.136 110.563 147.792 107.043C146.258 103.189 144.913 99.4304 143.926 95.5516ZM163.483 117.336C166.205 112.686 169.405 108.272 173.201 104.452C177.281 100.298 181.887 96.7617 186.588 93.2728C186.659 93.2488 186.659 93.2488 186.707 93.1535C185.737 95.2277 184.768 97.3019 183.799 99.3761C181.742 103.882 178.994 107.985 175.936 111.874C172.641 116.002 168.63 119.418 164.762 123.024C162.887 124.767 160.988 126.439 159.328 128.348C158.285 129.494 157.432 130.734 156.77 132.07C158.419 126.827 160.808 121.891 163.483 117.336ZM194.668 27.6253C195.805 25.8126 197.061 24.1187 198.531 22.5908C199.836 21.2777 201.212 19.9407 202.399 18.985C203.278 18.2922 204.085 17.6233 204.987 17.0019C205.367 16.7151 205.771 16.4997 206.151 16.213C206.341 16.0696 206.555 15.9976 206.673 15.8783C206.816 15.8303 206.863 15.7349 207.006 15.6869C207.006 15.6869 207.006 15.6869 207.077 15.6629C207.434 15.5429 207.766 15.3515 208.194 15.2075C208.266 15.1835 208.337 15.1595 208.408 15.1355C208.48 15.1115 208.646 15.1349 208.718 15.1109C208.718 15.1109 208.789 15.0869 208.813 15.1583C208.813 15.1583 208.813 15.1583 208.908 15.2057C208.932 15.277 208.932 15.277 208.932 15.277C209.316 16.1809 208.653 17.278 208.085 18.1843C207.422 19.2814 206.615 20.1884 205.857 21.2381C203.487 24.5781 200.999 27.7992 198.414 30.973C195.593 34.3856 192.748 37.7267 189.687 40.9017C188.691 41.9521 187.695 43.0024 186.579 43.934C188.965 38.2843 191.376 32.7059 194.668 27.6253ZM182.952 25.1319C182.847 21.989 182.837 18.8935 183.113 15.7019C183.272 13.3441 183.598 11.0096 184.353 8.76931C184.966 7.05322 186.053 4.38342 188.003 3.80681C188.145 3.75882 188.121 3.68744 188.336 3.85356C188.527 3.94831 188.765 4.18581 188.981 4.59005C189.77 5.75477 190.083 7.15887 190.23 8.53959C190.596 11.5152 190.011 14.4932 189.33 17.4239C188.625 20.5213 187.73 23.524 186.906 26.5027C185.917 29.9342 184.952 33.4371 184.059 36.9161C183.918 37.4403 183.824 37.8692 183.683 38.3934C183.455 33.9411 183.084 29.5368 182.952 25.1319ZM214.62 61.6721C216.148 63.3825 217.393 65.6652 216.638 67.9055C215.955 70.1219 213.863 70.9846 211.865 71.1803C206.464 71.6469 201.743 68.7066 197.783 65.4309C195.063 63.2473 192.438 60.873 190.454 58.0445C189.498 56.6183 188.541 55.1921 187.609 53.8372C188.562 54.0728 189.562 54.2131 190.49 54.3773C193.419 54.8221 196.419 55.2429 199.371 55.759C204.466 56.5076 210.894 57.4433 214.62 61.6721ZM219.532 41.5855C216.801 43.3786 213.949 44.8148 210.787 45.7994C204.035 47.9125 197.041 48.5976 189.996 48.4256C190.067 48.4016 190.139 48.3776 190.139 48.3776C193.323 46.75 196.482 45.0511 199.666 43.4235C205.226 40.5991 211.118 37.3452 217.422 36.4952C219.777 36.1795 222.18 36.0065 224.23 37.1441C223.284 39.0516 221.289 40.4379 219.532 41.5855Z" fill="#F6D2E6"/>
</svg>
